
<svg id="eJ182zYxudS1" xmlns="http://www.w3.org/2000/svg" xmlns:xlink="http://www.w3.org/1999/xlink" viewBox="0 0 1162 793" shape-rendering="geometricPrecision" text-rendering="geometricPrecision"><style><![CDATA[#eJ182zYxudS10_ts {animation: eJ182zYxudS10_ts__ts 2000ms linear 1 normal forwards}@keyframes eJ182zYxudS10_ts__ts { 0% {transform: translate(433.5px,174.0315px) scale(0,0)} 25% {transform: translate(433.5px,174.0315px) scale(1,1)} 100% {transform: translate(433.5px,174.0315px) scale(1,1)}} #eJ182zYxudS14_ts {animation: eJ182zYxudS14_ts__ts 2000ms linear 1 normal forwards}@keyframes eJ182zYxudS14_ts__ts { 0% {transform: translate(799.408509px,192.276219px) scale(0,0)} 25% {transform: translate(799.408509px,192.276219px) scale(0.480847,0.713811)} 100% {transform: translate(799.408509px,192.276219px) scale(0.480847,0.713811)}} #eJ182zYxudS68_ts {animation: eJ182zYxudS68_ts__ts 2000ms linear 1 normal forwards}@keyframes eJ182zYxudS68_ts__ts { 0% {transform: translate(576.65503px,538.031494px) scale(1,1)} 25% {transform: translate(576.65503px,538.031494px) scale(1,1)} 50% {transform: translate(576.65503px,538.031494px) scale(1,1.5)} 100% {transform: translate(576.65503px,538.031494px) scale(1,1.5)}}]]></style><g id="eJ182zYxudS2" clip-path="url(#eJ182zYxudS70)"><g id="eJ182zYxudS3" transform="matrix(1 0 0 1 -18.481127 -0.000061)"><path id="eJ182zYxudS4" d="M565.383,39.6993L564.037,39.6993L564.037,37.3443L565.046,37.3443C565.225,37.3443,565.396,37.2734,565.522,37.1472C565.648,37.021,565.719,36.8499,565.719,36.6714L565.719,24.5597C565.719,24.3813,565.648,24.2101,565.522,24.084C565.396,23.9578,565.225,23.8869,565.046,23.8869L564.037,23.8869L564.037,17.0085C564.037,15.0842,563.658,13.1787,562.921,11.4008C562.185,9.62299,561.106,8.0076,559.745,6.6469C558.384,5.2862,556.769,4.20684,554.991,3.47044C553.213,2.73404,551.308,2.35503,549.383,2.35504L547.888,2.35504L547.888,0.672871C547.888,0.494414,547.817,0.323266,547.691,0.197079C547.565,0.070891,547.393,0,547.215,0L535.103,0C534.925,0,534.754,0.070891,534.628,0.197079C534.501,0.323266,534.43,0.494414,534.43,0.672871L534.43,2.35504L315.598,2.35504C313.674,2.35503,311.768,2.73404,309.991,3.47044C308.213,4.20684,306.597,5.2862,305.237,6.6469C303.876,8.0076,302.797,9.62299,302.06,11.4008C301.324,13.1787,300.945,15.0842,300.945,17.0085L300.945,328.846C300.945,330.771,301.324,332.676,302.06,334.454C302.796,336.232,303.876,337.847,305.237,339.208C306.597,340.569,308.213,341.648,309.991,342.385C311.768,343.121,313.674,343.5,315.598,343.5L549.383,343.5C551.308,343.5,553.213,343.121,554.991,342.385C556.769,341.648,558.384,340.569,559.745,339.208C561.106,337.847,562.185,336.232,562.921,334.454C563.658,332.676,564.037,330.771,564.037,328.846L564.037,53.1567L565.383,53.1567C565.561,53.1567,565.732,53.0858,565.858,52.9596C565.984,52.8334,566.055,52.6623,566.055,52.4838L566.055,40.3722C566.055,40.1937,565.984,40.0226,565.858,39.8964C565.732,39.7702,565.561,39.6993,565.383,39.6993Z" fill="rgb(63,61,86)" stroke="none" stroke-width="1"/><path id="eJ182zYxudS5" d="M553.945,11.94L313.055,11.94L313.055,331.56L553.945,331.56L553.945,11.94Z" transform="matrix(1 0 0 1 -4.229995 2.2815)" fill="rgb(242,242,242)" stroke="none" stroke-width="1"/><path id="eJ182zYxudS6" d="M553.945,11.94L313.055,11.94L313.055,331.56L553.945,331.56L553.945,11.94Z" transform="matrix(1 0 0 1 0 -3.337283)" fill="rgb(242,242,242)" stroke="none" stroke-width="1"/><path id="eJ182zYxudS7" d="M867,106.332L865.51,106.332L865.51,65.5247C865.51,62.4231,864.9,59.3519,863.713,56.4864C862.526,53.6209,860.786,51.0172,858.593,48.824C856.4,46.6308,853.796,44.8911,850.93,43.7042C848.065,42.5173,844.994,41.9064,841.892,41.9064L755.436,41.9064C752.334,41.9064,749.263,42.5173,746.397,43.7042C743.532,44.8911,740.928,46.6308,738.735,48.824C736.542,51.0172,734.802,53.6208,733.615,56.4864C732.428,59.3519,731.817,62.4231,731.817,65.5247L731.817,289.398C731.817,292.5,732.428,295.571,733.615,298.437C734.802,301.302,736.542,303.906,738.735,306.099C740.928,308.292,743.532,310.032,746.397,311.219C749.263,312.406,752.334,313.017,755.436,313.017L841.892,313.017C844.994,313.017,848.065,312.406,850.93,311.219C853.796,310.032,856.4,308.292,858.593,306.099C860.786,303.906,862.526,301.302,863.713,298.437C864.9,295.571,865.51,292.5,865.51,289.398L865.51,135.38L867,135.38L867,106.332Z" fill="rgb(63,61,86)" stroke="none" stroke-width="1"/><g id="eJ182zYxudS8" transform="matrix(1 0 0 1 -0.832009 0)"><path id="eJ182zYxudS9" d="M860.481,66.9128L860.481,290.46C860.482,295.138,858.624,299.625,855.317,302.933C852.01,306.242,847.523,308.101,842.845,308.102L755.972,308.102C751.294,308.101,746.808,306.242,743.5,302.933C740.193,299.625,738.336,295.138,738.336,290.46L738.336,66.9128C738.337,62.2358,740.195,57.7505,743.502,54.4434C746.809,51.1362,751.295,49.2781,755.972,49.2776L766.511,49.2776C765.993,50.5499,765.795,51.9302,765.935,53.297C766.076,54.6638,766.55,55.9751,767.317,57.1153C768.083,58.2556,769.119,59.1898,770.331,59.8358C771.544,60.4817,772.897,60.8195,774.271,60.8194L823.801,60.8194C825.175,60.8195,826.528,60.4817,827.741,59.8358C828.953,59.1898,829.989,58.2556,830.755,57.1153C831.522,55.9751,831.996,54.6638,832.137,53.297C832.277,51.9302,832.079,50.5499,831.56,49.2776L842.845,49.2776C847.522,49.2781,852.008,51.1362,855.315,54.4434C858.622,57.7505,860.48,62.2358,860.481,66.9128L860.481,66.9128Z" transform="matrix(1 0 0 1 0 0.3465)" fill="rgb(242,242,242)" stroke="none" stroke-width="1"/><g id="eJ182zYxudS10_ts" transform="translate(433.5,174.0315) scale(0,0)"><g id="eJ182zYxudS10" transform="translate(-433.5,-176.146492)"><path id="eJ182zYxudS11" d="M375.864,197.895C389.043,197.895,399.727,187.211,399.727,174.031C399.727,160.852,389.043,150.168,375.864,150.168C362.684,150.168,352,160.852,352,174.031C352,187.211,362.684,197.895,375.864,197.895Z" transform="matrix(1 0 0 1 0 2.114997)" fill="rgb(115,85,225)" stroke="none" stroke-width="1"/><path id="eJ182zYxudS12" d="M439.5,193.531C450.27,193.531,459,184.801,459,174.031C459,163.262,450.27,154.531,439.5,154.531C428.73,154.531,420,163.262,420,174.031C420,184.801,428.73,193.531,439.5,193.531Z" transform="matrix(1 0 0 1 1.123994 1.948995)" fill="rgb(83,57,180)" stroke="none" stroke-width="1"/><path id="eJ182zYxudS13" d="M503.136,185.895C509.688,185.895,515,180.584,515,174.031C515,167.479,509.688,162.168,503.136,162.168C496.584,162.168,491.273,167.479,491.273,174.031C491.273,180.584,496.584,185.895,503.136,185.895Z" fill="rgb(121,92,225)" stroke="none" stroke-width="1"/></g></g><g id="eJ182zYxudS14_ts" transform="translate(799.408509,192.276219) scale(0,0)"><g id="eJ182zYxudS14" transform="translate(-433.5,-176.146492)"><path id="eJ182zYxudS15" d="M375.864,197.895C389.043,197.895,399.727,187.211,399.727,174.031C399.727,160.852,389.043,150.168,375.864,150.168C362.684,150.168,352,160.852,352,174.031C352,187.211,362.684,197.895,375.864,197.895Z" transform="matrix(1 0 0 1 0 2.114997)" fill="rgb(115,85,225)" stroke="none" stroke-width="1"/><path id="eJ182zYxudS16" d="M439.5,193.531C450.27,193.531,459,184.801,459,174.031C459,163.262,450.27,154.531,439.5,154.531C428.73,154.531,420,163.262,420,174.031C420,184.801,428.73,193.531,439.5,193.531Z" transform="matrix(1 0 0 1 1.123994 3.535589)" fill="rgb(83,57,180)" stroke="none" stroke-width="1"/><path id="eJ182zYxudS17" d="M503.136,185.895C509.688,185.895,515,180.584,515,174.031C515,167.479,509.688,162.168,503.136,162.168C496.584,162.168,491.273,167.479,491.273,174.031C491.273,180.584,496.584,185.895,503.136,185.895Z" fill="rgb(121,92,225)" stroke="none" stroke-width="1"/></g></g><path id="eJ182zYxudS18" d="M583,594.031C613.928,594.031,639,568.959,639,538.031C639,507.104,613.928,482.031,583,482.031C552.072,482.031,527,507.104,527,538.031C527,568.959,552.072,594.031,583,594.031Z" fill="rgb(239,101,132)" stroke="none" stroke-width="1"/></g><path id="eJ182zYxudS19" d="M847.744,79L774.348,79L774.348,81.7273L847.744,81.7273L847.744,79Z" fill="rgb(204,204,204)" stroke="none" stroke-width="1"/><path id="eJ182zYxudS20" d="M847.744,87.6364L774.348,87.6364L774.348,90.3636L847.744,90.3636L847.744,87.6364Z" fill="rgb(204,204,204)" stroke="none" stroke-width="1"/><path id="eJ182zYxudS21" d="M847.744,96.2727L774.348,96.2727L774.348,99L847.744,99L847.744,96.2727Z" fill="rgb(204,204,204)" stroke="none" stroke-width="1"/><path id="eJ182zYxudS22" d="M767.702,80.6855L751.073,80.6855L751.073,97.3145L767.702,97.3145L767.702,80.6855Z" fill="rgb(204,204,204)" stroke="none" stroke-width="1"/><path id="eJ182zYxudS23" d="M847.744,273L774.348,273L774.348,275.727L847.744,275.727L847.744,273Z" fill="rgb(204,204,204)" stroke="none" stroke-width="1"/><path id="eJ182zYxudS24" d="M847.744,281.636L774.348,281.636L774.348,284.364L847.744,284.364L847.744,281.636Z" fill="rgb(204,204,204)" stroke="none" stroke-width="1"/><path id="eJ182zYxudS25" d="M847.744,290.273L774.348,290.273L774.348,293L847.744,293L847.744,290.273Z" fill="rgb(204,204,204)" stroke="none" stroke-width="1"/><path id="eJ182zYxudS26" d="M767.702,274.685L751.073,274.685L751.073,291.314L767.702,291.314L767.702,274.685Z" fill="rgb(204,204,204)" stroke="none" stroke-width="1"/><path id="eJ182zYxudS27" d="M839.908,380.568L631.186,380.568L631.186,376.266L536.544,376.266L536.544,380.568L326.962,380.568C325.108,380.568,323.272,380.933,321.559,381.643C319.846,382.352,318.29,383.392,316.979,384.703C315.668,386.014,314.628,387.571,313.919,389.284C313.209,390.996,312.844,392.832,312.844,394.686L312.844,680.49C312.844,684.235,314.331,687.826,316.979,690.473C319.627,693.121,323.218,694.609,326.962,694.609L839.908,694.609C843.652,694.609,847.243,693.121,849.891,690.473C852.539,687.826,854.026,684.235,854.026,680.49L854.026,394.686C854.026,392.832,853.661,390.996,852.951,389.284C852.242,387.571,851.202,386.014,849.891,384.703C848.58,383.392,847.023,382.352,845.311,381.643C843.598,380.933,841.762,380.568,839.908,380.568L839.908,380.568Z" fill="rgb(63,61,86)" stroke="none" stroke-width="1"/><path id="eJ182zYxudS28" d="M835.098,405.519L331.772,405.519L331.772,689.446L835.098,689.446L835.098,405.519Z" transform="matrix(1 0 0 1 -2.114997 0)" fill="rgb(242,242,242)" stroke="none" stroke-width="1"/><path id="eJ182zYxudS29" d="M583.005,397.776C585.856,397.776,588.167,395.464,588.167,392.613C588.167,389.762,585.856,387.451,583.005,387.451C580.154,387.451,577.843,389.762,577.843,392.613C577.843,395.464,580.154,397.776,583.005,397.776Z" fill="rgb(61,158,103)" stroke="none" stroke-width="1"/><path id="eJ182zYxudS30" d="M868.158,684.284L819.037,684.284L819.037,680.745C819.037,680.653,819.019,680.561,818.984,680.476C818.948,680.391,818.897,680.314,818.832,680.249C818.766,680.183,818.689,680.132,818.604,680.096C818.519,680.061,818.427,680.043,818.335,680.043L801.494,680.043C801.402,680.043,801.31,680.061,801.225,680.096C801.14,680.132,801.063,680.183,800.998,680.249C800.932,680.314,800.881,680.391,800.845,680.476C800.81,680.561,800.792,680.653,800.792,680.745L800.792,684.284L790.266,684.284L790.266,680.745C790.266,680.653,790.248,680.561,790.213,680.476C790.177,680.391,790.126,680.314,790.061,680.249C789.995,680.183,789.918,680.132,789.833,680.096C789.748,680.061,789.656,680.043,789.564,680.043L772.723,680.043C772.631,680.043,772.539,680.061,772.454,680.096C772.369,680.132,772.292,680.183,772.227,680.249C772.161,680.314,772.11,680.391,772.074,680.476C772.039,680.561,772.021,680.653,772.021,680.745L772.021,684.284L761.495,684.284L761.495,680.745C761.495,680.653,761.477,680.561,761.442,680.476C761.406,680.391,761.355,680.314,761.289,680.249C761.224,680.183,761.147,680.132,761.062,680.096C760.977,680.061,760.885,680.043,760.793,680.043L743.952,680.043C743.86,680.043,743.768,680.061,743.683,680.096C743.598,680.132,743.521,680.183,743.455,680.249C743.39,680.314,743.339,680.391,743.303,680.476C743.268,680.561,743.25,680.653,743.25,680.745L743.25,684.284L732.724,684.284L732.724,680.745C732.724,680.653,732.706,680.561,732.671,680.476C732.635,680.391,732.584,680.314,732.518,680.249C732.453,680.183,732.376,680.132,732.291,680.096C732.206,680.061,732.114,680.043,732.022,680.043L715.181,680.043C715.089,680.043,714.997,680.061,714.912,680.096C714.827,680.132,714.75,680.183,714.684,680.249C714.619,680.314,714.568,680.391,714.532,680.476C714.497,680.561,714.479,680.653,714.479,680.745L714.479,684.284L703.953,684.284L703.953,680.745C703.953,680.653,703.935,680.561,703.9,680.476C703.864,680.391,703.813,680.314,703.747,680.249C703.682,680.183,703.605,680.132,703.52,680.096C703.435,680.061,703.343,680.043,703.251,680.043L686.41,680.043C686.317,680.043,686.226,680.061,686.141,680.096C686.056,680.132,685.979,680.183,685.913,680.249C685.848,680.314,685.797,680.391,685.761,680.476C685.726,680.561,685.708,680.653,685.708,680.745L685.708,684.284L675.182,684.284L675.182,680.745C675.182,680.653,675.164,680.561,675.129,680.476C675.093,680.391,675.042,680.314,674.976,680.249C674.911,680.183,674.834,680.132,674.749,680.096C674.664,680.061,674.572,680.043,674.48,680.043L657.639,680.043C657.546,680.043,657.455,680.061,657.37,680.096C657.285,680.132,657.208,680.183,657.142,680.249C657.077,680.314,657.026,680.391,656.99,680.476C656.955,680.561,656.937,680.653,656.937,680.745L656.937,684.284L646.411,684.284L646.411,680.745C646.411,680.653,646.393,680.561,646.357,680.476C646.322,680.391,646.271,680.314,646.205,680.249C646.14,680.183,646.063,680.132,645.978,680.096C645.893,680.061,645.801,680.043,645.709,680.043L513.783,680.043C513.691,680.043,513.6,680.061,513.515,680.096C513.43,680.132,513.352,680.183,513.287,680.249C513.222,680.314,513.17,680.391,513.135,680.476C513.1,680.561,513.082,680.653,513.082,680.745L513.082,684.284L502.556,684.284L502.556,680.745C502.556,680.653,502.538,680.561,502.502,680.476C502.467,680.391,502.415,680.314,502.35,680.249C502.285,680.183,502.208,680.132,502.123,680.096C502.037,680.061,501.946,680.043,501.854,680.043L485.012,680.043C484.92,680.043,484.829,680.061,484.744,680.096C484.659,680.132,484.581,680.183,484.516,680.249C484.451,680.314,484.399,680.391,484.364,680.476C484.329,680.561,484.311,680.653,484.311,680.745L484.311,684.284L473.785,684.284L473.785,680.745C473.785,680.653,473.766,680.561,473.731,680.476C473.696,680.391,473.644,680.314,473.579,680.249C473.514,680.183,473.437,680.132,473.351,680.096C473.266,680.061,473.175,680.043,473.083,680.043L456.241,680.043C456.149,680.043,456.058,680.061,455.973,680.096C455.888,680.132,455.81,680.183,455.745,680.249C455.68,680.314,455.628,680.391,455.593,680.476C455.558,680.561,455.54,680.653,455.54,680.745L455.54,684.284L445.014,684.284L445.014,680.745C445.014,680.653,444.995,680.561,444.96,680.476C444.925,680.391,444.873,680.314,444.808,680.249C444.743,680.183,444.666,680.132,444.58,680.096C444.495,680.061,444.404,680.043,444.312,680.043L427.47,680.043C427.378,680.043,427.287,680.061,427.202,680.096C427.117,680.132,427.039,680.183,426.974,680.249C426.909,680.314,426.857,680.391,426.822,680.476C426.787,680.561,426.769,680.653,426.769,680.745L426.769,684.284L416.243,684.284L416.243,680.745C416.243,680.653,416.224,680.561,416.189,680.476C416.154,680.391,416.102,680.314,416.037,680.249C415.972,680.183,415.895,680.132,415.809,680.096C415.724,680.061,415.633,680.043,415.541,680.043L398.699,680.043C398.607,680.043,398.516,680.061,398.431,680.096C398.346,680.132,398.268,680.183,398.203,680.249C398.138,680.314,398.086,680.391,398.051,680.476C398.016,680.561,397.998,680.653,397.998,680.745L397.998,684.284L387.472,684.284L387.472,680.745C387.472,680.653,387.453,680.561,387.418,680.476C387.383,680.391,387.331,680.314,387.266,680.249C387.201,680.183,387.124,680.132,387.038,680.096C386.953,680.061,386.862,680.043,386.77,680.043L369.928,680.043C369.836,680.043,369.745,680.061,369.66,680.096C369.575,680.132,369.497,680.183,369.432,680.249C369.367,680.314,369.315,680.391,369.28,680.476C369.245,680.561,369.227,680.653,369.227,680.745L369.227,684.284L358.701,684.284L358.701,680.745C358.701,680.653,358.682,680.561,358.647,680.476C358.612,680.391,358.56,680.314,358.495,680.249C358.43,680.183,358.352,680.132,358.267,680.096C358.182,680.061,358.091,680.043,357.999,680.043L341.157,680.043C341.065,680.043,340.974,680.061,340.889,680.096C340.804,680.132,340.726,680.183,340.661,680.249C340.596,680.314,340.544,680.391,340.509,680.476C340.474,680.561,340.455,680.653,340.455,680.745L340.455,684.284L308.176,684.284C303.709,684.284,299.425,686.058,296.267,689.217C293.109,692.375,291.334,696.659,291.334,701.126L291.334,708.741C291.334,713.208,293.109,717.491,296.267,720.65C299.425,723.808,303.709,725.582,308.176,725.582L868.158,725.582C872.625,725.582,876.909,723.808,880.067,720.65C883.226,717.491,885,713.208,885,708.741L885,701.126C885,698.914,884.564,696.724,883.718,694.681C882.872,692.637,881.631,690.781,880.067,689.217C878.503,687.653,876.647,686.412,874.603,685.566C872.56,684.72,870.37,684.284,868.158,684.284L868.158,684.284Z" fill="rgb(63,61,86)" stroke="none" stroke-width="1"/><path id="eJ182zYxudS31" d="M676.029,427.757L534.788,427.757L534.788,433.005L676.029,433.005L676.029,427.757Z" fill="rgb(230,230,230)" stroke="none" stroke-width="1"/><path id="eJ182zYxudS32" d="M676.029,444.376L534.788,444.376L534.788,449.624L676.029,449.624L676.029,444.376Z" fill="rgb(230,230,230)" stroke="none" stroke-width="1"/><path id="eJ182zYxudS33" d="M676.029,460.995L534.788,460.995L534.788,466.243L676.029,466.243L676.029,460.995Z" fill="rgb(230,230,230)" stroke="none" stroke-width="1"/><path id="eJ182zYxudS34" d="M676.029,427.757L534.788,427.757L534.788,433.005L676.029,433.005L676.029,427.757Z" fill="rgb(204,204,204)" stroke="none" stroke-width="1"/><path id="eJ182zYxudS35" d="M676.029,444.376L534.788,444.376L534.788,449.624L676.029,449.624L676.029,444.376Z" fill="rgb(204,204,204)" stroke="none" stroke-width="1"/><path id="eJ182zYxudS36" d="M676.029,460.995L534.788,460.995L534.788,466.243L676.029,466.243L676.029,460.995Z" fill="rgb(204,204,204)" stroke="none" stroke-width="1"/><path id="eJ182zYxudS37" d="M522,431L490,431L490,463L522,463L522,431Z" fill="rgb(204,204,204)" stroke="none" stroke-width="1"/><path id="eJ182zYxudS38" d="M676.029,614.756L534.788,614.756L534.788,620.005L676.029,620.005L676.029,614.756Z" fill="rgb(204,204,204)" stroke="none" stroke-width="1"/><path id="eJ182zYxudS39" d="M676.029,631.376L534.788,631.376L534.788,636.624L676.029,636.624L676.029,631.376Z" fill="rgb(204,204,204)" stroke="none" stroke-width="1"/><path id="eJ182zYxudS40" d="M676.029,647.995L534.788,647.995L534.788,653.244L676.029,653.244L676.029,647.995Z" fill="rgb(204,204,204)" stroke="none" stroke-width="1"/><path id="eJ182zYxudS41" d="M522,618L490,618L490,650L522,650L522,618Z" fill="rgb(204,204,204)" stroke="none" stroke-width="1"/><path id="eJ182zYxudS42" d="M526.514,27.7565L385.274,27.7565L385.274,33.0047L526.514,33.0047L526.514,27.7565Z" fill="rgb(204,204,204)" stroke="none" stroke-width="1"/><path id="eJ182zYxudS43" d="M526.514,44.3759L385.274,44.3759L385.274,49.6241L526.514,49.6241L526.514,44.3759Z" fill="rgb(204,204,204)" stroke="none" stroke-width="1"/><path id="eJ182zYxudS44" d="M526.514,60.9952L385.274,60.9952L385.274,66.2435L526.514,66.2435L526.514,60.9952Z" fill="rgb(204,204,204)" stroke="none" stroke-width="1"/><path id="eJ182zYxudS45" d="M372.486,31L340.486,31L340.486,63L372.486,63L372.486,31Z" fill="rgb(204,204,204)" stroke="none" stroke-width="1"/><path id="eJ182zYxudS46" d="M526.029,276.756L384.788,276.756L384.788,282.005L526.029,282.005L526.029,276.756Z" fill="rgb(204,204,204)" stroke="none" stroke-width="1"/><path id="eJ182zYxudS47" d="M526.029,293.376L384.788,293.376L384.788,298.624L526.029,298.624L526.029,293.376Z" fill="rgb(204,204,204)" stroke="none" stroke-width="1"/><path id="eJ182zYxudS48" d="M526.029,309.995L384.788,309.995L384.788,315.243L526.029,315.243L526.029,309.995Z" fill="rgb(204,204,204)" stroke="none" stroke-width="1"/><path id="eJ182zYxudS49" d="M372,280L340,280L340,312L372,312L372,280Z" fill="rgb(204,204,204)" stroke="none" stroke-width="1"/><path id="eJ182zYxudS50" d="M966.532,327.922L998.426,281.616C998.426,281.616,1026.2,259.347,1018.24,255.011C1010.28,250.675,989.439,271.003,989.439,271.003C989.439,271.003,929.314,317.097,939.229,323.53C949.143,329.963,966.532,327.922,966.532,327.922Z" fill="rgb(255,184,184)" stroke="none" stroke-width="1"/><path id="eJ182zYxudS51" d="M971.167,267.112L1012.47,267.112C1015.29,250.817,1015.29,234.159,1012.47,217.865L971.167,217.865C975.82,233.951,975.82,251.026,971.167,267.112L971.167,267.112Z" fill="rgb(235,235,235)" stroke="none" stroke-width="1"/><path id="eJ182zYxudS52" d="M1078.55,269.461C1066.14,248.488,1041.58,247.511,1041.58,247.511C1041.58,247.511,1017.65,244.451,1002.3,276.393C987.996,306.165,968.249,334.911,999.125,341.881L1004.7,324.523L1008.16,343.173C1012.55,343.489,1016.96,343.565,1021.37,343.399C1054.43,342.331,1085.92,343.711,1084.91,331.846C1083.56,316.073,1090.5,289.641,1078.55,269.461Z" fill="rgb(47,46,65)" stroke="none" stroke-width="1"/><path id="eJ182zYxudS53" d="M1012.56,398.741L996.657,435.311L1052.31,444.057C1052.31,444.057,1078.54,408.281,1080.93,405.896L1012.56,398.741Z" fill="rgb(255,184,184)" stroke="none" stroke-width="1"/><path id="eJ182zYxudS54" d="M1038.79,319.24C1055.04,319.24,1068.21,306.07,1068.21,289.825C1068.21,273.579,1055.04,260.409,1038.79,260.409C1022.55,260.409,1009.38,273.579,1009.38,289.825C1009.38,306.07,1022.55,319.24,1038.79,319.24Z" fill="rgb(255,184,184)" stroke="none" stroke-width="1"/><path id="eJ182zYxudS55" d="M1031.64,311.29C1031.64,311.29,1045.15,341.5,1043.56,344.68C1041.97,347.86,1072.18,327.985,1072.18,327.985C1072.18,327.985,1059.46,306.52,1060.26,303.34L1031.64,311.29Z" fill="rgb(255,184,184)" stroke="none" stroke-width="1"/><path id="eJ182zYxudS56" d="M1076.16,324.01C1076.16,324.01,1100.01,310.495,1113.52,347.86C1113.52,347.86,1158.04,400.331,1150.09,409.871C1142.14,419.411,1111.93,386.816,1111.93,386.816L1092.85,366.941C1092.85,366.941,1065.82,359.786,1068.21,344.68C1070.59,329.575,1076.16,324.01,1076.16,324.01Z" fill="rgb(255,184,184)" stroke="none" stroke-width="1"/><path id="eJ182zYxudS57" d="M1020.51,342.295L964.856,326.395C964.856,326.395,935.441,314.47,936.236,321.625C937.031,328.78,990.297,369.326,1007.79,366.941C1025.28,364.556,1020.51,342.295,1020.51,342.295Z" fill="rgb(255,184,184)" stroke="none" stroke-width="1"/><path id="eJ182zYxudS58" d="M1052.31,336.73C1052.31,336.73,1034.02,334.345,1030.05,338.32C1026.07,342.295,1018.52,338.718,1018.52,338.718L1005.8,361.773C1005.8,361.773,996.657,374.891,1003.81,387.611C1010.97,400.331,1000.63,417.026,1000.63,417.026C1000.63,417.026,1057.87,417.026,1069.8,423.386C1081.72,429.746,1096.1,370.318,1096.1,370.318C1096.1,370.318,1081.33,352.233,1085.3,341.103C1089.28,329.973,1086.89,321.228,1086.89,321.228L1069.4,322.818L1052.31,336.73Z" fill="rgb(208,205,225)" stroke="none" stroke-width="1"/><path id="eJ182zYxudS59" d="M983.936,688.124L990.297,749.34L1014.94,736.62L1006.99,683.354L983.936,688.124Z" fill="rgb(255,184,184)" stroke="none" stroke-width="1"/><path id="eJ182zYxudS60" d="M1076.95,687.329L1097.65,742.67L1117.52,728.36L1092.85,674.609L1076.95,687.329Z" fill="rgb(255,184,184)" stroke="none" stroke-width="1"/><path id="eJ182zYxudS61" d="M1014.94,715.95C1013.69,720.429,1011.82,724.711,1009.38,728.67C1005.4,735.03,995.862,731.85,995.862,731.85C995.862,731.85,984.731,723.105,982.346,727.08C979.961,731.055,967.241,750.93,967.241,750.93C967.241,750.93,925.106,785.91,960.881,791.475C996.657,797.041,1003.81,770.805,1003.81,770.805C1003.81,770.805,1030.84,761.265,1031.64,751.725C1032.43,742.185,1014.94,715.95,1014.94,715.95Z" fill="rgb(47,46,65)" stroke="none" stroke-width="1"/><path id="eJ182zYxudS62" d="M1098.42,727.54C1098.42,727.54,1085.7,723.565,1086.49,729.925C1087.29,736.285,1092.06,761.725,1092.06,761.725C1092.06,761.725,1083.31,797.5,1107.96,791.14C1132.6,784.78,1133.4,750.595,1133.4,750.595C1133.4,750.595,1146.12,705.279,1136.58,704.484C1127.04,703.689,1103.98,701.304,1103.98,701.304C1103.98,701.304,1118.29,724.36,1098.42,727.54Z" fill="rgb(47,46,65)" stroke="none" stroke-width="1"/><path id="eJ182zYxudS63" d="M1073.06,267.439L1048.8,254.731L1015.3,259.93L1008.37,290.545L1025.62,289.881L1030.44,278.634L1030.44,289.696L1038.41,289.389L1043.03,271.483L1045.92,290.545L1074.22,289.967L1073.06,267.439Z" fill="rgb(47,46,65)" stroke="none" stroke-width="1"/><path id="eJ182zYxudS64" d="M1061.05,441.672L994.272,426.566C994.272,426.566,960.881,483.807,956.111,531.508C951.341,579.208,929.876,693.689,964.061,695.279C998.247,696.869,1018.12,696.869,1019.71,693.689C1021.3,690.509,1003.02,564.898,1003.02,564.898C1003.02,564.898,1041.97,719.13,1063.44,708.795C1084.9,698.459,1108.75,684.944,1107.96,676.994C1107.16,669.044,1055.49,584.773,1055.49,584.773L1062.64,511.632C1062.64,511.632,1071.39,482.217,1056.28,455.187L1061.05,441.672Z" transform="matrix(1 0 0 1 0 -2.114998)" fill="rgb(106,209,153)" stroke="none" stroke-width="1"/><path id="eJ182zYxudS65" d="M1012.92,421.797L1054.23,421.797C1057.05,405.502,1057.05,388.845,1054.23,372.55L1012.92,372.55C1017.58,388.636,1017.58,405.711,1012.92,421.797Z" fill="rgb(101,200,239)" stroke="none" stroke-width="1"/><path id="eJ182zYxudS66" d="M1133.4,386.021L1063.44,384.431C1063.44,384.431,1032.43,360.581,1031.64,374.891C1030.84,389.201,1064.23,397.151,1064.23,397.151C1064.23,397.151,1136.01,422.909,1147.03,411.62L1133.4,386.021Z" fill="rgb(255,184,184)" stroke="none" stroke-width="1"/><path id="eJ182zYxudS67" d="M603.834,550.347L582.946,508.159L562.166,550.401L573.908,550.386L573.908,567.904L592.083,567.904L592.083,550.362L603.834,550.347Z" transform="matrix(1 0 0 1 -6.344992 0)" fill="rgb(100,202,156)" stroke="none" stroke-width="1"/><g id="eJ182zYxudS68_ts" transform="translate(576.65503,538.031494) scale(1,1)"><g id="eJ182zYxudS68" transform="translate(-576.655029,-538.031494)"><path id="eJ182zYxudS69" d="M603.834,550.347L582.946,508.159L562.166,550.401L573.908,550.386L573.908,567.904L592.083,567.904L592.083,550.362L603.834,550.347Z" transform="matrix(1 0 0 1 -6.344992 0)" fill="rgb(100,202,156)" stroke="none" stroke-width="1"/></g></g></g><clipPath id="eJ182zYxudS70"><rect id="eJ182zYxudS71" width="1161.52" height="792.25" rx="0" ry="0" fill="rgb(255,255,255)" stroke="none" stroke-width="1"/></clipPath></g></svg>
