<svg id="eH25ULzeRn31" xmlns="http://www.w3.org/2000/svg" xmlns:xlink="http://www.w3.org/1999/xlink" viewBox="0 0 1057.7 784.98" shape-rendering="geometricPrecision" text-rendering="geometricPrecision"><style><![CDATA[#eH25ULzeRn342_tr {animation: eH25ULzeRn342_tr__tr 1515.151515151515ms linear infinite normal forwards}@keyframes eH25ULzeRn342_tr__tr { 0% {transform: translate(676.265656px,616.31839px) rotate(360deg)} 100% {transform: translate(676.265656px,616.31839px) rotate(720deg)}} #eH25ULzeRn345_tr {animation: eH25ULzeRn345_tr__tr 1515.151515151515ms linear infinite normal forwards}@keyframes eH25ULzeRn345_tr__tr { 0% {transform: translate(247.93195px,617.777694px) rotate(360deg)} 100% {transform: translate(247.93195px,617.777694px) rotate(720deg)}}]]></style><defs><linearGradient id="eH25ULzeRn341-fill" x1="534.38" y1="800.56" x2="534.38" y2="118" spreadMethod="pad" gradientUnits="userSpaceOnUse" gradientTransform="matrix(1 0 0 1 0 0)"><stop id="eH25ULzeRn341-fill-0" offset="0%" stop-color="rgba(128,128,128,0.25)"/><stop id="eH25ULzeRn341-fill-1" offset="54%" stop-color="rgba(128,128,128,0.12)"/><stop id="eH25ULzeRn341-fill-2" offset="100%" stop-color="rgba(128,128,128,0.1)"/></linearGradient></defs><path id="eH25ULzeRn32" d="M280.88,172.94C275.4,179.59,273.29,188.94,270.93,197.73C251.93,268.57,205.11,325.55,151.79,366.25C129.21,383.49,101.72,406.61,106.66,437.52C109.32,454.12,120.99,466.34,129.66,479.86C147.85,508.17,153.75,546.65,145.08,580.54C135.22,619.1,107.66,655.08,116.19,694.07C121.45,718.07,139.31,735.15,156.48,749.83Q196.66,784.16,239.4,814.15C258.5,827.55,278.82,840.59,301.08,842.29C320.68,843.79,339.88,836.34,358.49,828.99C374.75,822.56,391.42,815.87,404.55,802.99C413.12,794.58,419.95,783.73,429.47,776.85C451.83,760.69,480.55,770.93,506.19,777.85C566.69,794.09,631.44,788.16,689.01,761.11C777.32,719.61,844.63,632.46,931.01,585.7C968.15,565.59,1008.55,553.11,1042.94,527.21C1062.31479,512.463359,1078.964981,494.445957,1092.14,473.97C1118.14,433.86,1132.2,382.72,1128.14,332.66C1124.08,282.6,1101.33,234.36,1065.6,206.1C1027.35,175.85,979.04,170.2,935.52,152.04C890.58,133.28,850.6,101.04,806.09,80.91C733.143117,48.010919,649.227931,49.882073,577.82,86C529.38,110.5,480.28,167.66,426.33,172C387.89,175,310.9,136.52,280.88,172.94Z" transform="matrix(1 0 0 1 -71.528918 -59.860211)" opacity="0.16" fill="rgb(61,158,103)" stroke="none" stroke-width="1"/><path id="eH25ULzeRn33" d="M913.25,505.83C913.25,505.83,930.75,540.18,916.49,558.97C902.23,577.76,917.79,628.97,917.79,628.97" transform="matrix(1 0 0 1 -71.15 -57.51)" fill="none" stroke="rgb(239,101,132)" stroke-width="1" stroke-miterlimit="10"/><path id="eH25ULzeRn34" d="M918.43,495.14C918.43,501.76,913.57,507.14,913.57,507.14C913.57,507.14,908.71,501.77,908.71,495.14C908.71,488.51,913.57,483.14,913.57,483.14C913.57,483.14,918.43,488.52,918.43,495.14Z" transform="matrix(1 0 0 1 -71.15 -57.51)" fill="rgb(136,138,239)" stroke="none" stroke-width="1"/><path id="eH25ULzeRn35" d="M922.32,505.83C922.32,505.83,904.82,540.18,919.08,558.97C933.34,577.76,917.78,628.97,917.78,628.97" transform="matrix(1 0 0 1 -71.15 -57.51)" fill="none" stroke="rgb(239,101,132)" stroke-width="1" stroke-miterlimit="10"/><path id="eH25ULzeRn36" d="M917.14,495.14C917.14,501.76,922,507.14,922,507.14C922,507.14,926.86,501.77,926.86,495.14C926.86,488.51,922,483.14,922,483.14C922,483.14,917.14,488.52,917.14,495.14Z" transform="matrix(1 0 0 1 -71.15 -57.51)" fill="rgb(239,101,132)" stroke="none" stroke-width="1"/><path id="eH25ULzeRn37" d="M917.14,495.14C917.14,501.76,922,507.14,922,507.14C922,507.14,926.86,501.77,926.86,495.14C926.86,488.51,922,483.14,922,483.14C922,483.14,917.14,488.52,917.14,495.14Z" transform="matrix(1 0 0 1 -71.15 -57.51)" opacity="0.1" fill="rgb(0,0,0)" stroke="none" stroke-width="1"/><path id="eH25ULzeRn38" d="M929.45,505.83C929.45,505.83,946.95,540.18,932.69,558.97C918.43,577.76,933.99,628.97,933.99,628.97" transform="matrix(1 0 0 1 -71.15 -57.51)" fill="none" stroke="rgb(239,101,132)" stroke-width="1" stroke-miterlimit="10"/><path id="eH25ULzeRn39" d="M934.63,495.14C934.63,501.76,929.77,507.14,929.77,507.14C929.77,507.14,924.91,501.77,924.91,495.14C924.91,488.51,929.77,483.14,929.77,483.14C929.77,483.14,934.63,488.52,934.63,495.14Z" transform="matrix(1 0 0 1 -71.15 -57.51)" fill="rgb(136,138,239)" stroke="none" stroke-width="1"/><path id="eH25ULzeRn310" d="M931.91,522.66C927.32,527.43,920.09,527.93,920.09,527.93C920.09,527.93,920.31,520.69,924.9,515.93C929.49,511.17,936.72,510.66,936.72,510.66C936.72,510.66,936.5,517.89,931.91,522.66Z" transform="matrix(1 0 0 1 -71.15 -57.51)" fill="rgb(239,101,132)" stroke="none" stroke-width="1"/><path id="eH25ULzeRn311" d="M932.37,546.36C927.78,551.13,920.55,551.63,920.55,551.63C920.55,551.63,920.77,544.39,925.36,539.63C929.95,534.87,937.18,534.36,937.18,534.36C937.18,534.36,937,541.58,932.37,546.36Z" transform="matrix(1 0 0 1 -71.15 -57.51)" fill="rgb(136,138,239)" stroke="none" stroke-width="1"/><path id="eH25ULzeRn312" d="M907.47,559.39C911.81,564.39,911.66,571.63,911.66,571.63C911.66,571.63,904.47,570.76,900.13,565.76C895.79,560.76,895.94,553.52,895.94,553.52C895.94,553.52,903.13,554.39,907.47,559.39Z" transform="matrix(1 0 0 1 -71.15 -57.51)" fill="rgb(136,138,239)" stroke="none" stroke-width="1"/><path id="eH25ULzeRn313" d="M911.5,508.86C917.02,512.52,918.81,519.54,918.81,519.54C918.81,519.54,911.65,520.63,906.13,516.97C900.61,513.31,898.82,506.29,898.82,506.29C898.82,506.29,906,505.2,911.5,508.86Z" transform="matrix(1 0 0 1 -71.15 -57.51)" fill="rgb(239,101,132)" stroke="none" stroke-width="1"/><path id="eH25ULzeRn314" d="M911.5,508.86C917.02,512.52,918.81,519.54,918.81,519.54C918.81,519.54,911.65,520.63,906.13,516.97C900.61,513.31,898.82,506.29,898.82,506.29C898.82,506.29,906,505.2,911.5,508.86Z" transform="matrix(1 0 0 1 -71.15 -57.51)" opacity="0.1" fill="rgb(0,0,0)" stroke="none" stroke-width="1"/><path id="eH25ULzeRn315" d="M938.52,505.83C938.52,505.83,921,540.18,935.28,559C949.56,577.82,933.98,629,933.98,629" transform="matrix(1 0 0 1 -71.15 -57.51)" fill="none" stroke="rgb(239,101,132)" stroke-width="1" stroke-miterlimit="10"/><path id="eH25ULzeRn316" d="M933.34,495.14C933.34,501.76,938.2,507.14,938.2,507.14C938.2,507.14,943.06,501.77,943.06,495.14C943.06,488.51,938.2,483.14,938.2,483.14C938.2,483.14,933.34,488.52,933.34,495.14Z" transform="matrix(1 0 0 1 -71.15 -57.51)" fill="rgb(239,101,132)" stroke="none" stroke-width="1"/><path id="eH25ULzeRn317" d="M933.34,495.14C933.34,501.76,938.2,507.14,938.2,507.14C938.2,507.14,943.06,501.77,943.06,495.14C943.06,488.51,938.2,483.14,938.2,483.14C938.2,483.14,933.34,488.52,933.34,495.14Z" transform="matrix(1 0 0 1 -71.15 -57.51)" opacity="0.1" fill="rgb(0,0,0)" stroke="none" stroke-width="1"/><path id="eH25ULzeRn318" d="M934.74,523.17C930.09,527.89,929.74,535.17,929.74,535.17C929.74,535.17,936.97,534.76,941.62,530.04C946.27,525.32,946.62,518.04,946.62,518.04C946.62,518.04,939.38,518.45,934.74,523.17Z" transform="matrix(1 0 0 1 -71.15 -57.51)" fill="rgb(136,138,239)" stroke="none" stroke-width="1"/><path id="eH25ULzeRn319" d="M934.74,523.17C930.09,527.89,929.74,535.17,929.74,535.17C929.74,535.17,936.97,534.76,941.62,530.04C946.27,525.32,946.62,518.04,946.62,518.04C946.62,518.04,939.38,518.45,934.74,523.17Z" transform="matrix(1 0 0 1 -73.804091 -55.165)" opacity="0.1" fill="rgb(0,0,0)" stroke="none" stroke-width="1"/><path id="eH25ULzeRn320" d="M943.85,556C939.2,560.72,938.85,568,938.85,568C938.85,568,946.08,567.59,950.73,562.87C955.38,558.15,955.73,550.87,955.73,550.87C955.73,550.87,948.5,551.26,943.85,556Z" transform="matrix(1 0 0 1 -71.15 -57.51)" fill="rgb(136,138,239)" stroke="none" stroke-width="1"/><path id="eH25ULzeRn321" d="M930.44,548.77C930.44,548.77,940.97,532.17,955.76,531.77" transform="matrix(1 0 0 1 -71.15 -57.51)" fill="none" stroke="rgb(239,101,132)" stroke-width="1" stroke-miterlimit="10"/><path id="eH25ULzeRn322" d="M922.24,538.74C922.24,538.74,911.71,522.14,896.92,521.74" transform="matrix(1 0 0 1 -71.15 -57.51)" fill="none" stroke="rgb(239,101,132)" stroke-width="1" stroke-miterlimit="10"/><path id="eH25ULzeRn323" d="M920.87,562.44C920.87,562.44,931.4,545.84,946.19,545.44" transform="matrix(1 0 0 1 -71.15 -57.51)" fill="none" stroke="rgb(239,101,132)" stroke-width="1" stroke-miterlimit="10"/><circle id="eH25ULzeRn324" r="2.73" transform="matrix(1 0 0 1 884.13 474.17)" fill="rgb(239,101,132)" stroke="none" stroke-width="1"/><circle id="eH25ULzeRn325" r="2.73" transform="matrix(1 0 0 1 826.03 464.37)" fill="rgb(239,101,132)" stroke="none" stroke-width="1"/><path id="eH25ULzeRn326" d="M928.62,567.91C928.62,567.91,918.09,551.31,903.3,550.91" transform="matrix(1 0 0 1 -71.15 -57.51)" fill="none" stroke="rgb(239,101,132)" stroke-width="1" stroke-miterlimit="10"/><circle id="eH25ULzeRn327" r="2.73" transform="matrix(1 0 0 1 832.41 493.54)" fill="rgb(239,101,132)" stroke="none" stroke-width="1"/><circle id="eH25ULzeRn328" r="2.73" transform="matrix(1 0 0 1 875.24 488.07)" fill="rgb(239,101,132)" stroke="none" stroke-width="1"/><path id="eH25ULzeRn329" d="M986.84,609C986.84,609,961.46,603.92,954.69,597.15C947.92,590.38,917.46,578.57,914.08,587C910.7,595.43,868.39,624.23,897.16,629.31C925.93,634.39,964.85,636.08,973.31,632.69C981.77,629.3,986.84,609,986.84,609Z" transform="matrix(1 0 0 1 -71.15 -57.51)" fill="rgb(168,168,168)" stroke="none" stroke-width="1"/><path id="eH25ULzeRn330" d="M897.15,626.19C925.92,631.27,964.84,632.96,973.3,629.57C979.74,626.99,984.22,614.57,985.99,608.85L986.84,609.03C986.84,609.03,981.76,629.34,973.3,632.72C964.84,636.1,925.92,634.41,897.15,629.34C888.85,627.87,886.47,624.43,887.37,620.08C888.08,622.91,891,625.1,897.15,626.19Z" transform="matrix(1 0 0 1 -71.15 -57.51)" opacity="0.2" fill="rgb(0,0,0)" stroke="none" stroke-width="1"/><path id="eH25ULzeRn331" d="M138.4,645.66C138.4,645.66,146.78,656.66,134.53,673.16C122.28,689.66,112.18,703.67,116.27,714C116.27,714,134.75,683.27,149.79,682.84C164.83,682.41,154.94,664.14,138.4,645.66Z" transform="matrix(1 0 0 1 -71.15 -57.51)" fill="rgb(136,138,239)" stroke="none" stroke-width="1"/><path id="eH25ULzeRn332" d="M138.4,645.66C139.130244,646.719775,139.706012,647.878045,140.11,649.1C154.79,666.34,162.6,682.43,148.5,682.84C135.36,683.22,119.6,706.71,115.82,712.65C115.944731,713.108032,116.094966,713.558735,116.27,714C116.445034,714.441265,134.75,683.27,149.79,682.84C164.83,682.41,154.94,664.14,138.4,645.66Z" transform="matrix(1 0 0 1 -71.15 -57.51)" opacity="0.1" fill="rgb(0,0,0)" stroke="none" stroke-width="1"/><path id="eH25ULzeRn333" d="M154,659.62C154,663.48,153.57,666.62,153,666.62C152.43,666.62,152,663.49,152,659.62C152,655.75,152.54,657.62,153.07,657.62C153.6,657.62,154,655.77,154,659.62Z" transform="matrix(1 0 0 1 -71.15 -57.51)" fill="rgb(255,208,55)" stroke="none" stroke-width="1"/><path id="eH25ULzeRn334" d="M159.32,664.23C155.93,666.08,152.98,667.23,152.73,666.72C152.48,666.21,155.01,664.37,158.4,662.53C161.79,660.69,160.45,662.03,160.71,662.53C160.97,663.03,162.71,662.38,159.32,664.23Z" transform="matrix(1 0 0 1 -71.15 -57.51)" fill="rgb(255,208,55)" stroke="none" stroke-width="1"/><path id="eH25ULzeRn335" d="M94.13,645.66C94.13,645.66,85.75,656.66,98,673.16C110.25,689.66,120.35,703.67,116.26,713.99C116.26,713.99,97.78,683.26,82.74,682.83C67.7,682.4,77.59,664.14,94.13,645.66Z" transform="matrix(1 0 0 1 -71.15 -57.51)" fill="rgb(136,138,239)" stroke="none" stroke-width="1"/><path id="eH25ULzeRn336" d="M94.13,645.66C93.399756,646.719775,92.823988,647.878045,92.42,649.1C77.75,666.34,69.93,682.43,84,682.83C97.14,683.21,112.9,706.7,116.68,712.64C116.555269,713.098032,116.405034,713.548735,116.23,713.99C116.054966,714.431265,97.75,683.26,82.71,682.83C67.67,682.4,77.59,664.14,94.13,645.66Z" transform="matrix(1 0 0 1 -71.15 -57.51)" opacity="0.1" fill="rgb(0,0,0)" stroke="none" stroke-width="1"/><path id="eH25ULzeRn337" d="M78.56,659.62C78.56,663.48,78.99,666.62,79.56,666.62C80.13,666.62,80.56,663.49,80.56,659.62C80.56,655.75,80.02,657.62,79.49,657.62C78.96,657.62,78.56,655.77,78.56,659.62Z" transform="matrix(1 0 0 1 -71.15 -57.51)" fill="rgb(255,208,55)" stroke="none" stroke-width="1"/><path id="eH25ULzeRn338" d="M73.21,664.23C76.6,666.08,79.55,667.23,79.8,666.72C80.05,666.21,77.52,664.37,74.13,662.53C70.74,660.69,72.08,662.03,71.82,662.53C71.56,663.03,69.82,662.38,73.21,664.23Z" transform="matrix(1 0 0 1 -71.15 -57.51)" fill="rgb(255,208,55)" stroke="none" stroke-width="1"/><path id="eH25ULzeRn339" d="M81.22,712.55C81.22,712.55,104.65,711.83,111.71,706.8C118.77,701.77,147.71,695.8,149.5,703.8C151.29,711.8,184.71,743.91,158.26,744.12C131.81,744.33,96.8,740,89.76,735.74C82.72,731.48,81.22,712.55,81.22,712.55Z" transform="matrix(1 0 0 1 -71.15 -57.51)" fill="rgb(168,168,168)" stroke="none" stroke-width="1"/><path id="eH25ULzeRn340" d="M158.74,741.35C132.29,741.56,97.28,737.23,90.23,732.94C84.86,729.67,82.72,717.94,82.01,712.53L81.23,712.53C81.23,712.53,82.71,731.43,89.76,735.72C96.81,740.01,131.82,744.35,158.27,744.13C165.91,744.07,168.54,741.35,168.4,737.33C167.34,739.79,164.42,741.3,158.74,741.35Z" transform="matrix(1 0 0 1 -71.15 -57.51)" opacity="0.2" fill="rgb(0,0,0)" stroke="none" stroke-width="1"/><path id="eH25ULzeRn341" d="M753.28,561.35C742.908315,561.343936,732.578239,562.661239,722.54,565.27L685.67,451.47L685.19,449.99L688.33,449.07C695.73,432.8,676,430.36,676,430.36L674.34,430.92C663.91,427.92,645.84,426.33,627.09,425.59L627.09,402.87C627.137289,390.409665,629.388651,378.055955,633.74,366.38C634.27,364.95,634.74,363.61,635.1,362.33C635.18,362.07,635.26,361.81,635.33,361.56L635.46,361.09C635.55,360.76,635.65,360.42,635.73,360.09C635.81,359.76,635.85,359.63,635.9,359.39C635.95,359.15,636.02,358.92,636.07,358.69L636.14,358.36C636.22,358.02,636.29,357.69,636.36,357.36C636.36,357.22,636.41,357.08,636.44,356.94C636.47,356.8,636.55,356.38,636.6,356.1C636.65,355.82,636.66,355.72,636.69,355.53C636.72,355.34,636.76,355.11,636.79,354.91C636.82,354.71,636.79,354.65,636.84,354.52C636.89,354.39,636.91,354.03,636.94,353.79L636.94,353.6C636.94,353.31,637.01,353.02,637.03,352.74C637.05,352.46,637.03,352.49,637.03,352.36C637.03,352.23,637.03,351.95,637.03,351.75C637.03,351.55,637.03,351.55,637.03,351.45C637.03,351.35,637.03,351.03,637.03,350.82C637.03,350.61,637.03,350.4,637.03,350.2C637.03,350,637.03,350.04,637.03,349.96C637.03,349.88,637.03,349.63,637.03,349.47C637.03,349.31,637.03,349.26,637.03,349.17C637.03,349.08,637.03,348.93,637.03,348.81C637.03,348.69,637.03,348.56,637.03,348.44C637.03,348.32,637.03,348.2,637.03,348.08C637.03,347.96,637.03,347.87,637.03,347.77C636.64404,343.901707,636.590511,340.00744,636.87,336.13L638.27,318.61C642.390869,317.348825,646.233008,315.312356,649.59,312.61C652.946992,309.907644,650.48,286.48,653.16,265.8C656.664271,239.654095,646.540046,213.534123,626.33,196.58C624.53,195.09,622.66,193.66,620.71,192.33C621.079833,190.915686,621.360386,189.47952,621.55,188.03C622.441315,186.395964,623.507575,184.863635,624.73,183.46C626.41,181.8,628.73,180.85,630.65,179.46C634.84,176.33,636.65,171.23,637.85,166.35C640.31,156.35,641.02,145.48,636.85,135.96C632.68,126.44,622.54,118.67,611.51,119.17C608.13,119.32,604.83,120.17,601.51,120.56C592.73,121.45,584.04,118.56,575.23,118.03C572.675797,117.716687,570.083895,118.060897,567.7,119.03C565.911083,120.009519,564.363434,121.376096,563.17,123.03C559.137858,128.248271,556.371949,134.331219,555.09,140.8C554.01,145.67,554.01,150.08,547.98,150.8C541.19,151.65,519.4,147.09,523.98,161.45C526.17,168.24,536.68,168.45,542.07,173.45C544.87,176.05,546.16,179.89,549.24,182.21L549.36,182.29C535.36,182.5,512.25,188.04,498.63,219.03C478.09,265.79,465.76,281.03,449.32,293.24C433.68,304.85,426.41,342.24,425.74,345.82C421.41,356.75,419.05,376.82,432.88,410.14C444.6,438.39,454.8,457.62,461.99,472.07L460.58,471.94C457.580134,471.710417,454.595468,471.31313,451.64,470.75C440.05,468.55,410.84,463.95,402.98,471.75C393.11,481.51,396.4,498.6,422.71,501.04C428.726012,501.54469,434.767048,501.684946,440.8,501.46L440.8,544.31L440.23,544.66L440.23,544.66C435.08,547.73,430.12,550.48,426.78,552.29L425.56,552.95C424.5965,551.366867,423.792557,549.691986,423.16,547.95L396,565.81C396,565.81,409.193549,571.752016,409.48,577C409.802381,582.906254,395.77,591.17,395.77,591.17C395.34,590.79,394.92,590.4,394.49,590.02C372.479714,571.194408,344.452938,560.877716,315.49,560.94C248.74,560.94,194.64,614.49,194.64,680.54C194.64,746.59,248.75,800.14,315.49,800.14C375.27,800.14,424.91,757.14,434.62,700.76C457.62,702.47,479,702.99,493.04,700.94L493.04,714.72L554.67,714.72L554.67,698.06L556.21,697.96C583.94,695.96,569.56,683.73,569.56,683.73C563.2,683.73,556.2,680.19,551.28,677.1C549.55,676.01,547.77,675.02,545.95,674.1C547.619927,668.173459,547.112646,661.844866,544.52,656.26L685.09,511.26L706.57,570.66L705.14,571.25C662.35,589.65,632.42,631.86,632.42,680.99C632.42,747.05,686.53,800.59,753.27,800.59C820.01,800.59,874.13,747,874.13,681C874.13,615,820,561.35,753.28,561.35ZM759.72,770.61L754.72,693.42C755.644904,693.290141,756.553356,693.06219,757.43,692.74L798.73,758.63C786.796118,765.513205,773.460211,769.608672,759.72,770.61ZM679.11,733.73L742.36,688.36L742.48,688.52L716.54,763.41C701.653393,757.008811,688.735724,746.765787,679.11,733.73ZM795.71,600.8L761,669.43C759.376758,667.922236,757.398888,666.849026,755.25,666.31L754.41,663.72L756.8,590.32C770.387016,590.87435,783.679499,594.451124,795.71,600.79ZM752.58,658L731.44,592.77C738.457595,591.100363,745.646518,590.257963,752.86,590.26L754.78,590.26ZM715,598.37C715.47,598.16,716,597.97,716.42,597.76L742.5,670C741.468926,671.049861,740.623581,672.267158,740,673.6L673.14,636.5C675.654631,632.099411,678.534774,627.918019,681.75,624L689.21,615.89C696.740685,608.617125,705.464047,602.691057,715,598.37ZM672.25,638.28L739.39,675.54C739.087375,676.641266,738.932683,677.777914,738.93,678.92C738.93,679.09,738.93,679.26,738.93,679.43L661.67,678.07C662.031414,664.169255,665.640994,650.545999,672.21,638.29ZM765.98,679.15L840,653.62C847.967018,678.966428,844.286297,706.540704,829.95,728.91L764.07,687.36C765.363285,685.323008,766.056436,682.962827,766.07,680.55C766.051595,680.084673,766.008199,679.62067,765.94,679.16ZM839.4,651.68L765.59,677.14C764.850209,674.991866,763.842243,672.945695,762.59,671.05L797.59,601.76C817.204717,612.670141,832.084724,630.457038,839.36,651.69ZM665.61,457.38L670.8,471.72L581.28,499.3L580.35,480.81L631.35,465.81C631.455828,466.954023,631.384999,468.107519,631.14,469.23C632.428427,467.879405,633.58998,466.413237,634.61,464.85L665.03,455.91ZM321.93,770.18L316.93,693.18C317.941597,693.164786,318.948136,693.033936,319.93,692.79L360.93,758.26C348.993907,765.120452,335.661947,769.195246,321.93,770.18ZM241.32,733.32L304.57,688L304.69,688.16L278.75,763C263.863393,756.598811,250.945724,746.355787,241.32,733.32ZM223.85,677.66C224.217579,663.757635,227.834034,650.134286,234.41,637.88L302.69,675.77C302.32158,676.81238,302.089653,677.898069,302,679ZM357.92,600.39L326.29,663L321.45,668C319.940431,667.419822,318.33722,667.12155,316.72,667.12L316.53,667.12L319,589.92C332.590625,590.471537,345.886971,594.048432,357.92,600.39ZM388.18,626.09C393.956738,633.718169,398.473987,642.222617,401.56,651.28L335.07,674.21ZM331.23,677.69L402.23,653.22Q403.23,656.53,404.07,659.95C404.19,660.47,404.3,660.95,404.41,661.5C372.5,668.13,342.74,675.45,330.29,678.58ZM314.47,667.15C312.488254,667.230505,310.550177,667.756897,308.8,668.69L281.91,596C292.489005,591.920896,303.731824,589.835754,315.07,589.85C315.71,589.85,316.35,589.85,316.99,589.85ZM307,669.85C305.559787,670.942659,304.361315,672.321582,303.48,673.9L235.4,636.09C237.910048,631.679449,240.786869,627.487988,244,623.56L251.48,615.42C259.731694,607.46065,269.406452,601.123886,280,596.74ZM404.52,698C402.319319,708.842965,398.121275,719.182088,392.14,728.49L327.48,687.71C340.67,689.81,371.71,694.51,404.52,698ZM433.39,654.2C429.382138,636.641332,421.427624,620.226171,410.13,606.2L413.3,603.33L440.86,630.24L440.86,654.52Q437.32,655.13,433.73,655.78C433.62,655.25,433.52,654.73,433.4,654.21ZM440.86,603.09L440.26,602.51L440.86,603ZM462.24,567.86L462.31,567.81L463.82,566.81L464.49,566.36L465.23,565.87L466.07,565.32L466.85,564.82L467.8,564.21L468.59,563.71L469.75,562.99L470.46,562.55L471.7,561.8C472.190847,566.336626,473.322093,570.780807,475.06,575L475.45,610.83C469.651674,604.312955,465.166243,596.737637,462.24,588.52ZM576.85,410.86C579.28,413.02,580.85,414.36,580.85,414.36C580.85,414.36,586,419,591.86,425C586.65,425,581.81,425,577.56,425.11ZM578.64,446.51C586.99,446.8,597.85,447.09,609.41,447.17C609.49,447.42,609.57,447.67,609.62,447.9C611.980859,448.629317,614.289498,449.518026,616.53,450.56L579.47,463.14ZM588.06,380.81C588.06,380.81,580.43,360.81,571.12,345.69C576.03,331.31,585.18,316.1,602.27,309.36L602.15,310.73L602.09,311.47C601.55,317.78,600.93,325.47,600.4,333.37L600.4,333.83Q600.31,335.24,600.21,336.66L600.21,337.15L600.14,338.31L600.07,339.45L600.01,340.45Q599.95,341.45,599.89,342.45L599.89,343.02Q599.89,343.88,599.8,344.74L599.8,345.41Q599.75,346.41,599.7,347.47L599.7,347.59Q599.64,348.74,599.6,349.87L599.6,350.21Q599.6,351.21,599.52,352.29L599.52,352.45Q599.43,354.74,599.38,356.92L599.38,357.08C599.38,358.53,599.32,359.93,599.3,361.28L599.3,361.4C599.3,362.76,599.3,364.06,599.3,365.29L599.3,365.29Q599.3,366.18,599.3,367.03L599.3,367.14C599.3,368.26,599.37,369.31,599.43,370.28L599.43,370.46C599.49,371.4,599.57,372.27,599.66,373.04L599.66,373.22Q599.72,373.71,599.79,374.15L599.79,374.31C599.85,374.63,599.9,374.94,599.97,375.21L599.97,375.32C600.02,375.55,600.08,375.76,600.14,375.95L600.19,376.12C600.254093,376.314835,600.330926,376.505245,600.42,376.69C602.13,380.07,602.95,390.47,603.32,401.48C594.51,390.1,588.05,380.79,588.05,380.79ZM462.24,649.56L462.24,620.73L475.68,631.87L475.68,631.87L475.87,649.58C471.57,650,467,650.58,462.23,651.2ZM462.24,499.84C465.72,499.4,469.14,498.84,472.45,498.3C472.943276,500.774363,473.131345,503.299867,473.01,505.82L473.01,521.07L473.7,521.07C469.741131,523.578736,465.915926,526.292429,462.24,529.2L462.24,499.85ZM375.3,612.33L331.09,658L359.71,601.35C364.774546,604.169503,369.559427,607.464341,374,611.19C374.45,611.56,374.87,612,375.3,612.33ZM223.82,680.14C223.82,679.99,223.82,679.84,223.82,679.69L302,681.07C302.125671,682.879275,302.633503,684.641349,303.49,686.24L240.16,731.67C229.517272,716.595537,223.808671,698.59283,223.82,680.14ZM315.08,770.45C303.281994,770.463074,291.592072,768.201823,280.65,763.79L306.28,689.79C308.648256,691.908245,311.702919,693.098143,314.88,693.14L319.88,770.31C318.29,770.4,316.69,770.45,315.08,770.45ZM362.7,757.17L321.91,692.1C323.47704,691.432939,324.899943,690.46849,326.1,689.26L391,730.2C383.624569,741.127839,373.969946,750.32873,362.7,757.17ZM527.88,642.1C525.514612,641.43188,523.067931,641.095335,520.61,641.1L519.79,641.1L518.97,641.1C514.812877,641.0881,510.711659,642.057728,507,643.93C505.26,633.19,504.38,619.51,508.27,608.98C510.585979,602.618738,512.326295,596.062432,513.47,589.39L521.82,542.17L677.19,489.45L679.09,494.71ZM661.61,680.55C661.61,680.4,661.61,680.25,661.61,680.1L739.14,681.47C739.712195,683.245766,740.414084,684.977093,741.24,686.65L677.91,732.08C667.281473,717.000813,661.586968,698.998494,661.61,680.55ZM752.87,770.86C741.071994,770.873074,729.382072,768.611823,718.44,764.2L744.07,690.2C746.438256,692.318245,749.492919,693.508143,752.67,693.55L757.67,770.73Q755.28,770.86,752.87,770.86ZM800.5,757.59L759.31,691.89C760.648487,691.143144,761.84644,690.168537,762.85,689.01L828.85,730.62C821.459425,741.552572,811.787472,750.753721,800.5,757.59Z" transform="matrix(1 0 0 1 -71.15 -57.51)" fill="url(#eH25ULzeRn341-fill)" stroke="none" stroke-width="1"/><g id="eH25ULzeRn342_tr" transform="translate(676.265656,616.31839) rotate(360)"><g id="eH25ULzeRn342" transform="translate(-676.265655,-616.318389)"><path id="eH25ULzeRn343" d="M752.57,774.9L746.31,677L746.18,676.79L739.86,678.99L710.77,763.8L664.52,731L738.21,677.59L738.28,677.38L738.7,677.23L743.45,673.78L666.21,630.47L647.28,651.27L650.28,670.77L739.08,672.35L739.08,674.35L648.6,672.73L645.2,650.62L671.09,622.17L709.81,577L710.5,578.87L718.7,569.87L749.24,575.34L749.24,574.13L751.24,574.19L751.24,575.7L796.6,583.82L754.27,668.47L748.1,672.94L748.1,673.44L748.1,674L845.91,639.92L834.3,731.13L751.3,678.26L748.38,676.62L797.32,755.51ZM748.57,680.56L754.42,771.94L794.47,754.56ZM668,731L709.79,760.63L737.13,680.89ZM750.32,675.34L752.41,676.51L832.76,727.71L843.56,642.84ZM743.22,668.14L745.73,672.19L746.17,671.87L749.17,577.34L719.43,572L711.27,581ZM667.83,629.09L742.67,671.09L741.37,668.96L709.79,582.69L672.59,623.57ZM751.2,577.7L748.2,670.39L752.72,667.11L793.63,585.29Z" transform="matrix(1 0 0 1 -71.15 -57.51)" fill="rgb(83,84,97)" stroke="none" stroke-width="1"/><path id="eH25ULzeRn344" d="M747.48,556.12C736.86655,556.108135,726.30043,557.534443,716.07,560.36C710.793641,561.814948,705.627305,563.642882,700.61,565.83C645.241244,589.831989,616.996098,651.821769,635.214767,709.35328C653.433437,766.88479,712.212603,801.316329,771.304596,789.071701C830.396589,776.827073,870.654073,721.873856,864.511671,661.839986C858.369269,601.806116,807.817278,556.144125,747.47,556.12ZM747.08,762.21C705.29374,762.193339,669.164563,733.064776,660.284925,692.232879C651.405287,651.400982,672.17453,609.898823,710.18,592.53C714.871937,590.382055,719.744139,588.652022,724.74,587.36C758.07796,578.706426,793.413787,590.099916,815.417757,616.597636C837.421727,643.095356,842.129173,679.922958,827.497866,711.103541C812.866558,742.284123,781.532761,762.199581,747.09,762.21Z" transform="matrix(1 0 0 1 -71.15 -57.51)" fill="rgb(83,84,97)" stroke="none" stroke-width="1"/></g></g><g id="eH25ULzeRn345_tr" transform="translate(247.93195,617.777694) rotate(360)"><g id="eH25ULzeRn345" transform="translate(-676.265655,-616.318389)"><path id="eH25ULzeRn346" d="M752.57,774.9L746.31,677L746.18,676.79L739.86,678.99L710.77,763.8L664.52,731L738.21,677.59L738.28,677.38L738.7,677.23L743.45,673.78L666.21,630.47L647.28,651.27L650.28,670.77L739.08,672.35L739.08,674.35L648.6,672.73L645.2,650.62L671.09,622.17L709.81,577L710.5,578.87L718.7,569.87L749.24,575.34L749.24,574.13L751.24,574.19L751.24,575.7L796.6,583.82L754.27,668.47L748.1,672.94L748.1,673.44L748.1,674L845.91,639.92L834.3,731.13L751.3,678.26L748.38,676.62L797.32,755.51ZM748.57,680.56L754.42,771.94L794.47,754.56ZM668,731L709.79,760.63L737.13,680.89ZM750.32,675.34L752.41,676.51L832.76,727.71L843.56,642.84ZM743.22,668.14L745.73,672.19L746.17,671.87L749.17,577.34L719.43,572L711.27,581ZM667.83,629.09L742.67,671.09L741.37,668.96L709.79,582.69L672.59,623.57ZM751.2,577.7L748.2,670.39L752.72,667.11L793.63,585.29Z" transform="matrix(1 0 0 1 -71.15 -57.51)" fill="rgb(83,84,97)" stroke="none" stroke-width="1"/><path id="eH25ULzeRn347" d="M747.48,556.12C736.86655,556.108135,726.30043,557.534443,716.07,560.36C710.793641,561.814948,705.627305,563.642882,700.61,565.83C645.241244,589.831989,616.996098,651.821769,635.214767,709.35328C653.433437,766.88479,712.212603,801.316329,771.304596,789.071701C830.396589,776.827073,870.654073,721.873856,864.511671,661.839986C858.369269,601.806116,807.817278,556.144125,747.47,556.12ZM747.08,762.21C705.29374,762.193339,669.164563,733.064776,660.284925,692.232879C651.405287,651.400982,672.17453,609.898823,710.18,592.53C714.871937,590.382055,719.744139,588.652022,724.74,587.36C758.07796,578.706426,793.413787,590.099916,815.417757,616.597636C837.421727,643.095356,842.129173,679.922958,827.497866,711.103541C812.866558,742.284123,781.532761,762.199581,747.09,762.21Z" transform="matrix(1 0 0 1 -71.15 -57.51)" fill="rgb(83,84,97)" stroke="none" stroke-width="1"/></g></g><rect id="eH25ULzeRn348" width="60" height="19" rx="0" ry="0" transform="matrix(0.711781 0.702402 -0.702402 0.711781 344.292609 512.159075)" fill="rgb(61,158,103)" stroke="none" stroke-width="1"/><rect id="eH25ULzeRn349" width="60" height="19" rx="0" ry="0" transform="matrix(0.711781 0.702402 -0.702402 0.711781 346.423156 515.792063)" opacity="0.1" fill="rgb(0,0,0)" stroke="none" stroke-width="1"/><path id="eH25ULzeRn350" d="M425.63,549.5C425.63,549.5,450.42,536.42,460,528C465.767131,522.954312,471.967793,518.426792,478.53,514.47L509.63,495.54L574.63,490.54L577.63,501.54C577.63,501.54,582.63,517.54,532.63,531.54C482.63,545.54,457.63,567.54,457.63,567.54C457.63,567.54,425.63,578.5,425.63,549.5Z" transform="matrix(1 0 0 1 -71.15 -57.51)" fill="rgb(219,139,139)" stroke="none" stroke-width="1"/><path id="eH25ULzeRn351" d="M460.28,565.37C458.51,566.72,457.63,567.5,457.63,567.5C457.63,567.5,425.63,578.5,425.63,549.5C425.63,549.5,427.18,548.68,429.63,547.31C434.663325,555.506107,443.59176,560.500427,453.21,560.5L456.6,560.5Z" transform="matrix(1 0 0 1 -71.15 -57.51)" opacity="0.1" fill="rgb(0,0,0)" stroke="none" stroke-width="1"/><path id="eH25ULzeRn352" d="M576.69,507.06C573.91,512.95,564.32,522.63,532.63,531.5C492.02,542.87,467.9,559.5,460.28,565.37C458.51,566.72,457.63,567.5,457.63,567.5C457.63,567.5,425.63,578.5,425.63,549.5C425.63,549.5,427.18,548.68,429.63,547.31C437.06,543.24,452.79,534.31,459.97,527.96C465.735829,522.912685,471.936639,518.385056,478.5,514.43L509.6,495.5L521.18,494.61L574.6,490.5L577.6,501.5C577.6,501.5,578.3,503.65,576.69,507.06Z" transform="matrix(1 0 0 1 -71.15 -57.51)" opacity="0.05" fill="rgb(0,0,0)" stroke="none" stroke-width="1"/><path id="eH25ULzeRn353" d="M426.13,543L399.63,560.5L477.23,625.5C477.23,625.5,488.63,618.5,482.63,610.5C482.63,610.5,462.63,593.5,461.63,569.5L455.63,561.5L452.24,561.5C440.491817,561.501562,430.023417,554.084273,426.13,543Z" transform="matrix(1 0 0 1 -71.15 -57.51)" fill="rgb(171,177,209)" stroke="none" stroke-width="1"/><path id="eH25ULzeRn354" d="M576.69,507.06C560.69,499.33,521.63,498.5,521.63,498.5L521.21,494.61L574.63,490.5L577.63,501.5C577.63,501.5,578.3,503.65,576.69,507.06Z" transform="matrix(1 0 0 1 -71.15 -57.51)" opacity="0.1" fill="rgb(0,0,0)" stroke="none" stroke-width="1"/><path id="eH25ULzeRn355" d="M521.63,496.5C521.63,496.5,568.63,497.5,580.63,507.5L574.63,386.5L509.63,386.5Z" transform="matrix(1 0 0 1 -61.856998 -59.510214)" fill="rgb(62,89,232)" stroke="none" stroke-width="1"/><path id="eH25ULzeRn356" d="M521.63,496C521.63,496,568.63,497,580.63,507L574.63,386L509.63,386Z" transform="matrix(1 0 0 1 -95.07 -55.790763)" opacity="0.05" fill="rgb(0,0,0)" stroke="none" stroke-width="1"/><path id="eH25ULzeRn357" d="M559.39,422.46C559.39,422.46,677.04,418.46,679.44,433.67C681.84,448.88,561.79,442.47,561.79,442.47C561.79,442.47,552.19,432.86,559.39,422.46Z" transform="matrix(1 0 0 1 -71.15 -57.51)" fill="rgb(83,84,97)" stroke="none" stroke-width="1"/><path id="eH25ULzeRn358" d="M559.39,422.46C559.39,422.46,677.04,418.46,679.44,433.67C681.84,448.88,561.79,442.47,561.79,442.47C561.79,442.47,552.19,432.86,559.39,422.46Z" transform="matrix(1 0 0 1 -71.15 -57.51)" opacity="0.05" fill="rgb(0,0,0)" stroke="none" stroke-width="1"/><circle id="eH25ULzeRn359" r="0" transform="matrix(1 0 0 1 409.81 689.1)" fill="none" stroke="rgb(193,39,45)" stroke-width="1" stroke-miterlimit="10"/><rect id="eH25ULzeRn360" width="20.81" height="180.88" rx="0" ry="0" transform="matrix(1 0 0 1 372.19 425.78)" fill="rgb(61,158,103)" stroke="none" stroke-width="1"/><path id="eH25ULzeRn361" d="M464.15,483.28L464.15,497.21C457.23,498.11,450.15,498.68,443.34,498.9L443.34,483.28Z" transform="matrix(1 0 0 1 -71.15 -57.51)" opacity="0.1" fill="rgb(0,0,0)" stroke="none" stroke-width="1"/><path id="eH25ULzeRn362" d="M462.59,468.29C459.670276,468.064196,456.765645,467.673573,453.89,467.12C442.61,464.96,414.17,460.43,406.52,468.12C396.92,477.72,400.12,494.53,425.73,496.93C451.34,499.33,495.36,492.93,504.17,483.32C504.17,483.28,488.24,470.26,462.59,468.29Z" transform="matrix(1 0 0 1 -71.15 -57.51)" fill="rgb(83,84,97)" stroke="none" stroke-width="1"/><polygon id="eH25ULzeRn363" points="387.4,475.4 605.9,407.37 613.1,424.18 389,501.01 387.4,475.4" fill="rgb(61,158,103)" stroke="none" stroke-width="1"/><polygon id="eH25ULzeRn364" points="452.23,582.65 609.9,427.38 618.7,440.18 468.23,597.05 452.23,582.65" fill="rgb(61,158,103)" stroke="none" stroke-width="1"/><path id="eH25ULzeRn365" d="M724.73,587.36C719.734139,588.652022,714.861937,590.382055,710.17,592.53L700.61,565.82C705.627305,563.632882,710.793641,561.804948,716.07,560.35Z" transform="matrix(1 0 0 1 -71.15 -57.51)" opacity="0.1" fill="rgb(0,0,0)" stroke="none" stroke-width="1"/><polygon id="eH25ULzeRn366" points="680.33,608.26 669.13,614.66 590.99,396.33 587.49,386.56 605.9,376.15 610.51,390.53 680.33,608.26" fill="rgb(61,158,103)" stroke="none" stroke-width="1"/><polygon id="eH25ULzeRn367" points="610.51,390.53 590.99,396.33 587.49,386.56 605.9,376.15 610.51,390.53" opacity="0.1" fill="rgb(0,0,0)" stroke="none" stroke-width="1"/><path id="eH25ULzeRn368" d="M562.59,464.88L672.24,427.26C672.24,427.26,691.45,429.66,684.24,445.67L573.8,478.48C573.8,478.48,557,480.08,562.59,464.88Z" transform="matrix(1 0 0 1 -71.15 -57.51)" fill="rgb(83,84,97)" stroke="none" stroke-width="1"/><path id="eH25ULzeRn369" d="M438.94,673.37C438.93899,679.504116,438.464245,685.628995,437.52,691.69C427.92,691,418,690,408.28,689C410.4394,677.109136,410.170675,664.904296,407.49,653.12C416.96,651.12,426.63,649.21,436.07,647.48C437.982688,655.977054,438.945261,664.660335,438.94,673.37Z" transform="matrix(1 0 0 1 -71.15 -57.51)" opacity="0.1" fill="rgb(0,0,0)" stroke="none" stroke-width="1"/><path id="eH25ULzeRn370" d="M464.15,642.89L464.15,664.16L443.34,664.16L443.34,646.16C450.54,644.91,457.54,643.8,464.15,642.89Z" transform="matrix(1 0 0 1 -71.15 -57.51)" opacity="0.1" fill="rgb(0,0,0)" stroke="none" stroke-width="1"/><path id="eH25ULzeRn371" d="M329.69,673C329.69,673,497.77,629,511.37,645.79C524.97,662.58,539.38,685,497,693C454.62,701,326.52,679.39,326.52,679.39Z" transform="matrix(1 0 0 1 -71.15 -57.51)" fill="rgb(61,158,103)" stroke="none" stroke-width="1"/><path id="eH25ULzeRn372" d="M412.36,598.88L391,618.43C387.217347,613.57399,382.941125,609.123502,378.24,605.15L398.18,584.32C403.314,588.75926,408.058032,593.630423,412.36,598.88Z" transform="matrix(1 0 0 1 -71.15 -57.51)" opacity="0.1" fill="rgb(0,0,0)" stroke="none" stroke-width="1"/><polygon id="eH25ULzeRn373" points="252.94,606.66 378.59,475.4 382.6,505.81 259.34,618.66 252.94,606.66" fill="rgb(61,158,103)" stroke="none" stroke-width="1"/><circle id="eH25ULzeRn374" r="12.81" transform="matrix(1 0 0 1 251.34 615.46)" opacity="0.1" fill="rgb(0,0,0)" stroke="none" stroke-width="1"/><circle id="eH25ULzeRn375" r="12.81" transform="matrix(1 0 0 1 249.73 615.46)" fill="rgb(83,84,97)" stroke="none" stroke-width="1"/><circle id="eH25ULzeRn376" r="12.81" transform="matrix(1 0 0 1 675.13 614.26)" opacity="0.1" fill="rgb(0,0,0)" stroke="none" stroke-width="1"/><circle id="eH25ULzeRn377" r="12.81" transform="matrix(1 0 0 1 675.93 615.86)" fill="rgb(83,84,97)" stroke="none" stroke-width="1"/><circle id="eH25ULzeRn378" r="25.61" transform="matrix(1 0 0 1 448.22 602.66)" opacity="0.1" fill="rgb(0,0,0)" stroke="none" stroke-width="1"/><circle id="eH25ULzeRn379" r="25.61" transform="matrix(1 0 0 1 449.83 602.66)" fill="rgb(83,84,97)" stroke="none" stroke-width="1"/><rect id="eH25ULzeRn380" width="13.61" height="47.54" rx="6.8" ry="6.8" transform="matrix(0.800836 -0.598884 0.598884 0.800836 437.538491 604.814404)" fill="rgb(239,101,132)" stroke="none" stroke-width="1"/><path id="eH25ULzeRn381" d="M636.63,304.5L634.25,334.61C633.976166,338.424043,634.026346,342.25444,634.4,346.06C634.71,349.43,634.4,355.33,631.1,364.33C626.863048,375.826914,624.673273,387.977289,624.63,400.23L624.63,434.5L601.63,430.5C601.63,430.5,602.63,382.5,598.63,374.5C594.63,366.5,601.63,295.5,601.63,295.5Z" transform="matrix(1 0 0 1 -71.15 -57.51)" fill="rgb(219,139,139)" stroke="none" stroke-width="1"/><path id="eH25ULzeRn382" d="M635.45,319.42L634.25,334.61C633.979671,338.420995,634.033196,342.248056,634.41,346.05C634.72,349.42,634.41,355.32,631.11,364.33C626.873048,375.826914,624.683273,387.977289,624.64,400.23L624.64,434.5L601.64,430.5C601.64,430.5,602.64,382.5,598.64,374.5C595.81,368.83,598.49,331.56,600.3,310.29C601.05,301.54,601.64,295.5,601.64,295.5L636.64,304.5Z" transform="matrix(1 0 0 1 -71.15 -57.51)" opacity="0.05" fill="rgb(0,0,0)" stroke="none" stroke-width="1"/><path id="eH25ULzeRn383" d="M522.65,534.5L514,583.7C512.909295,590.268947,511.236025,596.727768,509,603C503.93,616.86,507.17,636.29,509.63,646.89C510.72,651.57,511.63,654.53,511.63,654.53L485.63,668.53L477.63,662.53L477.63,658.53L476.63,569.53C470.63,555.53,472.63,534.53,476.63,526.53C477.767375,523.901536,478.567079,521.139535,479.01,518.31C481.01,507.59,481.63,492.53,481.63,492.53C481.63,492.53,497.63,465.53,516.63,483.53C523.63,490.16,526.29,498.83,526.85,507.13C527.83,521.34,522.65,534.5,522.65,534.5Z" transform="matrix(1 0 0 1 -71.15 -57.51)" fill="rgb(219,139,139)" stroke="none" stroke-width="1"/><path id="eH25ULzeRn384" d="M526.85,507.1C512.98,515.34,488.85,517.67,479.01,518.28C481.01,507.56,481.63,492.5,481.63,492.5C481.63,492.5,497.63,465.5,516.63,483.5C523.63,490.13,526.29,498.8,526.85,507.1Z" transform="matrix(1 0 0 1 -71.15 -57.51)" opacity="0.1" fill="rgb(0,0,0)" stroke="none" stroke-width="1"/><path id="eH25ULzeRn385" d="M560.63,482.5C549.99603,488.162888,539.94727,494.862062,530.63,502.5C514.63,515.5,474.63,516.5,474.63,516.5L474.63,501.5C475.63,483.5,458.63,463.5,435.63,407.5C420.94,371.74,425.01,351.5,429.87,341.5C432.63,335.85,435.63,333.5,435.63,333.5L560.63,357.5L565.1,370.9L574.63,399.5C574.63,399.5,539.63,401.5,533.63,404.5C527.63,407.5,531.63,434.5,531.63,434.5C525.63,462.5,560.63,482.5,560.63,482.5Z" transform="matrix(1 0 0 1 -71.15 -57.51)" fill="rgb(62,89,232)" stroke="none" stroke-width="1"/><path id="eH25ULzeRn386" d="M636.63,304.5L635.45,319.42C618.05,324.42,605.63,308.5,605.63,308.5C603.814972,308.986579,602.031603,309.584375,600.29,310.29C601.04,301.54,601.63,295.5,601.63,295.5Z" transform="matrix(1 0 0 1 -71.15 -57.51)" opacity="0.1" fill="rgb(0,0,0)" stroke="none" stroke-width="1"/><path id="eH25ULzeRn387" d="M565.1,370.9C564.63,375.57,564.63,378.5,564.63,378.5C564.63,378.5,541.63,397.5,502.63,368.5C463.63,339.5,428.63,347.5,428.63,347.5C428.63,347.5,429.04,345.18,429.87,341.5C432.63,335.85,435.63,333.5,435.63,333.5L560.63,357.5Z" transform="matrix(1 0 0 1 -71.15 -57.51)" opacity="0.1" fill="rgb(0,0,0)" stroke="none" stroke-width="1"/><path id="eH25ULzeRn388" d="M650.11,265.45C647.5,285.8,646.63,311.45,646.63,311.45C623.63,329.45,605.63,306.45,605.63,306.45C583.91,312.28,573.7,331.29,568.89,347.88C566.313705,356.853728,564.882354,366.117187,564.63,375.45C564.377646,384.782813,558.55,380.45,547.35,381.45C536.76,382.34,521.58,379.58,502.63,365.45C463.63,336.45,428.63,344.45,428.63,344.45C428.63,344.45,435.63,304.45,451.63,292.45C467.63,280.45,479.63,265.45,499.63,219.45C519.63,173.45,560.63,184.45,560.63,184.45C560.63,184.45,562.63,175.45,599.63,184.45C608.641945,186.811978,616.983639,191.230988,624,197.36C643.79,214,653.39,239.81,650.11,265.45Z" transform="matrix(1 0 0 1 -71.15 -57.51)" fill="rgb(251,251,251)" stroke="none" stroke-width="1"/><path id="eH25ULzeRn389" d="M613,207C612.95,208.33,612.84,209.81,612.66,211.46C610.66,229.46,608.66,227.46,586.66,231.46C572.98,233.95,565.87,222.52,562.45,213.52C561.212232,210.259725,560.278264,206.892086,559.66,203.46L607.66,195.46C607.66,195.46,613.41,193.85,613,207Z" transform="matrix(1 0 0 1 -71.15 -57.51)" fill="rgb(219,139,139)" stroke="none" stroke-width="1"/><path id="eH25ULzeRn390" d="M568.89,347.93C566.313705,356.903728,564.882354,366.167187,564.63,375.5C564.377646,384.832813,558.55,380.5,547.35,381.5C547.034512,380.862973,546.792941,380.191944,546.63,379.5C544.63,370.5,529.63,354.5,529.63,354.5C519.63,345.5,517.63,329.5,517.63,329.5L501.13,281L495.63,276.5C495.63,276.5,518.63,258.5,538.63,273.5C558.63,288.5,552.63,320.5,552.63,320.5L556.63,331.5C560.78,335,565,341.17,568.89,347.93Z" transform="matrix(1 0 0 1 -71.15 -57.51)" opacity="0.05" fill="rgb(0,0,0)" stroke="none" stroke-width="1"/><path id="eH25ULzeRn391" d="M498.63,275.5L520.63,328.5C520.63,328.5,522.63,344.5,532.63,353.5C532.63,353.5,547.63,369.5,549.63,378.5C551.63,387.5,579.63,411.5,579.63,411.5C579.63,411.5,605.63,435.5,607.63,444.5C607.63,444.5,631.63,451.5,628.63,465.5C628.63,465.5,646.63,447.5,628.63,430.5C610.63,413.5,586.63,378.5,586.63,378.5C586.63,378.5,572.63,341.5,559.63,330.5L555.63,319.5C555.63,319.5,561.63,287.5,541.63,272.5C521.63,257.5,498.63,275.5,498.63,275.5Z" transform="matrix(1 0 0 1 -71.15 -57.51)" fill="rgb(219,139,139)" stroke="none" stroke-width="1"/><path id="eH25ULzeRn392" d="M511.63,654.5L485.63,668.5L477.63,662.5L477.63,658.5C486.614032,657.861911,495.342622,655.227961,503.18,650.79C505.58,649.43,507.84,648.09,509.65,646.91C510.7,651.54,511.63,654.5,511.63,654.5Z" transform="matrix(1 0 0 1 -71.15 -57.51)" opacity="0.1" fill="rgb(0,0,0)" stroke="none" stroke-width="1"/><path id="eH25ULzeRn393" d="M541.63,233.5L555.63,288.5C555.63,288.5,512.63,295.5,503.63,288.5C494.63,281.5,477.63,279.5,477.63,279.5C477.63,279.5,495.63,227.5,505.63,221.5C515.63,215.5,541.63,233.5,541.63,233.5Z" transform="matrix(1 0 0 1 -71.15 -57.51)" opacity="0.1" fill="rgb(0,0,0)" stroke="none" stroke-width="1"/><path id="eH25ULzeRn394" d="M541.63,231.5L555.63,286.5C555.63,286.5,512.63,293.5,503.63,286.5C494.63,279.5,477.63,277.5,477.63,277.5C477.63,277.5,495.63,225.5,505.63,219.5C515.63,213.5,541.63,231.5,541.63,231.5Z" transform="matrix(1 0 0 1 -71.15 -57.51)" fill="rgb(255,255,255)" stroke="none" stroke-width="1"/><path id="eH25ULzeRn395" d="M613,206C607.339092,213.814186,598.703287,218.944651,589.133345,220.178994C579.563403,221.413336,569.908419,218.64204,562.45,212.52C561.212232,209.259725,560.278264,205.892086,559.66,202.46L607.66,194.46C607.66,194.46,613.41,192.85,613,206Z" transform="matrix(1 0 0 1 -71.15 -57.51)" opacity="0.1" fill="rgb(0,0,0)" stroke="none" stroke-width="1"/><path id="eH25ULzeRn396" d="M619.63,184.5C619.63,203.829966,603.959966,219.5,584.63,219.5C565.300034,219.5,549.63,203.829966,549.63,184.5C549.63,183.92,549.63,183.34,549.63,182.76C550.110488,163.430034,566.170034,148.149512,585.5,148.63C604.829966,149.110488,620.110488,165.170034,619.63,184.5Z" transform="matrix(1 0 0 1 -71.15 -57.51)" fill="rgb(219,139,139)" stroke="none" stroke-width="1"/><path id="eH25ULzeRn397" d="M619.63,184.5C619.633123,187.72573,619.188892,190.93631,618.31,194.04C615.604626,194.629657,612.78326,194.371265,610.23,193.3C606.49,191.83,603.28,189.3,599.69,187.48C589.58,182.36,577.55,183.37,566.35,185.06C560.79,185.9,554.48,186.68,550.11,183.14C549.959662,183.021488,549.816102,182.894621,549.68,182.76C550.160488,163.430034,566.220034,148.149512,585.55,148.63C604.879966,149.110488,620.160488,165.170034,619.68,184.5Z" transform="matrix(1 0 0 1 -71.15 -57.51)" opacity="0.1" fill="rgb(0,0,0)" stroke="none" stroke-width="1"/><path id="eH25ULzeRn398" d="M524.31,162.85C526.44,169.53,536.67,169.74,541.92,174.66C544.65,177.22,545.92,181,548.92,183.28C553.09,186.46,559.11,185.76,564.42,185C575.11,183.48,586.59,182.57,596.23,187.18C599.65,188.81,602.72,191.09,606.29,192.42C609.86,193.75,614.29,193.91,617.19,191.55C619.51,189.66,620.36,186.55,622.46,184.47C624.09,182.83,626.36,181.91,628.22,180.47C632.3,177.39,634.06,172.37,635.22,167.57C637.62,157.69,638.31,147.04,634.22,137.67C630.13,128.3,620.29,120.67,609.55,121.16C606.26,121.31,603.05,122.16,599.77,122.52C591.22,123.39,582.77,120.52,574.19,120.03C571.701324,119.727152,569.176607,120.071588,566.86,121.03C565.11349,122.000847,563.606605,123.35055,562.45,124.98C558.521855,130.125424,555.832265,136.106852,554.59,142.46C553.59,147.25,553.54,151.59,547.67,152.33C541,153.21,519.8,148.72,524.31,162.85Z" transform="matrix(1 0 0 1 -71.15 -57.51)" fill="rgb(0,0,0)" stroke="none" stroke-width="1"/><path id="eH25ULzeRn399" d="M456.13,292C456.13,292,482.13,299,490.13,317C498.13,335,519.77,338.29,519.77,338.29" transform="matrix(1 0 0 1 -71.15 -57.51)" opacity="0.05" fill="rgb(0,0,0)" stroke="none" stroke-width="1"/><rect id="eH25ULzeRn3100" width="60" height="19" rx="0" ry="0" transform="matrix(1 0 0 1 422.98 630.49)" fill="rgb(61,158,103)" stroke="none" stroke-width="1"/><rect id="eH25ULzeRn3101" width="60" height="19" rx="0" ry="0" transform="matrix(1 0 0 1 418.437867 632.983347)" opacity="0.1" fill="rgb(61,158,103)" stroke="none" stroke-width="1"/><path id="eH25ULzeRn3102" d="M503.14,652.74C508.51,649.74,513.22,646.74,513.63,645.5C513.63,645.5,527.18,659.8,539.25,664.24C543.308514,665.739279,547.194156,667.670366,550.84,670C555.62,673,562.44,676.53,568.63,676.53C568.63,676.53,582.63,688.53,555.63,690.53C528.63,692.53,465.63,685.53,465.63,685.53L469.63,660.53L469.63,660.53C481.317178,661.21537,492.953555,658.510285,503.14,652.74Z" transform="matrix(1 0 0 1 -71.15 -57.51)" fill="rgb(171,177,209)" stroke="none" stroke-width="1"/></svg>
