<svg id="e4GzLbioYDp1" xmlns="http://www.w3.org/2000/svg" xmlns:xlink="http://www.w3.org/1999/xlink" viewBox="0 0 1013.02965 844.99456" shape-rendering="geometricPrecision" text-rendering="geometricPrecision"><style><![CDATA[#e4GzLbioYDp3_ts {animation: e4GzLbioYDp3_ts__ts 3278.688524590164ms linear infinite normal forwards}@keyframes e4GzLbioYDp3_ts__ts { 0% {transform: translate(708.808731px,221.699997px) scale(1,1)} 75% {transform: translate(708.808731px,221.699997px) scale(1,1)} 100% {transform: translate(708.808731px,221.699997px) scale(1,1)}} #e4GzLbioYDp30 {animation: e4GzLbioYDp30_f_p 3278.688524590164ms linear infinite normal forwards}@keyframes e4GzLbioYDp30_f_p { 0% {fill: rgb(63,61,86)} 75% {fill: rgb(63,61,86)} 80% {fill: rgba(240,255,85,0.97)} 100% {fill: rgba(240,255,85,0.97)}}]]></style><path id="e4GzLbioYDp2" d="M1050.48389,297.81272C1050.48389,332.98272,1042.15389,361.93272,1027.70399,386.73272C1022.9348,394.901314,1017.520927,402.676024,1011.51399,409.98272C958.39399,474.95272,859.63399,510.51272,770.37399,568.11272C506.89399,738.13272,478.35399,465.69272,490.25399,297.81272C495.05399,230.07272,521.43399,168.02272,563.34399,120.51272C572.145767,110.520576,581.653539,101.173216,591.79399,92.54272C639.37399,52.02272,700.84399,27.50272,770.37399,27.50272C889.66399,27.50272,991.53399,99.45272,1031.92399,200.84272C1044.203538,231.696741,1050.502121,264.604926,1050.48392,297.81272Z" transform="matrix(1 0 0 1 -93.4852 -27.5027)" fill="rgb(61,158,103)" stroke="none" stroke-width="1"/><g id="e4GzLbioYDp3_ts" transform="translate(708.808731,221.699997) scale(1,1)"><g id="e4GzLbioYDp3" transform="translate(-708.808731,-221.699997)"><g id="e4GzLbioYDp4"><path id="e4GzLbioYDp5" d="M830.054,88.4227L563.344,120.5127C572.145777,110.520556,581.653549,101.173196,591.794,92.5427Z" transform="matrix(1 0 0 1 -93.4852 -27.5027)" fill="rgb(208,205,225)" stroke="none" stroke-width="1"/><path id="e4GzLbioYDp6" d="M1027.704,386.7327C1022.93481,394.901294,1017.520937,402.676004,1011.514,409.9827L783.054,382.5027Z" transform="matrix(1 0 0 1 -93.4852 -27.5027)" fill="rgb(208,205,225)" stroke="none" stroke-width="1"/><path id="e4GzLbioYDp7" d="M1041.2439,228.72269L654.05396,178.50269L1031.92396,200.84269C1035.55303,209.953143,1038.664632,219.2613,1041.2439,228.72269Z" transform="matrix(1 0 0 1 -93.4852 -27.5027)" fill="rgb(208,205,225)" stroke="none" stroke-width="1"/></g></g></g><path id="e4GzLbioYDp8" d="M516.51853,99.50486C516.51853,100.19486,516.49853,100.87486,516.43853,101.54486C515.609893,112.907646,507.978399,122.635072,497.139379,126.144374C486.300359,129.653676,474.415806,126.244876,467.084744,117.52392C459.753681,108.802963,458.438391,96.509366,463.75853,86.43486C464.36053,85.281035,465.049172,84.174528,465.81853,83.12486C472.676913,73.612496,484.738179,69.384246,496.034789,72.532115C507.331399,75.679985,515.46787,85.536459,516.41853,97.22486C516.4885,97.97483,516.51853,98.73484,516.51853,99.50486Z" transform="matrix(1 0 0 1 -93.4852 -27.5027)" fill="rgb(177,136,233)" stroke="none" stroke-width="1"/><path id="e4GzLbioYDp9" d="M516.51853,99.50486C516.51853,100.19486,516.49853,100.87486,516.43853,101.54486L474.51853,96.50486L516.41853,97.22486C516.4885,97.97483,516.51853,98.73484,516.51853,99.50486Z" transform="matrix(1 0 0 1 -93.4852 -27.5027)" fill="rgb(208,205,225)" stroke="none" stroke-width="1"/><path id="e4GzLbioYDp10" d="M506.51853,113.61484L467.73853,118.28484C466.637735,117.05769,465.647236,115.735909,464.77853,114.33484Z" transform="matrix(1 0 0 1 -93.4852 -27.5027)" fill="rgb(208,205,225)" stroke="none" stroke-width="1"/><path id="e4GzLbioYDp11" d="M495.51853,82.61484L463.75853,86.43484C464.36053,85.281015,465.049172,84.174508,465.81853,83.12484Z" transform="matrix(1 0 0 1 -93.4852 -27.5027)" fill="rgb(208,205,225)" stroke="none" stroke-width="1"/><path id="e4GzLbioYDp12" d="M900.25143,603.63055C899.92797,604.24004,899.59152,604.8313,899.22443,605.39498C893.165884,615.04347,881.864883,620.058409,870.645523,618.077174C859.426163,616.095939,850.526295,607.513715,848.1388,596.373733C845.751304,585.23375,850.352399,573.75803,859.77443,567.35298C860.847068,566.61599,861.974057,565.961413,863.1457,565.39488C873.662989,560.207455,886.299032,562.12657,894.801902,570.202704C903.304772,578.278839,905.871405,590.799421,901.23191,601.56965C900.94214,602.265,900.61239,602.95037,900.25143,603.63055Z" transform="matrix(1 0 0 1 -93.4852 -27.5027)" fill="rgb(177,136,233)" stroke="none" stroke-width="1"/><path id="e4GzLbioYDp13" d="M900.25143,603.63055C899.92797,604.24004,899.59152,604.8313,899.22443,605.39498L864.5584,581.29206L901.23194,601.56969C900.94214,602.265,900.61239,602.95037,900.25143,603.63055Z" transform="matrix(1 0 0 1 -93.4852 -27.5027)" fill="rgb(208,205,225)" stroke="none" stroke-width="1"/><path id="e4GzLbioYDp14" d="M884.80385,611.4064L848.35959,597.3524C847.962511,595.752409,847.707217,594.120536,847.59667,592.47572Z" transform="matrix(1 0 0 1 -93.4852 -27.5027)" fill="rgb(208,205,225)" stroke="none" stroke-width="1"/><path id="e4GzLbioYDp15" d="M889.61936,578.867L859.77446,567.353C860.847098,566.61601,861.974087,565.961433,863.14573,565.3949Z" transform="matrix(1 0 0 1 -93.4852 -27.5027)" fill="rgb(208,205,225)" stroke="none" stroke-width="1"/><path id="e4GzLbioYDp16" d="M1098.56381,120.95526C1099.04557,121.44926,1099.50601,121.95003,1099.93081,122.47156C1107.271125,131.184762,1108.599432,143.47699,1103.28994,153.557139C1097.980447,163.637288,1087.092211,169.494726,1075.754888,168.369902C1064.417565,167.245077,1054.89255,159.362352,1051.66726,148.43543C1051.29263,147.189088,1051.013068,145.916127,1050.83098,144.6275C1049.099368,133.029042,1054.781894,121.580835,1065.067019,115.947104C1075.352143,110.313372,1088.058866,111.688769,1096.90029,119.39279C1097.47405,119.88088,1098.02619,120.404,1098.56381,120.95526Z" transform="matrix(1 0 0 1 -93.4852 -27.5027)" fill="rgb(177,136,233)" stroke="none" stroke-width="1"/><path id="e4GzLbioYDp17" d="M1098.56381,120.95526C1099.04557,121.44926,1099.50601,121.95003,1099.93081,122.47156L1066.40126,148.13194L1096.90026,119.39279C1097.47405,119.88088,1098.02619,120.404,1098.56381,120.95526Z" transform="matrix(1 0 0 1 -93.4852 -27.5027)" fill="rgb(208,205,225)" stroke="none" stroke-width="1"/><path id="e4GzLbioYDp18" d="M1101.25637,138.03864L1076.75421,168.4581C1075.109358,168.34814,1073.477398,168.093428,1071.87727,167.69692Z" transform="matrix(1 0 0 1 -93.4852 -27.5027)" fill="rgb(208,205,225)" stroke="none" stroke-width="1"/><path id="e4GzLbioYDp19" d="M1071.73725,123.52584L1051.66725,148.43543C1051.29262,147.189088,1051.013058,145.916127,1050.83097,144.6275Z" transform="matrix(1 0 0 1 -93.4852 -27.5027)" fill="rgb(208,205,225)" stroke="none" stroke-width="1"/><path id="e4GzLbioYDp20" d="M573.26553,636.95591C573.26553,636.95591,634.7111,639.51615,634.7111,654.87754C634.7111,670.23893,565.58483,654.87754,565.58483,654.87754Z" transform="matrix(1 0 0 1 -93.4852 -27.5027)" fill="rgb(160,97,106)" stroke="none" stroke-width="1"/><path id="e4GzLbioYDp21" d="M481.09717,872.49728L365.88672,864.81658L360.76625,803.371L335.16393,857.13588L222.51371,841.77448C225.07394,744.48566,266.03771,649.75707,268.59789,636.9559C271.15807,624.15473,277.27712,571.26026,277.27712,571.26026C288.46532,547.52701,347.09439,545.29962,393.05074,547.45013C412.09903,548.32068,428.9965,549.95913,439.41651,551.13687C446.30339,551.90487,450.37438,552.46824,450.37438,552.46824C468.73105,571.38839,480.55962,597.16979,487.83059,625.97241C514.04734,729.73871,481.09717,872.49728,481.09717,872.49728Z" transform="matrix(1 0 0 1 -93.4852 -27.5027)" fill="rgb(47,46,65)" stroke="none" stroke-width="1"/><circle id="e4GzLbioYDp22" r="64.0058" transform="matrix(1 0 0 1 259.6 187.015)" fill="rgb(160,97,106)" stroke="none" stroke-width="1"/><path id="e4GzLbioYDp23" d="M309.56161,229.879C309.56161,229.879,291.64,309.24619,263.47743,332.28828C235.31486,355.33037,373.56743,332.28828,373.56743,332.28828C373.56743,332.28828,342.84465,281.08363,365.88674,258.04154C388.92883,234.99945,309.56161,229.879,309.56161,229.879Z" transform="matrix(1 0 0 1 -93.4852 -27.5027)" fill="rgb(160,97,106)" stroke="none" stroke-width="1"/><path id="e4GzLbioYDp24" d="M440.13345,557.58871L397.659,562.29945L278.83882,575.51034C278.83882,575.51034,278.27564,573.99973,277.27712,571.26027C268.64912,547.73173,227.09663,433.23827,222.51371,398.85427C217.39325,360.45078,271.15812,314.3666,271.15812,314.3666C271.15812,314.3666,322.36277,304.12567,337.72412,304.12567C353.08547,304.12567,414.53112,327.16776,414.53112,327.16776L437.44512,533.29209L439.41655,551.13683Z" transform="matrix(1 0 0 1 -93.4852 -27.5027)" fill="rgb(208,205,225)" stroke="none" stroke-width="1"/><path id="e4GzLbioYDp25" d="M487.83059,625.97242L401.73,575.51034C401.73,575.51034,400.21924,570.59458,397.659,562.29945C396.37889,558.15189,394.8175,553.13394,393.05077,547.45014C383.11706,515.54959,366.44992,462.91122,353.08559,424.45664C332.60373,365.5713,432.45278,529.42616,432.45278,529.42616L437.44511,533.29216L439.41654,551.1369C446.30342,551.9049,450.37441,552.46827,450.37441,552.46827C468.73105,571.3884,480.55962,597.1698,487.83059,625.97242Z" transform="matrix(1 0 0 1 -93.4852 -27.5027)" opacity="0.15" fill="rgb(0,0,0)" stroke="none" stroke-width="1"/><path id="e4GzLbioYDp26" d="M373.56741,332.28828C373.56741,332.28828,347.96509,365.57128,368.44695,424.45664C388.92881,483.342,417.09136,575.51034,417.09136,575.51034L565.58483,662.55824L586.06669,636.95591L447.81415,529.42616C447.81415,529.42616,442.69368,334.84851,417.09136,327.16781C391.48904,319.48711,373.56741,332.28828,373.56741,332.28828Z" transform="matrix(1 0 0 1 -93.4852 -27.5027)" fill="rgb(208,205,225)" stroke="none" stroke-width="1"/><path id="e4GzLbioYDp27" d="M246.83592,556.3086C246.83592,556.3086,282.67917,630.55533,298.04056,622.8746C313.40195,615.19387,259.63708,538.387,259.63708,538.387Z" transform="matrix(1 0 0 1 -93.4852 -27.5027)" fill="rgb(160,97,106)" stroke="none" stroke-width="1"/><path id="e4GzLbioYDp28" d="M242.99557,352.77013L107.30326,465.42035C107.30326,465.42035,56.09862,501.26361,150.82726,526.86593C245.5559,552.46825,253.2365,567.82964,253.2365,567.82964C253.2365,567.82964,263.47743,534.54664,276.27859,539.66709L166.18859,485.90221L255.79672,432.13733Z" transform="matrix(1 0 0 1 -93.4852 -27.5027)" fill="rgb(208,205,225)" stroke="none" stroke-width="1"/><path id="e4GzLbioYDp29" d="M188.45949,267.05154C195.58116,263.52463,211.30738,256.40675,224.70282,247.83134C223.7635,219.93372,227.19889,194.60873,237.25504,181.18472C242.89966,168.3682,254.75297,155.53662,264.03644,145.43147C286.83444,120.6161,337.24602,106.76439,346.18706,119.16303C413.8124,120.49812,420.93174,173.5061,420.93174,173.5061C420.57994,195.67797,397.53617,196.37955,377.34998,195.5716C379.15763,210.70807,374.34027,226.43584,360.39046,233.41075C333.71446,246.74875,325.71158,264.08816,339.04965,276.09248C352.38772,288.0968,376.39615,320.10796,344.38488,328.11069C312.37361,336.11342,308.37213,352.11923,317.70888,358.78821C327.04563,365.45719,296.36792,346.784,296.36792,346.784C296.36792,346.784,291.0328,378.79527,263.02292,370.79242C260.51279,370.07521,258.004,368.23753,255.53751,365.48911C247.97273,373.80111,241.22406,378.71569,236.13784,378.7427C207.00758,378.89717,210.50079,346.63299,210.50079,346.63299C210.50079,346.63299,175.9247,356.34348,186.71369,352.43877C197.50268,348.53406,197.96486,332.0423,169.29679,315.70502C140.62872,299.36774,172.37879,275.015,188.45949,267.05154Z" transform="matrix(1 0 0 1 -93.4852 -27.5027)" fill="rgb(47,46,65)" stroke="none" stroke-width="1"/><path id="e4GzLbioYDp30" d="M545.869,350.68362L545.40463,350.6224L546.5375,354.92883C547.608375,360.936846,549.163446,366.848403,551.1875,372.60568L584.41385,498.9135C586.581022,507.151748,593.426232,513.321224,601.84462,514.62357L669.60433,525.10618C678.583711,526.495257,687.461773,522.064733,691.75043,514.05435L756.14429,393.77809C758.156383,390.445806,759.994951,387.011781,761.65264,383.48975L763.83891,379.40608L763.49797,379.36113C782.210826,335.094334,771.110611,283.844567,735.758484,251.287734C700.406357,218.730902,648.417689,211.880227,605.838571,234.167867C563.259452,256.455507,539.262056,303.080375,545.86897,350.68362Z" transform="matrix(1 0 0 1 -93.4852 -27.5027)" fill="rgb(63,61,86)" stroke="none" stroke-width="1"/><path id="e4GzLbioYDp31" d="M673.7627,533.3584C672.569272,533.358357,671.377611,533.266614,670.19824,533.08398L599.37061,522.12598C590.177092,520.705343,582.701489,513.96767,580.33643,504.9707L545.606,372.94482C543.483453,366.900741,541.85218,360.695212,540.72807,354.38867L539.84965,348.61279C535.058648,311.203229,548.130004,273.717281,575.143303,247.397884C602.156602,221.078487,639.96994,208.986837,677.24219,214.74951L676.93555,216.72607C640.063827,211.044069,602.675795,223.122861,576.097739,249.303311C549.519683,275.483762,536.878758,312.685498,542.00439,349.63867L542.67969,353.95898C543.795318,360.212211,545.412852,366.365413,547.5166,372.35889L582.271,504.46189C584.433224,512.689244,591.269263,518.850617,599.67627,520.14939L670.50391,531.10739C679.468974,532.485166,688.329192,528.063468,692.61816,520.07126L694.38184,521.01462C690.304471,528.610523,682.383758,533.352308,673.7627,533.3584Z" transform="matrix(1 0 0 1 -93.4852 -27.5027)" fill="rgb(208,205,225)" stroke="none" stroke-width="1"/><rect id="e4GzLbioYDp32" width="125.314" height="2.58676" rx="0" ry="0" transform="matrix(0.343906 -0.939004 0.939004 0.343906 555.148412 469.56022)" fill="rgb(208,205,225)" stroke="none" stroke-width="1"/><rect id="e4GzLbioYDp33" width="2.58676" height="125.314" rx="0" ry="0" transform="matrix(0.999036 -0.043895 0.043895 0.999036 525.293294 341.115734)" fill="rgb(208,205,225)" stroke="none" stroke-width="1"/><path id="e4GzLbioYDp34" d="M667.77507,593.21348L577.01774,579.17307C575.612868,578.94736,574.653987,577.62948,574.871522,576.223319C575.089056,574.817158,576.401338,573.850628,577.80874,574.05998L668.56607,588.10039C669.483803,588.236903,670.258152,588.854434,670.595445,589.718786C670.932738,590.583137,670.781319,591.561928,670.198611,592.283955C669.615903,593.005981,668.691153,593.36066,667.77507,593.21348Z" transform="matrix(1 0 0 1 -93.4852 -27.5027)" fill="rgb(63,61,86)" stroke="none" stroke-width="1"/><path id="e4GzLbioYDp35" d="M670.10222,573.94052L579.34489,559.90011C578.427157,559.763597,577.652808,559.146066,577.315515,558.281714C576.978222,557.417363,577.129641,556.438572,577.712349,555.716545C578.295057,554.994519,579.219807,554.63984,580.13589,554.78702L670.89323,568.82743C671.810963,568.963943,672.585312,569.581474,672.922605,570.445826C673.259898,571.310177,673.108479,572.288968,672.525771,573.010995C671.943063,573.733021,671.018313,574.0877,670.10223,573.94052Z" transform="matrix(1 0 0 1 -93.4852 -27.5027)" fill="rgb(63,61,86)" stroke="none" stroke-width="1"/><path id="e4GzLbioYDp36" d="M672.42937,554.66756L581.672,540.62715C580.267128,540.40144,579.308247,539.08356,579.525782,537.677399C579.743316,536.271238,581.055598,535.304708,582.463,535.51406L673.22033,549.55447C674.625202,549.78018,675.584083,551.09806,675.366548,552.504221C675.149014,553.910382,673.836732,554.876912,672.42933,554.66756Z" transform="matrix(1 0 0 1 -93.4852 -27.5027)" fill="rgb(63,61,86)" stroke="none" stroke-width="1"/><path id="e4GzLbioYDp37" d="M619.57535,604.42863C637.57757,607.21363,653.72345,599.43815,655.63813,587.06163L590.44625,576.97627C588.53156,589.35278,601.57312,601.64364,619.57535,604.42863Z" transform="matrix(1 0 0 1 -93.4852 -27.5027)" fill="rgb(63,61,86)" stroke="none" stroke-width="1"/><path id="e4GzLbioYDp38" d="M652.19879,354.60221C648.32643,354.00378,645.12262,350.94282,643.36615,348.89121C642.7902,348.21862,642.22965,347.52092,641.66741,346.82169C639.6219,344.27544,637.6906,341.87085,635.00099,340.61691C629.06413,337.847,622.0689,341.71591,616.01235,345.86675L614.5491,343.73332C621.20786,339.16818,628.97272,334.95119,636.09489,338.27194C639.32982,339.78088,641.5436,342.53658,643.68395,345.20103C644.22895,345.8797,644.77295,346.5563,645.33088,347.20885C647.15724,349.34157,650.79971,352.79761,654.70262,352.00051C656.347331,351.521136,657.876989,350.711346,659.19807,349.62065C660.204547,348.869593,661.268243,348.198432,662.37942,347.61331C666.987187,345.403806,672.471267,346.178869,676.28626,349.57876C676.95138,350.208969,677.581385,350.875232,678.17343,351.57454C679.33715,352.9011,680.43572,354.15304,681.8659,354.6082C683.98025,355.2842,686.2149,354.07567,688.58276,352.79888C691.02476,351.48114,693.54913,350.118,696.41266,350.45426C696.50552,350.46543,696.59943,350.47804,696.69181,350.49233C701.78742,351.28064,704.13665,356.91596,705.46593,361.1217L702.99868,361.9006C701.1925,356.18377,698.99286,353.34078,696.10968,353.02385C694.05845,352.78257,691.99568,353.89631,689.81168,355.07501C687.07388,356.55341,684.2402,358.08152,681.08058,357.07314C678.96575,356.40022,677.57368,354.81464,676.22858,353.28106C675.698485,352.653369,675.134846,352.054792,674.54013,351.48795C671.503866,348.828909,667.182084,348.218005,663.52777,349.9313C662.537477,350.45798,661.589234,351.060175,660.69146,351.73254C659.08613,353.041708,657.222178,353.996726,655.22185,354.53496C654.226272,354.737789,653.202403,354.760566,652.19879,354.60221Z" transform="matrix(1 0 0 1 -93.4852 -27.5027)" fill="rgb(208,205,225)" stroke="none" stroke-width="1"/></svg>
