<svg cache-id="e6447534ebe94e498a1581fbeeb04e58" id="eJtE6Zh1GLV1" xmlns="http://www.w3.org/2000/svg" xmlns:xlink="http://www.w3.org/1999/xlink" viewBox="0 0 1074 739" shape-rendering="geometricPrecision" text-rendering="geometricPrecision"><style><![CDATA[#eJtE6Zh1GLV10_tr {animation: eJtE6Zh1GLV10_tr__tr 2727.272727272727ms linear infinite normal forwards}@keyframes eJtE6Zh1GLV10_tr__tr { 0% {transform: translate(633.111359px,143.041329px) rotate(3.927895deg)} 16.666667% {transform: translate(633.111359px,143.041329px) rotate(1.476318deg)} 33.333333% {transform: translate(633.111359px,143.041329px) rotate(3.927895deg)} 50% {transform: translate(633.111359px,143.041329px) rotate(1.476318deg)} 66.666667% {transform: translate(633.111359px,143.041329px) rotate(3.927895deg)} 83.333333% {transform: translate(633.111359px,143.041329px) rotate(1.476318deg)} 100% {transform: translate(633.111359px,143.041329px) rotate(3.927895deg)}} #eJtE6Zh1GLV11_tr {animation: eJtE6Zh1GLV11_tr__tr 2727.272727272727ms linear infinite normal forwards}@keyframes eJtE6Zh1GLV11_tr__tr { 0% {transform: translate(657.115143px,141.864998px) rotate(1.962833deg)} 16.666667% {transform: translate(657.115143px,141.864998px) rotate(-4.293093deg)} 33.333333% {transform: translate(657.115143px,141.864998px) rotate(1.962833deg)} 50% {transform: translate(657.115143px,141.864998px) rotate(-4.293093deg)} 66.666667% {transform: translate(657.115143px,141.864998px) rotate(1.962833deg)} 83.333333% {transform: translate(657.115143px,141.864998px) rotate(-4.293093deg)} 100% {transform: translate(657.115143px,141.864998px) rotate(1.962833deg)}} #eJtE6Zh1GLV25_tr {animation: eJtE6Zh1GLV25_tr__tr 2727.272727272727ms linear infinite normal forwards}@keyframes eJtE6Zh1GLV25_tr__tr { 0% {transform: translate(414.033432px,83.914269px) rotate(-1.234596deg)} 16.666667% {transform: translate(414.033432px,83.914269px) rotate(8.438733deg)} 33.333333% {transform: translate(414.033432px,83.914269px) rotate(-1.234596deg)} 50% {transform: translate(414.033432px,83.914269px) rotate(8.438733deg)} 66.666667% {transform: translate(414.033432px,83.914269px) rotate(-1.234596deg)} 83.333333% {transform: translate(414.033432px,83.914269px) rotate(8.438733deg)} 100% {transform: translate(414.033432px,83.914269px) rotate(-1.234596deg)}}]]></style><rect id="eJtE6Zh1GLV2" width="80" height="30" rx="5.17" ry="5.17" transform="matrix(1 0 0 1 276.010754 57.95)" opacity="0.1" fill="rgb(0,191,166)" stroke="none" stroke-width="1"/><rect id="eJtE6Zh1GLV3" width="80" height="30" rx="5.17" ry="5.17" transform="matrix(1 0 0 1 568 50)" opacity="0.1" fill="rgb(0,191,166)" stroke="none" stroke-width="1"/><rect id="eJtE6Zh1GLV4" width="80" height="30" rx="5.17" ry="5.17" transform="matrix(1 0 0 1 524 355)" opacity="0.1" fill="rgb(0,191,166)" stroke="none" stroke-width="1"/><rect id="eJtE6Zh1GLV5" width="80" height="30" rx="5.17" ry="5.17" transform="matrix(1 0 0 1 560 388)" opacity="0.1" fill="rgb(0,191,166)" stroke="none" stroke-width="1"/><rect id="eJtE6Zh1GLV6" width="80" height="30" rx="5.17" ry="5.17" transform="matrix(1 0 0 1 774 373)" opacity="0.1" fill="rgb(0,191,166)" stroke="none" stroke-width="1"/><rect id="eJtE6Zh1GLV7" width="80" height="30" rx="5.17" ry="5.17" transform="matrix(1 0 0 1 123 397)" opacity="0.1" fill="rgb(0,191,166)" stroke="none" stroke-width="1"/><rect id="eJtE6Zh1GLV8" width="80" height="30" rx="5.17" ry="5.17" transform="matrix(1 0 0 1 499 421)" opacity="0.1" fill="rgb(0,191,166)" stroke="none" stroke-width="1"/><path id="eJtE6Zh1GLV9" d="M691.9121,192.870001L688.107275,207.825797L696.889558,178.544309L720.27,159.8C720.57,155.8,713.586261,143.527761,706.266261,135.997761C705.556261,133.417761,700.952902,144.746336,697.352902,141.446336C688.334739,134.609948,705.405329,155.568369,692.385996,141.446335C692.385996,141.446335,687.222335,148.441909,681.712335,158.141909L684.76862,160.745978L681.712335,166.503724C669.742813,187.981567,657.501529,208.794078,650.978834,218.55838C646.991117,224.527887,642.58,228.89,642.58,228.89C642.58,228.89,652.130517,265.51,635.658393,267.64C633.10285,273.681076,621.017571,279.612839,614.77,275.67C608.522429,271.727161,613.71,276.48,611.97,277.67C612.08079,275.734329,612.416379,273.818117,612.97,271.96C614.57,266.73,618.29,262.25,619.28,256.87C619.511777,255.580388,619.598982,254.268946,619.54,252.96C619.77,246.65,616.7,240.44,615.42,234.13C613.93,226.82,614.73,218.77,610.83,212.42C607.83,207.57,602.51,204.55,596.98,203.16C591.9,201.89,586.9,202.34,581.78,201.8C577.08,201.3,572.59,199.22,567.89,198.45C565.379339,197.904033,562.780661,197.904033,560.27,198.45C552.32,200.64,549.83,210.66,543.69,216.17C541.48,218.17,538.77,219.55,536.77,221.74C533.86,224.93,532.85,229.38,533,233.74C532.961534,235.201422,533.04852,236.663449,533.26,238.11C534.02,243.34,536.04,248.29,537.26,253.42C538.182342,257.216604,538.682045,261.103556,538.75,265.01C538.75,265.89,538.75,266.77,538.67,267.64C538.706395,269.401349,538.237952,271.136324,537.32,272.64C536.21,274.17,534.38,274.91,532.75,275.89C527.421848,271.661381,523.422791,265.989106,521.23,259.55C519.037209,253.110894,520.96,259.89,520.5,260.55L520.5,259.55C520.5,259.55,510.5,244.87,508.98,232.88L512.46,233.24L488.38412,138.450001L500.03,117.69C499.46,111.88,497.91,103.45,493.8,97.3C497.23,90.54,499.89,94.402992,484.85,93.492992C467.25,92.422992,477.586911,91.784615,479.456911,99.284615C478.609166,103.377173,487.529277,114.791933,477.711973,117.71L466.369584,132.02919L462.867239,141.898887L464.900097,134.919699L477.650077,214.98L479.456911,217.868025L484.85,230.43C488.12,260.16,493.26,296.9,499.36,305.56C499.563049,305.852445,499.786965,306.129834,500.03,306.39L500.03,359C500.03,359,499.3,427,486.87,437.93C494.495314,435.217011,502.56024,433.951991,510.65,434.2C510.51,434.65,510.37,435.13,510.23,435.64C508.410612,442.351964,507.143056,449.201449,506.44,456.12Q506.18,458.41,505.97,460.9C504.825183,476.131907,505.036012,491.435411,506.6,506.63C511.72,560.71,519.76,599.45,519.76,599.45L522,630.89C522,630.89,519.81,684.24,525.65,701.78C527.851209,703.807921,530.380403,705.44784,533.13,706.63C533.18,707.13,533.24,707.63,533.29,708.16C533.34,708.69,533.42,709.51,533.49,710.21C530.87,711.4,525.98,716.12,524.92,734.66C524.92,734.66,526.38,748.55,522.73,755.12C519.08,761.69,521.27,780.7,532.23,782.89C539.234585,784.178347,546.415415,784.178347,553.42,782.89C560.424585,781.601653,558.54,782.89,554.88,764.62L554.24,759.94C554.16,750.89,554.54,741.2,556.34,738.31C559.99,732.46,554.88,726.62,554.88,726.62C554.88,726.62,554.52,726.82,553.93,727.09C552.99,722.04,551.76,713.84,552.2,707.58C552.2,707.05,552.29,706.58,552.35,706.03C554.5801,704.865012,556.658944,703.430979,558.54,701.76L558.54,632.35C558.54,632.35,557.81,525.65,565.85,523.45C565.85,523.45,569.5,562.18,568.04,581.19C566.58,600.2,570.23,620.66,570.23,620.66L571.69,698.13C571.69,698.13,573.09,698.8,575.35,699.59L575.2,701C574.31,709.61,572.88,722.61,571.58,730.57C569.799427,731.276768,568.474786,732.806636,568.03,734.67C565.84,741.98,567.3,760.25,562.91,765.37C560.32,768.37,557.22,774.48,558.74,778.8C557.79,782.59,558.21,788.51,569.49,789.49C586.3,790.95,593.61,782.18,593.61,782.18C593.61,782.18,595.8,778.53,593.61,771.95C591.42,765.37,594.34,753.68,594.34,753.68C594.34,753.68,595.91,743.76,593.34,742.46C593.12,741.28,592.92,740.53,592.92,740.53C592.954684,738.282705,592.128177,736.10731,590.61,734.45C590.55,726.8,590.86,712.65,593.55,703.33C593.71,702.8,593.87,702.33,594.04,701.78C596.206468,701.405862,598.295215,700.672434,600.22,699.61C602.144785,698.547566,599.49,682.8,604.61,671.11C609.73,659.42,606.8,612.64,606.8,612.64C606.8,612.64,604.61,600.35,607.7,590.39C611.239776,579.351987,613.894837,568.049588,615.64,556.59L619.95,526.4C619.95,526.4,631.3,489.65,616.35,451.93C615.74,450.37,615.07,448.81,614.35,447.25C613.11,444.54,611.73,441.82,610.19,439.12C609.95,438.7,609.69,438.27,609.44,437.85C611.01,437.46,611.9,437.23,611.9,437.23C611.9,437.23,592.17,391.23,604.59,367.8C604.59,367.8,611.59,360.8,612.59,353.11C613.83,342.94,615.18,332.78,617.4,322.78L617.79,321.02C617.79,321.02,617.85,320.68,617.95,320.07C618.23,319.89,586.016029,321.22,586.286029,321.020001C607.346029,305.640001,650.978835,236.46,650.978835,236.46L663.84,228.9L666.62,223.02L688.107272,174.800003L692.385995,198.450001L708,207.825794L699.305003,203.160002L700.278748,215.280003ZM499.31,117.71L491.39,116.55C490,109.4,489.06,104.71,489.06,104.71C490.719888,102.657914,492.189299,100.458818,493.45,98.14C497.28,104,498.75,112,499.31,117.67ZM469.73,102.36C470.28,104.24,470.78,105.45,470.78,105.45L477.711974,114.269219L480.709955,116.55C492.339909,113.391934,478.864376,109.081427,479.456911,105.45ZM719.53,159.97L706.811862,161.460556C711.786675,146.721175,705.660085,144.609831,703.265132,141.898887C705.390849,139.951222,709.084222,141.740078,708.809998,138.870082C715.179998,146.480082,719.81,156.44,719.53,159.94ZM692.385996,145.745927C695.581055,144.677732,704.239591,146.871642,706.811862,144.696126C708.512304,149.059728,709.400218,156.476956,706.996111,161.460556L698,162.73L689.330311,159.800001Z" transform="matrix(0.999623 0 0 1 -63 -80.5)" fill="rgb(61,158,103)" stroke="none" stroke-width="1"/><g id="eJtE6Zh1GLV10_tr" transform="translate(633.111359,143.041329) rotate(3.927895)"><g id="eJtE6Zh1GLV10" transform="translate(-633.111358,-143.041328)"><g id="eJtE6Zh1GLV11_tr" transform="translate(657.115143,141.864998) rotate(1.962833)"><g id="eJtE6Zh1GLV11" transform="translate(-657.115143,-141.864997)"><polygon id="eJtE6Zh1GLV12" points="717,184.1 690.91,194.99 660.6,89.3 667.71,80.86 680.74,78.84 717,184.1" transform="matrix(0.999623 0 0 1 0.259678 0)" fill="rgb(61,158,103)" stroke="none" stroke-width="1"/><polygon id="eJtE6Zh1GLV13" points="717,184.1 690.91,194.99 660.6,89.3 667.71,80.86 680.74,78.84 717,184.1" transform="matrix(0.999623 0 0 1 0.259678 0)" opacity="0.2" fill="rgb(61,158,103)" stroke="none" stroke-width="1"/><polygon id="eJtE6Zh1GLV14" points="667.71,80.86 622.43,86.67 645.64,198.51 690.91,194.99 667.71,80.86" transform="matrix(0.999623 0 0 1 0.247565 0)" fill="rgb(61,158,103)" stroke="none" stroke-width="1"/><polygon id="eJtE6Zh1GLV15" points="667.71,80.86 622.43,86.67 645.64,198.51 690.91,194.99 667.71,80.86" transform="matrix(0.999623 0 0 1 0.247565 0)" opacity="0.07" fill="rgb(61,158,103)" stroke="none" stroke-width="1"/><polygon id="eJtE6Zh1GLV16" points="669.51,202.72 641.32,204.89 645.66,95.02 655.05,89.24 668.06,91.41 669.51,202.72" transform="matrix(0.999623 0 0 1 0.247091 0)" fill="rgb(61,158,103)" stroke="none" stroke-width="1"/><polygon id="eJtE6Zh1GLV17" points="669.51,202.72 641.32,204.89 645.66,95.02 655.05,89.24 668.06,91.41 669.51,202.72" transform="matrix(0.999623 0 0 1 -1.602923 0.045924)" opacity="0.2" fill="rgb(28,74,48)" stroke="none" stroke-width="1"/><polygon id="eJtE6Zh1GLV18" points="655.05,89.24 610.24,80.56 597.23,194.05 641.32,204.89 655.05,89.24" transform="matrix(0.999623 0 0 1 0.236055 0)" fill="rgb(61,158,103)" stroke="none" stroke-width="1"/></g></g><path id="eJtE6Zh1GLV19" d="M700.7,151.67L663.11,231.18L657.33,242C657.33,242,641.024063,313.570891,620.234063,328.780891C619.039358,329.673114,600.67019,333.49749,599.300477,334.086784L610.34,288.26L614.34,278.18L614.64,277.41C619.278031,272.886364,622.963753,267.480186,625.48,261.51C629.82,251.39,642.11,231.15,642.11,231.15C642.11,231.15,644.28,225.37,644.28,221.03C644.28,216.69,685.48,145.13,685.48,145.13C685.48,145.13,689.09,112.6,706.48,128.5C723.87,144.4,700.7,151.67,700.7,151.67Z" transform="matrix(0.999623 0 0 1 -63 -80.5)" fill="rgb(248,189,197)" stroke="none" stroke-width="1"/><g id="eJtE6Zh1GLV20" transform="matrix(1 0 0 1 0.000001 0.000001)"><path id="eJtE6Zh1GLV21" d="M718.94,163.88L718.22,163.79C718.22,163.52,721.22,137.12,704.65,133.79L704.79,133.08C722.07,136.55,719,163.61,718.94,163.88Z" transform="matrix(1 0 0 1 -63 -80.5)" fill="rgb(83,84,97)" stroke="none" stroke-width="1"/><path id="eJtE6Zh1GLV22" d="M706.09,168.45L705.44,168.14C705.55,167.9,716.69,143.77,701.97,135.36L702.33,134.73C717.62,143.47,706.21,168.2,706.09,168.45Z" transform="matrix(1 0 0 1 -63 -80.5)" fill="rgb(83,84,97)" stroke="none" stroke-width="1"/></g></g></g><rect id="eJtE6Zh1GLV23" width="49.88" height="73.01" rx="0" ry="0" transform="matrix(1 0 0 1 488.44 160.44)" fill="rgb(119,78,85)" stroke="none" stroke-width="1"/><rect id="eJtE6Zh1GLV24" width="49.88" height="73.01" rx="0" ry="0" transform="matrix(1 0 0 1 488.44 160.44)" opacity="0.2" fill="rgb(0,0,0)" stroke="none" stroke-width="1"/><g id="eJtE6Zh1GLV25_tr" transform="translate(414.033432,83.914269) rotate(-1.234596)"><g id="eJtE6Zh1GLV25" transform="translate(-414.033432,-83.914268)"><polygon id="eJtE6Zh1GLV26" points="391.22,35.03 384.71,35.03 371.7,148.51 400.61,147.07 391.22,35.03" fill="rgb(61,158,103)" stroke="none" stroke-width="1"/><polygon id="eJtE6Zh1GLV27" points="391.22,35.03 384.71,35.03 371.7,148.51 400.61,147.07 391.22,35.03" transform="matrix(1 0 0 1 -2.073162 -3.82)" opacity="0.2" fill="rgb(14,38,24)" stroke="none" stroke-width="1"/><polygon id="eJtE6Zh1GLV28" points="389.05,33.58 381.1,147.79 450.49,155.02 458.44,43.7 389.05,33.58" transform="matrix(1 0 0 1 -1.875076 -1.502603)" fill="rgb(61,158,103)" stroke="none" stroke-width="1"/><path id="eJtE6Zh1GLV29" d="M501.56,127.82L500.84,127.82C500.84,127.51,501.35,97.02,483.84,94.21C480.39,93.66,477.57,94.44,475.46,96.53C468.23,103.7,471.22,123.95,471.25,124.15L470.54,124.26C470.41,123.41,467.47,103.44,474.96,96.02C477.24,93.75,480.28,92.9,483.96,93.49C502.08,96.39,501.57,127.51,501.56,127.82Z" transform="matrix(1 0 0 1 -63 -80.5)" fill="rgb(83,84,97)" stroke="none" stroke-width="1"/></g></g><path id="eJtE6Zh1GLV30" d="M535.9,706.81C535.9,706.81,527.23,706.09,525.78,731.39C525.78,731.39,527.23,745.12,523.61,751.63C519.99,758.14,522.16,776.93,533.01,779.1C539.951543,780.379368,547.068457,780.379368,554.01,779.1C560.951543,777.820632,559.07,779.1,555.46,761.03L548.23,708.26Z" transform="matrix(1 0 0 1 -63 -80.5)" fill="rgb(92,61,83)" stroke="none" stroke-width="1"/><path id="eJtE6Zh1GLV31" d="M535.9,706.81C535.9,706.81,527.23,706.09,525.78,731.39C525.78,731.39,527.23,745.12,523.61,751.63C519.99,758.14,522.16,776.93,533.01,779.1C539.951543,780.379368,547.068457,780.379368,554.01,779.1C560.951543,777.820632,559.07,779.1,555.46,761.03L548.23,708.26Z" transform="matrix(1 0 0 1 -63 -80.5)" opacity="0.05" fill="rgb(0,0,0)" stroke="none" stroke-width="1"/><path id="eJtE6Zh1GLV32" d="M581.35,289.4C580.73,300.16,582.88,306.4,582.88,306.4L564.09,311.46C564.09,311.46,533.01,315.8,545.3,303.46C549.55,299.21,551.64,291.92,552.55,284.22C553.119397,278.960461,553.296553,273.665837,553.08,268.38C552.91332,263.427624,552.486062,258.487456,551.8,253.58C551.113938,248.672544,597.34,237.68,587.22,263.7C585.376432,268.406422,583.921565,273.255977,582.87,278.2C582.087674,281.890714,581.579619,285.634276,581.35,289.4Z" transform="matrix(1 0 0 1 -63 -80.5)" fill="rgb(248,189,197)" stroke="none" stroke-width="1"/><path id="eJtE6Zh1GLV33" d="M587.22,263.71C585.376432,268.416422,583.921565,273.265977,582.87,278.21C571.896053,280.541964,560.516041,276.790647,553.08,268.39C552.91332,263.437624,552.486062,258.497456,551.8,253.59C551.113938,248.682544,597.34,237.69,587.22,263.71Z" transform="matrix(1 0 0 1 -63 -80.5)" opacity="0.1" fill="rgb(0,0,0)" stroke="none" stroke-width="1"/><circle id="eJtE6Zh1GLV34" r="31.08" transform="matrix(1 0 0 1 513.38 165.86)" fill="rgb(248,189,197)" stroke="none" stroke-width="1"/><path id="eJtE6Zh1GLV35" d="M521.44,261.54L521.44,270.94L505.54,312.14L501.2,307.8C500.960554,307.542905,500.739981,307.268859,500.54,306.98C490.04,292.06,482.4,192.87,482.4,192.87L472.29,109C472.29,109,461.45,83,485.29,84.42C509.13,85.84,490.35,108.27,490.35,108.27C490.35,108.27,506.25,187.78,504.08,190.67C501.91,193.56,504.08,202.24,504.08,202.24C504.08,202.24,510.59,218.87,509.86,231.15C509.13,243.43,521.44,261.54,521.44,261.54Z" transform="matrix(1 0 0 1 -63 -80.5)" fill="rgb(248,189,197)" stroke="none" stroke-width="1"/><path id="eJtE6Zh1GLV36" d="M555.41,728.49C555.41,728.49,530.83,738.61,533.72,729.21C535.48,723.51,534.83,712.74,534.05,705.21C533.55,700.3,532.99,696.72,532.99,696.72L553.99,698.89C553.255972,700.721904,552.846524,702.667629,552.78,704.64C552.09,714.23,555.41,728.49,555.41,728.49Z" transform="matrix(1 0 0 1 -63 -80.5)" fill="rgb(248,189,197)" stroke="none" stroke-width="1"/><path id="eJtE6Zh1GLV37" d="M593.63,700.37C589.84,713.53,590.83,736.45,590.83,736.45C590.83,736.45,568.42,739.34,570.59,733.56C572.1,729.56,574.31,709.74,575.51,698.09C576.04,693,576.37,689.47,576.37,689.47L596.61,693.81C595.23194,695.800624,594.222585,698.02256,593.63,700.37Z" transform="matrix(1 0 0 1 -63 -80.5)" fill="rgb(248,189,197)" stroke="none" stroke-width="1"/><path id="eJtE6Zh1GLV38" d="M533,696.69L554,698.86C553.265972,700.691904,552.856524,702.637629,552.79,704.61C546.973085,707.654517,540.081545,707.86458,534.09,705.18C533.56,700.26,533,696.69,533,696.69Z" transform="matrix(1 0 0 1 -63 -80.5)" opacity="0.1" fill="rgb(0,0,0)" stroke="none" stroke-width="1"/><path id="eJtE6Zh1GLV39" d="M596.62,693.8C595.233803,695.792206,594.217595,698.017702,593.62,700.37C586.79,701.47,579.62,699.54,575.51,698.09C576.04,693,576.37,689.47,576.37,689.47Z" transform="matrix(1 0 0 1 -63 -80.5)" opacity="0.1" fill="rgb(0,0,0)" stroke="none" stroke-width="1"/><path id="eJtE6Zh1GLV40" d="M619.75,525.37L615.49,555.23C613.761722,566.564343,611.133411,577.743023,607.63,588.66C604.57,598.51,606.74,610.66,606.74,610.66C606.74,610.66,609.63,656.92,604.57,668.49C599.51,680.06,600.23,696.68,600.23,696.68C588.66,703.19,572.04,695.23,572.04,695.23L570.59,618.61C570.59,618.61,566.98,598.37,568.42,579.61C569.86,560.85,566.25,522.51,566.25,522.51C558.25,524.68,559.02,630.21,559.02,630.21L559.02,698.88C541.67,714.06,526.49,698.88,526.49,698.88C520.71,681.53,522.88,628.76,522.88,628.76L520.71,597.68C520.71,597.68,512.71,559.37,507.71,505.88C506.163882,490.851468,505.956399,475.715265,507.09,460.65Q507.3,458.19,507.55,455.92C508.242867,449.079376,509.493698,442.306829,511.29,435.67C511.863253,433.481701,512.598618,431.339113,513.49,429.26L591.16,432.87L595.74,433.08L606.74,433.59C607.94,435.4,609.07,437.24,610.12,439.08C611.64,441.75,613.01,444.44,614.23,447.08C614.93,448.62,615.59,450.17,616.23,451.71C631,489,619.75,525.37,619.75,525.37Z" transform="matrix(1 0 0 1 -63 -80.5)" fill="rgb(94,82,173)" stroke="none" stroke-width="1"/><path id="eJtE6Zh1GLV41" d="M534.45,436.47C534.45,436.47,531.05,470.47,507.08,460.63Q507.29,458.17,507.54,455.9C513.18,457.43,528.79,459.54,529.38,436.46Z" transform="matrix(1 0 0 1 -63 -80.5)" opacity="0.1" fill="rgb(0,0,0)" stroke="none" stroke-width="1"/><path id="eJtE6Zh1GLV42" d="M616.19,451.72C599.59,457.65,593.33,441.86,591.19,432.85L595.77,433.06C598.26,447.23,608.2,448.06,614.25,447.06C614.93,448.64,615.58,450.19,616.19,451.72Z" transform="matrix(1 0 0 1 -63 -80.5)" opacity="0.1" fill="rgb(0,0,0)" stroke="none" stroke-width="1"/><path id="eJtE6Zh1GLV43" d="M542.34,724.65C538.65,724.07,533.01,722.04,534.78,714.95C534.78,714.95,527.95,712.59,528.67,740.78C528.67,740.78,527.95,754.51,526.5,757.41C525.05,760.31,526.5,777.65,541.68,776.2C541.68,776.2,552.52,779.81,555.41,774.03C555.41,774.03,553.24,740.78,556.86,735.03C560.48,729.28,555.41,723.46,555.41,723.46C555.41,723.46,550.29,726.3,546.61,725.46C545.21,725.07,543.77,724.88,542.34,724.65Z" transform="matrix(1 0 0 1 -63 -80.5)" fill="rgb(92,61,83)" stroke="none" stroke-width="1"/><path id="eJtE6Zh1GLV44" d="M560.47,771.86C560.47,771.86,553.24,784.15,569.87,785.59C586.5,787.03,593.72,778.36,593.72,778.36C593.72,778.36,595.89,774.75,593.72,768.24C591.55,761.73,594.44,750.17,594.44,750.17C594.44,750.17,596.61,736.44,591.55,739.33C586.49,742.22,560.47,771.86,560.47,771.86Z" transform="matrix(1 0 0 1 -63 -80.5)" fill="rgb(92,61,83)" stroke="none" stroke-width="1"/><path id="eJtE6Zh1GLV45" d="M560.47,771.86C560.47,771.86,553.24,784.15,569.87,785.59C586.5,787.03,593.72,778.36,593.72,778.36C593.72,778.36,595.89,774.75,593.72,768.24C591.55,761.73,594.44,750.17,594.44,750.17C594.44,750.17,596.61,736.44,591.55,739.33C586.49,742.22,560.47,771.86,560.47,771.86Z" transform="matrix(1 0 0 1 -63 -80.5)" opacity="0.05" fill="rgb(0,0,0)" stroke="none" stroke-width="1"/><path id="eJtE6Zh1GLV46" d="M579.27,727.77C579.27,727.77,570.6,724.16,568.43,731.38C566.26,738.6,567.71,756.68,563.37,761.74C559.03,766.8,553.25,780.53,570.6,779.81C587.95,779.09,591.6,773.3,591.6,773.3C591.6,773.3,590.88,755.23,593.05,750.17C595.22,745.11,593.05,737.17,593.05,737.17C593.05,737.17,593.72,727,579.27,727.77Z" transform="matrix(1 0 0 1 -63 -80.5)" fill="rgb(92,61,83)" stroke="none" stroke-width="1"/><circle id="eJtE6Zh1GLV47" r="1.45" transform="matrix(1 0 0 1 407.84 43.7)" opacity="0.2" fill="rgb(0,0,0)" stroke="none" stroke-width="1"/><circle id="eJtE6Zh1GLV48" r="1.45" transform="matrix(1 0 0 1 438.2 47.31)" opacity="0.2" fill="rgb(0,0,0)" stroke="none" stroke-width="1"/><path id="eJtE6Zh1GLV49" d="M582.88,306.36L564.09,311.42C564.09,311.42,533.01,315.76,545.3,303.42C549.55,299.17,551.64,291.88,552.55,284.18C557.46,291.88,563.37,289.69,563.37,289.69L581.29,289.34L581.36,289.34C580.73,300.16,582.88,306.36,582.88,306.36Z" transform="matrix(1 0 0 1 -63 -80.5)" opacity="0.1" fill="rgb(0,0,0)" stroke="none" stroke-width="1"/><path id="eJtE6Zh1GLV50" d="M618.55,320.75C617.355295,321.642223,616.059713,322.390706,614.69,322.98L610.35,288.28L614.35,278.2L615.35,277.43C624.38,280,619.72,313.24,618.55,320.75Z" transform="matrix(1 0 0 1 -63 -80.5)" opacity="0.1" fill="rgb(0,0,0)" stroke="none" stroke-width="1"/><path id="eJtE6Zh1GLV51" d="M521.44,261.54L521.44,270.94L505.54,312.14L501.2,307.8C500.960554,307.542905,500.739981,307.268859,500.54,306.98C502.42,285.5,521.44,261.54,521.44,261.54Z" transform="matrix(1 0 0 1 -63 -80.5)" opacity="0.1" fill="rgb(0,0,0)" stroke="none" stroke-width="1"/><path id="eJtE6Zh1GLV52" d="M610.11,439.06C600,441.59,547.22,453.99,531.56,442.25C525.38,437.62,518.1,435.92,511.29,435.65C511.863253,433.461701,512.598618,431.319113,513.49,429.24L591.16,432.85L595.74,433.06L606.74,433.57C607.94,435.39,609.06,437.22,610.11,439.06Z" transform="matrix(1 0 0 1 -63 -80.5)" opacity="0.1" fill="rgb(0,0,0)" stroke="none" stroke-width="1"/><path id="eJtE6Zh1GLV53" d="M474.1,90.59C474.1,90.59,484.94,108.66,492.17,90.59" transform="matrix(1 0 0 1 -63 -80.5)" fill="rgb(248,189,197)" stroke="none" stroke-width="1"/><path id="eJtE6Zh1GLV54" d="M697.09,127.81C697.09,127.81,692.75,149.5,710.09,139.38" transform="matrix(1 0 0 1 -63 -80.5)" fill="rgb(248,189,197)" stroke="none" stroke-width="1"/><g id="eJtE6Zh1GLV55" opacity="0.1"><path id="eJtE6Zh1GLV56" d="M562.89,529.64C562.54,525.24,562.28,522.49,562.28,522.49C554.28,524.66,555.05,630.19,555.05,630.19L555.05,698.86C549.97,703.3,545.05,705.14,540.7,705.53C545.92,705.99,552.14,704.53,558.7,698.86L558.7,630.19C558.7,630.19,558.14,553.72,562.89,529.64Z" transform="matrix(1 0 0 1 -63 -80.5)" fill="rgb(0,0,0)" stroke="none" stroke-width="1"/><path id="eJtE6Zh1GLV57" d="M615.83,451.72C615.22,450.18,614.57,448.63,613.83,447.09C612.61,444.41,611.24,441.72,609.72,439.09C608.72,437.25,607.54,435.42,606.34,433.6L595.34,433.09L590.76,432.88L513.09,429.27L513.02,429.43L587.15,432.88L591.73,433.09L602.73,433.6C603.93,435.41,605.06,437.25,606.11,439.09C607.63,441.76,609,444.45,610.22,447.09C610.92,448.63,611.58,450.18,612.22,451.72C627,489.02,615.78,525.37,615.78,525.37L611.52,555.23C609.791722,566.564343,607.163411,577.743023,603.66,588.66C600.6,598.51,602.77,610.66,602.77,610.66C602.77,610.66,605.66,656.92,600.6,668.49C595.54,680.06,596.26,696.68,596.26,696.68C593.467659,698.187114,590.37009,699.041852,587.2,699.18C591.57542,699.573782,595.972092,698.706246,599.87,696.68C603.767908,694.653754,599.15,680.05,604.21,668.49C609.27,656.93,606.38,610.66,606.38,610.66C606.38,610.66,604.21,598.5,607.27,588.66C610.773411,577.743023,613.401722,566.564343,615.13,555.23L619.39,525.37C619.39,525.37,630.61,489,615.83,451.72Z" transform="matrix(1 0 0 1 -63 -80.5)" fill="rgb(0,0,0)" stroke="none" stroke-width="1"/></g><path id="eJtE6Zh1GLV58" d="M581.29,290.82C591.29,295.53,615.187987,265.01,615.187987,265.01C625.307987,267.9,623.487488,320.07,623.487488,320.07L620.783447,327.18C618.583447,337.07,613.66,343.94,612.43,354C611.5,361.59,604.57,368.53,604.57,368.53C592.28,391.66,611.8,437.2,611.8,437.2C611.8,437.2,548.91,453.83,531.57,440.81C514.23,427.79,488.2,437.92,488.2,437.92C500.49,427.08,501.2,359.85,501.2,359.85L501.2,307.85C502.65,286.16,522.2,261.59,522.2,261.59C530.2,284,552.43,285.48,552.43,285.48C557.36,293.48,563.43,291.23,563.43,291.23Z" transform="matrix(1 0 0 1 -63 -80.5)" fill="rgb(177,136,233)" stroke="none" stroke-width="1"/><path id="eJtE6Zh1GLV59" d="M568.29,202.56C565.808953,202.020848,563.241047,202.020848,560.76,202.56C552.9,204.73,550.43,214.64,544.36,220.08C542.18,222.08,539.49,223.42,537.51,225.59C533.99,229.45,533.28,235.17,534.03,240.34C534.78,245.51,536.78,250.41,538.03,255.48C539.264385,260.555121,539.732899,265.786301,539.42,271C539.447769,272.730596,538.983043,274.433435,538.08,275.91C536.63,277.91,533.96,278.54,532.08,280.14C526.34,285.08,531.08,295.33,526.87,301.64C525.06,304.37,521.67,306.17,520.98,309.37C520.49,311.64,521.53,313.93,522.55,316.02C525.23,321.52,528.01,327.17,532.55,331.27C537.09,335.37,542.7,337.43,548.28,339.52C549.97,340.15,552.09,340.7,553.38,339.45C554.97,337.89,553.77,335.25,552.67,333.32C550.93,330.32,549.57,326.7,550.59,323.32C551.61,319.94,554.88,317.7,557.08,314.88C562.75,307.58,560.89,297.1,558.08,288.3C556.89,284.59,555.55,280.64,556.56,276.87C556.99,275.25,557.84,273.78,558.38,272.19C560.78,265.11,556.75,257.34,557.93,249.96C558.543634,247.078118,559.553214,244.295043,560.93,241.69L567.28,228.04C567.918908,226.397235,568.873565,224.895604,570.09,223.62C572.063201,222.033339,574.564823,221.254262,577.09,221.44C582.291995,221.556334,587.218661,223.800986,590.72,227.65C597.52,235.21,597.09,246.65,596.27,256.73L595.68,264.01C595.25,269.25,594.68,274.84,591.38,278.92C588.81,282.08,584.66,284.23,583.6,288.17C582.68,291.56,584.41,295.24,583.5,298.63C582.14,303.7,575.88,305.53,572.57,309.63C569.720885,313.276668,569.395519,318.296024,571.75,322.28C573.01,324.28,575.02,326.28,574.75,328.63C574.52,330.52,572.82,332.05,572.83,333.95C572.996665,335.690179,574.216625,337.148567,575.9,337.62C577.555374,338.048727,579.28153,338.130439,580.97,337.86L598.9,336.24C600.022685,336.235677,601.123887,335.931897,602.09,335.36C603.34,334.46,603.75,332.8,603.92,331.27C604.64,324.89,602.92,317.92,606.11,312.34C607.11,310.55,608.58,309.06,609.69,307.34C615.81,297.74,609.64,284.72,612.97,273.83C614.55,268.66,618.23,264.22,619.21,258.91C620.51,251.83,616.82,244.91,615.39,237.91C613.92,230.68,614.71,222.72,610.85,216.43C607.9,211.63,602.62,208.64,597.16,207.27C592.16,206.01,587.16,206.46,582.16,205.92C577.38,205.37,572.94,203.31,568.29,202.56Z" transform="matrix(1 0 0 1 -63 -80.5)" opacity="0.1" fill="rgb(0,0,0)" stroke="none" stroke-width="1"/><path id="eJtE6Zh1GLV60" d="M568.29,201.11C565.808953,200.570848,563.241047,200.570848,560.76,201.11C552.9,203.28,550.43,213.19,544.36,218.63C542.18,220.63,539.49,221.97,537.51,224.14C533.99,228,533.28,233.72,534.03,238.89C534.78,244.06,536.78,248.96,538.03,254.03C539.264385,259.105121,539.732899,264.336301,539.42,269.55C539.447769,271.280596,538.983043,272.983435,538.08,274.46C536.63,276.46,533.96,277.09,532.08,278.69C526.34,283.63,531.08,293.88,526.87,300.19C525.06,302.92,521.67,304.72,520.98,307.92C520.49,310.19,521.53,312.48,522.55,314.57C525.23,320.07,528.01,325.72,532.55,329.82C537.09,333.92,542.7,335.98,548.28,338.07C549.97,338.7,552.09,339.25,553.38,338C554.97,336.44,553.77,333.8,552.67,331.87C550.93,328.87,549.57,325.25,550.59,321.87C551.61,318.49,554.88,316.25,557.08,313.43C562.75,306.13,560.89,295.65,558.08,286.85C556.89,283.14,555.55,279.19,556.56,275.42C556.99,273.8,557.84,272.33,558.38,270.74C560.78,263.66,556.75,255.89,557.93,248.51C558.543634,245.628118,559.553214,242.845043,560.93,240.24L567.28,226.59C567.918908,224.947235,568.873565,223.445604,570.09,222.17C572.063201,220.583339,574.564823,219.804262,577.09,219.99C582.291995,220.106334,587.218661,222.350986,590.72,226.2C597.52,233.76,597.09,245.2,596.27,255.28L595.68,262.56C595.25,267.8,594.68,273.39,591.38,277.47C588.81,280.63,584.66,282.78,583.6,286.72C582.68,290.11,584.41,293.79,583.5,297.18C582.14,302.25,575.88,304.08,572.57,308.18C569.720885,311.826668,569.395519,316.846024,571.75,320.83C573.01,322.83,575.02,324.83,574.75,327.18C574.52,329.07,572.82,330.6,572.83,332.5C572.996665,334.240179,574.216625,335.698567,575.9,336.17C577.555374,336.598727,579.28153,336.680439,580.97,336.41L598.9,334.79C600.022685,334.785677,601.123887,334.481897,602.09,333.91C603.34,333.01,603.75,331.35,603.92,329.82C604.64,323.44,602.92,316.47,606.11,310.89C607.11,309.1,608.58,307.61,609.69,305.89C615.81,296.29,609.64,283.27,612.97,272.38C614.55,267.21,618.23,262.77,619.21,257.46C620.51,250.38,616.82,243.46,615.39,236.46C613.92,229.23,614.71,221.27,610.85,214.98C607.9,210.18,602.62,207.19,597.16,205.82C592.16,204.56,587.16,205.01,582.16,204.47C577.38,203.93,572.94,201.87,568.29,201.11Z" transform="matrix(1 0 0 1 -63 -80.5)" fill="rgb(119,78,85)" stroke="none" stroke-width="1"/><path id="eJtE6Zh1GLV61" d="M529.75,366.71C529.75,366.71,544.21,371.05,565.17,361.65L576,361.65C576,361.65,576.72,371.77,604.91,367.43" transform="matrix(1 0 0 1 -63 -80.5)" opacity="0.1" fill="rgb(0,0,0)" stroke="none" stroke-width="1"/><ellipse id="eJtE6Zh1GLV62" rx="537" ry="49" transform="matrix(1 0 0 1 537 690)" opacity="0.1" fill="rgb(0,191,166)" stroke="none" stroke-width="1"/><rect id="eJtE6Zh1GLV63" width="80" height="30" rx="5.17" ry="5.17" transform="matrix(1 0 0 1 252 258)" opacity="0.1" fill="rgb(0,191,166)" stroke="none" stroke-width="1"/><rect id="eJtE6Zh1GLV64" width="80" height="30" rx="5.17" ry="5.17" transform="matrix(1 0 0 1 288 291)" opacity="0.1" fill="rgb(0,191,166)" stroke="none" stroke-width="1"/><rect id="eJtE6Zh1GLV65" width="80" height="30" rx="5.17" ry="5.17" transform="matrix(1 0 0 1 603 260)" opacity="0.1" fill="rgb(0,191,166)" stroke="none" stroke-width="1"/><rect id="eJtE6Zh1GLV66" width="80" height="30" rx="5.17" ry="5.17" transform="matrix(1 0 0 1 639 293)" opacity="0.1" fill="rgb(0,191,166)" stroke="none" stroke-width="1"/><rect id="eJtE6Zh1GLV67" width="80" height="30" rx="5.17" ry="5.17" transform="matrix(1 0 0 1 227 324)" opacity="0.1" fill="rgb(0,191,166)" stroke="none" stroke-width="1"/><rect id="eJtE6Zh1GLV68" width="80" height="30" rx="5.17" ry="5.17" transform="matrix(1 0 0 1 307 441)" opacity="0.1" fill="rgb(0,191,166)" stroke="none" stroke-width="1"/><rect id="eJtE6Zh1GLV69" width="80" height="30" rx="5.17" ry="5.17" transform="matrix(1 0 0 1 343 474)" opacity="0.1" fill="rgb(0,191,166)" stroke="none" stroke-width="1"/><rect id="eJtE6Zh1GLV70" width="80" height="30" rx="5.17" ry="5.17" transform="matrix(1 0 0 1 282 507)" opacity="0.1" fill="rgb(0,191,166)" stroke="none" stroke-width="1"/><rect id="eJtE6Zh1GLV71" width="80" height="30" rx="5.17" ry="5.17" transform="matrix(1 0 0 1 629 525)" opacity="0.1" fill="rgb(0,191,166)" stroke="none" stroke-width="1"/><rect id="eJtE6Zh1GLV72" width="80" height="30" rx="5.17" ry="5.17" transform="matrix(1 0 0 1 568 558)" opacity="0.1" fill="rgb(0,191,166)" stroke="none" stroke-width="1"/><g id="eJtE6Zh1GLV73" opacity="0.1"><path id="eJtE6Zh1GLV74" d="M1008.26,743.89C1008.26,743.89,993.78,670.53,1023.6,620.25C1036.240123,599.241877,1041.724588,574.700387,1039.23,550.31C1037.944411,538.740068,1035.60128,527.312286,1032.23,516.17" transform="matrix(1 0 0 1 -63 -80.5)" fill="none" stroke="rgb(83,84,97)" stroke-width="2" stroke-miterlimit="10"/><path id="eJtE6Zh1GLV75" d="M1050.85,484.37C1050.05,493.12,1031.85,517.05,1031.85,517.05C1031.85,517.05,1018.33,490.21,1019.14,481.45C1020.10912,472.839401,1027.786737,466.585109,1036.415422,467.377206C1045.044107,468.169303,1051.45474,475.716869,1050.84,484.36Z" transform="matrix(1 0 0 1 -63 -80.5)" fill="rgb(239,101,132)" stroke="none" stroke-width="1"/><path id="eJtE6Zh1GLV76" d="M1072.6,535.27C1067.17,542.18,1038.9,552.39,1038.9,552.39C1038.9,552.39,1042.14,522.51,1047.57,515.6C1050.986869,510.850127,1056.733933,508.357398,1062.536723,509.10834C1068.339513,509.859282,1073.262711,513.732854,1075.357903,519.196045C1077.453096,524.659236,1076.38257,530.831465,1072.57,535.27Z" transform="matrix(1 0 0 1 -63 -80.5)" fill="rgb(239,101,132)" stroke="none" stroke-width="1"/><path id="eJtE6Zh1GLV77" d="M1063.84,618C1055.66,621.22,1026.11,615.76,1026.11,615.76C1026.11,615.76,1043.99,591.6,1052.17,588.38C1060.308519,585.320922,1069.396091,589.357088,1072.583178,597.446336C1075.770265,605.535583,1071.877963,614.685697,1063.84,618Z" transform="matrix(1 0 0 1 -63 -80.5)" fill="rgb(239,101,132)" stroke="none" stroke-width="1"/><path id="eJtE6Zh1GLV78" d="M1043.11,679.15C1035.59,683.71,1005.54,683.32,1005.54,683.32C1005.54,683.32,1019.08,656.49,1026.6,651.93C1031.466716,648.866955,1037.607015,648.666479,1042.663165,651.405552C1047.719315,654.144625,1050.905377,659.397478,1050.997977,665.147139C1051.090578,670.896799,1048.075323,676.249528,1043.11,679.15Z" transform="matrix(1 0 0 1 -63 -80.5)" fill="rgb(239,101,132)" stroke="none" stroke-width="1"/><path id="eJtE6Zh1GLV79" d="M1005.46,551C1011.18,557.68,1039.85,566.68,1039.85,566.68C1039.85,566.68,1035.35,536.96,1029.64,530.29C1025.967704,525.875631,1020.202756,523.780919,1014.553228,524.808175C1008.9037,525.835431,1004.245142,529.825453,1002.36186,535.249996C1000.478577,540.674539,1001.662437,546.692921,1005.46,551Z" transform="matrix(1 0 0 1 -63 -80.5)" fill="rgb(239,101,132)" stroke="none" stroke-width="1"/><path id="eJtE6Zh1GLV80" d="M982.12,622.82C989.57,627.48,1019.63,627.49,1019.63,627.49C1019.63,627.49,1006.45,600.49,998.99,595.82C994.16451,592.712631,988.039981,592.443204,982.960265,595.11483C977.88055,597.786455,974.632108,602.985502,974.458118,608.722297C974.284128,614.459092,977.211526,619.845445,982.12,622.82Z" transform="matrix(1 0 0 1 -63 -80.5)" fill="rgb(239,101,132)" stroke="none" stroke-width="1"/><path id="eJtE6Zh1GLV81" d="M969,695.71C975.56,701.56,1005.18,706.66,1005.18,706.66C1005.18,706.66,996.75,677.81,990.18,671.96C985.972098,667.947253,979.911224,666.547752,974.369983,668.30935C968.828742,670.070948,964.688647,674.713406,963.570391,680.419375C962.452134,686.125343,964.533611,691.987105,969,695.71Z" transform="matrix(1 0 0 1 -63 -80.5)" fill="rgb(239,101,132)" stroke="none" stroke-width="1"/></g><g id="eJtE6Zh1GLV82" opacity="0.1"><path id="eJtE6Zh1GLV83" d="M1008.26,743.89C1008.26,743.89,993.78,670.53,1023.6,620.25C1036.240123,599.241877,1041.724588,574.700387,1039.23,550.31C1037.944411,538.740068,1035.60128,527.312286,1032.23,516.17" transform="matrix(1 0 0 1 -63 -80.5)" fill="none" stroke="rgb(83,84,97)" stroke-width="2" stroke-miterlimit="10"/><path id="eJtE6Zh1GLV84" d="M1050.85,484.37C1050.05,493.12,1031.85,517.05,1031.85,517.05C1031.85,517.05,1018.33,490.21,1019.14,481.45C1020.10912,472.839401,1027.786737,466.585109,1036.415422,467.377206C1045.044107,468.169303,1051.45474,475.716869,1050.84,484.36Z" transform="matrix(1 0 0 1 -63 -80.5)" fill="rgb(0,191,166)" stroke="none" stroke-width="1"/><path id="eJtE6Zh1GLV85" d="M1072.6,535.27C1067.17,542.18,1038.9,552.39,1038.9,552.39C1038.9,552.39,1042.14,522.51,1047.57,515.6C1050.986869,510.850127,1056.733933,508.357398,1062.536723,509.10834C1068.339513,509.859282,1073.262711,513.732854,1075.357903,519.196045C1077.453096,524.659236,1076.38257,530.831465,1072.57,535.27Z" transform="matrix(1 0 0 1 -63 -80.5)" fill="rgb(0,191,166)" stroke="none" stroke-width="1"/><path id="eJtE6Zh1GLV86" d="M1063.84,618C1055.66,621.22,1026.11,615.76,1026.11,615.76C1026.11,615.76,1043.99,591.6,1052.17,588.38C1060.308519,585.320922,1069.396091,589.357088,1072.583178,597.446336C1075.770265,605.535583,1071.877963,614.685697,1063.84,618Z" transform="matrix(1 0 0 1 -63 -80.5)" fill="rgb(0,191,166)" stroke="none" stroke-width="1"/><path id="eJtE6Zh1GLV87" d="M1043.11,679.15C1035.59,683.71,1005.54,683.32,1005.54,683.32C1005.54,683.32,1019.08,656.49,1026.6,651.93C1031.466716,648.866955,1037.607015,648.666479,1042.663165,651.405552C1047.719315,654.144625,1050.905377,659.397478,1050.997977,665.147139C1051.090578,670.896799,1048.075323,676.249528,1043.11,679.15Z" transform="matrix(1 0 0 1 -63 -80.5)" fill="rgb(0,191,166)" stroke="none" stroke-width="1"/><path id="eJtE6Zh1GLV88" d="M1005.46,551C1011.18,557.68,1039.85,566.68,1039.85,566.68C1039.85,566.68,1035.35,536.96,1029.64,530.29C1025.967704,525.875631,1020.202756,523.780919,1014.553228,524.808175C1008.9037,525.835431,1004.245142,529.825453,1002.36186,535.249996C1000.478577,540.674539,1001.662437,546.692921,1005.46,551Z" transform="matrix(1 0 0 1 -63 -80.5)" fill="rgb(0,191,166)" stroke="none" stroke-width="1"/><path id="eJtE6Zh1GLV89" d="M982.12,622.82C989.57,627.48,1019.63,627.49,1019.63,627.49C1019.63,627.49,1006.45,600.49,998.99,595.82C994.16451,592.712631,988.039981,592.443204,982.960265,595.11483C977.88055,597.786455,974.632108,602.985502,974.458118,608.722297C974.284128,614.459092,977.211526,619.845445,982.12,622.82Z" transform="matrix(1 0 0 1 -63 -80.5)" fill="rgb(0,191,166)" stroke="none" stroke-width="1"/><path id="eJtE6Zh1GLV90" d="M969,695.71C975.56,701.56,1005.18,706.66,1005.18,706.66C1005.18,706.66,996.75,677.81,990.18,671.96C985.972098,667.947253,979.911224,666.547752,974.369983,668.30935C968.828742,670.070948,964.688647,674.713406,963.570391,680.419375C962.452134,686.125343,964.533611,691.987105,969,695.71Z" transform="matrix(1 0 0 1 -63 -80.5)" fill="rgb(0,191,166)" stroke="none" stroke-width="1"/></g><g id="eJtE6Zh1GLV91" opacity="0.1"><path id="eJtE6Zh1GLV92" d="M882.63,727.79C882.63,727.79,874.86,688.4,890.86,661.4C897.647209,650.117678,900.591228,636.938019,899.25,623.84C898.565681,617.628613,897.313783,611.492975,895.51,605.51" transform="matrix(1 0 0 1 -63 -80.5)" fill="none" stroke="rgb(83,84,97)" stroke-width="2" stroke-miterlimit="10"/><path id="eJtE6Zh1GLV93" d="M905.5,588.43C905.07,593.13,895.3,605.98,895.3,605.98C895.3,605.98,888.04,591.57,888.47,586.87C889.143953,582.390295,893.194993,579.213805,897.706158,579.627771C902.217322,580.041736,905.622595,583.902452,905.47,588.43Z" transform="matrix(1 0 0 1 -63 -80.5)" fill="rgb(0,191,166)" stroke="none" stroke-width="1"/><path id="eJtE6Zh1GLV94" d="M917.17,615.76C914.25,619.47,899.07,624.95,899.07,624.95C899.07,624.95,900.81,608.95,903.73,605.2C906.693389,601.652702,911.939471,601.102815,915.574014,603.958527C919.208557,606.81424,919.915469,612.041479,917.17,615.76Z" transform="matrix(1 0 0 1 -63 -80.5)" fill="rgb(0,191,166)" stroke="none" stroke-width="1"/><path id="eJtE6Zh1GLV95" d="M912.47,660.2C908.08,661.93,892.21,659,892.21,659C892.21,659,901.81,646,906.21,644.3C910.556758,642.741438,915.355676,644.915954,917.049675,649.211741C918.743674,653.507529,916.720598,658.372227,912.48,660.2Z" transform="matrix(1 0 0 1 -63 -80.218715)" fill="rgb(0,191,166)" stroke="none" stroke-width="1"/><path id="eJtE6Zh1GLV96" d="M912.47,660.2C908.08,661.93,892.21,659,892.21,659C892.21,659,901.81,646,906.21,644.3C910.556758,642.741438,915.355676,644.915954,917.049675,649.211741C918.743674,653.507529,916.720598,658.372227,912.48,660.2Z" transform="matrix(1 0 0 1 -63 -80.5)" fill="rgb(0,191,166)" stroke="none" stroke-width="1"/><path id="eJtE6Zh1GLV97" d="M912.47,660.2C908.08,661.93,892.21,659,892.21,659C892.21,659,901.81,646,906.21,644.3C910.556758,642.741438,915.355676,644.915954,917.049675,649.211741C918.743674,653.507529,916.720598,658.372227,912.48,660.2Z" transform="matrix(1 0 0 1 -63 -80.5)" fill="rgb(0,191,166)" stroke="none" stroke-width="1"/><path id="eJtE6Zh1GLV98" d="M901.34,693C897.34,695.45,881.17,695.24,881.17,695.24C881.17,695.24,888.44,680.83,892.48,678.38C895.094823,676.708912,898.409815,676.585801,901.141385,678.058337C903.872954,679.530873,905.592219,682.367853,905.633465,685.470776C905.674711,688.5737,904.031464,691.455377,901.34,693Z" transform="matrix(1 0 0 1 -63 -80.5)" fill="rgb(0,191,166)" stroke="none" stroke-width="1"/><path id="eJtE6Zh1GLV99" d="M881.12,624.22C884.19,627.81,899.59,632.64,899.59,632.64C899.59,632.64,897.18,616.64,894.11,613.1C891.039297,609.510149,885.639851,609.089297,882.05,612.16C878.460149,615.230703,878.039297,620.630149,881.11,624.22Z" transform="matrix(1 0 0 1 -63 -80.218715)" fill="rgb(0,191,166)" stroke="none" stroke-width="1"/><path id="eJtE6Zh1GLV100" d="M881.12,624.22C884.19,627.81,899.59,632.64,899.59,632.64C899.59,632.64,897.18,616.64,894.11,613.1C891.039297,609.510149,885.639851,609.089297,882.05,612.16C878.460149,615.230703,878.039297,620.630149,881.11,624.22Z" transform="matrix(1 0 0 1 -63 -80.5)" fill="rgb(0,191,166)" stroke="none" stroke-width="1"/><path id="eJtE6Zh1GLV101" d="M881.12,624.22C884.19,627.81,899.59,632.64,899.59,632.64C899.59,632.64,897.18,616.64,894.11,613.1C891.039297,609.510149,885.639851,609.089297,882.05,612.16C878.460149,615.230703,878.039297,620.630149,881.11,624.22Z" transform="matrix(1 0 0 1 -63 -80.5)" fill="rgb(0,191,166)" stroke="none" stroke-width="1"/><path id="eJtE6Zh1GLV102" d="M868.59,662.77C872.59,665.27,888.73,665.28,888.73,665.28C888.73,665.28,881.65,650.78,877.65,648.28C873.651643,645.870691,868.459881,647.11375,865.986257,651.072641C863.512633,655.031531,864.67161,660.242707,868.59,662.78Z" transform="matrix(1 0 0 1 -63 -80.218715)" fill="rgb(0,191,166)" stroke="none" stroke-width="1"/><path id="eJtE6Zh1GLV103" d="M868.59,662.77C872.59,665.27,888.73,665.28,888.73,665.28C888.73,665.28,881.65,650.78,877.65,648.28C873.651643,645.870691,868.459881,647.11375,865.986257,651.072641C863.512633,655.031531,864.67161,660.242707,868.59,662.78Z" transform="matrix(1 0 0 1 -63 -80.5)" fill="rgb(0,191,166)" stroke="none" stroke-width="1"/><path id="eJtE6Zh1GLV104" d="M868.59,662.77C872.59,665.27,888.73,665.28,888.73,665.28C888.73,665.28,881.65,650.78,877.65,648.28C873.651643,645.870691,868.459881,647.11375,865.986257,651.072641C863.512633,655.031531,864.67161,660.242707,868.59,662.78Z" transform="matrix(1 0 0 1 -63 -80.5)" fill="rgb(0,191,166)" stroke="none" stroke-width="1"/><path id="eJtE6Zh1GLV105" d="M861.56,701.91C865.08,705.05,880.99,707.79,880.99,707.79C880.99,707.79,876.47,692.3,872.99,689.16C869.455715,686.116368,864.134222,686.466915,861.029736,689.947868C857.92525,693.42882,858.183427,698.755594,861.61,701.92Z" transform="matrix(1 0 0 1 -63 -80.5)" fill="rgb(0,191,166)" stroke="none" stroke-width="1"/></g><g id="eJtE6Zh1GLV106" transform="matrix(1 0 0 1 0.139359 -0.626282)" opacity="0.1"><path id="eJtE6Zh1GLV107" d="M249.63,733.79C249.63,733.79,241.86,694.4,257.86,667.4C264.647209,656.117678,267.591228,642.938019,266.25,629.84C265.565681,623.628613,264.313783,617.492975,262.51,611.51" transform="matrix(1 0 0 1 -63 -80.5)" fill="none" stroke="rgb(83,84,97)" stroke-width="2" stroke-miterlimit="10"/><path id="eJtE6Zh1GLV108" d="M272.5,594.43C272.07,599.13,262.3,611.98,262.3,611.98C262.3,611.98,255.04,597.57,255.47,592.87C256.143953,588.390295,260.194993,585.213805,264.706158,585.627771C269.217322,586.041736,272.622595,589.902452,272.47,594.43Z" transform="matrix(1 0 0 1 -63 -80.5)" fill="rgb(0,191,166)" stroke="none" stroke-width="1"/><path id="eJtE6Zh1GLV109" d="M284.17,621.76C281.25,625.47,266.07,630.95,266.07,630.95C266.07,630.95,267.81,614.95,270.73,611.2C273.693389,607.652702,278.939471,607.102815,282.574014,609.958527C286.208557,612.81424,286.915469,618.041479,284.17,621.76Z" transform="matrix(1 0 0 1 -63 -80.5)" fill="rgb(0,191,166)" stroke="none" stroke-width="1"/><path id="eJtE6Zh1GLV110" d="M279.47,666.2C275.08,667.93,259.21,665,259.21,665C259.21,665,268.81,652,273.21,650.3C277.556758,648.741438,282.355676,650.915954,284.049675,655.211741C285.743674,659.507529,283.720598,664.372227,279.48,666.2Z" transform="matrix(1 0 0 1 -63 -80.5)" fill="rgb(0,191,166)" stroke="none" stroke-width="1"/><path id="eJtE6Zh1GLV111" d="M268.34,699C264.34,701.45,248.17,701.24,248.17,701.24C248.17,701.24,255.44,686.83,259.48,684.38C262.094823,682.708912,265.409815,682.585801,268.141385,684.058337C270.872954,685.530873,272.592219,688.367853,272.633465,691.470776C272.674711,694.5737,271.031464,697.455377,268.34,699Z" transform="matrix(1 0 0 1 -63 -80.5)" fill="rgb(0,191,166)" stroke="none" stroke-width="1"/><path id="eJtE6Zh1GLV112" d="M248.12,630.22C251.19,633.81,266.59,638.64,266.59,638.64C266.59,638.64,264.18,622.64,261.11,619.1C258.039297,615.510149,252.639851,615.089297,249.05,618.16C245.460149,621.230703,245.039297,626.630149,248.11,630.22Z" transform="matrix(1 0 0 1 -63 -80.5)" fill="rgb(0,191,166)" stroke="none" stroke-width="1"/><path id="eJtE6Zh1GLV113" d="M235.59,668.77C239.59,671.27,255.73,671.28,255.73,671.28C255.73,671.28,248.65,656.78,244.65,654.28C240.651643,651.870691,235.459881,653.11375,232.986257,657.072641C230.512633,661.031531,231.67161,666.242707,235.59,668.78Z" transform="matrix(1 0 0 1 -63 -80.5)" fill="rgb(0,191,166)" stroke="none" stroke-width="1"/><path id="eJtE6Zh1GLV114" d="M228.56,707.91C232.08,711.05,247.99,713.79,247.99,713.79C247.99,713.79,243.47,698.3,239.99,695.16C236.455715,692.116368,231.134222,692.466915,228.029736,695.947868C224.92525,699.42882,225.183427,704.755594,228.61,707.92Z" transform="matrix(1 0 0 1 -63 -80.5)" fill="rgb(0,191,166)" stroke="none" stroke-width="1"/></g></svg>
