<svg id="ehsdnBlz5TU1" xmlns="http://www.w3.org/2000/svg" xmlns:xlink="http://www.w3.org/1999/xlink" viewBox="0 0 885.86993 622.8043" shape-rendering="geometricPrecision" text-rendering="geometricPrecision"><style><![CDATA[#ehsdnBlz5TU8_to {animation: ehsdnBlz5TU8_to__to 2000ms linear 1 normal forwards}@keyframes ehsdnBlz5TU8_to__to { 0% {transform: translate(161.352005px,161.352005px)} 50% {transform: translate(161.352005px,161.352005px)} 100% {transform: translate(161.352005px,161.352005px)}} #ehsdnBlz5TU8_ts {animation: ehsdnBlz5TU8_ts__ts 2000ms linear 1 normal forwards}@keyframes ehsdnBlz5TU8_ts__ts { 0% {transform: scale(1,1)} 25% {transform: scale(1,0.866388)} 45% {transform: scale(0.8,0.8)} 70% {transform: scale(1,0.866388)} 100% {transform: scale(1,1)}} #ehsdnBlz5TU21_ts {animation: ehsdnBlz5TU21_ts__ts 2000ms linear 1 normal forwards}@keyframes ehsdnBlz5TU21_ts__ts { 0% {transform: translate(559.857911px,255.504502px) scale(1,1)} 25% {transform: translate(559.857911px,255.504502px) scale(1,0.866388)} 45% {transform: translate(559.857911px,255.504502px) scale(0.8,0.8)} 70% {transform: translate(559.857911px,255.504502px) scale(1,0.866388)} 100% {transform: translate(559.857911px,255.504502px) scale(1,1)}} #ehsdnBlz5TU28 {animation: ehsdnBlz5TU28_c_o 2000ms linear 1 normal forwards}@keyframes ehsdnBlz5TU28_c_o { 0% {opacity: 0.15} 100% {opacity: 1}}]]></style><polygon id="ehsdnBlz5TU2" points="461.601,348.37 400.416,348.37 400.416,350.344 409.958,350.344 409.958,369.094 411.932,369.094 411.932,350.344 449.098,350.344 449.098,369.094 451.072,369.094 451.072,350.344 461.601,350.344 461.601,348.37" fill="rgb(63,61,86)" stroke="none" stroke-width="1"/><polygon id="ehsdnBlz5TU3" points="484.299,300.014 468.509,300.014 468.509,315.803 475.829,315.803 475.829,369.007 477.803,369.007 477.803,315.803 484.299,315.803 484.299,300.014" fill="rgb(63,61,86)" stroke="none" stroke-width="1"/><rect id="ehsdnBlz5TU4" width="61.1854" height="1.97372" rx="0" ry="0" transform="matrix(1 0 0 1 400.536 342.465)" fill="rgb(63,61,86)" stroke="none" stroke-width="1"/><rect id="ehsdnBlz5TU5" width="61.1854" height="1.97372" rx="0" ry="0" transform="matrix(1 0 0 1 400.536 337.531)" fill="rgb(63,61,86)" stroke="none" stroke-width="1"/><rect id="ehsdnBlz5TU6" width="61.1854" height="1.97372" rx="0" ry="0" transform="matrix(1 0 0 1 400.536 332.596)" fill="rgb(63,61,86)" stroke="none" stroke-width="1"/><path id="ehsdnBlz5TU7" d="M775.57723,513.38047L773.60351,513.38047C773.60351,419.78528,697.45812,343.64037,603.86341,343.64037C510.26823,343.64037,434.12332,419.78528,434.12332,513.38047L432.1496,513.38047C432.1496,418.69722,509.18017,341.66665,603.86341,341.66665C698.54714,341.66665,775.57723,418.69722,775.57723,513.38047Z" transform="matrix(1 0 0 1 -157.065 -138.598)" fill="rgb(63,61,86)" stroke="none" stroke-width="1"/><g id="ehsdnBlz5TU8_to" transform="translate(161.352005,161.352005)"><g id="ehsdnBlz5TU8_ts" transform="scale(1,1)"><g id="ehsdnBlz5TU8" transform="translate(-161.352005,-161.352005)"><circle id="ehsdnBlz5TU9" r="161.352" transform="matrix(1 0 0 1 161.352 161.352)" fill="rgb(61,158,103)" stroke="none" stroke-width="1"/><path id="ehsdnBlz5TU10" d="M438.4403,192.17931C469.525749,264.893681,443.335021,349.421252,376.581814,391.820477C309.828608,434.219702,222.18479,421.995722,169.58055,362.94931C194.704216,421.726097,252.154427,460.132426,316.071167,460.880488C379.987907,461.628551,438.321251,424.577319,464.813659,366.404631C491.306067,308.231943,480.96305,239.904828,438.4403,192.17931Z" transform="matrix(1 0 0 1 -157.065 -138.598)" opacity="0.2" fill="rgb(0,0,0)" stroke="none" stroke-width="1"/></g></g></g><polygon id="ehsdnBlz5TU11" points="161.795,161.352 162.238,161.352 170.217,618.811 153.373,618.811 161.795,161.352" fill="rgb(63,61,86)" stroke="none" stroke-width="1"/><rect id="ehsdnBlz5TU12" width="7.97893" height="30.1426" rx="0" ry="0" transform="matrix(0.46586 0.884859 -0.884859 0.46586 187.45719 403.466724)" fill="rgb(63,61,86)" stroke="none" stroke-width="1"/><circle id="ehsdnBlz5TU13" r="130.593" transform="matrix(1 0 0 1 755.276 229.806)" fill="rgb(0,191,166)" stroke="none" stroke-width="1"/><path id="ehsdnBlz5TU14" d="M1009.48506,281.178C1034.644732,340.030914,1013.446713,408.445094,959.418591,442.761804C905.390469,477.078513,834.454089,467.18477,791.87774,419.3943C812.212113,466.966527,858.71065,498.051494,910.443009,498.656954C962.175367,499.262413,1009.388687,469.27422,1030.830878,422.190933C1052.273069,375.107646,1043.901736,319.805657,1009.48506,281.178Z" transform="matrix(1 0 0 1 -157.065 -138.598)" opacity="0.2" fill="rgb(0,0,0)" stroke="none" stroke-width="1"/><polygon id="ehsdnBlz5TU15" points="755.635,229.806 755.994,229.806 762.452,600.06 748.819,600.06 755.635,229.806" fill="rgb(63,61,86)" stroke="none" stroke-width="1"/><rect id="ehsdnBlz5TU16" width="6.45792" height="24.3966" rx="0" ry="0" transform="matrix(0.46586 0.884859 -0.884859 0.46586 776.405096 425.767096)" fill="rgb(63,61,86)" stroke="none" stroke-width="1"/><circle id="ehsdnBlz5TU17" r="20.5585" transform="matrix(1 0 0 1 369.907 321.704)" fill="rgb(0,191,166)" stroke="none" stroke-width="1"/><path id="ehsdnBlz5TU18" d="M542.265,446.57008C546.225726,455.834903,542.888664,466.604897,534.383374,472.007149C525.878084,477.409402,514.711039,475.851892,508.00853,468.32855C511.209633,475.817532,518.529589,480.711035,526.673471,480.806349C534.817354,480.901664,542.249834,476.180821,545.625336,468.768811C549.000837,461.3568,547.682992,452.650974,542.265,446.57008Z" transform="matrix(1 0 0 1 -157.065 -138.598)" opacity="0.2" fill="rgb(0,0,0)" stroke="none" stroke-width="1"/><polygon id="ehsdnBlz5TU19" points="369.964,321.704 370.02,321.704 371.037,379.99 368.891,379.99 369.964,321.704" fill="rgb(63,61,86)" stroke="none" stroke-width="1"/><rect id="ehsdnBlz5TU20" width="1.01663" height="3.84059" rx="0" ry="0" transform="matrix(0.46586 0.884859 -0.884859 0.46586 373.234155 352.552245)" fill="rgb(63,61,86)" stroke="none" stroke-width="1"/><g id="ehsdnBlz5TU21_ts" transform="translate(559.857911,255.504502) scale(1,1)"><g id="ehsdnBlz5TU21" transform="translate(-559.85791,-255.504501)"><circle id="ehsdnBlz5TU22" r="52.6314" transform="matrix(1 0 0 1 559.693307 255.70005)" fill="rgb(61,158,103)" stroke="none" stroke-width="1"/><circle id="ehsdnBlz5TU23" r="52.6314" transform="matrix(1 0 0 1 560.0225 255.308991)" fill="rgb(61,158,103)" stroke="none" stroke-width="1"/><path id="ehsdnBlz5TU24" d="M756.09357,358.88718C766.233412,382.605945,757.690248,410.178104,735.91594,424.008351C714.141633,437.838597,685.552993,433.851206,668.394,414.59075C676.589062,433.763263,695.328807,446.291125,716.177902,446.53516C737.026997,446.779196,756.054841,434.693399,764.69642,415.717956C773.337998,396.742513,769.964147,374.454793,756.09354,358.88718Z" transform="matrix(1 0 0 1 -157.065 -138.598)" opacity="0.2" fill="rgb(0,0,0)" stroke="none" stroke-width="1"/></g></g><polygon id="ehsdnBlz5TU25" points="560.023,255.443 560.167,255.443 562.77,404.662 557.275,404.662 560.023,255.443" fill="rgb(63,61,86)" stroke="none" stroke-width="1"/><rect id="ehsdnBlz5TU26" width="2.60265" height="9.83225" rx="0" ry="0" transform="matrix(0.46586 0.884859 -0.884859 0.46586 568.393457 334.418059)" fill="rgb(63,61,86)" stroke="none" stroke-width="1"/><path id="ehsdnBlz5TU27" d="M354.5881,734.63564C354.5881,734.63564,355.26959,720.35593,369.24015,722.01575" transform="matrix(1 0 0 1 -157.065 -138.598)" fill="rgb(63,61,86)" stroke="none" stroke-width="1"/><g id="ehsdnBlz5TU28" transform="matrix(1 0 0 1 0 0.000001)" opacity="0.15"><circle id="ehsdnBlz5TU29" r="6.99217" transform="matrix(1 0 0 1 193.576 575.457)" fill="rgb(239,101,132)" stroke="none" stroke-width="1"/><circle id="ehsdnBlz5TU30" r="6.99217" transform="matrix(1 0 0 1 242.919 542.89)" fill="rgb(239,101,132)" stroke="none" stroke-width="1"/><circle id="ehsdnBlz5TU31" r="5.55351" transform="matrix(1 0 0 1 392.47 436.64)" fill="rgb(239,101,132)" stroke="none" stroke-width="1"/><circle id="ehsdnBlz5TU32" r="5.55351" transform="matrix(1 0 0 1 609.579 401.113)" fill="rgb(239,101,132)" stroke="none" stroke-width="1"/><circle id="ehsdnBlz5TU33" r="5.55351" transform="matrix(1 0 0 1 402.338 466.246)" fill="rgb(239,101,132)" stroke="none" stroke-width="1"/><circle id="ehsdnBlz5TU34" r="5.55351" transform="matrix(1 0 0 1 378.654 487.957)" fill="rgb(239,101,132)" stroke="none" stroke-width="1"/><circle id="ehsdnBlz5TU35" r="5.55351" transform="matrix(1 0 0 1 643.132 419.864)" fill="rgb(239,101,132)" stroke="none" stroke-width="1"/><circle id="ehsdnBlz5TU36" r="5.55351" transform="matrix(1 0 0 1 323.389 444.535)" fill="rgb(239,101,132)" stroke="none" stroke-width="1"/><circle id="ehsdnBlz5TU37" r="5.55351" transform="matrix(1 0 0 1 579.973 388.284)" fill="rgb(239,101,132)" stroke="none" stroke-width="1"/><circle id="ehsdnBlz5TU38" r="6.99217" transform="matrix(1 0 0 1 107.719 578.417)" fill="rgb(239,101,132)" stroke="none" stroke-width="1"/><circle id="ehsdnBlz5TU39" r="6.99217" transform="matrix(1 0 0 1 787.666 574.47)" fill="rgb(239,101,132)" stroke="none" stroke-width="1"/><circle id="ehsdnBlz5TU40" r="6.99217" transform="matrix(1 0 0 1 730.428 540.917)" fill="rgb(239,101,132)" stroke="none" stroke-width="1"/><circle id="ehsdnBlz5TU41" r="6.99217" transform="matrix(1 0 0 1 722.533 591.246)" fill="rgb(239,101,132)" stroke="none" stroke-width="1"/></g><rect id="ehsdnBlz5TU42" width="1.97372" height="13.8161" rx="0" ry="0" transform="matrix(1 0 0 1 192.438 587.231)" fill="rgb(63,61,86)" stroke="none" stroke-width="1"/><path id="ehsdnBlz5TU43" d="M403.93115,702.06922C403.93115,702.06922,404.61264,687.78951,418.58315,689.44934" transform="matrix(1 0 0 1 -157.065 -138.598)" fill="rgb(63,61,86)" stroke="none" stroke-width="1"/><rect id="ehsdnBlz5TU44" width="1.97372" height="13.8161" rx="0" ry="0" transform="matrix(1 0 0 1 241.781 554.665)" fill="rgb(63,61,86)" stroke="none" stroke-width="1"/><path id="ehsdnBlz5TU45" d="M552.67,591.58462C552.67,591.58462,553.21127,580.243,564.30735,581.56131" transform="matrix(1 0 0 1 -157.065 -138.598)" fill="rgb(63,61,86)" stroke="none" stroke-width="1"/><rect id="ehsdnBlz5TU46" width="1.56762" height="10.9734" rx="0" ry="0" transform="matrix(1 0 0 1 391.566 445.992)" fill="rgb(63,61,86)" stroke="none" stroke-width="1"/><path id="ehsdnBlz5TU47" d="M769.77945,556.05762C769.77945,556.05762,770.32072,544.716,781.4168,546.03431" transform="matrix(1 0 0 1 -157.065 -138.598)" fill="rgb(63,61,86)" stroke="none" stroke-width="1"/><rect id="ehsdnBlz5TU48" width="1.56762" height="10.9734" rx="0" ry="0" transform="matrix(1 0 0 1 608.676 410.465)" fill="rgb(63,61,86)" stroke="none" stroke-width="1"/><path id="ehsdnBlz5TU49" d="M562.53864,621.19045C562.53864,621.19045,563.07991,609.84882,574.17599,611.16714" transform="matrix(1 0 0 1 -157.065 -138.598)" fill="rgb(63,61,86)" stroke="none" stroke-width="1"/><rect id="ehsdnBlz5TU50" width="1.56762" height="10.9734" rx="0" ry="0" transform="matrix(1 0 0 1 401.435 475.598)" fill="rgb(63,61,86)" stroke="none" stroke-width="1"/><path id="ehsdnBlz5TU51" d="M538.854,642.90139C538.854,642.90139,539.39527,631.55977,550.49135,632.87808" transform="matrix(1 0 0 1 -157.065 -138.598)" fill="rgb(63,61,86)" stroke="none" stroke-width="1"/><rect id="ehsdnBlz5TU52" width="1.56762" height="10.9734" rx="0" ry="0" transform="matrix(1 0 0 1 377.75 497.309)" fill="rgb(63,61,86)" stroke="none" stroke-width="1"/><path id="ehsdnBlz5TU53" d="M803.33272,574.808C803.33272,574.808,803.874,563.46638,814.97008,564.78469" transform="matrix(1 0 0 1 -157.065 -138.598)" fill="rgb(63,61,86)" stroke="none" stroke-width="1"/><rect id="ehsdnBlz5TU54" width="1.56762" height="10.9734" rx="0" ry="0" transform="matrix(1 0 0 1 642.229 429.215)" fill="rgb(63,61,86)" stroke="none" stroke-width="1"/><path id="ehsdnBlz5TU55" d="M483.58976,599.47951C483.58976,599.47951,484.13103,588.13788,495.22711,589.45619" transform="matrix(1 0 0 1 -157.065 -138.598)" fill="rgb(63,61,86)" stroke="none" stroke-width="1"/><rect id="ehsdnBlz5TU56" width="1.56762" height="10.9734" rx="0" ry="0" transform="matrix(1 0 0 1 322.486 453.887)" fill="rgb(63,61,86)" stroke="none" stroke-width="1"/><path id="ehsdnBlz5TU57" d="M740.17362,543.22843C740.17362,543.22843,740.71489,531.88681,751.81097,533.20512" transform="matrix(1 0 0 1 -157.065 -138.598)" fill="rgb(63,61,86)" stroke="none" stroke-width="1"/><rect id="ehsdnBlz5TU58" width="1.56762" height="10.9734" rx="0" ry="0" transform="matrix(1 0 0 1 579.07 397.636)" fill="rgb(63,61,86)" stroke="none" stroke-width="1"/><path id="ehsdnBlz5TU59" d="M268.73119,737.59622C268.73119,737.59622,269.41268,723.31651,283.38319,724.97633" transform="matrix(1 0 0 1 -157.065 -138.598)" fill="rgb(63,61,86)" stroke="none" stroke-width="1"/><rect id="ehsdnBlz5TU60" width="1.97372" height="13.8161" rx="0" ry="0" transform="matrix(1 0 0 1 106.581 590.192)" fill="rgb(63,61,86)" stroke="none" stroke-width="1"/><path id="ehsdnBlz5TU61" d="M948.67842,733.64878C948.67842,733.64878,949.35991,719.36907,963.33047,721.02889" transform="matrix(1 0 0 1 -157.065 -138.598)" fill="rgb(63,61,86)" stroke="none" stroke-width="1"/><rect id="ehsdnBlz5TU62" width="1.97372" height="13.8161" rx="0" ry="0" transform="matrix(1 0 0 1 786.528 586.244)" fill="rgb(63,61,86)" stroke="none" stroke-width="1"/><path id="ehsdnBlz5TU63" d="M891.44048,700.0955C891.44048,700.0955,892.12197,685.81579,906.09253,687.47562" transform="matrix(1 0 0 1 -157.065 -138.598)" fill="rgb(63,61,86)" stroke="none" stroke-width="1"/><rect id="ehsdnBlz5TU64" width="1.97372" height="13.8161" rx="0" ry="0" transform="matrix(1 0 0 1 729.29 552.691)" fill="rgb(63,61,86)" stroke="none" stroke-width="1"/><path id="ehsdnBlz5TU65" d="M883.54559,750.42541C883.54559,750.42541,884.22709,736.1457,898.19764,737.80553" transform="matrix(1 0 0 1 -157.065 -138.598)" fill="rgb(63,61,86)" stroke="none" stroke-width="1"/><rect id="ehsdnBlz5TU66" width="1.97372" height="13.8161" rx="0" ry="0" transform="matrix(1 0 0 1 721.395 603.021)" fill="rgb(63,61,86)" stroke="none" stroke-width="1"/><g id="ehsdnBlz5TU67" transform="matrix(1 0 0 1 -7.607751 0.006752)"><path id="ehsdnBlz5TU68" d="M280.09142,761.08258C280.09142,761.08258,590.95263,679.17311,587.992,595.28993C582.56426,572.09869,545.06354,566.17753,545.06354,566.17753C545.06354,566.17753,456.24605,554.3352,504.60224,525.71623C552.95843,497.09726,685.19781,504.00529,685.19781,504.00529C685.19781,504.00529,549.01099,525.71623,609.20951,537.55856C657.5657,540.51914,719.73794,553.34834,719.73794,553.34834C719.73794,553.34834,846.0562,579.99358,863.8197,645.12641C881.5832,710.25924,866.78028,760.58914,866.78028,760.58914Z" transform="matrix(1 0 0 1 -163.245694 -137.988732)" fill="rgb(230,230,230)" stroke="none" stroke-width="1"/><path id="ehsdnBlz5TU69" d="M633.18265,750.72832L631.97565,749.13457C635.20709,746.6873,638.38971,744.22539,641.43565,741.81719L642.67588,743.38555C639.61917,745.80254,636.42484,748.27324,633.18265,750.72832ZM652.00589,735.82891L650.72855,734.28984C653.85648,731.69121,656.91507,729.07984,659.81937,726.5291L661.13968,728.0311C658.22171,730.59453,655.14847,733.21855,652.00589,735.82891ZM670.03812,719.95977L668.66898,718.50077C671.65433,715.70097,674.53226,712.89823,677.22367,710.16877L678.64749,711.57307C675.93851,714.32012,673.04105,717.14238,670.03812,719.95977ZM686.89652,702.81914L685.40824,701.4832C688.15042,698.42852,690.74417,695.36894,693.11724,692.39043L694.68169,693.63652C692.28421,696.64531,689.66507,699.73516,686.89652,702.81914ZM701.84964,683.952L700.1973,682.825C702.52249,679.41777,704.62015,676.01641,706.43167,672.71562L708.18558,673.67852C706.34281,677.035,704.211,680.492,701.84964,683.952ZM713.34964,662.73814L711.48831,662.00767C712.938467,658.347508,714.074404,654.570538,714.88382,650.71767L716.84282,651.12001C716.01101,655.085013,714.842378,658.971806,713.34964,662.73809ZM716.01956,639.04185C715.960287,635.154564,715.420049,631.289563,714.41117,627.53501L716.34281,627.01353C717.393887,630.927527,717.957075,634.956451,718.01956,639.00864ZM710.03617,616.73911C708.13677,613.309087,705.907474,610.072423,703.37992,607.07505L704.91312,605.79185C707.524793,608.889022,709.828022,612.233642,711.79007,615.77817ZM695.11624,598.63462C692.14413,596.016806,689.030735,593.563905,685.79007,591.28696L686.94437,589.65415C690.245112,591.973031,693.415895,594.471593,696.44237,597.13853ZM675.76761,584.85044C672.49613,582.92759,668.96683,581.00864,665.28031,579.14732L666.1807,577.36216C669.90628,579.24204,673.4727,581.18149,676.78128,583.12583ZM654.47074,574.03599C650.98929,572.48911,647.28128,570.93247,643.44925,569.40806L644.18949,567.55064C648.04496,569.08384,651.77738,570.65122,655.28324,572.20786ZM632.23539,565.157C628.67191,563.865,624.86234,562.53884,620.9141,561.21559L621.54886,559.31911C625.51273,560.64821,629.33792,561.97927,632.91703,563.27611ZM609.50394,557.51052C606.01859,556.41091,602.26664,555.25368,598.03275,553.97145L598.61283,552.05739C602.85355,553.34157,606.61331,554.50173,610.1055,555.60231ZM586.52494,550.51735C582.47904,549.30735,578.62162,548.15114,575.01029,547.03884L575.59915,545.12673C579.2056,546.23903,583.05715,547.39333,587.09815,548.60134ZM563.54105,543.32985C559.693536,542.06006,555.931142,540.545577,552.27689,538.79567L553.1763,537.00856C556.75089,538.719299,560.431432,540.199222,564.1953,541.43923ZM548.43805,530.2195L547.01227,528.81716C548.83551,526.96462,552.44196,525.15216,558.03766,523.27516L558.6734,525.17165C555.824388,526.126842,553.50416,527.067172,551.728377,527.984533C550.252527,528.746949,549.152738,529.4935,548.438,530.21953ZM570.11481,521.91384L569.63141,519.97243C573.09041,519.1111,577.03083,518.20974,581.34333,517.29372L581.75833,519.25072C577.46878,520.16094,573.5513,521.05742,570.11478,521.91387ZM593.48444,516.89528L593.10944,514.93044C596.7945,514.22634,600.76325,513.49684,604.90631,512.76244L605.25592,514.73119C601.12113,515.46465,597.16117,516.19219,593.48441,516.89531ZM617.05374,512.7L616.72367,510.72734Q622.3765,509.77959,628.55472,508.78887L628.87113,510.76348Q622.69827,511.75371,617.05374,512.7Z" transform="matrix(1 0 0 1 -156.802991 -138.90091)" fill="rgb(255,255,255)" stroke="none" stroke-width="1"/></g><path id="ehsdnBlz5TU70" d="M618.67289,761.40215L617.50882,759.77515Q619.97562,758.01148,622.3682,756.26734L623.54593,757.88453Q621.14359,759.63213,618.67289,761.40215Z" transform="matrix(1 0 0 1 -157.065 -138.598)" fill="rgb(255,255,255)" stroke="none" stroke-width="1"/><path id="ehsdnBlz5TU71" d="M640.9307,508.865L640.62406,506.88844Q643.54056,506.43725,646.5596,505.9773L646.86039,507.95387Q643.84281,508.41387,640.9307,508.865Z" transform="matrix(1 0 0 1 -157.065 -138.598)" fill="rgb(255,255,255)" stroke="none" stroke-width="1"/><path id="ehsdnBlz5TU72" d="M685.194,305.71659L694.27874,298.45053C687.22121,297.6719,684.3214,301.52092,683.13463,304.56746C677.621,302.27799,671.61876,305.27846,671.61876,305.27846L689.79564,311.87731C688.878646,309.428024,687.282381,307.290929,685.194,305.71659Z" transform="matrix(1 0 0 1 -157.065 -138.598)" fill="rgb(63,61,86)" stroke="none" stroke-width="1"/><path id="ehsdnBlz5TU73" d="M516.44078,361.96766L525.52552,354.70161C518.46799,353.92297,515.56818,357.772,514.38141,360.81853C508.86778,358.52907,502.86554,361.52953,502.86554,361.52953L521.04242,368.12838C520.125424,365.679095,518.529159,363.542001,516.44078,361.96766Z" transform="matrix(1 0 0 1 -157.065 -138.598)" fill="rgb(63,61,86)" stroke="none" stroke-width="1"/><path id="ehsdnBlz5TU74" d="M560.84953,245.51807L569.93426,238.25201C562.87673,237.47338,559.97693,241.3224,558.79015,244.36894C553.27652,242.07947,547.27428,245.07994,547.27428,245.07994L565.45116,251.67879C564.534168,249.229506,562.937907,247.092411,560.84953,245.51807Z" transform="matrix(1 0 0 1 -157.065 -138.598)" fill="rgb(63,61,86)" stroke="none" stroke-width="1"/><path id="ehsdnBlz5TU75" d="M659.609,569.03965C659.609,569.03965,651.74025,569.03965,650.86594,573.84833C649.99163,578.65701,648.68017,631.11533,649.55448,637.67264C650.42879,644.22995,650.42879,642.91848,650.42879,642.91848C650.42879,642.91848,648.68579,655.37938,652.61737,655.92479C656.54895,656.4702,656.5489,641.607,656.5489,641.607L659.60898,588.27436Z" transform="matrix(1 0 0 1 -157.065 -138.598)" fill="rgb(158,97,106)" stroke="none" stroke-width="1"/><path id="ehsdnBlz5TU76" d="M693.7069,569.03965C693.7069,569.03965,701.57565,569.03965,702.44996,573.84833C703.32427,578.65701,704.63573,631.11533,703.76142,637.67264C702.88711,644.22995,702.88712,642.91848,702.88712,642.91848C702.88712,642.91848,704.63012,655.37938,700.69853,655.92479C696.76694,656.4702,696.767,641.607,696.767,641.607L693.70692,588.27437Z" transform="matrix(1 0 0 1 -157.065 -138.598)" fill="rgb(158,97,106)" stroke="none" stroke-width="1"/><path id="ehsdnBlz5TU77" d="M658.29752,751.76952L654.80031,751.76952C652.713412,751.769496,650.711978,752.59849,649.236301,754.074134C647.760624,755.549777,646.931584,757.551192,646.93156,759.63809L646.93156,759.63827L668.352,759.63827L668.352,749.58375L658.29752,749.58375Z" transform="matrix(1 0 0 1 -157.065 -138.598)" fill="rgb(47,46,65)" stroke="none" stroke-width="1"/><path id="ehsdnBlz5TU78" d="M691.95829,751.76952L695.4555,751.76952C699.801239,751.769476,703.324195,755.292351,703.32425,759.63809L703.32425,759.63827L681.90377,759.63827L681.90377,749.58375L691.95829,749.58375Z" transform="matrix(1 0 0 1 -157.065 -138.598)" fill="rgb(47,46,65)" stroke="none" stroke-width="1"/><circle id="ehsdnBlz5TU79" r="11.366" transform="matrix(1 0 0 1 516.096 409.021)" fill="rgb(158,97,106)" stroke="none" stroke-width="1"/><path id="ehsdnBlz5TU80" d="M670.53781,553.73931C670.53781,553.73931,669.22635,568.16531,667.47773,569.4768C665.72911,570.78829,685.83815,568.6025,685.83815,568.6025C685.83815,568.6025,678.84371,558.11083,680.15515,554.61361C681.46659,551.11639,670.53781,553.73931,670.53781,553.73931Z" transform="matrix(1 0 0 1 -157.065 -138.598)" fill="rgb(158,97,106)" stroke="none" stroke-width="1"/><path id="ehsdnBlz5TU81" d="M696.32981,569.03965C696.32981,569.03965,672.2864,558.98514,656.5489,569.03965C656.5489,569.03965,652.61454,579.09416,655.67459,584.77715C658.73464,590.46014,663.54334,604.01187,658.73467,613.19208C653.926,622.37229,659.17183,618.43792,659.17183,618.43792C659.17183,618.43792,653.05169,642.91848,652.17738,662.15317C651.30307,681.38786,654.80031,750.45804,657.42321,750.89517C660.04611,751.3323,668.35204,752.20663,669.22635,750.89517C670.10066,749.58371,676.22079,658.21881,676.22079,658.21881C676.22079,658.21881,678.84371,751.7695,681.46661,751.7695C684.08951,751.7695,691.08398,751.7695,692.39544,749.58373C693.7069,747.39796,704.63571,663.02748,700.70135,645.54138C696.76699,628.05528,694.14406,619.31221,694.14406,619.31221C694.14406,619.31221,698.95273,616.25214,697.64129,614.50352C696.32985,612.7549,689.77252,593.95736,692.8326,590.89727C695.89268,587.83718,696.32981,569.03965,696.32981,569.03965Z" transform="matrix(1 0 0 1 -157.065 -138.598)" fill="rgb(47,46,65)" stroke="none" stroke-width="1"/><circle id="ehsdnBlz5TU82" r="18.3604" transform="matrix(1 0 0 1 523.309 402.171)" fill="rgb(47,46,65)" stroke="none" stroke-width="1"/><path id="ehsdnBlz5TU83" d="M691.83867,531.57749C685.41209,530.067143,681.304568,523.775784,682.50705,517.28455C682.45346,517.47255,682.40305,517.66217,682.35784,517.85455C680.800174,524.502403,684.924114,531.154938,691.570994,532.716751C698.217875,534.278564,704.872981,530.158775,706.43894,523.51287C706.48414,523.32054,706.52342,523.12828,706.55916,522.93611C704.744909,529.283577,698.265365,533.087268,691.83867,531.57749Z" transform="matrix(1 0 0 1 -157.065 -138.598)" fill="rgb(47,46,65)" stroke="none" stroke-width="1"/><circle id="ehsdnBlz5TU84" r="8.98489" transform="matrix(1 0 0 1 535.521 386.387)" fill="rgb(47,46,65)" stroke="none" stroke-width="1"/></svg>
