<svg cache-id="0a1cb116408a4902918fdd56ab72c7ca" id="ergAJVe5Gfz1" xmlns="http://www.w3.org/2000/svg" xmlns:xlink="http://www.w3.org/1999/xlink" viewBox="0 0 888 485.489" shape-rendering="geometricPrecision" text-rendering="geometricPrecision"><style><![CDATA[#ergAJVe5Gfz10_tr {animation: ergAJVe5Gfz10_tr__tr 2631.578947368421ms linear infinite normal forwards}@keyframes ergAJVe5Gfz10_tr__tr { 0% {transform: translate(788.18458px,369.964098px) rotate(-239.690938deg)} 25% {transform: translate(788.18458px,369.964098px) rotate(-196.385346deg)} 50% {transform: translate(788.18458px,369.964098px) rotate(-196.385346deg)} 100% {transform: translate(788.18458px,369.964098px) rotate(-297.55139deg)}} #ergAJVe5Gfz11_tr {animation: ergAJVe5Gfz11_tr__tr 2631.578947368421ms linear infinite normal forwards}@keyframes ergAJVe5Gfz11_tr__tr { 0% {transform: translate(778.609428px,405.48466px) rotate(-239.690938deg)} 25% {transform: translate(778.609428px,405.48466px) rotate(-196.385346deg)} 50% {transform: translate(778.609428px,405.48466px) rotate(-196.385346deg)} 100% {transform: translate(778.609428px,405.48466px) rotate(-297.55139deg)}} #ergAJVe5Gfz12_tr {animation: ergAJVe5Gfz12_tr__tr 2631.578947368421ms linear infinite normal forwards}@keyframes ergAJVe5Gfz12_tr__tr { 0% {transform: translate(758.06777px,388.62216px) rotate(-239.690938deg)} 25% {transform: translate(758.06777px,388.62216px) rotate(-196.385346deg)} 50% {transform: translate(758.06777px,388.62216px) rotate(-196.385346deg)} 100% {transform: translate(758.06777px,388.62216px) rotate(-297.55139deg)}} #ergAJVe5Gfz13_tr {animation: ergAJVe5Gfz13_tr__tr 2631.578947368421ms linear infinite normal forwards}@keyframes ergAJVe5Gfz13_tr__tr { 0% {transform: translate(764.786804px,362.961884px) rotate(30deg)} 25% {transform: translate(764.786804px,362.961884px) rotate(0deg)} 50% {transform: translate(764.786804px,362.961884px) rotate(30deg)} 75% {transform: translate(764.786804px,362.961884px) rotate(0deg)} 100% {transform: translate(764.786804px,362.961884px) rotate(0deg)}} #ergAJVe5Gfz14_tr {animation: ergAJVe5Gfz14_tr__tr 2631.578947368421ms linear infinite normal forwards}@keyframes ergAJVe5Gfz14_tr__tr { 0% {transform: translate(805.398644px,398.45049px) rotate(30deg)} 25% {transform: translate(805.398644px,398.45049px) rotate(0deg)} 50% {transform: translate(805.398644px,398.45049px) rotate(30deg)} 75% {transform: translate(805.398644px,398.45049px) rotate(0deg)} 100% {transform: translate(805.398644px,398.45049px) rotate(0deg)}} #ergAJVe5Gfz21_ts {animation: ergAJVe5Gfz21_ts__ts 2631.578947368421ms linear infinite normal forwards}@keyframes ergAJVe5Gfz21_ts__ts { 0% {transform: translate(340.94214px,236.313px) scale(1,1)} 35% {transform: translate(340.94214px,236.313px) scale(1,1)} 65% {transform: translate(340.94214px,236.313px) scale(0.9,0.9)} 100% {transform: translate(340.94214px,236.313px) scale(1,1)}} #ergAJVe5Gfz43_to {animation: ergAJVe5Gfz43_to__to 2631.578947368421ms linear infinite normal forwards}@keyframes ergAJVe5Gfz43_to__to { 0% {transform: translate(514.755249px,291.622879px)} 50% {transform: translate(510.394602px,303.58513px)} 100% {transform: translate(517.494946px,282.295729px)}} #ergAJVe5Gfz74_to {animation: ergAJVe5Gfz74_to__to 2631.578947368421ms linear infinite normal forwards}@keyframes ergAJVe5Gfz74_to__to { 0% {transform: translate(515.707473px,285.831312px)} 50% {transform: translate(508.081057px,301.266162px)} 100% {transform: translate(515.707473px,285.831312px)}} #ergAJVe5Gfz75_to {animation: ergAJVe5Gfz75_to__to 2631.578947368421ms linear infinite normal forwards}@keyframes ergAJVe5Gfz75_to__to { 0% {transform: translate(474.536417px,294.035184px)} 25% {transform: translate(473.905378px,293.707574px)} 60% {transform: translate(474.436367px,293.836317px)} 100% {transform: translate(473.613457px,296.750513px)}}]]></style><g id="ergAJVe5Gfz2"><path id="ergAJVe5Gfz3" d="M275.41211,460.30048L246.99329,460.30048C244.912412,460.30048,243.225526,461.987362,243.22552,464.06824L243.22552,476.54211C243.22552,478.622992,244.912408,480.30988,246.99329,480.30988L251.7027,480.30988L251.7027,499L270.7027,499L270.7027,480.30988L275.41211,480.30988C277.492988,480.309874,279.17987,478.622988,279.17987,476.54211L279.17987,464.06824C279.179864,461.987366,277.492984,460.300486,275.41211,460.30048Z" transform="matrix(1 0 0 1 -156 -207.255)" fill="rgb(61,158,103)" stroke="none" stroke-width="1"/><path id="ergAJVe5Gfz4" d="M269.48783,464.36493C269.48783,468.854351,265.848436,472.493745,261.359015,472.493745C256.869594,472.493745,253.2302,468.854351,253.2302,464.36493" transform="matrix(1 0 0 1 -156.15632 -206.789745)" opacity="0.2" fill="rgb(0,0,0)" stroke="none" stroke-width="1"/></g><path id="ergAJVe5Gfz5" d="M303.87661,574.46128C286.472045,548.99367,277.574507,518.670924,278.45861,487.83691C278.491236,486.369991,277.484988,485.083534,276.05339,484.76191L276.05339,479.372L246.03933,479.372L246.03933,484.687L245.62577,484.687C244.770037,484.688113,243.95335,485.045222,243.371508,485.672708C242.789666,486.300195,242.495135,487.141478,242.55853,487.99486Q246.10536,537.43672,218.60495,576.67186C217.549946,578.175031,217.010957,579.979842,217.06889,581.81538L220.35077,683.33355C220.514661,688.038121,224.356493,691.778059,229.06377,691.81546L296.95109,691.81546C301.716237,691.776679,305.582917,687.948462,305.66933,683.18394L306.93404,584.61806C306.971467,581.000327,305.904898,577.457184,303.87661,574.46128Z" transform="matrix(1 0 0 1 -156 -207.255)" fill="rgb(63,61,86)" stroke="none" stroke-width="1"/><path id="ergAJVe5Gfz6" d="M293.12991,608.18244L284.90927,608.18244C283.287567,597.659415,274.232122,589.892602,263.58487,589.892602C252.937618,589.892602,243.882173,597.659415,242.26047,608.18244L234.03929,608.18244C232.269218,608.182442,230.587426,608.955502,229.434877,610.298924C228.282327,611.642346,227.773983,613.42213,228.04313,615.17162L236.97257,673.21297L288.24664,673.21297L299.09272,615.36715C299.425311,613.593311,298.95088,611.763485,297.798298,610.374716C296.645717,608.985948,294.93466,608.182435,293.12991,608.18244Z" transform="matrix(1 0 0 1 -156 -207.255)" fill="rgb(61,158,103)" stroke="none" stroke-width="1"/><polygon id="ergAJVe5Gfz7" points="827.952,307.634 825.98,386.448 823.538,484.181 740.414,484.181 737.552,369.675 736,307.634 827.952,307.634" fill="rgb(230,230,230)" stroke="none" stroke-width="1"/><rect id="ergAJVe5Gfz8" width="11.7698" height="155.95" rx="0" ry="0" transform="matrix(1 0 0 1 775.723 265.704)" fill="rgb(61,158,103)" stroke="none" stroke-width="1"/><path id="ergAJVe5Gfz9" d="M978.06676,574.27527L975.84065,686.29527L900.07391,686.29527L897.46565,555.05162C911.264143,551.175958,926.052739,553.209992,938.29253,560.66698C950.95161,568.15405,965.173,572.18424,978.06676,574.27527Z" transform="matrix(1 0 0 1 -156.866525 -208.685163)" fill="rgb(63,61,86)" stroke="none" stroke-width="1"/><g id="ergAJVe5Gfz10_tr" transform="translate(788.18458,369.964098) rotate(-239.690938)"><rect id="ergAJVe5Gfz10" width="11.011726" height="10.421722" rx="0" ry="0" transform="scale(1.271372,1.343348) translate(-5.399725,-5.400273)" fill="rgb(230,230,230)" stroke="none" stroke-width="1"/></g><g id="ergAJVe5Gfz11_tr" transform="translate(778.609428,405.48466) rotate(-239.690938)"><rect id="ergAJVe5Gfz11" width="14" height="14" rx="0" ry="0" transform="translate(-5.399725,-5.400273)" fill="rgb(230,230,230)" stroke="none" stroke-width="1"/></g><g id="ergAJVe5Gfz12_tr" transform="translate(758.06777,388.62216) rotate(-239.690938)"><rect id="ergAJVe5Gfz12" width="14" height="14" rx="0" ry="0" transform="translate(-5.399725,-5.400273)" fill="rgb(230,230,230)" stroke="none" stroke-width="1"/></g><g id="ergAJVe5Gfz13_tr" transform="translate(764.786804,362.961884) rotate(30)"><rect id="ergAJVe5Gfz13" width="11.563854" height="10.7999" rx="0" ry="0" transform="scale(1.210669,1.296712) translate(-5.399804,-5.399884)" fill="rgb(230,230,230)" stroke="none" stroke-width="1"/></g><g id="ergAJVe5Gfz14_tr" transform="translate(805.398644,398.45049) rotate(30)"><rect id="ergAJVe5Gfz14" width="14" height="14" rx="0" ry="0" transform="translate(-5.399804,-5.399884)" fill="rgb(230,230,230)" stroke="none" stroke-width="1"/></g><circle id="ergAJVe5Gfz15" r="2.20684" transform="matrix(1 0 0 1 805.148 351.035)" fill="rgb(63,61,86)" stroke="none" stroke-width="1"/><circle id="ergAJVe5Gfz16" r="2.20684" transform="matrix(1 0 0 1 760.275 336.323)" fill="rgb(63,61,86)" stroke="none" stroke-width="1"/><circle id="ergAJVe5Gfz17" r="2.20684" transform="matrix(1 0 0 1 797.792 320.875)" fill="rgb(63,61,86)" stroke="none" stroke-width="1"/><circle id="ergAJVe5Gfz18" r="241.754" transform="matrix(1 0 0 1 444.508 241.754)" fill="rgb(61,158,103)" stroke="none" stroke-width="1"/><path id="ergAJVe5Gfz19" d="M600.50808,625.46663C516.325591,625.466075,443.866455,565.9997,427.443674,483.434673C411.020893,400.869646,455.208427,318.201404,532.983011,285.986417C610.757596,253.771429,700.457996,280.981991,747.227165,350.977249C793.996334,420.972508,784.808449,514.257872,725.28244,573.78388C692.262576,606.984165,647.332796,625.594516,600.50808,625.46663ZM600.50808,283.43523C509.21,283.43523,434.93378,357.71144,434.93378,449.00952C434.93378,540.30722,509.21,614.58382,600.50808,614.58382C691.80578,614.58382,766.08237,540.30722,766.08237,449.00952C766.08237,357.71144,691.80578,283.43523,600.50808,283.43523Z" transform="matrix(1 0 0 1 -156 -207.255)" opacity="0.2" fill="rgb(0,0,0)" stroke="none" stroke-width="1"/><circle id="ergAJVe5Gfz20" r="171.016" transform="matrix(1 0 0 1 444.502853 241.754)" fill="rgb(63,61,86)" stroke="none" stroke-width="1"/><g id="ergAJVe5Gfz21_ts" transform="translate(340.94214,236.313) scale(1,1)"><g id="ergAJVe5Gfz21" transform="translate(-340.942136,-236.312999)"><path id="ergAJVe5Gfz22" d="M473.32742,380.62742C469.798928,373.71655,470.228309,365.447684,474.453621,358.939449C478.678932,352.431214,486.057309,348.673814,493.805976,349.084363C501.554643,349.494912,508.494667,354.010946,512.0086,360.92923L560.32492,455.80759C563.853412,462.71846,563.424031,470.987326,559.198719,477.495561C554.973408,484.003796,547.595031,487.761196,539.846364,487.350647C532.097697,486.940098,525.157673,482.424064,521.64374,475.50578Z" transform="matrix(1 0 0 1 -156 -207.255)" fill="rgb(255,101,132)" stroke="none" stroke-width="1"/><path id="ergAJVe5Gfz23" d="M437.07906,416.14643C433.551534,409.235673,433.981456,400.967481,438.206699,394.459845C442.431942,387.952209,449.809744,384.1951,457.557886,384.605348C465.306027,385.015597,472.245828,389.530795,475.76024,396.44823L524.07656,491.3266C529.500779,502.005884,525.248269,515.060475,514.574701,520.495934C503.901133,525.931393,490.842073,521.692629,485.39538,511.02479Z" transform="matrix(1 0 0 1 -156 -207.255)" fill="rgb(255,101,132)" stroke="none" stroke-width="1"/></g></g><path id="ergAJVe5Gfz24" d="M478.71655,391.21L476.48655,386.831C487.61571,378.18364,500.68443,371.824,515.16773,367.13281L517.39773,371.51181C501.72232,374.77607,488.38616,380.817,478.71655,391.21Z" transform="matrix(1 0 0 1 -156 -207.255)" opacity="0.2" fill="rgb(0,0,0)" stroke="none" stroke-width="1"/><path id="ergAJVe5Gfz25" d="M489.12314,411.64534L486.89314,407.26634C498.02229,398.61898,511.09102,392.25934,525.57431,387.56815L527.80431,391.94715C512.12891,395.21141,498.79275,401.25236,489.12314,411.64534Z" transform="matrix(1 0 0 1 -156 -207.255)" opacity="0.2" fill="rgb(0,0,0)" stroke="none" stroke-width="1"/><path id="ergAJVe5Gfz26" d="M499.52973,432.08068L497.29973,427.70168C508.42888,419.05432,521.49761,412.69468,535.98091,408.00349L538.21091,412.38249C522.5355,415.64675,509.19935,421.6877,499.52973,432.08068Z" transform="matrix(1 0 0 1 -156 -207.255)" opacity="0.2" fill="rgb(0,0,0)" stroke="none" stroke-width="1"/><path id="ergAJVe5Gfz27" d="M509.93632,452.516L507.70632,448.137C518.83548,439.48964,531.9042,433.13,546.3875,428.43881L548.6175,432.81781C532.94209,436.08209,519.60594,442.123,509.93632,452.516Z" transform="matrix(1 0 0 1 -156 -207.255)" opacity="0.2" fill="rgb(0,0,0)" stroke="none" stroke-width="1"/><path id="ergAJVe5Gfz28" d="M520.34292,472.95136L518.11292,468.57236C529.24208,459.925,542.3108,453.56536,556.7941,448.87417L559.0241,453.25317C543.34868,456.51743,530.01253,462.55838,520.34292,472.95136Z" transform="matrix(1 0 0 1 -156 -207.255)" opacity="0.2" fill="rgb(0,0,0)" stroke="none" stroke-width="1"/><path id="ergAJVe5Gfz29" d="M442.46819,426.729L440.23819,422.35C451.36735,413.70264,464.43607,407.343,478.91937,402.65181L481.14937,407.03081C465.474,410.29508,452.1378,416.336,442.46819,426.729Z" transform="matrix(1 0 0 1 -156 -207.255)" opacity="0.2" fill="rgb(0,0,0)" stroke="none" stroke-width="1"/><path id="ergAJVe5Gfz30" d="M452.87478,447.16435L450.64478,442.78535C461.77393,434.13799,474.84266,427.77835,489.32596,423.08716L491.55596,427.46616C475.88055,430.73042,462.5444,436.77137,452.87478,447.16435Z" transform="matrix(1 0 0 1 -156 -207.255)" opacity="0.2" fill="rgb(0,0,0)" stroke="none" stroke-width="1"/><path id="ergAJVe5Gfz31" d="M463.28137,467.59969L461.05137,463.22069C472.18052,454.57333,485.24925,448.21369,499.73255,443.5225L501.96255,447.9015C486.28714,451.16576,472.951,457.20671,463.28137,467.59969Z" transform="matrix(1 0 0 1 -156 -207.255)" opacity="0.2" fill="rgb(0,0,0)" stroke="none" stroke-width="1"/><path id="ergAJVe5Gfz32" d="M473.688,488.035L471.458,483.656C482.58716,475.00864,495.65588,468.649,510.13918,463.95781L512.36918,468.33681C496.69373,471.6011,483.35758,477.64205,473.688,488.035Z" transform="matrix(1 0 0 1 -156 -207.255)" opacity="0.2" fill="rgb(0,0,0)" stroke="none" stroke-width="1"/><path id="ergAJVe5Gfz33" d="M484.09456,508.47037L481.86456,504.09137C492.99372,495.44401,506.06244,489.08437,520.54574,484.39318L522.77574,488.77218C507.10032,492.03644,493.76417,498.07739,484.09456,508.47037Z" transform="matrix(1 0 0 1 -156 -207.255)" opacity="0.2" fill="rgb(0,0,0)" stroke="none" stroke-width="1"/><path id="ergAJVe5Gfz34" d="M714.77766,454.45093L714.93023,454.45106C725.58061,454.540475,735.198904,448.097845,739.16947,438.21487C743.159725,428.128304,745.17069,417.367822,745.09257,406.52094C744.82113,360.61021,707.47034,322.94579,661.56321,322.31073C621.25439,321.746456,586.127449,349.65598,577.566168,389.049175C569.004888,428.442371,589.379302,468.413944,626.28634,484.63091C635.96887,488.917831,647.290212,486.818497,654.792,479.34506C670.669973,463.383504,692.263654,454.422097,714.77766,454.45093Z" transform="matrix(1 0 0 1 -156 -207.255)" fill="rgb(230,230,230)" stroke="none" stroke-width="1"/><circle id="ergAJVe5Gfz35" r="27.9844" transform="matrix(1 0 0 1 515.246 193.559)" fill="rgb(249,168,37)" stroke="none" stroke-width="1"/><circle id="ergAJVe5Gfz36" r="3.29669" transform="matrix(1 0 0 1 454.426 187.115)" fill="rgb(63,61,86)" stroke="none" stroke-width="1"/><circle id="ergAJVe5Gfz37" r="3.29669" transform="matrix(1 0 0 1 345.598 190.225)" fill="rgb(63,61,86)" stroke="none" stroke-width="1"/><circle id="ergAJVe5Gfz38" r="3.29669" transform="matrix(1 0 0 1 471.996 152.949)" fill="rgb(63,61,86)" stroke="none" stroke-width="1"/><circle id="ergAJVe5Gfz39" r="3.29669" transform="matrix(1 0 0 1 471.902 247.973)" fill="rgb(63,61,86)" stroke="none" stroke-width="1"/><circle id="ergAJVe5Gfz40" r="3.29669" transform="matrix(1 0 0 1 537.199 146.141)" fill="rgb(63,61,86)" stroke="none" stroke-width="1"/><circle id="ergAJVe5Gfz41" r="3.29669" transform="matrix(1 0 0 1 324.207 236.313)" fill="rgb(63,61,86)" stroke="none" stroke-width="1"/><circle id="ergAJVe5Gfz42" r="3.29669" transform="matrix(1 0 0 1 348.305 283.731)" fill="rgb(63,61,86)" stroke="none" stroke-width="1"/><g id="ergAJVe5Gfz43_to" transform="translate(514.755249,291.622879)"><g id="ergAJVe5Gfz43" transform="translate(-514.755249,-291.622879)"><g id="ergAJVe5Gfz44" transform="matrix(1 0 0 1 7.182995 12.556829)"><circle id="ergAJVe5Gfz45" r="12.4375" transform="matrix(1 0 0 1 524.575 256.524)" fill="rgb(255,101,132)" stroke="none" stroke-width="1"/><path id="ergAJVe5Gfz46" d="M689.90265,464.5564C689.90265,469.708184,685.726304,473.88453,680.57452,473.88453C675.422736,473.88453,671.24639,469.708184,671.24639,464.5564" transform="matrix(1 0 0 1 -156.005147 -207.255)" opacity="0.42" fill="rgb(0,0,0)" stroke="none" stroke-width="1"/><path id="ergAJVe5Gfz47" d="M671.24639,463.00172C671.24639,457.849936,675.422736,453.67359,680.57452,453.67359C685.726304,453.67359,689.90265,457.849936,689.90265,463.00172" transform="matrix(1 0 0 1 -156.005147 -207.255)" opacity="0.39" fill="rgb(0,0,0)" stroke="none" stroke-width="1"/><ellipse id="ergAJVe5Gfz48" rx="0.77734" ry="1.16602" transform="matrix(1 0 0 1 519.91 252.248)" fill="rgb(255,101,132)" stroke="none" stroke-width="1"/><ellipse id="ergAJVe5Gfz49" rx="0.77734" ry="1.16602" transform="matrix(1 0 0 1 524.575 250.693)" fill="rgb(255,101,132)" stroke="none" stroke-width="1"/><ellipse id="ergAJVe5Gfz50" rx="0.77734" ry="1.16602" transform="matrix(1 0 0 1 524.575 260.799)" fill="rgb(255,101,132)" stroke="none" stroke-width="1"/><ellipse id="ergAJVe5Gfz51" rx="0.77734" ry="1.16602" transform="matrix(1 0 0 1 529.239 254.58)" fill="rgb(255,101,132)" stroke="none" stroke-width="1"/><ellipse id="ergAJVe5Gfz52" rx="0.77734" ry="1.16602" transform="matrix(1 0 0 1 528.461 263.131)" fill="rgb(255,101,132)" stroke="none" stroke-width="1"/><ellipse id="ergAJVe5Gfz53" rx="0.77734" ry="1.16602" transform="matrix(1 0 0 1 519.133 259.244)" fill="rgb(255,101,132)" stroke="none" stroke-width="1"/></g><g id="ergAJVe5Gfz54" transform="matrix(1 0 0 1 -30.625002 53.441406)"><circle id="ergAJVe5Gfz55" r="12.4375" transform="matrix(1 0 0 1 524.575 256.524)" fill="rgb(255,101,132)" stroke="none" stroke-width="1"/><path id="ergAJVe5Gfz56" d="M689.90265,464.5564C689.90265,469.708184,685.726304,473.88453,680.57452,473.88453C675.422736,473.88453,671.24639,469.708184,671.24639,464.5564" transform="matrix(1 0 0 1 -156.005147 -207.255)" opacity="0.42" fill="rgb(0,0,0)" stroke="none" stroke-width="1"/><path id="ergAJVe5Gfz57" d="M671.24639,463.00172C671.24639,457.849936,675.422736,453.67359,680.57452,453.67359C685.726304,453.67359,689.90265,457.849936,689.90265,463.00172" transform="matrix(1 0 0 1 -156.005147 -207.255)" opacity="0.39" fill="rgb(0,0,0)" stroke="none" stroke-width="1"/><ellipse id="ergAJVe5Gfz58" rx="0.77734" ry="1.16602" transform="matrix(1 0 0 1 519.91 252.248)" fill="rgb(255,101,132)" stroke="none" stroke-width="1"/><ellipse id="ergAJVe5Gfz59" rx="0.77734" ry="1.16602" transform="matrix(1 0 0 1 524.575 250.693)" fill="rgb(255,101,132)" stroke="none" stroke-width="1"/><ellipse id="ergAJVe5Gfz60" rx="0.77734" ry="1.16602" transform="matrix(1 0 0 1 524.575 260.799)" fill="rgb(255,101,132)" stroke="none" stroke-width="1"/><ellipse id="ergAJVe5Gfz61" rx="0.77734" ry="1.16602" transform="matrix(1 0 0 1 529.239 254.58)" fill="rgb(255,101,132)" stroke="none" stroke-width="1"/><ellipse id="ergAJVe5Gfz62" rx="0.77734" ry="1.16602" transform="matrix(1 0 0 1 528.461 263.131)" fill="rgb(255,101,132)" stroke="none" stroke-width="1"/><ellipse id="ergAJVe5Gfz63" rx="0.77734" ry="1.16602" transform="matrix(1 0 0 1 519.133 259.244)" fill="rgb(255,101,132)" stroke="none" stroke-width="1"/></g><g id="ergAJVe5Gfz64" transform="matrix(1 0 0 1 10.985503 57.640958)"><circle id="ergAJVe5Gfz65" r="12.4375" transform="matrix(1 0 0 1 524.575 256.524)" fill="rgb(255,101,132)" stroke="none" stroke-width="1"/><path id="ergAJVe5Gfz66" d="M689.90265,464.5564C689.90265,469.708184,685.726304,473.88453,680.57452,473.88453C675.422736,473.88453,671.24639,469.708184,671.24639,464.5564" transform="matrix(1 0 0 1 -156.005147 -207.255)" opacity="0.42" fill="rgb(0,0,0)" stroke="none" stroke-width="1"/><path id="ergAJVe5Gfz67" d="M671.24639,463.00172C671.24639,457.849936,675.422736,453.67359,680.57452,453.67359C685.726304,453.67359,689.90265,457.849936,689.90265,463.00172" transform="matrix(1 0 0 1 -156.005147 -207.255)" opacity="0.39" fill="rgb(0,0,0)" stroke="none" stroke-width="1"/><ellipse id="ergAJVe5Gfz68" rx="0.77734" ry="1.16602" transform="matrix(1 0 0 1 519.91 252.248)" fill="rgb(255,101,132)" stroke="none" stroke-width="1"/><ellipse id="ergAJVe5Gfz69" rx="0.77734" ry="1.16602" transform="matrix(1 0 0 1 524.575 250.693)" fill="rgb(255,101,132)" stroke="none" stroke-width="1"/><ellipse id="ergAJVe5Gfz70" rx="0.77734" ry="1.16602" transform="matrix(1 0 0 1 524.575 260.799)" fill="rgb(255,101,132)" stroke="none" stroke-width="1"/><ellipse id="ergAJVe5Gfz71" rx="0.77734" ry="1.16602" transform="matrix(1 0 0 1 529.239 254.58)" fill="rgb(255,101,132)" stroke="none" stroke-width="1"/><ellipse id="ergAJVe5Gfz72" rx="0.77734" ry="1.16602" transform="matrix(1 0 0 1 528.461 263.131)" fill="rgb(255,101,132)" stroke="none" stroke-width="1"/><ellipse id="ergAJVe5Gfz73" rx="0.77734" ry="1.16602" transform="matrix(1 0 0 1 519.133 259.244)" fill="rgb(255,101,132)" stroke="none" stroke-width="1"/></g></g></g><g id="ergAJVe5Gfz74_to" transform="translate(515.707473,285.831312)"><g id="ergAJVe5Gfz74" transform="translate(-517.13655,-291.660919)"><g id="ergAJVe5Gfz75_to" transform="translate(474.536417,294.035184)"><g id="ergAJVe5Gfz75" transform="translate(-487.262,-275.180013)"><circle id="ergAJVe5Gfz76" r="12.4375" transform="matrix(1 0 0 1 487.262 275.18)" fill="rgb(61,158,103)" stroke="none" stroke-width="1"/><path id="ergAJVe5Gfz77" d="M652.59013,483.21266C652.59013,488.364444,648.413784,492.54079,643.262,492.54079C638.110216,492.54079,633.93387,488.364444,633.93387,483.21266" transform="matrix(1 0 0 1 -156 -207.255)" opacity="0.29" fill="rgb(0,0,0)" stroke="none" stroke-width="1"/><path id="ergAJVe5Gfz78" d="M633.93387,481.658C633.93387,476.506216,638.110216,472.32987,643.262,472.32987C648.413784,472.32987,652.59013,476.506216,652.59013,481.658" transform="matrix(1 0 0 1 -156 -207.255)" opacity="0.29" fill="rgb(0,0,0)" stroke="none" stroke-width="1"/><ellipse id="ergAJVe5Gfz79" rx="0.77734" ry="1.16602" transform="matrix(1 0 0 1 482.598 270.904)" fill="rgb(61,158,103)" stroke="none" stroke-width="1"/><ellipse id="ergAJVe5Gfz80" rx="0.77734" ry="1.16602" transform="matrix(1 0 0 1 487.262 269.35)" fill="rgb(61,158,103)" stroke="none" stroke-width="1"/><ellipse id="ergAJVe5Gfz81" rx="0.77734" ry="1.16602" transform="matrix(1 0 0 1 487.262 279.455)" fill="rgb(61,158,103)" stroke="none" stroke-width="1"/><ellipse id="ergAJVe5Gfz82" rx="0.77734" ry="1.16602" transform="matrix(1 0 0 1 491.926 273.236)" fill="rgb(61,158,103)" stroke="none" stroke-width="1"/><ellipse id="ergAJVe5Gfz83" rx="0.77734" ry="1.16602" transform="matrix(1 0 0 1 491.149 281.787)" fill="rgb(61,158,103)" stroke="none" stroke-width="1"/><ellipse id="ergAJVe5Gfz84" rx="0.77734" ry="1.16602" transform="matrix(1 0 0 1 481.821 277.901)" fill="rgb(61,158,103)" stroke="none" stroke-width="1"/></g></g><g id="ergAJVe5Gfz85" transform="matrix(1 0 0 1 23.423522 12.945336)"><circle id="ergAJVe5Gfz86" r="12.4375" transform="matrix(1 0 0 1 487.262 275.18)" fill="rgb(61,158,103)" stroke="none" stroke-width="1"/><path id="ergAJVe5Gfz87" d="M652.59013,483.21266C652.59013,488.364444,648.413784,492.54079,643.262,492.54079C638.110216,492.54079,633.93387,488.364444,633.93387,483.21266" transform="matrix(1 0 0 1 -156 -207.255)" opacity="0.29" fill="rgb(0,0,0)" stroke="none" stroke-width="1"/><path id="ergAJVe5Gfz88" d="M633.93387,481.658C633.93387,476.506216,638.110216,472.32987,643.262,472.32987C648.413784,472.32987,652.59013,476.506216,652.59013,481.658" transform="matrix(1 0 0 1 -156 -207.255)" opacity="0.29" fill="rgb(0,0,0)" stroke="none" stroke-width="1"/><ellipse id="ergAJVe5Gfz89" rx="0.77734" ry="1.16602" transform="matrix(1 0 0 1 482.598 270.904)" fill="rgb(61,158,103)" stroke="none" stroke-width="1"/><ellipse id="ergAJVe5Gfz90" rx="0.77734" ry="1.16602" transform="matrix(1 0 0 1 487.262 269.35)" fill="rgb(61,158,103)" stroke="none" stroke-width="1"/><ellipse id="ergAJVe5Gfz91" rx="0.77734" ry="1.16602" transform="matrix(1 0 0 1 487.262 279.455)" fill="rgb(61,158,103)" stroke="none" stroke-width="1"/><ellipse id="ergAJVe5Gfz92" rx="0.77734" ry="1.16602" transform="matrix(1 0 0 1 491.926 273.236)" fill="rgb(61,158,103)" stroke="none" stroke-width="1"/><ellipse id="ergAJVe5Gfz93" rx="0.77734" ry="1.16602" transform="matrix(1 0 0 1 491.149 281.787)" fill="rgb(61,158,103)" stroke="none" stroke-width="1"/><ellipse id="ergAJVe5Gfz94" rx="0.77734" ry="1.16602" transform="matrix(1 0 0 1 481.821 277.901)" fill="rgb(61,158,103)" stroke="none" stroke-width="1"/></g><g id="ergAJVe5Gfz95" transform="matrix(1 0 0 1 72.474733 20.01652)"><circle id="ergAJVe5Gfz96" r="12.4375" transform="matrix(1 0 0 1 487.262 275.18)" fill="rgb(61,158,103)" stroke="none" stroke-width="1"/><path id="ergAJVe5Gfz97" d="M652.59013,483.21266C652.59013,488.364444,648.413784,492.54079,643.262,492.54079C638.110216,492.54079,633.93387,488.364444,633.93387,483.21266" transform="matrix(1 0 0 1 -156 -207.255)" opacity="0.29" fill="rgb(0,0,0)" stroke="none" stroke-width="1"/><path id="ergAJVe5Gfz98" d="M633.93387,481.658C633.93387,476.506216,638.110216,472.32987,643.262,472.32987C648.413784,472.32987,652.59013,476.506216,652.59013,481.658" transform="matrix(1 0 0 1 -156 -207.255)" opacity="0.29" fill="rgb(0,0,0)" stroke="none" stroke-width="1"/><ellipse id="ergAJVe5Gfz99" rx="0.77734" ry="1.16602" transform="matrix(1 0 0 1 482.598 270.904)" fill="rgb(61,158,103)" stroke="none" stroke-width="1"/><ellipse id="ergAJVe5Gfz100" rx="0.77734" ry="1.16602" transform="matrix(1 0 0 1 487.262 269.35)" fill="rgb(61,158,103)" stroke="none" stroke-width="1"/><ellipse id="ergAJVe5Gfz101" rx="0.77734" ry="1.16602" transform="matrix(1 0 0 1 487.262 279.455)" fill="rgb(61,158,103)" stroke="none" stroke-width="1"/><ellipse id="ergAJVe5Gfz102" rx="0.77734" ry="1.16602" transform="matrix(1 0 0 1 491.926 273.236)" fill="rgb(61,158,103)" stroke="none" stroke-width="1"/><ellipse id="ergAJVe5Gfz103" rx="0.77734" ry="1.16602" transform="matrix(1 0 0 1 491.149 281.787)" fill="rgb(61,158,103)" stroke="none" stroke-width="1"/><ellipse id="ergAJVe5Gfz104" rx="0.77734" ry="1.16602" transform="matrix(1 0 0 1 481.821 277.901)" fill="rgb(61,158,103)" stroke="none" stroke-width="1"/></g></g></g><circle id="ergAJVe5Gfz105" r="3.29669" transform="matrix(1 0 0 1 374.734 246.418)" fill="rgb(63,61,86)" stroke="none" stroke-width="1"/><polygon id="ergAJVe5Gfz106" points="464.345,366.08 385.17,344.123 388.203,332.857 467.378,354.815 464.345,366.08" fill="rgb(249,168,37)" stroke="none" stroke-width="1"/><path id="ergAJVe5Gfz107" d="M608.73806,569.57043C581.625005,574.7608,553.773445,574.7608,526.66039,569.57043L526.66039,557.89212C553.834268,562.39585,581.564182,562.39585,608.73806,557.89212Z" transform="matrix(1 0 0 1 -156 -207.255)" fill="rgb(249,168,37)" stroke="none" stroke-width="1"/><path id="ergAJVe5Gfz108" d="M617.17595,534.53552C590.062895,539.72589,562.211335,539.72589,535.09828,534.53552L535.09828,522.85721C562.272159,527.36093,590.002071,527.36093,617.17595,522.85721Z" transform="matrix(1 0 0 1 -156 -207.255)" fill="rgb(249,168,37)" stroke="none" stroke-width="1"/><path id="ergAJVe5Gfz109" d="M645.558,548.54948C618.444942,553.73985,590.593378,553.73985,563.48032,548.54948L563.48032,536.87118C590.654202,541.3749,618.384118,541.3749,645.558,536.87118Z" transform="matrix(1 0 0 1 -156 -207.255)" fill="rgb(249,168,37)" stroke="none" stroke-width="1"/><path id="ergAJVe5Gfz110" d="M652.46168,561.78489C625.348626,566.97527,597.497064,566.97527,570.38401,561.78489L570.38401,550.10659C597.557889,554.61031,625.287801,554.61031,652.46168,550.10659Z" transform="matrix(1 0 0 1 -156 -207.255)" fill="rgb(249,168,37)" stroke="none" stroke-width="1"/><polygon id="ergAJVe5Gfz111" points="520.531,371.824 439.554,385.426 437.676,373.904 518.652,360.302 520.531,371.824" fill="rgb(249,168,37)" stroke="none" stroke-width="1"/><path id="ergAJVe5Gfz112" d="M664.43494,580.57677C641.984441,596.759928,616.681714,608.561202,589.85486,615.36116L585.0504,604.74964C611.642462,597.303507,636.835802,585.553251,659.63047,569.96525Z" transform="matrix(1 0 0 1 -156 -207.255)" fill="rgb(249,168,37)" stroke="none" stroke-width="1"/><path id="ergAJVe5Gfz113" d="M657.68866,545.16625C635.238165,561.349409,609.935441,573.150683,583.10859,579.95064L578.30413,569.33912C604.896192,561.892987,630.089532,550.142731,652.8842,534.55473Z" transform="matrix(1 0 0 1 -156 -207.255)" fill="rgb(249,168,37)" stroke="none" stroke-width="1"/><path id="ergAJVe5Gfz114" d="M689.24339,545.87182C666.792894,562.054983,641.490165,573.856257,614.66331,580.65621L609.85885,570.0447C636.450914,562.598559,661.644256,550.8483,684.43893,535.2603Z" transform="matrix(1 0 0 1 -156 -207.255)" fill="rgb(249,168,37)" stroke="none" stroke-width="1"/><path id="ergAJVe5Gfz115" d="M700.96153,554.97242C678.511035,571.155579,653.208311,582.956853,626.38146,589.75681L621.577,579.14529C648.169062,571.699157,673.362402,559.948901,696.15707,544.3609Z" transform="matrix(1 0 0 1 -156 -207.255)" fill="rgb(249,168,37)" stroke="none" stroke-width="1"/><rect id="ergAJVe5Gfz116" width="3.88672" height="3.88672" rx="0" ry="0" transform="matrix(1 0 0 1 442.953 324.93)" fill="rgb(0,191,113)" stroke="none" stroke-width="1"/><rect id="ergAJVe5Gfz117" width="3.88672" height="3.88672" rx="0" ry="0" transform="matrix(1 0 0 1 454.614 392.559)" fill="rgb(0,191,113)" stroke="none" stroke-width="1"/><rect id="ergAJVe5Gfz118" width="3.88672" height="3.88672" rx="0" ry="0" transform="matrix(1 0 0 1 392.426 324.93)" fill="rgb(0,191,113)" stroke="none" stroke-width="1"/><rect id="ergAJVe5Gfz119" width="3.88672" height="3.88672" rx="0" ry="0" transform="matrix(1 0 0 1 482.598 373.125)" fill="rgb(0,191,113)" stroke="none" stroke-width="1"/><rect id="ergAJVe5Gfz120" width="3.88672" height="3.88672" rx="0" ry="0" transform="matrix(1 0 0 1 484.93 350.582)" fill="rgb(0,191,113)" stroke="none" stroke-width="1"/><rect id="ergAJVe5Gfz121" width="5.44141" height="3.10938" rx="0" ry="0" transform="matrix(0.827515 0.561444 -0.561444 0.827515 420.198373 336.884962)" fill="rgb(0,191,113)" stroke="none" stroke-width="1"/><rect id="ergAJVe5Gfz122" width="5.44141" height="3.10938" rx="0" ry="0" transform="matrix(0.827515 0.561444 -0.561444 0.827515 466.060778 345.436541)" fill="rgb(0,191,113)" stroke="none" stroke-width="1"/><rect id="ergAJVe5Gfz123" width="5.44141" height="3.10938" rx="0" ry="0" transform="matrix(0.827515 0.561444 -0.561444 0.827515 410.092075 360.205483)" fill="rgb(0,191,113)" stroke="none" stroke-width="1"/><rect id="ergAJVe5Gfz124" width="5.44141" height="3.10938" rx="0" ry="0" transform="matrix(-0.561444 0.827515 -0.827515 -0.561444 446.15931 358.531891)" fill="rgb(0,191,113)" stroke="none" stroke-width="1"/><rect id="ergAJVe5Gfz125" width="5.44141" height="3.10938" rx="0" ry="0" transform="matrix(-0.561444 0.827515 -0.827515 -0.561444 467.141829 363.973222)" fill="rgb(0,191,113)" stroke="none" stroke-width="1"/><rect id="ergAJVe5Gfz126" width="5.44141" height="3.10938" rx="0" ry="0" transform="matrix(-0.56144 0.82751 -0.82751 -0.56144 523.123015 345.315754)" fill="rgb(0,191,113)" stroke="none" stroke-width="1"/><rect id="ergAJVe5Gfz127" width="888" height="2.24072" rx="0" ry="0" transform="matrix(1 0 0 1 0 483.248)" fill="rgb(63,61,86)" stroke="none" stroke-width="1"/></svg>
