<svg cache-id="4d0df0faee214038b79a06d04ec650b4" id="eKtTGsJCdYL1" xmlns="http://www.w3.org/2000/svg" xmlns:xlink="http://www.w3.org/1999/xlink" viewBox="0 0 1131.14 783.2" shape-rendering="geometricPrecision" text-rendering="geometricPrecision"><style><![CDATA[#eKtTGsJCdYL47 {animation: eKtTGsJCdYL47_c_o 3000ms linear infinite normal forwards}@keyframes eKtTGsJCdYL47_c_o { 0% {opacity: 0.12} 100% {opacity: 1}}]]></style><path id="eKtTGsJCdYL2" d="M618.92,192C547.55,204,476.23,198.62,407.61,190.85C338.99,183.08,270.61,172.97,199.13,175.79C153.18,177.65,102,186.74,70,213.42C39.19,239.1,34.46,273.84,34.43,305.2C34.43,328.8,36.43,353.2,53.06,372.03C64.57,385.09,82.28,394.47,95.62,406.52C142.06,448.45,128.12,514.23,97.85,570.13C83.65,596.35,66.27,622.13,56.62,648.95C46.97,675.77,45.74,704.58,63.18,726.55C80.46,748.32,113.82,760.65,148.58,767.08C219.19,780.15,297.79,772.33,373.84,761.66C542.19,738.05,708.78,700.88,874.92,663.8C936.4,650.07,998.15,636.28,1057.38,616.42C1090.27,605.42,1123.75,591.59,1144.96,570.09C1171.88,542.78,1172.5,505.44,1146.41,483.09C1102.64,445.52,1003.79,453.6,969.91,410.7C951.26,387,959.28,355,974,326.8C1005.59,266.22,1066.8,206.45,1058.68,145.96C1053.1,104.42,1011.18,69.96,955.09,60.96C896.3,51.44,820.87,69.03,787.09,110.72C752.4,153.61,681.94,181.42,618.92,192Z" transform="matrix(1 0 0 1 -34.43 -58.4)" opacity="0.1" fill="rgb(0,191,166)" stroke="none" stroke-width="1"/><path id="eKtTGsJCdYL3" d="M889.11,165.49C887.9,169.37,886.68,173.25,885.11,177.02C882.425378,183.571861,879.035405,189.811961,875,195.63C872.378542,199.459215,869.561472,203.150778,866.56,206.69C862.8,211.12,858.61,215.58,857.28,221.24C856.51,224.51,856.77,227.93,856.44,231.24C856.11,234.55,855.04,238.12,852.33,240.12C850.4,241.55,847.93,241.98,845.56,242.36C843.86,242.63,841.74,242.71,840.85,241.24C840.550243,240.63705,840.39287,239.973346,840.39,239.3L839.98,234.41C839.89,233.36,839.52,232,838.46,231.95C837.4,231.9,836.87,233.31,835.97,233.95C834.77,234.79,832.97,233.95,832.31,232.68C831.762952,231.308866,831.723939,229.787367,832.2,228.39C833.675103,222.75816,837.489453,218.026619,842.68,215.39C844.461042,214.668227,846.168843,213.777491,847.78,212.73C849.416521,211.306875,850.773077,209.590831,851.78,207.67C861.06,192.39,870.39,177.03,876.93,160.4C878.226533,157.43308,879.101679,154.299385,879.53,151.09C879.85,147.81,879.34,144.53,879.13,141.24C878.743709,135.351694,879.28703,129.439287,880.74,123.72C881.061347,122.213957,881.62897,120.77125,882.42,119.45C885.12,115.36,891.42,114.75,895.42,117.58C898.401777,119.867587,900.282155,123.305268,900.6,127.05C900.89,130.36,898.98,133.8,898.01,136.89Q893.56,151.21,889.11,165.49Z" transform="matrix(1 0 0 1 -34.43 -58.4)" fill="rgb(161,97,106)" stroke="none" stroke-width="1"/><path id="eKtTGsJCdYL4" d="M889.11,165.49C887.9,169.37,886.68,173.25,885.11,177.02C882.425378,183.571861,879.035405,189.811961,875,195.63C872.378542,199.459215,869.561472,203.150778,866.56,206.69C862.8,211.12,858.61,215.58,857.28,221.24C856.51,224.51,856.77,227.93,856.44,231.24C856.11,234.55,855.04,238.12,852.33,240.12C850.4,241.55,847.93,241.98,845.56,242.36C843.86,242.63,841.74,242.71,840.85,241.24C840.550243,240.63705,840.39287,239.973346,840.39,239.3L839.98,234.41C839.89,233.36,839.52,232,838.46,231.95C837.4,231.9,836.87,233.31,835.97,233.95C834.77,234.79,832.97,233.95,832.31,232.68C831.762952,231.308866,831.723939,229.787367,832.2,228.39C833.675103,222.75816,837.489453,218.026619,842.68,215.39C844.461042,214.668227,846.168843,213.777491,847.78,212.73C849.416521,211.306875,850.773077,209.590831,851.78,207.67C861.06,192.39,870.39,177.03,876.93,160.4C878.226533,157.43308,879.101679,154.299385,879.53,151.09C879.85,147.81,879.34,144.53,879.13,141.24C878.743709,135.351694,879.28703,129.439287,880.74,123.72C881.061347,122.213957,881.62897,120.77125,882.42,119.45C885.12,115.36,891.42,114.75,895.42,117.58C898.401777,119.867587,900.282155,123.305268,900.6,127.05C900.89,130.36,898.98,133.8,898.01,136.89Q893.56,151.21,889.11,165.49Z" transform="matrix(1 0 0 1 -34.43 -58.4)" opacity="0.05" fill="rgb(0,0,0)" stroke="none" stroke-width="1"/><path id="eKtTGsJCdYL5" d="M947.41,328.87C945.598851,329.491053,943.676244,329.719448,941.77,329.54C941.63,327.98,939.53,327.63,937.97,327.71C937.215491,327.6851,936.467536,327.85744,935.8,328.21C935.41,328.46,935.11,328.83,934.73,329.08C934.053889,329.455088,933.293185,329.651287,932.52,329.65L924.4,330.33C920.78,330.64,917.01,330.93,913.62,329.63C912.942905,329.419574,912.341757,329.016492,911.89,328.47C910.97,327.15,911.89,325.26,913.16,324.31C914.43,323.36,916.07,322.91,917.35,321.93C920.17,319.78,920.56,315.76,922.05,312.55C923.103023,310.513111,924.410118,308.617991,925.94,306.91C927.041941,305.443346,928.329331,304.125703,929.77,302.99C933.02,300.63,936.77,300.68,940.6,300.34C943.3,300.1,945.84,299.95,947.78,302.34C950.17,305.34,949.22,311.34,949.07,314.85C948.882139,319.559394,948.327121,324.246952,947.41,328.87Z" transform="matrix(1 0 0 1 -34.43 -58.4)" fill="rgb(81,78,127)" stroke="none" stroke-width="1"/><path id="eKtTGsJCdYL6" d="M947.41,328.87C945.598851,329.491053,943.676244,329.719448,941.77,329.54C941.63,327.98,939.53,327.63,937.97,327.71C937.215491,327.6851,936.467536,327.85744,935.8,328.21C935.41,328.46,935.11,328.83,934.73,329.08C934.053889,329.455088,933.293185,329.651287,932.52,329.65L924.4,330.33C920.78,330.64,917.01,330.93,913.62,329.63C912.942905,329.419574,912.341757,329.016492,911.89,328.47C910.97,327.15,911.89,325.26,913.16,324.31C914.43,323.36,916.07,322.91,917.35,321.93C920.17,319.78,920.56,315.76,922.05,312.55C923.103023,310.513111,924.410118,308.617991,925.94,306.91C927.041941,305.443346,928.329331,304.125703,929.77,302.99C933.02,300.63,936.77,300.68,940.6,300.34C943.3,300.1,945.84,299.95,947.78,302.34C950.17,305.34,949.22,311.34,949.07,314.85C948.882139,319.559394,948.327121,324.246952,947.41,328.87Z" transform="matrix(1 0 0 1 -34.43 -58.4)" opacity="0.05" fill="rgb(0,0,0)" stroke="none" stroke-width="1"/><path id="eKtTGsJCdYL7" d="M944.13,170.91C946.61,171.71,947.69,174.8,947.23,177.38C946.77,179.96,945.23,182.16,943.96,184.44C940.34,190.91,938.78,198.31,935.74,205.06C933.47,210.11,930.4,214.77,928.15,219.83C925.9,224.89,924.53,230.6,925.88,235.96C926.55,238.57,927.88,240.96,928.68,243.53C929.521366,246.315495,930.070984,249.180885,930.32,252.08C931.421097,261.927964,931.618587,271.856037,930.91,281.74C930.905006,282.944967,930.65316,284.136131,930.17,285.24C929.66,286.24,928.78,287.24,929.17,288.24C929.34,288.65,929.7,288.95,929.89,289.35C930.41,290.47,929.37,291.66,928.42,292.46C928.760122,293.069644,929.334461,293.513944,930.01,293.69C928.60813,294.583629,927.954679,296.288282,928.4,297.89C929.25,298.01,929.3,299.31,928.77,299.98C928.24,300.65,927.4,301.08,927.02,301.85C926.555537,303.152159,927.187051,304.590607,928.46,305.13C929.708225,305.615554,931.072425,305.719957,932.38,305.43C934.620832,305.128125,936.834362,304.649975,939,304C939.715387,303.817757,940.392619,303.509617,941,303.09C942.087014,302.033219,942.733681,300.60412,942.81,299.09C943.305204,295.019965,943.455739,290.915375,943.26,286.82C942.9,266.98,943.26,247.12,944.12,227.29C944.47,219.29,946.87,211.54,949.95,204.18C951.664024,200.403667,953.566415,196.715699,955.65,193.13C960.09,185,964,176,963,166.72C962.89,165.72,962.52,164.53,961.54,164.37C961.153034,164.328409,960.762086,164.394143,960.41,164.56C958.353563,165.518916,956.365536,166.618178,954.46,167.85C951.314168,169.688925,947.769863,170.738835,944.13,170.91Z" transform="matrix(1 0 0 1 -34.43 -58.4)" fill="rgb(70,67,83)" stroke="none" stroke-width="1"/><path id="eKtTGsJCdYL8" d="M944.13,170.91C946.61,171.71,947.69,174.8,947.23,177.38C946.77,179.96,945.23,182.16,943.96,184.44C940.34,190.91,938.78,198.31,935.74,205.06C933.47,210.11,930.4,214.77,928.15,219.83C925.9,224.89,924.53,230.6,925.88,235.96C926.55,238.57,927.88,240.96,928.68,243.53C929.521366,246.315495,930.070984,249.180885,930.32,252.08C931.421097,261.927964,931.618587,271.856037,930.91,281.74C930.905006,282.944967,930.65316,284.136131,930.17,285.24C929.66,286.24,928.78,287.24,929.17,288.24C929.34,288.65,929.7,288.95,929.89,289.35C930.41,290.47,929.37,291.66,928.42,292.46C928.760122,293.069644,929.334461,293.513944,930.01,293.69C928.60813,294.583629,927.954679,296.288282,928.4,297.89C929.25,298.01,929.3,299.31,928.77,299.98C928.24,300.65,927.4,301.08,927.02,301.85C926.555537,303.152159,927.187051,304.590607,928.46,305.13C929.708225,305.615554,931.072425,305.719957,932.38,305.43C934.620832,305.128125,936.834362,304.649975,939,304C939.715387,303.817757,940.392619,303.509617,941,303.09C942.087014,302.033219,942.733681,300.60412,942.81,299.09C943.305204,295.019965,943.455739,290.915375,943.26,286.82C942.9,266.98,943.26,247.12,944.12,227.29C944.47,219.29,946.87,211.54,949.95,204.18C951.664024,200.403667,953.566415,196.715699,955.65,193.13C960.09,185,964,176,963,166.72C962.89,165.72,962.52,164.53,961.54,164.37C961.153034,164.328409,960.762086,164.394143,960.41,164.56C958.353563,165.518916,956.365536,166.618178,954.46,167.85C951.314168,169.688925,947.769863,170.738835,944.13,170.91Z" transform="matrix(1 0 0 1 -34.43 -58.4)" opacity="0.05" fill="rgb(0,0,0)" stroke="none" stroke-width="1"/><path id="eKtTGsJCdYL9" d="M977.66,146.8C978.950122,145.96215,980.44281,145.488775,981.98,145.43C983.76,145.52,985.28,146.69,986.67,147.81C988.317028,149.074016,989.880311,150.443559,991.35,151.91C997.536191,158.522635,999.663062,167.963497,996.91,176.59C995.44,181,992.75,184.89,990.09,188.7L984.69,196.46C976.45,208.29,968.21,220.12,959.58,231.67C959.576123,232.252684,959.196135,232.766073,958.64,232.94C958.32,233.02,957.94,233.01,957.75,233.27C957.665307,233.433195,957.627246,233.61658,957.64,233.8C957.66019,234.657444,957.822389,235.505609,958.12,236.31C958.260459,236.570229,958.29623,236.874278,958.22,237.16C957.94,237.81,956.76,237.45,956.38,238.05C956.13,238.45,956.44,238.97,956.77,239.31C957.1,239.65,957.51,240.03,957.45,240.5C957.39,240.97,956.57,241.5,956.6,242.08C956.6,242.42,956.9,242.68,957.11,242.95C957.716497,243.837948,957.602955,245.032247,956.84,245.79C956.27,251.43,959.34,256.79,959.95,262.41C960.95,271.29,956.9,279.96,956.41,288.87C956.439368,289.872594,956.248199,290.869405,955.85,291.79C955.02,293.33,952.85,294.26,952.96,296.01C953.116836,296.728177,953.317206,297.436151,953.56,298.13C953.73,299.13,953.26,300.13,953.24,301.13C953.22,302.13,954.1,303.36,955.05,302.97Q953.99,306.5,953.16,310.1L934.26,311.66C934.05618,309.961281,934.11351,308.241375,934.43,306.56C934.81,304.74,935.64,303.03,936.07,301.22C936.636095,299.414525,936.360725,297.45022,935.32,295.87C936.340819,295.886991,937.224512,295.163969,937.41,294.16C937.584735,293.187789,937.584735,292.192211,937.41,291.22C936.91,286.29,938.98,281.43,938.91,276.48C938.86,272.58,937.49,268.84,936.8,265C935.32,256.8,936.86,247.91,933.21,240.43C931,235.91,927.94,230.91,930.42,226.54C931.64,224.38,933.8,222.9,935.21,220.86C936.357644,218.934609,937.219954,216.852939,937.77,214.68C940.68,205.68,945.39,197.31,949.52,188.76C950.642373,186.626431,951.476335,184.353213,952,182C952.293663,179.920408,952.397424,177.818403,952.31,175.72C952.318051,171.942753,952.551801,168.169362,953.01,164.42C953.103304,162.779009,953.572003,161.181327,954.38,159.75C955.197704,158.66875,956.216314,157.755396,957.38,157.06C963.58,152.75,971,150.32,977.66,146.8Z" transform="matrix(1 0 0 1 -34.43 -58.4)" fill="rgb(70,67,83)" stroke="none" stroke-width="1"/><path id="eKtTGsJCdYL10" d="M955,335.79C953.185307,336.410674,951.259526,336.639041,949.35,336.46C949.21,334.91,947.12,334.55,945.56,334.63C944.802396,334.606112,944.051469,334.778343,943.38,335.13C943,335.38,942.7,335.75,942.31,336C941.634221,336.37592,940.873297,336.572176,940.1,336.57L931.99,337.26C928.36,337.56,924.6,337.85,921.2,336.55C920.522611,336.346044,919.922927,335.941606,919.48,335.39C918.55,334.07,919.48,332.19,920.75,331.23C922.02,330.27,923.66,329.83,924.93,328.86C927.75,326.7,928.14,322.69,929.64,319.47C930.687176,317.435087,931.991159,315.542967,933.52,313.84C934.627162,312.374874,935.913891,311.054549,937.35,309.91C940.61,307.55,944.35,307.6,948.18,307.27C950.89,307.02,953.43,306.87,955.36,309.27C957.76,312.27,956.8,318.27,956.66,321.78C956.472188,326.48609,955.917168,331.170329,955,335.79Z" transform="matrix(1 0 0 1 -34.43 -58.4)" fill="rgb(81,78,127)" stroke="none" stroke-width="1"/><circle id="eKtTGsJCdYL11" r="18.72" transform="matrix(1 0 0 1 836.81 36.94)" fill="rgb(161,97,106)" stroke="none" stroke-width="1"/><path id="eKtTGsJCdYL12" d="M888.89,100.9C891.58,103.21,895.43,103.39,898.95,103.75C906.477844,104.512233,913.805775,106.629643,920.58,110C921.521826,110.396998,922.37257,110.98231,923.08,111.72C923.688607,112.509425,924.121598,113.419728,924.35,114.39C924.989066,116.497043,925.229844,118.704735,925.06,120.9C924.813518,123.032185,924.201214,125.1059,923.25,127.03C920.648343,132.4035,916.639731,136.971936,911.65,140.25C910.770174,140.905323,909.771809,141.384131,908.71,141.66C906.25,142.17,903.87,140.75,901.44,140.11C899.229212,139.53209,896.898185,139.608517,894.73,140.33C892.73,141,890.54,142.25,888.56,141.42C887.29214,140.707535,886.30726,139.581454,885.77,138.23C883.856545,134.606424,882.150463,130.877084,880.66,127.06C880.125981,125.576225,879.508324,124.123898,878.81,122.71C876.64,118.57,872.89,115.38,871.02,111.1C870.631,110.435068,870.564791,109.629525,870.84,108.91C871.193658,108.450271,871.673002,108.10292,872.22,107.91C874.988241,106.315372,877.508265,104.324283,879.7,102C880.93,100.83,883.19,97.63,884.96,97.36C887,97,887.55,99.74,888.89,100.9Z" transform="matrix(1 0 0 1 -34.43 -58.4)" fill="rgb(161,97,106)" stroke="none" stroke-width="1"/><path id="eKtTGsJCdYL13" d="M888.46,138.94C890.63,139.94,893.18,139.51,895.54,139.02C901.6,137.76,907.73,136.47,913.34,133.85C915.092663,133.179233,916.611434,132.011482,917.71,130.49C918.394189,129.189543,918.809125,127.764477,918.93,126.3L919.93,119.3C920.29,116.87,919.66,114.62,919.61,112.16C919.532903,111.609235,919.680667,111.050613,920.02,110.61C920.35867,110.323021,920.797662,110.182687,921.24,110.22C924.06,110.22,925.76,113.22,927.73,115.22C928.87073,116.36931,930.231062,117.277331,931.73,117.89C933.52,118.63,935.73,119.15,936.48,120.95C936.78,121.7,936.74,122.55,937.06,123.3C938.32,126.3,943.69,125.3,945.06,128.3C945.44,129.14,945.42,130.19,946.06,130.85C946.7,131.51,947.9,131.5,948.89,131.66C952.79,132.3,954.69,136.82,958.03,138.95C960.84,140.74,964.46,140.7,967.48,142.1C969.17,142.88,970.66,144.1,972.48,144.61C974.3,145.12,976.27,144.85,978.18,144.9C978.59169,144.861187,979.000995,144.995207,979.31,145.27C979.548898,145.636704,979.618138,146.088589,979.5,146.51C977.613766,158.542548,969.515976,168.685694,958.2,173.19C957.558541,173.397392,956.94929,173.693603,956.39,174.07C954.69,175.34,954.39,178.07,952.46,178.97C951.039702,179.469825,949.459049,179.129733,948.37,178.09C947.305228,177.064772,946.303401,175.976121,945.37,174.83C943.607726,172.989336,941.294826,171.771467,938.78,171.36C936.46,170.99,933.86,171.26,931.99,169.84C931.22344,169.128204,930.508313,168.362952,929.85,167.55C928.452366,166.251781,926.796193,165.263529,924.99,164.65C920.061051,162.703668,914.85124,161.562439,909.56,161.27C904.64,161,899.56,161.44,894.91,159.84C893.698396,159.468561,892.582438,158.837208,891.64,157.99C890.634656,156.908825,889.88909,155.612635,889.46,154.2C887.761492,149.295603,887.416047,144.024113,888.46,138.94Z" transform="matrix(1 0 0 1 -34.43 -58.4)" fill="rgb(61,158,103)" stroke="none" stroke-width="1"/><path id="eKtTGsJCdYL14" d="M912.58,111.35C911.2,111.23,909.82,111.4,908.43,111.35C906.8,111.35,905.19,110.95,903.56,110.94C898.263266,111.029617,893.63845,114.548851,892.14,119.63C892.002687,120.025503,891.978445,120.451472,892.07,120.86C892.181253,121.276931,892.581307,121.549308,893.01,121.5C893.553815,120.024041,894.258035,118.61225,895.11,117.29C896.668341,115.17842,898.878958,113.639072,901.4,112.91C903.914267,112.202895,906.561114,112.106895,909.12,112.63C910.18,112.83,911.23,113.12,912.27,113.4L917.27,114.78C918.19,115.03,919.11,115.28,920.01,115.61C920.7,115.87,921.88,116.82,922.56,116.86C923.48,116.86,922.73,116.06,922.32,115.52C921.508957,114.40748,920.368443,113.578333,919.06,113.15C916.980835,112.289882,914.804905,111.685457,912.58,111.35Z" transform="matrix(1 0 0 1 -34.43 -58.4)" fill="rgb(61,158,103)" stroke="none" stroke-width="1"/><path id="eKtTGsJCdYL15" d="M900,167.58C898.79,171.46,897.58,175.35,896.06,179.12C893.343368,185.676077,889.919792,191.916307,885.85,197.73C883.228542,201.559215,880.411472,205.250778,877.41,208.79C873.65,213.22,869.41,217.68,868.13,223.34C867.36,226.61,867.62,230.03,867.3,233.34C866.98,236.65,865.89,240.22,863.19,242.22C861.25,243.65,858.78,244.08,856.41,244.45C854.72,244.73,852.6,244.81,851.71,243.34C851.407117,242.737755,851.246332,242.07409,851.24,241.4L850.84,236.51C850.75,235.51,850.37,234.1,849.32,234.05C848.27,234,847.72,235.41,846.82,236.05C845.62,236.89,843.82,236.05,843.16,234.78C842.611979,233.405059,842.576487,231.87893,843.06,230.48C844.53516,224.851222,848.344918,220.120864,853.53,217.48C855.311411,216.75215,857.021973,215.86172,858.64,214.82C860.277032,213.397363,861.63367,211.681216,862.64,209.76C871.92,194.48,881.25,179.12,887.8,162.49C889.090546,159.518186,889.962203,156.38157,890.39,153.17C890.71,149.9,890.21,146.61,889.99,143.33C889.601264,137.441092,890.148043,131.527782,891.61,125.81C891.926693,124.302559,892.494611,122.859101,893.29,121.54C895.98,117.45,902.29,116.84,906.29,119.67C909.270732,121.959808,911.153637,125.395474,911.48,129.14C911.77,132.45,909.85,135.89,908.89,138.98Q904.43,153.29,900,167.58Z" transform="matrix(1 0 0 1 -34.43 -58.4)" fill="rgb(161,97,106)" stroke="none" stroke-width="1"/><path id="eKtTGsJCdYL16" d="M844,82.11C843.85,80.55,845.25,79.11,846.84,78.11C848.514303,77.22856,850.121922,76.225887,851.65,75.11C853.07,73.88,853.84,72.29,855.27,71.05C856.878848,69.820356,858.708547,68.910599,860.66,68.37C864.814578,66.908255,869.176529,66.121618,873.58,66.04C878.04,66.04,882.58,67.04,885.94,69.31C886.757472,69.820755,887.470174,70.482549,888.04,71.26C888.568221,72.22,888.907671,73.272293,889.04,74.36C889.838237,77.715196,890.918753,80.996886,892.27,84.17C893.66,87.7,895.14,91.36,898.41,94.09C901.91,97,907.26,98.68,909.57,102.21C910.083363,102.84247,910.271992,103.678357,910.08,104.47C909.75,105.37,908.69,105.97,907.71,106.53C902.02,109.79,897.13,114.02,894.6,119.07C892.07,124.12,892.16,130.07,895.75,134.72C897.07,136.44,898.89,138.48,897.6,140.21C895.6,142.84,888.91,141.33,887.35,144.12C886.86,145,887.15,146.02,887.14,146.98C887.14,149.9,884.34,152.49,880.93,153.84C877.52,155.19,873.57,155.51,869.73,155.68C868.710545,153.388624,868.610307,150.793177,869.45,148.43C869.704937,147.923446,869.805762,147.353263,869.74,146.79C869.45804,146.15533,869.012934,145.60671,868.45,145.2C864.35,141.33,865.21,135.62,867.68,131.01C870.15,126.4,873.98,122.19,875.41,117.34C876.11,114.93,876.12,112.22,874.2,110.23C873.107457,109.264881,871.929254,108.401312,870.68,107.65C868.440948,106.134005,866.717594,103.971092,865.74,101.45C864.59,98.26,864.74,94.45,861.4,92.31C858.19,90.31,853.68,90.88,850.13,89.51C847.41,88.54,844.23,84.39,844,82.11Z" transform="matrix(1 0 0 1 -34.43 -58.4)" fill="rgb(70,67,83)" stroke="none" stroke-width="1"/><path id="eKtTGsJCdYL17" d="M510.36,166.59C509.61,174.76,515.79,182.69,513.99,190.69C513.6,192.4,512.87,194.02,512.6,195.75C511.85,200.5,514.68,204.99,517.39,208.97L540.62,243.07C541.557489,244.5654,542.672234,245.942044,543.94,247.17C548.39,251.17,555.05,250.7,560.88,251.89C564.980208,252.716865,568.852452,254.422699,572.23,256.89C572.38363,257.001877,572.485995,257.170675,572.514187,257.358622C572.542379,257.546568,572.494045,257.737972,572.38,257.89C570.42987,260.571754,567.250476,262.078576,563.94,261.89C563.33,262.69,563.94,263.89,564.78,264.45C566.03,265.32,567.78,265.55,568,267.66C568.080143,268.397373,567.929927,269.141468,567.57,269.79C566.633845,271.221199,565.177977,272.232417,563.51,272.61C555.51,275.07,546.77,270.75,540.75,264.87C534.73,258.99,530.41,251.57,524.5,245.58C521.23,242.27,517.5,239.44,514.14,236.23C507.42,229.82,502.19,222.04,497.14,214.23C495.488861,211.96527,494.243684,209.430929,493.46,206.74C492.84,204.09,493.12,201.27,492.4,198.64C491.46,195.18,488.94,192.43,486.83,189.53C482.71,183.85,479.96,176.91,480.5,169.91C481.04,162.91,485.38,156,492,153.65C494.046196,152.834469,496.300237,152.697755,498.43,153.26C501.13,154.09,503.12,156.33,504.98,158.47L509.38,163.57C510.487542,164.68612,511.361263,166.012001,511.95,167.47C512.527823,168.96792,512.175817,170.665369,511.05,171.81" transform="matrix(1 0 0 1 -34.43 -58.4)" fill="rgb(251,190,190)" stroke="none" stroke-width="1"/><path id="eKtTGsJCdYL18" d="M510.36,166.59C509.61,174.76,515.79,182.69,513.99,190.69C513.6,192.4,512.87,194.02,512.6,195.75C511.85,200.5,514.68,204.99,517.39,208.97L540.62,243.07C541.557489,244.5654,542.672234,245.942044,543.94,247.17C548.39,251.17,555.05,250.7,560.88,251.89C564.980208,252.716865,568.852452,254.422699,572.23,256.89C572.38363,257.001877,572.485995,257.170675,572.514187,257.358622C572.542379,257.546568,572.494045,257.737972,572.38,257.89C570.42987,260.571754,567.250476,262.078576,563.94,261.89C563.33,262.69,563.94,263.89,564.78,264.45C566.03,265.32,567.78,265.55,568,267.66C568.080143,268.397373,567.929927,269.141468,567.57,269.79C566.633845,271.221199,565.177977,272.232417,563.51,272.61C555.51,275.07,546.77,270.75,540.75,264.87C534.73,258.99,530.41,251.57,524.5,245.58C521.23,242.27,517.5,239.44,514.14,236.23C507.42,229.82,502.19,222.04,497.14,214.23C495.488861,211.96527,494.243684,209.430929,493.46,206.74C492.84,204.09,493.12,201.27,492.4,198.64C491.46,195.18,488.94,192.43,486.83,189.53C482.71,183.85,479.96,176.91,480.5,169.91C481.04,162.91,485.38,156,492,153.65C494.046196,152.834469,496.300237,152.697755,498.43,153.26C501.13,154.09,503.12,156.33,504.98,158.47L509.38,163.57C510.487542,164.68612,511.361263,166.012001,511.95,167.47C512.527823,168.96792,512.175817,170.665369,511.05,171.81" transform="matrix(1 0 0 1 -34.43 -58.4)" opacity="0.05" fill="rgb(0,0,0)" stroke="none" stroke-width="1"/><path id="eKtTGsJCdYL19" d="M492.78,376.89C497.85,379.98,504.17,380.17,510.07,379.45C511.02,379.33,512.15,379.26,512.76,379.99C513.64,381.06,512.6,382.62,511.52,383.48C508.036049,386.092926,503.944187,387.775786,499.63,388.37C495.780885,388.912192,491.897002,389.169558,488.01,389.14C477.41,389.32,466.75,389.5,456.25,387.97C455.644613,387.926711,455.055141,387.756343,454.52,387.47C453.852205,386.98715,453.385812,386.275099,453.21,385.47C452.49,382.75,453.88,379.81,455.97,377.92C458.06,376.03,460.75,374.92,463.37,373.92L472.6,370.33C474.76,369.49,478.23,367.25,480.6,367.42C484.93,367.76,489.11,374.74,492.78,376.89Z" transform="matrix(1 0 0 1 -34.43 -58.4)" fill="rgb(63,61,86)" stroke="none" stroke-width="1"/><path id="eKtTGsJCdYL20" d="M492.78,376.89C497.85,379.98,504.17,380.17,510.07,379.45C511.02,379.33,512.15,379.26,512.76,379.99C513.64,381.06,512.6,382.62,511.52,383.48C508.036049,386.092926,503.944187,387.775786,499.63,388.37C495.780885,388.912192,491.897002,389.169558,488.01,389.14C477.41,389.32,466.75,389.5,456.25,387.97C455.644613,387.926711,455.055141,387.756343,454.52,387.47C453.852205,386.98715,453.385812,386.275099,453.21,385.47C452.49,382.75,453.88,379.81,455.97,377.92C458.06,376.03,460.75,374.92,463.37,373.92L472.6,370.33C474.76,369.49,478.23,367.25,480.6,367.42C484.93,367.76,489.11,374.74,492.78,376.89Z" transform="matrix(1 0 0 1 -34.43 -58.4)" opacity="0.05" fill="rgb(0,0,0)" stroke="none" stroke-width="1"/><path id="eKtTGsJCdYL21" d="M486.34,254.43C490.17,259.54,494.15,265.43,493.2,271.76C492.69,275.17,490.78,278.18,489.38,281.33C487.628779,285.664144,486.33184,290.168244,485.51,294.77C484.07,301.46,482.63,308.17,481.75,314.96C480.75,322.63,485.46,344.83,485.9,352.55C486,354.41,486.22,356.43,487.51,357.77C488.02,358.3,488.7,358.77,488.92,359.42C489.058974,360.084895,488.952401,360.777624,488.62,361.37C486.45,366.25,482.02,369.88,477.1,371.96C472.18,374.04,460.21,377.62,454.87,377.8C454.161731,377.883075,453.443904,377.790342,452.78,377.53C452.061743,377.095625,451.495776,376.449304,451.16,375.68C447.31,368.3,451.01,342.06,450.95,333.74C450.95,326.79,449.26,319.89,449.57,312.95C449.81,307.38,451.3,301.95,451.85,296.39C452.74,287.28,451.06,278.14,449.39,269.14C448.11,262.25,446.82,255.35,445.18,248.53C444.18,244.38,443.02,240.18,440.73,236.53C438.92,233.66,436.46,231.27,434.4,228.58C428.661804,221.063655,426.111428,211.591344,427.3,202.21C427.42,201.28,440.63,205.55,441.77,206.05C446.506936,208.064395,450.865988,210.871232,454.66,214.35C457.66,217.25,460.12,221.14,462.79,224.4Q468.46,231.3,473.98,238.32Q480.25,246.33,486.34,254.43Z" transform="matrix(1 0 0 1 -34.43 -58.4)" fill="rgb(70,67,83)" stroke="none" stroke-width="1"/><path id="eKtTGsJCdYL22" d="M486.34,254.12C490.17,259.24,494.15,265.12,493.2,271.46C492.69,274.87,490.78,277.87,489.38,281.02C487.628779,285.354144,486.33184,289.858244,485.51,294.46C484.07,301.16,482.63,307.86,481.75,314.65C480.75,322.33,485.46,344.52,485.9,352.25C486,354.11,486.22,356.13,487.51,357.47C488.02,357.99,488.7,358.42,488.92,359.11C489.058974,359.774895,488.952401,360.467624,488.62,361.06C486.45,365.94,482.02,369.58,477.1,371.66C472.18,373.74,460.21,375.66,454.87,375.82C454.161731,375.903075,453.443904,375.810342,452.78,375.55C452.061743,375.115625,451.495776,374.469304,451.16,373.7C447.31,366.32,451.01,341.75,450.95,333.43C450.95,326.48,449.26,319.59,449.57,312.64C449.81,307.07,451.3,301.64,451.85,296.08C452.74,286.98,451.06,277.83,449.39,268.84C448.11,261.94,446.82,255.04,445.18,248.23C444.18,244.07,443.02,239.87,440.73,236.23C438.92,233.37,436.46,230.97,434.4,228.29C428.659237,220.771069,426.108721,211.294644,427.3,201.91C427.42,200.99,440.63,205.26,441.77,205.76C446.510911,207.766883,450.871182,210.574505,454.66,214.06C457.66,216.96,460.12,220.85,462.79,224.06Q468.46,230.96,473.98,237.98Q480.25,246,486.34,254.12Z" transform="matrix(1 0 0 1 -34.43 -58.4)" opacity="0.05" fill="rgb(0,0,0)" stroke="none" stroke-width="1"/><circle id="eKtTGsJCdYL23" r="21.53" transform="matrix(1 0 0 1 494.6 61.99)" fill="rgb(251,190,190)" stroke="none" stroke-width="1"/><path id="eKtTGsJCdYL24" d="M509.65,119.49C505.640179,125.91011,499.193862,130.425419,491.79,132L493.41,137.87C496.21,148,499.35,158.71,507.18,165.73C506.32,162.3,507.43,158.62,509.36,155.66C511.437482,152.792412,513.896875,150.221992,516.67,148.02L529.06,137.24C529.434075,136.972577,529.750379,136.632465,529.99,136.24C530.294779,135.482853,530.294779,134.637147,529.99,133.88C528.41,128.97,523.9,125.88,520.26,122.59C518.41803,120.869634,516.77141,118.951371,515.35,116.87C512.81,113.33,511.28,116.86,509.65,119.49Z" transform="matrix(1 0 0 1 -34.43 -58.4)" fill="rgb(251,190,190)" stroke="none" stroke-width="1"/><path id="eKtTGsJCdYL25" d="M557.4,98.75L557.88,94.75C554.48,95.63,551.26,92.75,549.09,89.75C546.92,86.75,544.9,83.23,541.59,81.99C537.59,80.48,533.31,82.9,529.47,84.9C525.165554,87.297212,520.439305,88.842071,515.55,89.45C514.770588,89.481256,513.998045,89.608894,513.25,89.83C510.75,90.72,509.57,93.83,509.2,96.7C508.83,99.57,508.94,102.57,507.7,105.11C506.77,107.03,505.16,108.47,504.18,110.36C501.55,115.45,504.09,122.41,501.31,127.41L508.21,121.09C508.85,120.51,509.74,119.9,510.43,120.39C511.12,120.88,511.03,121.62,511.25,122.3C511.92,124.3,514.38,124.85,516.17,124.08C517.96,123.31,519.25,121.61,520.55,120.08C523.6,116.48,527.24,113.32,531.55,111.78C535.332342,110.32964,539.556456,110.581118,543.14,112.47C546.36,114.29,548.72,118.53,552.67,118.68C558.08,118.88,560.33,108.81,562.83,104.83C560.944233,103.402864,560.34686,100.832479,561.41,98.72C561,98.55,557.47,98.13,557.4,98.75Z" transform="matrix(1 0 0 1 -34.43 -58.4)" fill="rgb(70,67,83)" stroke="none" stroke-width="1"/><path id="eKtTGsJCdYL26" d="M467.67,376.71C471.918506,380.515364,477.44725,382.576143,483.15,382.48C484.6,382.48,486.61,382.76,486.62,384.21C486.586484,384.64124,486.437999,385.055616,486.19,385.41C484.38934,388.41428,481.539117,390.64458,478.19,391.67C475.08,392.61,471.77,392.46,468.53,392.29L459.08,391.8C457.29,391.71,455.5,391.61,453.72,391.4C451.94,391.19,450.02,390.8,448.17,390.53C443.610859,389.878623,439.000227,389.660983,434.4,389.88C433.19,389.93,431.77,389.88,431.02,388.97C430.27,388.06,430.67,386.38,430.94,385.05C431.5,382.31,430.94,379.44,431.46,376.69C432.37,371.87,436.52,368.17,441.11,366.42C445.36,364.8,452.9,362.95,456.92,365.64C461.26,368.54,463.85,373.26,467.67,376.71Z" transform="matrix(1 0 0 1 -34.43 -58.4)" fill="rgb(63,61,86)" stroke="none" stroke-width="1"/><path id="eKtTGsJCdYL27" d="M458.31,215.1C457.47,219.1,453.63,222.1,453.52,226.15C453.43,229.39,455.74,232.15,457.4,234.89C458.98762,237.770407,460.325835,240.781391,461.4,243.89C464.546104,251.943376,468.446804,259.68116,473.05,267C475.27,270.51,477.75,274.33,477.24,278.46C476.890793,280.387375,476.214366,282.240786,475.24,283.94L468.59,297.15C467.130374,299.78786,465.992253,302.591195,465.2,305.5C464.62,308.01,464.56,310.61,464.2,313.17C463.15,321.27,459.35,329.43,461.6,337.29C461.79,337.96,462.5,338.78,463.02,338.29C460.83,342.39,459.02,346.53,459.23,351.18C459.32,353.62,460.07,356.18,459.16,358.44C458.650837,359.32245,458.311644,360.292543,458.16,361.3C458.16,361.97,458.47,362.6,458.54,363.3C458.73,365.17,457.01,366.73,455.23,367.3C453.45,367.87,451.5,367.86,449.7,368.39C446.24,369.39,443.77,372.39,440.8,374.47C437.795989,376.555466,434.245918,377.713325,430.59,377.8C430.067894,377.855362,429.541291,377.750739,429.08,377.5C428.552783,377.037,428.247364,376.371621,428.24,375.67C427.919707,372.307519,429.291401,369.00571,431.9,366.86C432.4618,366.503984,432.928554,366.016637,433.26,365.44C433.420745,364.926089,433.461792,364.382216,433.38,363.85C432.839738,356.583456,432.97029,349.282583,433.77,342.04C434.13069,339.742082,434.248006,337.412529,434.12,335.09C433.93,333.16,433.35,331.24,433.56,329.31C433.77,327.38,434.75,325.64,435.33,323.78C436.33,320.48,436.08,316.94,436.18,313.48C436.36,307.48,437.73,301.6,439.1,295.76C439.64,293.47,440.24,291.06,441.86,289.36C443.24,287.92,445.48,286.54,444.96,284.61C444.670067,283.89994,444.237864,283.25674,443.69,282.72C442.390963,281.088414,441.816415,278.996193,442.1,276.93C440.892952,277.251021,439.629292,276.661313,439.1,275.53C428.29,270.44,419.55,260.24,415.7,248.92C415.484005,248.085468,415.147105,247.287017,414.7,246.55C413.7,245.15,411.96,244.55,410.42,243.77C405.58,241.34,402.23,236.77,399.16,232.3C397.38,229.71,395.59,227.03,394.82,223.97C394.399303,221.998253,394.198078,219.986009,394.22,217.97L393.95,207.55C393.895721,206.876729,393.963475,206.19919,394.15,205.55C394.40821,204.927612,394.793022,204.365717,395.28,203.9C398.222505,200.764055,402.097409,198.660035,406.33,197.9C409.16,197.4,412.06,197.49,414.93,197.26C420.5,196.79,426,195.07,431.58,195.47C440.33,196.12,448.13,202.18,452.25,209.93C453.67,212.69,455.2,215.05,458.31,215.1Z" transform="matrix(1 0 0 1 -34.43 -58.4)" fill="rgb(70,67,83)" stroke="none" stroke-width="1"/><path id="eKtTGsJCdYL28" d="M506.91,147.34C506.786054,148.947472,507.00418,150.562961,507.55,152.08C508.22,153.54,509.94,154.67,511.44,154.08C510.98,153.08,512.18,151.9,513.3,152.02C514.410861,152.271,515.327066,153.052579,515.75,154.11C516.494493,155.596258,516.746662,157.280887,516.47,158.92C516.11,160.92,514.93,162.92,515.24,164.97C515.49,166.67,516.74,168.37,516.07,169.97C515.63921,170.688922,515.099453,171.336631,514.47,171.89C512.649673,174.130111,512.900074,177.402888,515.04,179.34L498.26,179.68C498.88,182.48,497.62,185.35,496.18,187.84C488.013585,201.71584,473.821356,210.967619,457.83,212.84C458.693052,213.345289,459.284267,214.210728,459.441139,215.198437C459.59801,216.186145,459.304028,217.192175,458.64,217.94C457.27,219.29,454.96,219.13,453.25,218.24C451.54,217.35,450.2,215.91,448.63,214.79C445.877089,212.832686,442.513359,211.927885,439.15,212.24C437.05,212.44,435.01,213.11,432.9,213.24C426.69,213.57,421.34,209.1,415.4,207.24C411.04,205.9,406.1,205.91,402.4,203.19C400.83,202.02,399.53,200.09,399.99,198.19C400.38779,197.095152,401.007396,196.094249,401.81,195.25C403.91,192.53,405.15,189.25,406.66,186.16C409.668623,180.06124,413.793086,174.580046,418.82,170C422.604774,166.686754,426.614357,163.639471,430.82,160.88C431.839215,160.114354,432.927202,159.444824,434.07,158.88C435.597433,158.382443,437.08781,157.777604,438.53,157.07C440.53,155.83,441.64,153.64,443.16,151.87C446.48,147.99,451.59,146.21,455.69,143.16C458.44,141.11,460.87,138.41,464.15,137.42C465.74,136.94,467.45,136.9,469.04,136.42C472.67,135.32,475.31,132.1,478.86,130.8C481.68,129.8,484.78,130.04,487.76,129.67C491.037882,129.263499,494.169578,128.073248,496.89,126.2C497.794558,125.474276,498.806707,124.893977,499.89,124.48C504.38,123.11,504.75,131.48,505.17,134.39C505.79,138.69,506.91,143,506.91,147.34Z" transform="matrix(1 0 0 1 -34.43 -58.4)" fill="rgb(61,158,103)" stroke="none" stroke-width="1"/><path id="eKtTGsJCdYL29" d="M502.52,175.44C501.77,183.61,507.94,191.54,506.15,199.54C505.76,201.25,505.02,202.87,504.75,204.59C504.01,209.34,506.84,213.84,509.55,217.82L532.78,251.91C533.711809,253.409449,534.827093,254.786758,536.1,256.01C540.55,259.96,547.21,259.55,553.04,260.73C557.138864,261.561099,561.010234,263.266549,564.39,265.73C564.695462,265.971866,564.761055,266.409157,564.54,266.73C562.587432,269.408813,559.409743,270.914826,556.1,270.73C555.49,271.53,556.1,272.73,556.94,273.29C558.19,274.15,559.94,274.38,560.15,276.5C560.237917,277.236518,560.090924,277.981986,559.73,278.63C558.791557,280.058972,557.336689,281.069496,555.67,281.45C547.67,283.91,538.93,279.59,532.91,273.71C526.89,267.83,522.57,260.41,516.66,254.42C513.39,251.11,509.66,248.27,506.3,245.06C499.58,238.66,494.35,230.87,489.3,223.06C487.648861,220.79527,486.403684,218.260929,485.62,215.57C485,212.91,485.28,210.1,484.56,207.46C483.62,204.01,481.09,201.26,478.99,198.36C474.87,192.68,472.11,185.74,472.66,178.74C473.21,171.74,477.53,164.85,484.13,162.47C486.176352,161.655167,488.430167,161.518466,490.56,162.08C493.27,162.91,495.26,165.15,497.11,167.29L501.52,172.38C502.624925,173.502076,503.498189,174.83066,504.09,176.29C504.670575,177.789415,504.313982,179.490089,503.18,180.63" transform="matrix(1 0 0 1 -34.43 -58.4)" fill="rgb(251,190,190)" stroke="none" stroke-width="1"/><path id="eKtTGsJCdYL30" d="M490.77,141.87C493.83,142.05,497.18,142.36,499.34,144.53C500.242043,145.533134,500.971899,146.678602,501.5,147.92C503.6,152.18,505.63,156.64,505.79,161.39C505.91,165.19,504.79,168.9,504.23,172.66C503.75,175.78,504.97,178.97,505.23,182.12C501.44,180.97,496.44,179.39,493.01,177.42C490.752635,175.948327,488.354093,174.705508,485.85,173.71C482.21,172.49,476.07,174.58,472.63,176.28C472.44,173.85,474.27,169.61,474.08,167.17C474.046118,166.148294,473.860765,165.137277,473.53,164.17C473.015641,163.143046,472.402765,162.168472,471.7,161.26C468.978738,156.856098,469.411087,151.199203,472.77,147.26C475.84,143.8,480.66,142.5,485.26,141.97C488.153546,141.631617,491.06973,141.527945,493.98,141.66" transform="matrix(1 0 0 1 -34.43 -58.4)" fill="rgb(61,158,103)" stroke="none" stroke-width="1"/><polygon id="eKtTGsJCdYL31" points="1020.3,303.2 1000.3,503.2 311.3,783.2 78.3,564.2 61.3,358.2 718.3,166.2 1020.3,303.2" fill="rgb(223,230,245)" stroke="none" stroke-width="1"/><polygon id="eKtTGsJCdYL32" points="311.3,783.2 78.3,564.2 61.3,358.2 305.3,557.2 311.3,783.2" opacity="0.1" fill="rgb(0,0,0)" stroke="none" stroke-width="1"/><polygon id="eKtTGsJCdYL33" points="1020.3,303.2 1000.3,503.2 311.3,783.2 305.3,557.2 1020.3,303.2" opacity="0.05" fill="rgb(0,0,0)" stroke="none" stroke-width="1"/><polygon id="eKtTGsJCdYL34" points="80.8,373.7 722.8,191.7 988.8,314.7 304.8,556.7 80.8,373.7" fill="rgb(167,173,184)" stroke="none" stroke-width="1"/><path id="eKtTGsJCdYL35" d="M871.23,142.69L863.34,143.49L656.19,164.33C646.31744,165.311831,637.109046,169.749568,630.19,176.86L517.19,293.14L263.43,554.19L338.73,615.6L520.31,551.1L599.48,523L822.1,256.53L892.27,172.53C892.27,172.53,894.09,148.64,871.23,142.69ZM659.65,271.78C650.1,277.33,639.65,277.18,636.33,271.45C634.08,267.57,635.68,262.12,639.91,257.28C642.115988,254.783677,644.713212,252.662668,647.6,251C655.5,246.41,663.99,245.73,668.6,248.87C669.554857,249.50385,670.354655,250.344664,670.94,251.33C674.25,257.09,669.2,266.24,659.65,271.78Z" transform="matrix(1 0 0 1 -34.43 -58.4)" fill="rgb(69,75,105)" stroke="none" stroke-width="1"/><path id="eKtTGsJCdYL36" d="M871.23,142.69L863.34,143.49C873.01,153.66,867.98,156.59,867.98,156.59L791.98,242.85L520.31,551.1L599.48,523L822.1,256.53L892.27,172.53C892.27,172.53,894.09,148.64,871.23,142.69Z" transform="matrix(1 0 0 1 -34.43 -58.4)" opacity="0.1" fill="rgb(0,0,0)" stroke="none" stroke-width="1"/><path id="eKtTGsJCdYL37" d="M647.6,251C644.715428,252.653593,642.118335,254.764364,639.91,257.25L668.58,248.87C664,245.76,655.5,246.44,647.6,251Z" transform="matrix(1 0 0 1 -34.43 -58.4)" fill="rgb(223,230,245)" stroke="none" stroke-width="1"/><path id="eKtTGsJCdYL38" d="M636.33,271.45C639.66,277.18,650.1,277.33,659.65,271.78C669.2,266.23,674.25,257.09,670.92,251.36C670.334655,250.374664,669.534857,249.53385,668.58,248.9L639.91,257.28C635.68,262.12,634.08,267.57,636.33,271.45Z" transform="matrix(1 0 0 1 -34.43 -58.4)" fill="rgb(223,230,245)" stroke="none" stroke-width="1"/><ellipse id="eKtTGsJCdYL39" rx="44.07" ry="7.08" transform="matrix(0.893998 -0.448071 0.448071 0.893998 746.742095 658.171695)" opacity="0.1" fill="rgb(239,101,132)" stroke="none" stroke-width="1"/><ellipse id="eKtTGsJCdYL40" rx="3.8" ry="4.98" transform="matrix(1 0 0 1 746.99 653.41)" fill="rgb(63,61,86)" stroke="none" stroke-width="1"/><ellipse id="eKtTGsJCdYL41" rx="3.8" ry="4.98" transform="matrix(1 0 0 1 746.99 647.32)" fill="rgb(63,61,86)" stroke="none" stroke-width="1"/><ellipse id="eKtTGsJCdYL42" rx="3.8" ry="4.98" transform="matrix(1 0 0 1 746.99 641.24)" fill="rgb(63,61,86)" stroke="none" stroke-width="1"/><ellipse id="eKtTGsJCdYL43" rx="3.8" ry="4.98" transform="matrix(1 0 0 1 746.99 635.16)" fill="rgb(63,61,86)" stroke="none" stroke-width="1"/><ellipse id="eKtTGsJCdYL44" rx="3.8" ry="4.98" transform="matrix(1 0 0 1 746.99 629.08)" fill="rgb(63,61,86)" stroke="none" stroke-width="1"/><ellipse id="eKtTGsJCdYL45" rx="3.8" ry="4.98" transform="matrix(1 0 0 1 746.99 623)" fill="rgb(63,61,86)" stroke="none" stroke-width="1"/><ellipse id="eKtTGsJCdYL46" rx="3.8" ry="4.98" transform="matrix(1 0 0 1 746.99 616.92)" fill="rgb(63,61,86)" stroke="none" stroke-width="1"/><g id="eKtTGsJCdYL47" transform="matrix(1 0 0 1 0.000001 0)" opacity="0.12"><path id="eKtTGsJCdYL48" d="M795.65,633.7C796.166604,633.035935,796.63768,632.337673,797.06,631.61L787.06,629.97L797.87,630.05C799.9586,625.49394,800.08155,620.279434,798.21,615.63L783.72,623.14L797.09,613.32C793.657664,607.461091,787.250607,603.998547,780.468802,604.337463C773.686996,604.676379,767.657076,608.760453,764.825973,614.932373C761.99487,621.104294,762.832903,628.338746,767,633.7C766.217012,634.725157,765.546494,635.831513,765,637L778,643.73L764.18,639.09C762.209797,644.91933,763.311508,651.349107,767.11,656.19C761.239957,663.655695,762.093087,674.37907,769.069729,680.822709C776.046371,687.266347,786.803629,687.266347,793.780271,680.822709C800.756913,674.37907,801.610043,663.655695,795.74,656.19C800.925631,649.582627,800.925631,640.287373,795.74,633.68Z" transform="matrix(1 0 0 1 -34.43 -58.40766)" fill="rgb(0,191,166)" stroke="none" stroke-width="1"/><path id="eKtTGsJCdYL49" d="M1020.63,595.54C1020.969557,595.109808,1021.277052,594.655251,1021.55,594.18L1015.02,593.11L1022.09,593.11C1022.808618,591.541094,1023.180404,589.835653,1023.18,588.11C1023.181414,586.584275,1022.885923,585.072853,1022.31,583.66L1012.84,588.57L1021.58,582.15C1019.339117,578.316355,1015.150155,576.049298,1010.715101,576.26994C1006.280046,576.490582,1002.336782,579.162214,1000.487466,583.199344C998.638151,587.236475,999.190464,591.967426,1001.92,595.47C1001.39161,596.14349,1000.935754,596.870849,1000.56,597.64L1009.04,602.05L1000.04,599.05C998.74833,602.861575,999.470679,607.067755,1001.96,610.23C998.11386,615.111359,998.667394,622.129451,1003.231225,626.347496C1007.795056,630.565541,1014.834944,630.565541,1019.398775,626.347496C1023.962606,622.129451,1024.51614,615.111359,1020.67,610.23C1024.068724,605.911886,1024.068724,599.828114,1020.67,595.51Z" transform="matrix(1 0 0 1 -34.43 -58.4)" fill="rgb(0,191,166)" stroke="none" stroke-width="1"/><path id="eKtTGsJCdYL50" d="M264.21,695.9C264.999291,694.894455,265.717691,693.835233,266.36,692.73L251.16,690.23L267.6,690.35C270.805879,683.404214,270.997694,675.442103,268.13,668.35L246.07,679.79L266.41,664.79C261.229679,655.790322,251.452407,650.442305,241.079976,650.934867C230.707546,651.42743,221.481059,657.677891,217.176873,667.127966C212.872687,676.578041,214.213298,687.641454,220.65,695.79C219.416457,697.353622,218.356876,699.046939,217.49,700.84L237.22,711.09L216.22,704.03C213.229808,712.895902,214.910512,722.671808,220.69,730.03C211.754837,741.389894,213.05126,757.70941,223.667898,767.516108C234.284536,777.322807,250.655464,777.322807,261.272102,767.516108C271.88874,757.70941,273.185163,741.389894,264.25,730.03C272.155479,719.978139,272.155479,705.821861,264.25,695.77Z" transform="matrix(1 0 0 1 -34.43 -58.4)" fill="rgb(0,191,166)" stroke="none" stroke-width="1"/></g><path id="eKtTGsJCdYL51" d="M763.13,645C763.127627,649.064717,764.490494,653.012452,767,656.21C761.129957,663.675695,761.983087,674.39907,768.959729,680.842709C775.936371,687.286347,786.693629,687.286347,793.670271,680.842709C800.646913,674.39907,801.500043,663.675695,795.63,656.21C798.09,653.11,763.13,642.91,763.13,645Z" transform="matrix(1 0 0 1 -34.43 -58.4)" opacity="0.1" fill="rgb(0,0,0)" stroke="none" stroke-width="1"/><ellipse id="eKtTGsJCdYL52" rx="28.81" ry="4.63" transform="matrix(0.893998 -0.448071 0.448071 0.893998 976.729123 591.293722)" opacity="0.1" fill="rgb(239,101,132)" stroke="none" stroke-width="1"/><ellipse id="eKtTGsJCdYL53" rx="2.48" ry="3.25" transform="matrix(1 0 0 1 976.9 588.21)" fill="rgb(63,61,86)" stroke="none" stroke-width="1"/><ellipse id="eKtTGsJCdYL54" rx="2.48" ry="3.25" transform="matrix(1 0 0 1 976.9 584.23)" fill="rgb(63,61,86)" stroke="none" stroke-width="1"/><ellipse id="eKtTGsJCdYL55" rx="2.48" ry="3.25" transform="matrix(1 0 0 1 976.9 580.25)" fill="rgb(63,61,86)" stroke="none" stroke-width="1"/><ellipse id="eKtTGsJCdYL56" rx="2.48" ry="3.25" transform="matrix(1 0 0 1 976.9 576.28)" fill="rgb(63,61,86)" stroke="none" stroke-width="1"/><ellipse id="eKtTGsJCdYL57" rx="2.48" ry="3.25" transform="matrix(1 0 0 1 976.9 572.3)" fill="rgb(63,61,86)" stroke="none" stroke-width="1"/><ellipse id="eKtTGsJCdYL58" rx="2.48" ry="3.25" transform="matrix(1 0 0 1 976.9 568.33)" fill="rgb(63,61,86)" stroke="none" stroke-width="1"/><ellipse id="eKtTGsJCdYL59" rx="2.48" ry="3.25" transform="matrix(1 0 0 1 976.9 564.35)" fill="rgb(63,61,86)" stroke="none" stroke-width="1"/><path id="eKtTGsJCdYL60" d="M999.37,602.9C999.364797,605.570848,1000.263539,608.164864,1001.92,610.26C998.07386,615.141359,998.627394,622.159451,1003.191225,626.377496C1007.755056,630.595541,1014.794944,630.595541,1019.358775,626.377496C1023.922606,622.159451,1024.47614,615.141359,1020.63,610.26C1022.22,608.23,999.37,601.56,999.37,602.9Z" transform="matrix(1 0 0 1 -34.43 -58.4)" opacity="0.1" fill="rgb(0,0,0)" stroke="none" stroke-width="1"/><ellipse id="eKtTGsJCdYL61" rx="10.77" ry="26.16" transform="matrix(0.707107 -0.707107 0.707107 0.707107 206.26364 762.232436)" opacity="0.1" fill="rgb(239,101,132)" stroke="none" stroke-width="1"/><ellipse id="eKtTGsJCdYL62" rx="5.78" ry="7.57" transform="matrix(1 0 0 1 208.12 756.37)" fill="rgb(63,61,86)" stroke="none" stroke-width="1"/><ellipse id="eKtTGsJCdYL63" rx="5.78" ry="7.57" transform="matrix(1 0 0 1 208.12 747.12)" fill="rgb(63,61,86)" stroke="none" stroke-width="1"/><ellipse id="eKtTGsJCdYL64" rx="5.78" ry="7.57" transform="matrix(1 0 0 1 208.12 737.86)" fill="rgb(63,61,86)" stroke="none" stroke-width="1"/><ellipse id="eKtTGsJCdYL65" rx="5.78" ry="7.57" transform="matrix(1 0 0 1 208.12 728.6)" fill="rgb(63,61,86)" stroke="none" stroke-width="1"/><ellipse id="eKtTGsJCdYL66" rx="5.78" ry="7.57" transform="matrix(1 0 0 1 208.12 719.35)" fill="rgb(63,61,86)" stroke="none" stroke-width="1"/><ellipse id="eKtTGsJCdYL67" rx="5.78" ry="7.57" transform="matrix(1 0 0 1 208.12 710.09)" fill="rgb(63,61,86)" stroke="none" stroke-width="1"/><ellipse id="eKtTGsJCdYL68" rx="5.78" ry="7.57" transform="matrix(1 0 0 1 208.12 700.84)" fill="rgb(63,61,86)" stroke="none" stroke-width="1"/><path id="eKtTGsJCdYL69" d="M214.72,713C214.710895,719.214919,216.8004,725.250873,220.65,730.13C211.714837,741.489894,213.01126,757.80941,223.627898,767.616108C234.244536,777.422807,250.615464,777.422807,261.232102,767.616108C271.84874,757.80941,273.145163,741.489894,264.21,730.13C267.92,725.45,214.72,709.92,214.72,713Z" transform="matrix(1 0 0 1 -34.43 -58.4)" opacity="0.1" fill="rgb(0,0,0)" stroke="none" stroke-width="1"/></svg>
