<svg id="en1Yv35XmRa1" xmlns="http://www.w3.org/2000/svg" xmlns:xlink="http://www.w3.org/1999/xlink" viewBox="0 0 1037.94 772.29" shape-rendering="geometricPrecision" text-rendering="geometricPrecision"><style><![CDATA[#en1Yv35XmRa23_tr {animation: en1Yv35XmRa23_tr__tr 3333.333333333333ms linear infinite normal forwards}@keyframes en1Yv35XmRa23_tr__tr { 0% {transform: translate(523.882646px,381.236416px) rotate(0deg)} 100% {transform: translate(523.882646px,381.236416px) rotate(1438.526922deg)}}]]></style><defs><linearGradient id="en1Yv35XmRa19-fill" x1="0" y1="362" x2="0" y2="-362" spreadMethod="pad" gradientUnits="userSpaceOnUse" gradientTransform="matrix(1 0 0 1 0 0)"><stop id="en1Yv35XmRa19-fill-0" offset="0%" stop-color="rgba(128,128,128,0.25)"/><stop id="en1Yv35XmRa19-fill-1" offset="54%" stop-color="rgba(128,128,128,0.12)"/><stop id="en1Yv35XmRa19-fill-2" offset="100%" stop-color="rgba(128,128,128,0.1)"/></linearGradient><linearGradient id="en1Yv35XmRa32-fill" x1="748.44" y1="596.28" x2="748.44" y2="179.26" spreadMethod="pad" gradientUnits="userSpaceOnUse" gradientTransform="matrix(1 0 0 1 0 0)"><stop id="en1Yv35XmRa32-fill-0" offset="0%" stop-color="rgba(128,128,128,0.25)"/><stop id="en1Yv35XmRa32-fill-1" offset="54%" stop-color="rgba(128,128,128,0.12)"/><stop id="en1Yv35XmRa32-fill-2" offset="100%" stop-color="rgba(128,128,128,0.1)"/></linearGradient></defs><path id="en1Yv35XmRa2" d="M185.48,141.19C179.02,143.87,172.39,147.31,168.84,153.34C165.08,159.71,165.53,167.62,166.23,174.99C172.33,238.91,188.4,306.89,160.65,364.79C147.18,392.88,124.65,415.39,106.73,440.9C88.81,466.41,75.28,498.26,83.6,528.27C93.76,564.94,131.68,585.27,157.24,613.49C173.97,631.94,185.7,654.36,201.31,673.77C216.92,693.18,238.31,710.28,263.23,711.42C299.07,713.07,328.23,682.12,363.37,674.95C399.37,667.61,435.62,686.29,464.81,708.65C494,731.01,520.55,758.1,554.56,772.06C592.12,787.49,634.46,785.13,674,794.4C710,802.85,743.14,820.82,778.88,830.4C814.62,839.98,856.51,839.4,884.2,814.93C920.29,782.93,917.45,725.93,940.5,683.6C961.91,644.27,1003.82,620.79,1032.03,586.02C1082.79,523.44,1081.13,427.79,1038.03,359.73C994.93,291.67,916.86,250.46,837.03,239.73C801.03,234.9,763.96,235.56,729.35,224.57C636.71,195.17,581.58,89.83,487,67.91C426.88,54,368.41,78.09,317.2,107.74C272.75,133.48,231.74,122,185.48,141.19Z" transform="matrix(1 0 0 1 -81.08 -63.86)" opacity="0.1" fill="rgb(0,191,166)" stroke="none" stroke-width="1"/><path id="en1Yv35XmRa3" d="M275.76,347.69C275.76,347.69,241.63,379.9,205,380.86C189.618055,381.166226,174.75056,386.45424,162.63,395.93C156.900856,400.459054,151.598697,405.503469,146.79,411" transform="matrix(1 0 0 1 -81.08 -63.86)" fill="none" stroke="rgb(83,84,97)" stroke-width="2" stroke-miterlimit="10"/><path id="en1Yv35XmRa4" d="M123.69,411.79C128.61,409.29,147.39,410.95,147.39,410.95C147.39,410.95,137.65,427.1,132.73,429.6C129.518646,431.503701,125.514282,431.460094,122.345148,429.48691C119.176013,427.513725,117.369865,423.939559,117.661113,420.217726C117.952361,416.495892,120.292503,413.24619,123.73,411.79Z" transform="matrix(1 0 0 1 -81.08 -63.86)" fill="rgb(239,101,132)" stroke="none" stroke-width="1"/><path id="en1Yv35XmRa5" d="M143.46,383.24C148.95,383.82,163.81,395.42,163.81,395.42C163.81,395.42,146.81,403.68,141.37,403.11C136.082683,402.311158,132.359408,397.494138,132.918774,392.176152C133.478139,386.858166,138.122185,382.921252,143.46,383.24Z" transform="matrix(1 0 0 1 -81.08 -63.86)" fill="rgb(239,101,132)" stroke="none" stroke-width="1"/><path id="en1Yv35XmRa6" d="M190.34,360.23C194.78,363.5,201.76,381.02,201.76,381.02C201.76,381.02,182.95,379.59,178.51,376.33C174.352757,372.971205,173.571423,366.937184,176.736051,362.630294C179.900678,358.323404,185.892524,357.266197,190.34,360.23Z" transform="matrix(1 0 0 1 -81.08 -63.86)" fill="rgb(239,101,132)" stroke="none" stroke-width="1"/><path id="en1Yv35XmRa7" d="M229.73,350.82C234.66,353.29,244.5,369.38,244.5,369.38C244.5,369.38,225.72,371.15,220.79,368.68C217.401258,367.200263,215.105669,363.971293,214.82135,360.284511C214.537032,356.59773,216.310396,353.054969,219.432189,351.07315C222.553981,349.091332,226.5146,348.993968,229.73,350.82Z" transform="matrix(1 0 0 1 -81.08 -63.86)" fill="rgb(239,101,132)" stroke="none" stroke-width="1"/><path id="en1Yv35XmRa8" d="M174.26,413.63C175.9,408.36,171.1,390.12,171.1,390.12C171.1,390.12,156.82,402.44,155.18,407.71C153.921161,411.174774,154.670617,415.051137,157.130217,417.796988C159.589817,420.54284,163.360628,421.712819,166.942542,420.841483C170.524456,419.970148,173.336507,417.198823,174.26,413.63Z" transform="matrix(1 0 0 1 -81.08 -63.86)" fill="rgb(239,101,132)" stroke="none" stroke-width="1"/><path id="en1Yv35XmRa9" d="M220.19,402C220.19,396.48,210.14,380.52,210.14,380.52C210.14,380.52,200.2,396.52,200.21,402.06C200.226569,407.582847,204.717153,412.046569,210.24,412.03C215.762847,412.013431,220.226569,407.522847,220.21,402Z" transform="matrix(1 0 0 1 -81.08 -63.86)" fill="rgb(239,101,132)" stroke="none" stroke-width="1"/><path id="en1Yv35XmRa10" d="M263.28,384.64C264.2,379.2,257,361.77,257,361.77C257,361.77,244.49,375.89,243.58,381.33C242.941645,386.631409,246.580986,391.499059,251.846438,392.386434C257.111891,393.27381,262.145573,389.867807,263.28,384.65Z" transform="matrix(1 0 0 1 -81.08 -63.86)" fill="rgb(239,101,132)" stroke="none" stroke-width="1"/><path id="en1Yv35XmRa11" d="M320.11,262.39C320.11,262.39,279,239.81,266.78,205.22C261.759607,190.674756,252.15542,178.151064,239.41,169.53C233.327849,165.48284,226.887581,162.001614,220.17,159.13" transform="matrix(1 0 0 1 -81.08 -63.86)" fill="none" stroke="rgb(83,84,97)" stroke-width="2" stroke-miterlimit="10"/><path id="en1Yv35XmRa12" d="M212.37,137.38C216.26,141.29,220.45,159.68,220.45,159.68C220.45,159.68,202.09,155.38,198.2,151.46C194.632054,147.497751,194.800396,141.433028,198.582644,137.674803C202.364893,133.916577,208.430565,133.78688,212.37,137.38Z" transform="matrix(1 0 0 1 -81.08 -63.86)" fill="rgb(239,101,132)" stroke="none" stroke-width="1"/><path id="en1Yv35XmRa13" d="M245.62,147.41C246.76,152.81,240.29,170.52,240.29,170.52C240.29,170.52,227.22,156.93,226.08,151.52C225.158334,147.956297,226.268992,144.174375,228.971255,141.67493C231.673517,139.175485,235.530437,138.362672,239.011557,139.55902C242.492678,140.755368,245.035111,143.767431,245.63,147.4Z" transform="matrix(1 0 0 1 -81.08 -63.86)" fill="rgb(239,101,132)" stroke="none" stroke-width="1"/><path id="en1Yv35XmRa14" d="M281.92,185C280.18,190.23,265.65,202.26,265.65,202.26C265.65,202.26,261.23,183.93,262.97,178.69C264.712458,173.443295,270.378295,170.602542,275.625,172.345C280.871705,174.087458,283.712458,179.753295,281.97,185Z" transform="matrix(1 0 0 1 -81.08 -63.86)" fill="rgb(239,101,132)" stroke="none" stroke-width="1"/><path id="en1Yv35XmRa15" d="M303,219.55C302.17,225,289.88,239.31,289.88,239.31C289.88,239.31,282.42,221.99,283.25,216.54C283.626707,212.871028,285.992395,209.707274,289.405106,208.308465C292.817818,206.909656,296.723437,207.502915,299.566845,209.85202C302.410253,212.201126,303.729771,215.924658,303,219.54Z" transform="matrix(1 0 0 1 -81.08 -63.86)" fill="rgb(239,101,132)" stroke="none" stroke-width="1"/><path id="en1Yv35XmRa16" d="M226.16,186.07C231.68,186.01,247.56,175.83,247.56,175.83C247.56,175.83,231.45,166.03,225.93,166.09C220.407153,166.153513,215.981487,170.682153,216.045,176.205C216.108513,181.727847,220.637153,186.153513,226.16,186.09Z" transform="matrix(1 0 0 1 -81.08 -63.86)" fill="rgb(239,101,132)" stroke="none" stroke-width="1"/><path id="en1Yv35XmRa17" d="M251.32,226.21C256.56,224.5,268.67,210.04,268.67,210.04C268.67,210.04,250.36,205.51,245.12,207.22C241.598647,208.224945,238.908221,211.07425,238.106745,214.647411C237.305269,218.220571,238.520946,221.946033,241.275704,224.358738C244.030462,226.771443,247.883658,227.485461,251.32,226.22Z" transform="matrix(1 0 0 1 -81.08 -63.86)" fill="rgb(239,101,132)" stroke="none" stroke-width="1"/><path id="en1Yv35XmRa18" d="M281.12,261.87C286.58,261.07,300.96,248.87,300.96,248.87C300.96,248.87,283.68,241.31,278.23,242.11C274.574239,242.486801,271.419747,244.838499,270.014813,248.234487C268.60988,251.630474,269.180927,255.523444,271.501982,258.372877C273.823037,261.222311,277.520032,262.568986,281.13,261.88Z" transform="matrix(1 0 0 1 -81.08 -63.86)" fill="rgb(239,101,132)" stroke="none" stroke-width="1"/><circle id="en1Yv35XmRa19" r="362" transform="matrix(1 0 0 1 521.94 384.41)" fill="url(#en1Yv35XmRa19-fill)" stroke="none" stroke-width="1"/><circle id="en1Yv35XmRa20" r="356" transform="matrix(1 0 0 1 521.94 384.41)" fill="rgb(61,158,103)" stroke="none" stroke-width="1"/><circle id="en1Yv35XmRa21" r="283" transform="matrix(1 0 0 1 521.94 384.41)" fill="rgb(221,225,236)" stroke="none" stroke-width="1"/><rect id="en1Yv35XmRa22" width="16" height="250" rx="0" ry="0" transform="matrix(1 0 0 1 513.94 151.41)" opacity="0.3" fill="rgb(83,84,97)" stroke="none" stroke-width="1"/><g id="en1Yv35XmRa23_tr" transform="translate(523.882646,381.236416) rotate(0)"><g id="en1Yv35XmRa23" transform="translate(-521.94,-381.236406)" opacity="0.1"><rect id="en1Yv35XmRa24" width="226" height="20" rx="0" ry="0" transform="matrix(1 0 0 1 538.94 378.41)" fill="rgb(0,0,0)" stroke="none" stroke-width="1"/><rect id="en1Yv35XmRa25" width="20" height="160.52" rx="0" ry="0" transform="matrix(0.463915 -0.88588 0.88588 0.463915 370.103389 321.301921)" fill="rgb(0,0,0)" stroke="none" stroke-width="1"/><circle id="en1Yv35XmRa26" r="30" transform="matrix(1 0 0 1 521.94 388.41)" fill="rgb(0,0,0)" stroke="none" stroke-width="1"/></g></g><rect id="en1Yv35XmRa27" width="226" height="20" rx="0" ry="0" transform="matrix(1 0 0 1 538.94 374.41)" fill="rgb(83,84,97)" stroke="none" stroke-width="1"/><rect id="en1Yv35XmRa28" width="160.52" height="20" rx="0" ry="0" transform="matrix(0.88588 0.463915 -0.463915 0.88588 379.738579 297.91)" fill="rgb(83,84,97)" stroke="none" stroke-width="1"/><circle id="en1Yv35XmRa29" r="30" transform="matrix(1 0 0 1 521.94 384.41)" fill="rgb(83,84,97)" stroke="none" stroke-width="1"/><g id="en1Yv35XmRa30" opacity="0.1"><path id="en1Yv35XmRa31" d="M342,482.27C342,325.97,468.7,199.27,625,199.27C713.944863,199.191294,797.735176,240.997532,851.16,312.11C803,224.59,710,165.27,603,165.27C446.7,165.27,320,291.97,320,448.27C319.908071,509.67167,339.877667,569.422441,376.87,618.43C353.92907,576.718541,341.932346,529.87386,342,482.27Z" transform="matrix(1 0 0 1 -81.08 -63.86)" fill="rgb(0,0,0)" stroke="none" stroke-width="1"/></g><path id="en1Yv35XmRa32" d="M864.5,240.09C861.14,236.86,832.86,258.09,832.86,258.09C832.86,258.09,822.79,259.93,825.19,266.84C827.59,273.75,814.64,312.45,814.64,312.45L809.37,305.08C809.88,296.43,807.5,290.3,805.18,286.48C804.99,286.17,804.8,285.87,804.61,285.59L805.53,285.27C805.18,280.55,797.63,273.36,793.62,269.84C793.62,269.33,793.62,268.84,793.62,268.32C793.87,262.68,796.13,256.73,793.62,251.62C790.78,245.79,782.47,242.86,781.77,236.46C781.35,232.64,783.93,229.19,785.07,225.51C787.79,216.71,782.14,207.73,776.74,200.15C774.910943,197.308064,772.685106,194.742122,770.13,192.53C767.695752,190.750537,765.02278,189.323157,762.19,188.29C754.28,185.09,746.19,183.48,738.03,181.29C730.2,179.21,722.98,178.22,715.03,180.83C713.143397,181.338691,711.420765,182.327481,710.03,183.7C708.14,185.82,707.89,188.84,706.65,191.37C704.65,195.44,700.34,197.87,696.53,200.48C692.72,203.09,688.9,206.67,688.88,211.17C688.88,217.56,696.18,221.58,698.62,227.53C700.9,233.07,698.62,239.24,697.35,245.08C696.819338,246.967504,696.767783,248.957551,697.2,250.87C697.703515,252.295297,698.462584,253.616892,699.44,254.77C700.95,256.77,702.57,258.63,704.18,260.53L703.44,260.82C690.02,259.44,681.39,276.48,681.39,276.48C682.01,276.61,682.6,276.76,683.18,276.93L682.61,277.67C678.55499,282.936404,675.240824,288.73367,672.76,294.9L661.76,309.64C661.76,309.64,659.36,272.78,665.12,264.49C670.88,256.2,659.85,251.13,659.85,251.13C659.85,251.13,635.85,224.41,632.52,226.71C629.19,229.01,640.67,258.04,650.74,262.65C650.74,262.65,651.74,271.86,649.74,277.85C648.53,281.64,642.07,321.62,642.07,321.62C642.07,321.62,636.32,355.25,662.69,338.62C679.82,327.84,690.89,309.28,696.53,297.62Q697.12,296.39,697.64,295.27C697.900648,296.506685,698.077716,297.75952,698.17,299.02L699.17,337.55C699.423379,347.080157,697.342985,356.527756,693.11,365.07L681.36,388.9L682.67,389.3L681.88,390.44C674.14,401.83,660.98,427.44,688.07,440.49L724.07,445.1L722.15,454.31C722.15,454.31,707.29,482.41,702.97,501.76C700.286812,513.609416,696.096005,525.066082,690.5,535.85L691.61,536.44C691.38,536.7,691.14,536.97,690.91,537.25C688.727063,539.705082,687.284658,542.728584,686.75,545.97L681.87,552.89C681.87,552.89,679.95,581.45,683.79,588.37C685.89,592.15,692.86,594.55,698.79,595.95C707.59,598.04,714.69,588.95,710.02,581.46L709.96,581.36L709.87,581.36C708.87,576.71,705.81,562.28,706.81,556.8C707.09,555.24,707.35,553.69,707.48,552.11C707.720678,550.033764,708.351763,548.021757,709.34,546.18C709.5,545.87,709.67,545.57,709.84,545.27L710.36,545.49C711.97,546.18,713.56,546.83,715.07,547.4C712.73,549.53,711.07,553.94,713.07,563.01C713.07,563.01,713.26,585.7,714.99,589.27C716.72,592.84,736.08,597.56,739.44,593.88C742.8,590.2,737.28,577.52,737.28,577.52L737.11,577.64C736,570.29,734.63,557.13,738,551.95C739.36,549.86,740.68,547.7,741.86,545.68L742.59,544.43L742.59,544.43C748.85,547.55,755.47,549.9,759.09,548.27C759.09,548.27,774.91,511.41,773.95,506.81C772.99,502.21,798.4,450.14,798.4,450.14C798.4,450.14,819.97,426.14,793.61,409.6C785.24,404.33,779.14,400.79,774.71,398.4L771,379C769.092552,368.829434,769.433869,358.364657,772,348.34L776,333.08L776,333.08L776.33,331.78C776.33,331.78,786.4,311.05,785.92,301.37C785.882872,300.618059,785.96729,299.865053,786.17,299.14C786.28,299.6,786.4,300.08,786.53,300.58C789.175627,310.641009,792.661199,320.462161,796.95,329.94C804.6,347.2,815.95,345.83,822.17,343.38C824.874572,342.333251,826.870483,339.995292,827.48,337.16C829.72,326.42,835.87,296.33,836.26,288.02C836.608645,281.522001,837.410596,275.056277,838.66,268.67C854.44,259.44,867.86,243.32,864.5,240.09Z" transform="matrix(1 0 0 1 -81.08 -63.86)" fill="url(#en1Yv35XmRa32-fill)" stroke="none" stroke-width="1"/><path id="en1Yv35XmRa33" d="M747.11,535.31C747.11,535.31,745,539.54,742.11,544.62C740.98,546.62,739.72,548.77,738.43,550.84C733.86,558.15,738.43,581.44,738.43,581.44L728.43,582.81L718.43,577.81L716.6,560.91L716.6,548.55L728,535.8L733,530.28Z" transform="matrix(1 0 0 1 -81.08 -63.86)" fill="rgb(248,189,197)" stroke="none" stroke-width="1"/><g id="en1Yv35XmRa34" opacity="0.1"><path id="en1Yv35XmRa35" d="M747.11,535.31C747.11,535.31,745,539.54,742.11,544.62C737.695071,542.26068,733.427242,539.635865,729.33,536.76L728.45,536.14L727.98,535.8L732.98,530.28Z" transform="matrix(1 0 0 1 -81.08 -63.86)" fill="rgb(0,0,0)" stroke="none" stroke-width="1"/></g><path id="en1Yv35XmRa36" d="M796,449.89C796,449.89,771.79,501.5,772.71,506.07C773.63,510.64,758.55,547.18,758.55,547.18C755.11,548.8,748.79,546.47,742.83,543.38C738.335513,540.984535,733.993853,538.312745,729.83,535.38L728.95,534.76L728.42,534.38L768.16,424.3L733,398.51L730.4,396.6L714.68,385L762.68,393.68C762.68,393.68,764.35,393.47,773.18,398.41C777.42,400.78,783.31,404.33,791.45,409.67C816.54,426.14,796,449.89,796,449.89Z" transform="matrix(1 0 0 1 -81.08 -63.86)" fill="rgb(94,82,173)" stroke="none" stroke-width="1"/><g id="en1Yv35XmRa37" opacity="0.03"><path id="en1Yv35XmRa38" d="M796,449.89C796,449.89,771.79,501.5,772.71,506.07C773.63,510.64,758.55,547.18,758.55,547.18C755.11,548.8,748.79,546.47,742.83,543.38C738.335513,540.984535,733.993853,538.312745,729.83,535.38L728.95,534.76L728.42,534.38L768.16,424.3L733,398.51L730.4,396.6L714.68,385L762.68,393.68C762.68,393.68,764.35,393.47,773.18,398.41C777.42,400.78,783.31,404.33,791.45,409.67C816.54,426.14,796,449.89,796,449.89Z" transform="matrix(1 0 0 1 -81.08 -63.86)" fill="rgb(0,0,0)" stroke="none" stroke-width="1"/></g><path id="en1Yv35XmRa39" d="M722.45,544.44C722.45,544.44,710.57,542.61,714.69,561.8C714.69,561.8,714.87,584.3,716.52,587.8C718.17,591.3,736.62,596.02,739.81,592.37C743,588.72,737.75,576.16,737.75,576.16C737.75,576.16,724.28,585.98,720.62,575.47C716.96,564.96,722.45,544.44,722.45,544.44Z" transform="matrix(1 0 0 1 -81.08 -63.86)" fill="rgb(93,62,83)" stroke="none" stroke-width="1"/><path id="en1Yv35XmRa40" d="M714.22,540.79C712.923878,542.024219,711.869195,543.489244,711.11,545.11C710.166299,546.945636,709.566422,548.938448,709.34,550.99C709.22,552.55,708.97,554.1,708.71,555.64C707.57,562.15,711.94,581.44,711.94,581.44L694.58,584.18L688.19,577.33L686.82,562.26C688.525331,557.092952,689.448865,551.700054,689.56,546.26C689.56,542.33,691.56,538.82,693.56,536.26C694.915869,534.551822,696.470122,533.010997,698.19,531.67C699.909878,530.329003,717.88,537.59,714.22,540.79Z" transform="matrix(1 0 0 1 -81.08 -63.86)" fill="rgb(248,189,197)" stroke="none" stroke-width="1"/><g id="en1Yv35XmRa41" opacity="0.1"><path id="en1Yv35XmRa42" d="M714.22,540.79C712.923878,542.024219,711.869195,543.489244,711.11,545.11C704,541.9,696.53,537.85,693.81,536.35L693.6,536.24C694.955869,534.531822,696.510122,532.990997,698.23,531.65C699.949878,530.309003,717.88,537.59,714.22,540.79Z" transform="matrix(1 0 0 1 -81.08 -63.86)" fill="rgb(0,0,0)" stroke="none" stroke-width="1"/></g><path id="en1Yv35XmRa43" d="M770.41,436.19C770.41,436.19,759,457.66,751.68,475.47C746.88,487.17,736.96,515.03,730.68,532.77L729.76,535.39C727,543.24,725.16,548.55,725.16,548.55C723.943264,548.558065,722.732499,548.379317,721.57,548.02C720.49,547.73,719.28,547.34,717.99,546.86L716.54,546.31C715.1,545.75,713.54,545.1,712.05,544.42C704.79,541.18,697.05,536.96,694.24,535.42L693.18,534.83C698.539666,524.091764,702.540483,512.727561,705.09,501C709.2,481.82,723.36,454,723.36,454L725.19,444.86L690.93,440.29C665.12,427.39,677.66,401.96,685.03,390.67C686.286723,388.710224,687.645252,386.817631,689.1,385L716.51,391C716.51,391,720.83,392.38,730.43,396.63L734.84,398.63C740.22,401.1,746.84,404.28,754.84,408.36C781.82,422,770.41,436.19,770.41,436.19Z" transform="matrix(1 0 0 1 -81.08 -63.86)" fill="rgb(94,82,173)" stroke="none" stroke-width="1"/><path id="en1Yv35XmRa44" d="M711.77,580.07C713.768885,583.437519,713.546784,587.676671,711.206941,590.816871C708.867098,593.957072,704.868536,595.382287,701.07,594.43C695.46,593.04,688.81,590.66,686.81,586.91C683.16,580.06,684.98,551.74,684.98,551.74L689.78,544.66C689.78,544.66,687.27,575.95,693.21,578.66C699.15,581.37,711.71,579.93,711.71,579.93Z" transform="matrix(1 0 0 1 -81.08 -63.86)" fill="rgb(93,62,83)" stroke="none" stroke-width="1"/><path id="en1Yv35XmRa45" d="M716.63,182.86C714.805627,183.367652,713.149036,184.351253,711.83,185.71C710.03,187.81,709.83,190.81,708.61,193.32C706.71,197.32,702.61,199.77,698.97,202.32C695.33,204.87,691.7,208.46,691.68,212.92C691.68,219.26,698.68,223.24,700.96,229.13C703.13,234.63,700.96,240.74,699.75,246.53C699.24542,248.40467,699.197413,250.37296,699.61,252.27C700.087071,253.677194,700.811799,254.987798,701.75,256.14C706.16,262.14,711.64,267.46,714.59,274.29C716.83,279.48,717.45,285.21,718.04,290.84C718.89,298.94,719.74,307.19,718.2,315.19C718.050176,315.668547,718.050176,316.181453,718.2,316.66C718.462301,317.118872,718.875879,317.472358,719.37,317.66C725.249996,320.516774,732.040894,320.851352,738.17323,318.586408C744.305566,316.321464,749.248624,311.653015,751.86,305.66C753.86,301.13,754.63,295.66,758.59,292.72C759.052147,292.337737,759.607936,292.085733,760.2,291.99C761.133764,292.015759,762.038781,292.318592,762.8,292.86C767.94,295.64,774.17,295.72,779.9,294.58C783.36,293.89,786.9,292.66,789.19,289.96C793.7,284.6,791.19,276.59,791.49,269.6C791.73,264.01,793.88,258.11,791.49,253.05C788.79,247.27,780.86,244.37,780.2,238.05C779.8,234.27,782.26,230.84,783.35,227.2C785.94,218.47,780.56,209.57,775.42,202.06C773.690895,199.258562,771.573132,196.716573,769.13,194.51C766.824622,192.754441,764.278505,191.339931,761.57,190.31C754.04,187.14,746.36,185.54,738.57,183.38C731.11,181.25,724.24,180.26,716.63,182.86Z" transform="matrix(1 0 0 1 -81.08 -63.86)" fill="rgb(133,85,92)" stroke="none" stroke-width="1"/><path id="en1Yv35XmRa46" d="M754.88,313.32L728.38,313.32L728.38,270.38C729.167293,266.256,729.628719,262.076423,729.76,257.88C729.76,256.47,729.76,255.03,729.76,253.58C729.51,248.46,728.45,243.35,725.67,240.23C718.36,232.01,749.42,233.38,749.42,233.38C750.373104,237.154567,751.609956,240.851751,753.12,244.44C755.37021,250.038969,758.363748,255.309613,762.02,260.11C765.236856,264.381439,769.358624,267.888528,774.09,270.38C792.33,279.52,754.88,313.32,754.88,313.32Z" transform="matrix(1 0 0 1 -81.08 -63.86)" fill="rgb(248,189,197)" stroke="none" stroke-width="1"/><g id="en1Yv35XmRa47" opacity="0.1"><path id="en1Yv35XmRa48" d="M753.09,244.44C747.606232,251.590132,738.610037,255.110047,729.73,253.58C729.48,248.46,728.42,243.35,725.64,240.23C718.33,232.01,749.39,233.38,749.39,233.38C750.343104,237.154567,751.579956,240.851751,753.09,244.44Z" transform="matrix(1 0 0 1 -81.08 -63.86)" fill="rgb(0,0,0)" stroke="none" stroke-width="1"/></g><circle id="en1Yv35XmRa49" r="24.21" transform="matrix(1 0 0 1 652.78 164.51)" fill="rgb(248,189,197)" stroke="none" stroke-width="1"/><path id="en1Yv35XmRa50" d="M834.35,269.93C833.161329,276.265059,832.399614,282.672821,832.07,289.11C831.7,297.34,825.84,327.18,823.7,337.83C823.151779,340.603677,821.252679,342.919379,818.64,344C812.7,346.43,801.9,347.79,794.64,330.68C790.546645,321.265215,787.2257,311.53314,784.71,301.58C783.820011,298.234382,783.151891,294.833652,782.71,291.4L798.71,282.72C800.215975,284.128955,801.491493,285.765534,802.49,287.57C804.7,291.36,806.97,297.44,806.49,306.01L811.49,313.32C811.49,313.32,823.82,274.95,821.49,268.1C819.16,261.25,828.8,259.42,828.8,259.42C828.8,259.42,855.75,238.42,858.95,241.61C862.15,244.8,849.42,260.79,834.35,269.93Z" transform="matrix(1 0 0 1 -81.08 -63.86)" fill="rgb(248,189,197)" stroke="none" stroke-width="1"/><path id="en1Yv35XmRa51" d="M703.26,288.2C702.011637,291.772926,700.576323,295.277762,698.96,298.7C693.58,310.27,683.04,328.7,666.72,339.36C641.6,355.8,647.08,322.46,647.08,322.46C647.08,322.46,653.23,282.82,654.39,279.07C656.22,273.13,655.3,264,655.3,264C645.71,259.43,634.75,230.66,637.94,228.37C641.13,226.08,663.94,252.58,663.94,252.58C663.94,252.58,674.45,257.58,668.94,265.83C663.43,274.08,665.74,310.59,665.74,310.59L676.31,296C678.661356,289.912019,681.819577,284.167353,685.7,278.92C687.7,276.19,689.1,274.54,689.1,274.54Z" transform="matrix(1 0 0 1 -81.08 -63.86)" fill="rgb(248,189,197)" stroke="none" stroke-width="1"/><g id="en1Yv35XmRa52" opacity="0.1"><path id="en1Yv35XmRa53" d="M802.5,287.57C799.14,288.81,786.13,294.06,784.69,301.57C783.800011,298.224382,783.131891,294.823652,782.69,291.39L798.69,282.71C800.207471,284.119747,801.493249,285.759873,802.5,287.57Z" transform="matrix(1 0 0 1 -81.08 -63.86)" fill="rgb(0,0,0)" stroke="none" stroke-width="1"/></g><g id="en1Yv35XmRa54" opacity="0.1"><path id="en1Yv35XmRa55" d="M703.26,288.2C702.011637,291.772926,700.576323,295.277762,698.96,298.7C698.34,294.18,695.79,282.62,685.7,278.89C687.7,276.16,689.1,274.51,689.1,274.51Z" transform="matrix(1 0 0 1 -81.08 -63.86)" fill="rgb(0,0,0)" stroke="none" stroke-width="1"/></g><g id="en1Yv35XmRa56" opacity="0.1"><path id="en1Yv35XmRa57" d="M754.88,313.32L728.38,313.32L728.38,270.38C729.167293,266.256,729.628719,262.076423,729.76,257.88C735.21,263.14,733.86,271.29,733.86,271.29L748.02,303.29L754.88,275L752.6,271.35L762,260.17C765.216856,264.441439,769.338624,267.948528,774.07,270.44C792.33,279.52,754.88,313.32,754.88,313.32Z" transform="matrix(1 0 0 1 -81.08 -63.86)" fill="rgb(0,0,0)" stroke="none" stroke-width="1"/></g><g id="en1Yv35XmRa58" opacity="0.1"><path id="en1Yv35XmRa59" d="M773.6,401C773.6,401,752.84,399.35,734.83,398.57L733.02,398.49C730.46,398.39,728.02,398.31,725.63,398.25C708.15,397.83,688.38,391.72,685.02,390.65C686.280553,388.696814,687.642414,386.810904,689.1,385L716.51,391C716.51,391,720.83,392.38,730.43,396.63L714.68,385L762.68,393.68C762.68,393.68,764.35,393.47,773.18,398.41Z" transform="matrix(1 0 0 1 -81.08 -63.86)" fill="rgb(0,0,0)" stroke="none" stroke-width="1"/></g><path id="en1Yv35XmRa60" d="M754.88,276.78L752.6,273.13L762.74,261C762.74,261,783.65,271.25,789.13,269C789.13,269,802.38,280,802.83,286.36C802.83,286.36,783.65,292.75,784.1,302.36C784.55,311.97,775,332.5,775,332.5L771,348.92C768.538529,358.871085,768.197819,369.228663,770,379.32L773.65,399.65C773.65,399.65,744.87,397.37,725.65,396.91C706.43,396.45,684.54,389.15,684.54,389.15L695.75,365.56C699.792363,357.046791,701.772504,347.701073,701.53,338.28L700.53,300.09C700.53,300.09,699.62,280.91,684.53,277.71C684.53,277.71,692.75,260.81,705.53,262.18C705.53,262.18,724.15,254.41,729.68,259.66C735.21,264.91,733.85,273.14,733.85,273.14L748.01,305.14Z" transform="matrix(1 0 0 1 -81.08 -63.86)" fill="rgb(103,178,237)" stroke="none" stroke-width="1"/><g id="en1Yv35XmRa61" opacity="0.1"><path id="en1Yv35XmRa62" d="M716.39,223.38C720.06,223.38,722.94,219.49,726.61,219.69C728.51,219.79,730.14,221,731.71,222.09C737.642533,226.198132,744.244179,229.243484,751.22,231.09C753.93,231.81,756.8,232.35,759.52,231.69C762.24,231.03,764.79,228.89,765.1,226.1C765.176141,224.870349,765.013133,223.637599,764.62,222.47C761.540802,211.742356,754.574117,202.547329,745.08,196.68C741.28,194.35,736.64,192.57,732.43,194.03C728.63,195.34,726.18,198.9,723.43,201.83C721.357507,204.023901,719.003731,205.933822,716.43,207.51C714.43,208.72,711.43,209.51,710.28,211.73C708.11,215.87,711.52,223.34,716.39,223.38Z" transform="matrix(1 0 0 1 -81.08 -63.86)" fill="rgb(0,0,0)" stroke="none" stroke-width="1"/></g><path id="en1Yv35XmRa63" d="M716.39,222.47C720.06,222.47,722.94,218.58,726.61,218.78C728.51,218.88,730.14,220.09,731.71,221.18C737.642533,225.288132,744.244179,228.333484,751.22,230.18C753.93,230.9,756.8,231.44,759.52,230.78C762.24,230.12,764.79,227.98,765.1,225.19C765.176141,223.960349,765.013133,222.727599,764.62,221.56C761.540802,210.832356,754.574117,201.637329,745.08,195.77C741.28,193.44,736.64,191.66,732.43,193.12C728.63,194.43,726.18,197.99,723.43,200.92C721.357507,203.113901,719.003731,205.023822,716.43,206.6C714.43,207.81,711.43,208.6,710.28,210.82C708.11,215,711.52,222.42,716.39,222.47Z" transform="matrix(1 0 0 1 -81.08 -63.86)" fill="rgb(133,85,92)" stroke="none" stroke-width="1"/><path id="en1Yv35XmRa64" d="M705.32,326.79C705.32,326.79,727.7,335.01,742.32,328.62L749.63,329.08C749.63,329.08,761.78,337.6,774.63,333.79" transform="matrix(1 0 0 1 -81.08 -63.86)" opacity="0.05" fill="rgb(0,0,0)" stroke="none" stroke-width="1"/><path id="en1Yv35XmRa65" d="M811.29,313.09C811.29,313.09,807.64,321.77,809.46,324.51" transform="matrix(1 0 0 1 -81.08 -63.86)" opacity="0.05" fill="rgb(0,0,0)" stroke="none" stroke-width="1"/><path id="en1Yv35XmRa66" d="M665.58,310.35C665.58,310.35,667.41,319.03,665.58,321.77" transform="matrix(1 0 0 1 -81.08 -63.86)" opacity="0.05" fill="rgb(0,0,0)" stroke="none" stroke-width="1"/><path id="en1Yv35XmRa67" d="M1044.4,508.14C1044.4,508.14,1002.56,549.98,1026.18,612.06C1049.8,674.14,985.7,777.38,985.7,777.38C985.7,777.38,986.39,777.28,987.7,777.06C1073.63,761.89,1116.32,663.62,1068.54,590.61C1050.73,563.46,1036.15,531.62,1044.4,508.14Z" transform="matrix(1 0 0 1 -81.08 -63.86)" fill="rgb(0,191,166)" stroke="none" stroke-width="1"/><path id="en1Yv35XmRa68" d="M1044.4,508.84C1044.4,508.84,1002.56,550.68,1026.18,612.76C1049.8,674.84,985.7,778.07,985.7,778.07C985.7,778.07,986.39,777.97,987.7,777.75C1073.63,762.58,1116.32,664.31,1068.54,591.3C1050.73,564.16,1036.15,532.32,1044.4,508.84Z" transform="matrix(1 0 0 1 -81.08 -63.86)" opacity="0.1" fill="rgb(0,191,166)" stroke="none" stroke-width="1"/><path id="en1Yv35XmRa69" d="M1044.4,508.14C1044.4,508.14,1020.78,559.42,1044.4,601.26C1068.02,643.1,1048.4,760.51,985.69,777.38" transform="matrix(1 0 0 1 -81.08 -63.86)" fill="rgb(0,191,166)" stroke="rgb(83,84,97)" stroke-width="1" stroke-miterlimit="10"/><path id="en1Yv35XmRa70" d="M1118.92,677.36C1118.92,677.36,1071.18,669.76,1066.83,712.54C1062.48,755.32,975,761.25,975,761.25L976.64,762.34C1048.84,809.74,1117.87,792.53,1107.46,729.59C1103.62,706.2,1103.94,682.7,1118.92,677.36Z" transform="matrix(1 0 0 1 -81.08 -63.86)" fill="rgb(0,191,166)" stroke="none" stroke-width="1"/><path id="en1Yv35XmRa71" d="M1118.92,677.36C1118.92,677.36,1081.86,685.49,1084.92,719.19C1087.98,752.89,1029.92,793.28,975.04,761.26" transform="matrix(1 0 0 1 -81.08 -63.86)" fill="rgb(0,191,166)" stroke="rgb(83,84,97)" stroke-width="1" stroke-miterlimit="10"/><path id="en1Yv35XmRa72" d="M1076.92,762.81C1076.92,762.81,1039.32,755.29,1029.29,745.26C1019.26,735.23,974.14,717.69,969.13,730.26C964.12,742.83,901.45,785.41,944.06,792.93C986.67,800.45,1044.33,802.93,1056.86,797.93C1069.39,792.93,1076.92,762.81,1076.92,762.81Z" transform="matrix(1 0 0 1 -81.08 -63.86)" fill="rgb(0,191,166)" stroke="none" stroke-width="1"/><path id="en1Yv35XmRa73" d="M944.06,788.24C986.68,795.76,1044.33,798.24,1056.86,793.24C1066.41,789.42,1073.04,771.08,1075.66,762.54L1076.91,762.8C1076.91,762.8,1069.39,792.88,1056.86,797.89C1044.33,802.9,986.67,800.4,944.06,792.89C931.76,790.72,928.24,785.62,929.57,779.17C930.61,783.38,934.9,786.62,944.06,788.24Z" transform="matrix(1 0 0 1 -81.08 -63.86)" opacity="0.2" fill="rgb(0,0,0)" stroke="none" stroke-width="1"/></svg>
