<svg id="eE6f2w9veC01" xmlns="http://www.w3.org/2000/svg" xmlns:xlink="http://www.w3.org/1999/xlink" viewBox="0 0 708.76 778.88" shape-rendering="geometricPrecision" text-rendering="geometricPrecision"><style><![CDATA[#eE6f2w9veC06_to {animation: eE6f2w9veC06_to__to 3000ms linear infinite normal forwards}@keyframes eE6f2w9veC06_to__to { 0% {offset-distance: 0%} 100% {offset-distance: 100%}} #eE6f2w9veC034_to {animation: eE6f2w9veC034_to__to 3000ms linear infinite normal forwards}@keyframes eE6f2w9veC034_to__to { 0% {offset-distance: 0%} 100% {offset-distance: 100%}}]]></style><defs><linearGradient id="eE6f2w9veC070-fill" x1="337.75" y1="839.44" x2="337.75" y2="335.68" spreadMethod="pad" gradientUnits="userSpaceOnUse" gradientTransform="matrix(1 0 0 1 0 0)"><stop id="eE6f2w9veC070-fill-0" offset="0%" stop-color="rgba(128,128,128,0.25)"/><stop id="eE6f2w9veC070-fill-1" offset="54%" stop-color="rgba(128,128,128,0.12)"/><stop id="eE6f2w9veC070-fill-2" offset="100%" stop-color="rgba(128,128,128,0.1)"/></linearGradient></defs><rect id="eE6f2w9veC02" width="665" height="433.73" rx="0" ry="0" transform="matrix(1 0 0 1 39.625 93.126562)" fill="rgb(237,237,244)" stroke="none" stroke-width="1"/><rect id="eE6f2w9veC03" width="665" height="433.73" rx="0" ry="0" transform="matrix(1 0 0 1 32.259242 96.155)" fill="rgb(237,237,244)" stroke="none" stroke-width="1"/><rect id="eE6f2w9veC04" width="665" height="433.73" rx="0" ry="0" transform="matrix(1 0 0 1 32.259242 93.126562)" fill="rgb(237,237,244)" stroke="none" stroke-width="1"/><rect id="eE6f2w9veC05" width="665" height="433.73" rx="0" ry="0" transform="matrix(1 0 0 1 32.259242 93.126562)" fill="rgb(237,237,244)" stroke="none" stroke-width="1"/><g id="eE6f2w9veC06_to" style="offset-path:path('M161.513751,292.027147C243.803703,494.32741,337.359555,866.994116,585.074001,297.83');offset-rotate:0deg"><g id="eE6f2w9veC06" transform="translate(-157.728737,-289.389991)"><ellipse id="eE6f2w9veC07" rx="56.27" ry="8.92" transform="matrix(1 0 0 1 157.68 455.13)" fill="rgb(59,71,123)" stroke="none" stroke-width="1"/><rect id="eE6f2w9veC08" width="17.84" height="326.67" rx="0" ry="0" transform="matrix(1 0 0 1 148.76 128.46)" fill="rgb(59,71,123)" stroke="none" stroke-width="1"/><circle id="eE6f2w9veC09" r="22.65" transform="matrix(1 0 0 1 157.68 137.38)" fill="rgb(59,71,123)" stroke="none" stroke-width="1"/><path id="eE6f2w9veC010" d="M453.4,218.53C453.4,218.53,444.48,237.75,437.62,277.53L398.5,234.32C398.5,234.32,409.01,230.08,420.17,225.32C430.675505,220.839141,441.978803,218.529499,453.4,218.53Z" transform="matrix(1 0 0 1 -245.62 -60.56)" fill="rgb(177,136,233)" stroke="none" stroke-width="1"/><path id="eE6f2w9veC011" d="M453.4,218.53C453.4,218.53,444.48,237.75,437.62,277.53L398.5,234.32C398.5,234.32,409.01,230.08,420.17,225.32C430.675505,220.839141,441.978803,218.529499,453.4,218.53Z" transform="matrix(1 0 0 1 -245.62 -60.56)" opacity="0.08" fill="rgb(177,136,233)" stroke="none" stroke-width="1"/><path id="eE6f2w9veC012" d="M354.58,218.53C354.58,218.53,366.93,254.9,367.58,269.31L367.58,286.47L439.64,286.47L439.64,268.63C430.840271,257.50588,420.906769,247.327727,410,238.26C394.350442,225.490922,374.767965,218.52418,354.57,218.54Z" transform="matrix(1 0 0 1 -245.62 -60.56)" fill="rgb(95,205,142)" stroke="none" stroke-width="1"/><path id="eE6f2w9veC013" d="M367.61,286.47C367.61,286.47,349.08,308.47,347.71,334.47C346.34,360.47,359.38,438.1,359.38,438.1C359.38,438.1,403.3,453.88,447.22,438.1C447.22,438.1,460.95,358.49,459.57,333.1C458.19,307.71,431.78,274.42,431.78,274.42Z" transform="matrix(1 0 0 1 -245.62 -60.56)" fill="rgb(95,205,142)" stroke="none" stroke-width="1"/><path id="eE6f2w9veC014" d="M412.57,266.91C412.57,266.91,421.49,266.22,426.98,268.97C432.47,271.72,439.68,271.97,439.68,271.97" transform="matrix(1 0 0 1 -245.62 -60.56)" opacity="0.08" fill="rgb(0,0,0)" stroke="none" stroke-width="1"/><path id="eE6f2w9veC015" d="M412.57,271C412.57,271,421.49,270.31,426.98,273.06C432.47,275.81,439.68,276.06,439.68,276.06" transform="matrix(1 0 0 1 -245.62 -60.56)" opacity="0.08" fill="rgb(0,0,0)" stroke="none" stroke-width="1"/><path id="eE6f2w9veC016" d="M412.57,276.52C412.57,276.52,421.49,275.83,426.98,278.58C432.47,281.33,439.68,281.58,439.68,281.58" transform="matrix(1 0 0 1 -245.62 -60.56)" opacity="0.08" fill="rgb(0,0,0)" stroke="none" stroke-width="1"/><path id="eE6f2w9veC017" d="M375.51,295.74C375.51,295.74,370.02,310.15,370.71,312.21C371.4,314.27,365.22,326.62,365.22,326.62" transform="matrix(1 0 0 1 -245.62 -60.56)" opacity="0.08" fill="rgb(0,0,0)" stroke="none" stroke-width="1"/><path id="eE6f2w9veC018" d="M437.27,286.82C437.27,286.82,442.76,301.23,442.07,303.29C441.38,305.35,447.56,317.7,447.56,317.7" transform="matrix(1 0 0 1 -245.62 -60.56)" opacity="0.08" fill="rgb(0,0,0)" stroke="none" stroke-width="1"/><path id="eE6f2w9veC019" d="M433.15,295.74C433.15,295.74,438.64,310.15,437.95,312.21C437.26,314.27,443.44,326.62,443.44,326.62" transform="matrix(1 0 0 1 -245.62 -60.56)" opacity="0.08" fill="rgb(0,0,0)" stroke="none" stroke-width="1"/></g></g><path id="eE6f2w9veC020" d="M371.39,286.82C371.39,286.82,365.9,301.23,366.59,303.29C367.28,305.35,361.1,317.7,361.1,317.7" transform="matrix(1 0 0 1 -245.62 -60.56)" opacity="0.08" fill="rgb(0,0,0)" stroke="none" stroke-width="1"/><g id="eE6f2w9veC021" transform="matrix(1 0 0 1 0 0.000001)"><ellipse id="eE6f2w9veC022" rx="56.27" ry="8.92" transform="matrix(1 0 0 1 372.48 498.36)" fill="rgb(59,71,123)" stroke="none" stroke-width="1"/><rect id="eE6f2w9veC023" width="17.84" height="326.67" rx="0" ry="0" transform="matrix(1 0 0 1 363.56 171.7)" fill="rgb(59,71,123)" stroke="none" stroke-width="1"/><circle id="eE6f2w9veC024" r="22.65" transform="matrix(1 0 0 1 372.48 180.62)" fill="rgb(59,71,123)" stroke="none" stroke-width="1"/><path id="eE6f2w9veC025" d="M583.45,345.84L501.78,459.07L524.43,468C524.43,468,520.31,472.12,523.06,474.18C523.06,474.18,532.67,483.1,558.06,484.47C558.06,484.47,565.61,474.18,580.71,487.9C595.81,501.62,614.34,490.65,614.34,490.65C614.34,490.65,628.06,479,643.84,490C659.62,501,679.53,484.51,679.53,484.51C679.53,484.51,689.82,469.41,711.78,474.9C733.74,480.39,733.78,459.8,733.78,459.8L650.78,343.13Z" transform="matrix(1 0 0 1 -245.62 -60.56)" fill="rgb(95,205,142)" stroke="none" stroke-width="1"/><g id="eE6f2w9veC026" opacity="0.08"><path id="eE6f2w9veC027" d="M713.34,475.2C719.34,476.41,723.54,475.6,726.53,473.83C722.085937,473.342774,717.589066,473.809849,713.34,475.2Z" transform="matrix(1 0 0 1 -245.62 -60.56)" fill="rgb(255,255,255)" stroke="none" stroke-width="1"/><path id="eE6f2w9veC028" d="M543.64,474.17C540.9,472.11,545,468,545,468L522.35,459.08L583.43,345.84L501.78,459.07L524.43,468C524.43,468,520.31,472.12,523.06,474.18C523.06,474.18,532.67,483.1,558.06,484.47C558.914285,483.428214,559.977044,482.576645,561.18,481.97C548.71,478.86,543.64,474.17,543.64,474.17Z" transform="matrix(1 0 0 1 -245.62 -60.56)" fill="rgb(255,255,255)" stroke="none" stroke-width="1"/><path id="eE6f2w9veC029" d="M601.29,487.89C586.19,474.16,578.64,484.46,578.64,484.46C577.79,484.46,576.95,484.36,576.14,484.3C577.747877,485.384293,579.272153,486.587669,580.7,487.9C590.87,497.15,602.59,495.18,609.16,492.9C606.261228,491.708172,603.596674,490.011931,601.29,487.89Z" transform="matrix(1 0 0 1 -245.62 -60.56)" fill="rgb(255,255,255)" stroke="none" stroke-width="1"/><path id="eE6f2w9veC030" d="M664.43,490C654.43,483,645.25,485.18,639.87,487.68C641.263584,488.344449,642.601261,489.120301,643.87,490C651.57,495.35,660.24,494.18,667.11,491.57C666.179683,491.112522,665.283973,490.587797,664.43,490Z" transform="matrix(1 0 0 1 -245.62 -60.56)" fill="rgb(255,255,255)" stroke="none" stroke-width="1"/></g><path id="eE6f2w9veC031" d="M657.57,355.1L580.7,355.1C580.7,355.1,575.9,296.77,569.03,287.85C571.848702,286.627528,574.73705,285.572363,577.68,284.69C582.277702,283.260348,586.951643,282.088524,591.68,281.18C607.982953,278.033779,624.722437,277.881294,641.08,280.73C645.850168,281.570429,650.570603,282.672087,655.22,284.03Q660.76,285.64,666.46,287.85C666.46,287.85,652.76,342.75,657.57,355.1Z" transform="matrix(1 0 0 1 -245.62 -60.56)" fill="rgb(52,154,96)" stroke="none" stroke-width="1"/><path id="eE6f2w9veC032" d="M601.16,355.1L590.94,355.1C590.81,342.19,581.35,300.45,577.68,284.68C582.277702,283.250348,586.951643,282.078524,591.68,281.17C592.47,297.78,599.28,342.89,601.16,355.1Z" transform="matrix(1 0 0 1 -245.62 -60.56)" opacity="0.08" fill="rgb(255,255,255)" stroke="none" stroke-width="1"/><path id="eE6f2w9veC033" d="M655.25,284C651.7,299.23,641.97,342,641.84,355.07L631.62,355.07C633.51,342.74,640.43,296.92,641.1,280.7C645.873534,281.540071,650.597317,282.641731,655.25,284Z" transform="matrix(1 0 0 1 -245.62 -60.56)" opacity="0.08" fill="rgb(255,255,255)" stroke="none" stroke-width="1"/></g><g id="eE6f2w9veC034_to" style="offset-path:path('M587.76,308.815001C499.977092,-31.095091,286.159338,7.673852,163.161309,309.825115');offset-rotate:0deg"><g id="eE6f2w9veC034" transform="translate(-587.759999,-308.814998)"><ellipse id="eE6f2w9veC035" rx="56.27" ry="8.92" transform="matrix(1 0 0 1 585.92 457.19)" fill="rgb(59,71,123)" stroke="none" stroke-width="1"/><rect id="eE6f2w9veC036" width="17.84" height="326.67" rx="0" ry="0" transform="matrix(1 0 0 1 576.99 130.52)" fill="rgb(59,71,123)" stroke="none" stroke-width="1"/><circle id="eE6f2w9veC037" r="22.65" transform="matrix(1 0 0 1 585.92 139.44)" fill="rgb(59,71,123)" stroke="none" stroke-width="1"/><path id="eE6f2w9veC038" d="M870.86,308.18C870.21,305.97,869.56,303.89,868.93,302.02L868.93,276.52L877.17,241.52C857.95,213.38,831.17,241.52,831.17,241.52C801.66,215.44,786.56,241.52,786.56,241.52C788.62,246.32,793.42,276.52,793.42,276.52L793.42,305.52C782.5,328.39,779.23,353.81,780.73,379.28L785.87,466.65C785.87,466.65,835.28,485.87,876.46,466.65L880.58,393.39C882.246423,364.639539,878.958553,335.816559,870.86,308.18Z" transform="matrix(1 0 0 1 -245.62 -60.56)" fill="rgb(95,205,142)" stroke="none" stroke-width="1"/><g id="eE6f2w9veC039" opacity="0.08"><path id="eE6f2w9veC040" d="M841.83,242.21C841.83,242.21,851.57,232,863.51,230C852.63,226.48,841.84,233,836,237.56C838.028705,238.999832,839.975092,240.552268,841.83,242.21Z" transform="matrix(1 0 0 1 -245.62 -60.56)" fill="rgb(0,0,0)" stroke="none" stroke-width="1"/><path id="eE6f2w9veC041" d="M796.54,467.31L791.4,379.94C789.9,354.47,793.17,329.04,804.09,306.18L804.09,277.18C804.09,277.18,799.29,246.98,797.23,242.18C797.23,242.18,802.75,232.65,813.64,230.88C795.94,225.95,786.94,241.5,786.94,241.5C789,246.3,793.8,276.5,793.8,276.5L793.8,305.5C782.88,328.37,779.61,353.79,781.11,379.26L786.25,466.63C800.743495,471.748129,815.937551,474.608187,831.3,475.11C819.441539,473.919057,807.770344,471.300089,796.54,467.31Z" transform="matrix(1 0 0 1 -245.62 -60.56)" fill="rgb(0,0,0)" stroke="none" stroke-width="1"/></g><g id="eE6f2w9veC042" opacity="0.08"><path id="eE6f2w9veC043" d="M821.24,241.52C822.779824,239.972147,824.427274,238.535223,826.17,237.22C816.17,230.04,808.03,229.04,801.82,230.52C807.39,231.74,813.86,235,821.24,241.52Z" transform="matrix(1 0 0 1 -245.62 -60.56)" fill="rgb(0,0,0)" stroke="none" stroke-width="1"/><path id="eE6f2w9veC044" d="M871.21,308.18C870.56,305.97,869.91,303.89,869.28,302.02L869.28,276.52L877.52,241.52C869.42,229.66,859.98,227.8,851.77,229.61C857.03,230.9,862.37,234.41,867.22,241.52L858.98,276.52L858.98,302C859.61,303.87,860.25,305.95,860.91,308.16C869.011877,335.785806,872.30648,364.598364,870.65,393.34L866.53,466.6C854.53,472.21,841.8,474.54,829.82,475.03C844.6,475.62,861.3,473.84,876.82,466.6L881,393.36C882.640269,364.615491,879.328746,335.802876,871.21,308.18Z" transform="matrix(1 0 0 1 -245.62 -60.56)" fill="rgb(0,0,0)" stroke="none" stroke-width="1"/></g></g></g><rect id="eE6f2w9veC045" width="60" height="32" rx="0" ry="0" transform="matrix(1 0 0 1 70.26 534)" fill="rgb(237,237,244)" stroke="none" stroke-width="1"/><rect id="eE6f2w9veC046" width="60" height="32" rx="0" ry="0" transform="matrix(1 0 0 1 130.76 567.5)" fill="rgb(237,237,244)" stroke="none" stroke-width="1"/><rect id="eE6f2w9veC047" width="60" height="32" rx="0" ry="0" transform="matrix(1 0 0 1 191.26 534)" fill="rgb(237,237,244)" stroke="none" stroke-width="1"/><rect id="eE6f2w9veC048" width="60" height="32" rx="0" ry="0" transform="matrix(1 0 0 1 191.76 600.5)" fill="rgb(237,237,244)" stroke="none" stroke-width="1"/><rect id="eE6f2w9veC049" width="60" height="32" rx="0" ry="0" transform="matrix(1 0 0 1 251.76 567.5)" fill="rgb(237,237,244)" stroke="none" stroke-width="1"/><rect id="eE6f2w9veC050" width="60" height="32" rx="0" ry="0" transform="matrix(1 0 0 1 312.26 534)" fill="rgb(237,237,244)" stroke="none" stroke-width="1"/><rect id="eE6f2w9veC051" width="60" height="32" rx="0" ry="0" transform="matrix(1 0 0 1 372.76 567.5)" fill="rgb(237,237,244)" stroke="none" stroke-width="1"/><rect id="eE6f2w9veC052" width="60" height="32" rx="0" ry="0" transform="matrix(1 0 0 1 433.26 534)" fill="rgb(237,237,244)" stroke="none" stroke-width="1"/><rect id="eE6f2w9veC053" width="60" height="32" rx="0" ry="0" transform="matrix(1 0 0 1 433.76 600.5)" fill="rgb(237,237,244)" stroke="none" stroke-width="1"/><rect id="eE6f2w9veC054" width="60" height="32" rx="0" ry="0" transform="matrix(1 0 0 1 493.76 567.5)" fill="rgb(237,237,244)" stroke="none" stroke-width="1"/><rect id="eE6f2w9veC055" width="60" height="32" rx="0" ry="0" transform="matrix(1 0 0 1 648.76 534.5)" fill="rgb(237,237,244)" stroke="none" stroke-width="1"/><rect id="eE6f2w9veC056" width="60" height="32" rx="0" ry="0" transform="matrix(1 0 0 1 587.76 568.5)" fill="rgb(237,237,244)" stroke="none" stroke-width="1"/><rect id="eE6f2w9veC057" width="60" height="32" rx="0" ry="0" transform="matrix(1 0 0 1 114.76 67.5)" fill="rgb(237,237,244)" stroke="none" stroke-width="1"/><rect id="eE6f2w9veC058" width="60" height="32" rx="0" ry="0" transform="matrix(1 0 0 1 174.76 33.5)" fill="rgb(237,237,244)" stroke="none" stroke-width="1"/><rect id="eE6f2w9veC059" width="60" height="32" rx="0" ry="0" transform="matrix(1 0 0 1 235.26 0)" fill="rgb(237,237,244)" stroke="none" stroke-width="1"/><rect id="eE6f2w9veC060" width="60" height="32" rx="0" ry="0" transform="matrix(1 0 0 1 235.76 66.5)" fill="rgb(237,237,244)" stroke="none" stroke-width="1"/><rect id="eE6f2w9veC061" width="60" height="32" rx="0" ry="0" transform="matrix(1 0 0 1 295.76 33.5)" fill="rgb(237,237,244)" stroke="none" stroke-width="1"/><rect id="eE6f2w9veC062" width="60" height="32" rx="0" ry="0" transform="matrix(1 0 0 1 356.76 67.5)" fill="rgb(237,237,244)" stroke="none" stroke-width="1"/><rect id="eE6f2w9veC063" width="60" height="32" rx="0" ry="0" transform="matrix(1 0 0 1 416.76 33.5)" fill="rgb(237,237,244)" stroke="none" stroke-width="1"/><rect id="eE6f2w9veC064" width="60" height="32" rx="0" ry="0" transform="matrix(1 0 0 1 477.26 0)" fill="rgb(237,237,244)" stroke="none" stroke-width="1"/><rect id="eE6f2w9veC065" width="60" height="32" rx="0" ry="0" transform="matrix(1 0 0 1 477.76 66.5)" fill="rgb(237,237,244)" stroke="none" stroke-width="1"/><rect id="eE6f2w9veC066" width="60" height="32" rx="0" ry="0" transform="matrix(1 0 0 1 537.76 33.5)" fill="rgb(237,237,244)" stroke="none" stroke-width="1"/><polygon id="eE6f2w9veC067" points="221.26,99.64 43.76,266.06 43.76,299.25 265.26,99.64 221.26,99.64" transform="matrix(1 0 0 1 -1.964986 53.812156)" opacity="0.3" fill="rgb(255,255,255)" stroke="none" stroke-width="1"/><polygon id="eE6f2w9veC068" points="43.76,346.09 43.76,413.09 433.76,99.64 376.26,98.5 43.76,346.09" transform="matrix(1 0 0 1 735.869095 82.12)" opacity="0.3" fill="rgb(255,255,255)" stroke="none" stroke-width="1"/><polygon id="eE6f2w9veC069" points="43.76,346.09 43.76,413.09 433.76,99.64 376.26,98.5 43.76,346.09" transform="matrix(1 0 0 1 -5.01 34.63)" opacity="0.3" fill="rgb(255,255,255)" stroke="none" stroke-width="1"/><path id="eE6f2w9veC070" d="M429.53,833L429.61,832.85L429.7,832.66L429.76,832.5C429.78438,832.417779,429.804407,832.33433,429.82,832.25C429.82,832.17,429.82,832.1,429.82,832.02C429.82,831.94,429.82,831.89,429.82,831.83C429.82,831.77,429.82,831.7,429.82,831.64C429.82,831.58,429.82,831.52,429.82,831.47C429.82,831.42,429.82,831.36,429.82,831.31C430,829.87,428.98,828.24,427.72,826.82C425.991607,824.859855,423.549322,823.674735,420.94,823.53C406.54,822.85,390.37,798.18,390.37,798.18L389.72,798.71C387.982432,795.384949,386.536998,791.91524,385.4,788.34L387,788.34L387,787.98L387,787.98L387,787.62L387,787.62L384.78,764.62L390.78,695.75C392.630852,691.621604,394.022535,687.302359,394.93,682.87C395.266946,681.225352,395.421214,679.548519,395.39,677.87C395.39,677.75,395.39,677.63,395.39,677.51C395.385972,673.791381,394.487353,670.128309,392.77,666.83L367.6,618.34C368.46,618.43,369,618.44,369,618.44C376.42,607.85,371.67,592.1,366.38,580.75C367.49,580.15,368.24,579.75,368.24,579.75C367.986475,579.65081,367.744948,579.523337,367.52,579.37L368.24,579.02C363.92,577.45,360.38,565.02,358.73,558.02L361.14,549.22C365.156275,549.82193,369.063768,551.004284,372.74,552.73C376.416232,554.455716,372.41,552.05,371.84,550.83L371.84,550.83L372.69,551.25C372.69,551.25,372.36,550.59,371.81,549.4L371.81,549.4C368.75,542.75,358.7,519.4,358.45,498.89C358.468069,496.158279,358.708866,493.432579,359.17,490.74C359.629071,488.172879,359.840044,485.567538,359.8,482.96C360.276637,471.050806,353.907288,459.916097,343.4,454.29C332.892712,448.663903,333.64,446.29,331.4,436.79C330.66,433.67,328.4,431.11,325.64,429.07C326.64,421.6,330.42,414.67,334.25,409.34C334.68,409.26,335.1,409.18,335.52,409.08Q336.26,408.08,336.97,407.24C348.242658,404.06384,356.067986,393.831032,356.18,382.12C356.144044,373.481218,351.819625,365.424458,344.64,360.62C345.31,360.54,346.06,360.03,346.96,358.62C348.113039,356.585762,348.249895,354.129748,347.33,351.98C346.613951,350.422102,345.574204,349.034637,344.28,347.91C342.273963,346.016127,340.024095,344.398508,337.59,343.1C331.96,339.8,326.11,336.42,319.59,335.65C316.275306,335.373527,312.940907,335.440551,309.64,335.85L294.54,337.2C287.36,337.84,279.34,338.9,274.89,344.42C270.44,349.94,271.11,358.01,266.64,363.42C263.34,367.42,257.92,369.08,253.85,372.32C246.39,378.26,244.42,388.83,246.15,398.04C247.88,407.25,252.66,415.61,256.72,424.11C260.78,432.61,264.26,441.84,263.1,451.11C262.1,459.11,257.75,466.43,256.2,474.37C255.05424,480.251337,255.471461,486.330348,257.41,492C257.721436,493.161299,258.311889,494.22892,259.13,495.11C259.253999,495.220666,259.384211,495.324167,259.52,495.42C259.631113,495.567379,259.751348,495.707654,259.88,495.84C261.36,497.24,263.62,497.42,265.69,497.48C270.69,497.65,275.83,497.69,280.41,499.63C281.947697,500.282227,283.366867,501.184413,284.61,502.3C286.711647,504.317453,287.829036,507.151092,287.67,510.06C287.25,514.46,283.46,519.06,285.84,522.79L286.23,522.79C286.332356,523.025577,286.452712,523.252916,286.59,523.47C289.103246,523.874987,291.659657,523.938897,294.19,523.66C294.76223,527.847667,295.096101,532.06446,295.19,536.29C295.19,540.86,294.57,544.73,293.13,547.01L293.4,547.01L293.69,547.01L293.88,547.01C293.679605,547.539668,293.428435,548.048706,293.13,548.53L296.08,548.31C292.293061,554.613284,288.170462,560.708721,283.73,566.57C278.13243,573.459811,275.052818,582.053092,275,590.93C274.975059,592.234913,275.021796,593.540212,275.14,594.84C275.81,601.96,278.37,609.56,284.88,615.61C284.88,615.61,287.64,622.3,287.76,628C287.761758,629.243868,287.548624,630.478691,287.13,631.65L287.13,683.4L278.13,717.66C276.978968,724.509731,276.406946,731.444244,276.42,738.39C276.42,748.39,277.66,760.07,282.63,768.69L290.14,804.41L290.89,804.49L290.89,814.49C289.97,813.69,289.39,813.13,289.39,813.13L287.16,835L287.23,835L287.16,835.71C287.16,835.71,299.93,838.63,335.97,839.35L337.85,839.35L340.28,839.35L341.46,839.35L342,839.35L343.5,839.35L343.6,839.35L345.12,839.28L345.57,839.28L346.57,839.22L347.06,839.22L347.99,839.15L348.42,839.15L349.53,839.04L349.69,839.04L350.88,838.9L351.21,838.9L352,838.78L352.37,838.72L353.08,838.6L353.41,838.54L354.23,838.37L354.36,838.37L355.25,838.16L355.47,838.1L356.08,837.94L356.34,837.86L356.87,837.7L357.1,837.63L357.69,837.42L357.79,837.42L358.42,837.16L358.55,837.1L358.99,836.89L359.15,836.81L359.51,836.61L359.65,836.53L360.04,836.29L360.09,836.29L360.49,835.99L360.54,835.99L360.82,835.74L360.9,835.66L361.12,835.43L361.18,835.36L361.39,835.09L361.39,835.09C361.459545,834.987146,361.522988,834.880295,361.58,834.77L361.58,834.77C361.628828,834.675891,361.672232,834.579067,361.71,834.48L361.71,834.42C361.737896,834.334627,361.761262,834.247839,361.78,834.16L361.78,834.1C361.785703,834.003417,361.785703,833.906583,361.78,833.81L361.78,833.81C361.800147,833.62722,361.800147,833.44278,361.78,833.26C362.17,830.63,358.18,828.09,354.68,828.09C347.17,828.09,322.39,806.95,320.89,805.49C320.26,804.88,319.12,805.07,317.71,805.76C316.59,804.76,315.34,803.48,314.13,802.12C314.549917,801.62901,314.811382,801.022412,314.88,800.38L314.78,800.13C314.825793,799.972851,314.859229,799.812362,314.88,799.65C314.900771,799.487638,309.78,787.26,309.57,781.33C309.576083,781.119294,309.592771,780.909028,309.62,780.7L310.23,728.38C310.367315,721.564313,312.544318,714.946224,316.48,709.38C319.58,704.91,322.77,697.99,323.14,688.15L333.55,650.22C347.5,663.12,358.55,680.22,359.81,682.12C359,685.64,354.44,706.26,354.54,726.39C354.54,726.51,354.54,726.63,354.54,726.75C354.482024,732.875902,355.031376,738.992468,356.18,745.01C358.708311,757.029366,360.048096,769.268302,360.18,781.55C360.18,785.69,359.98,788.02,359.98,788.02L359.98,788.02C359.98,788.25,359.98,788.38,359.98,788.38L359.98,788.38C359.98,788.61,359.98,788.74,359.98,788.74L361.48,788.74L361.48,798.14L361.1,797.85L351.71,814.25L351.91,814.44L351.71,814.97C351.71,814.97,367.48,830.97,406.53,835.38L408.71,835.61L409.33,835.67L410.84,835.8L411.42,835.8L413.31,835.94L413.31,835.94L415.03,836.03L415.53,836.03L416.73,836.03L418.73,836.03L420.03,836.03L420.43,836.03L421.35,836.03L421.71,836.03L422.83,835.94L423,835.94L423.92,835.83L424.23,835.83L424.88,835.72L425.16,835.67L425.96,835.49L426.08,835.49L426.68,835.31L426.91,835.23L427.33,835.07L427.54,834.99L428.05,834.74L428.16,834.67L428.5,834.46L428.66,834.35L428.89,834.17L429.02,834.05C429.108475,833.964901,429.191948,833.87475,429.27,833.78L429.37,833.65Z" transform="matrix(1 0 0 1 -245.62 -60.56)" fill="url(#eE6f2w9veC070-fill)" stroke="none" stroke-width="1"/><path id="eE6f2w9veC071" d="M357.66,566.66C357.66,566.66,380,599.81,367.75,617.83C367.75,617.83,349.75,617.83,354.06,598.37C356.646417,586.673945,356.150213,574.506609,352.62,563.06Z" transform="matrix(1 0 0 1 -245.62 -60.56)" fill="rgb(247,196,167)" stroke="none" stroke-width="1"/><path id="eE6f2w9veC072" d="M292.8,794.4L292.8,820.34L315.86,822.5L324.51,809.5L322.35,805.9C322.35,805.9,312.26,798,310.1,790.79C307.94,783.58,292.8,794.4,292.8,794.4Z" transform="matrix(1 0 0 1 -245.62 -60.56)" fill="rgb(247,196,167)" stroke="none" stroke-width="1"/><path id="eE6f2w9veC073" d="M302.89,816.74C302.89,816.74,318.53,799.23,321.63,802.33C323.07,803.77,346.85,824.67,354.06,824.67C361.27,824.67,370.64,836.2,336.06,835.48C301.48,834.76,289.22,831.88,289.22,831.88L291.38,810.26C291.38,810.26,299.29,818.18,302.89,816.74Z" transform="matrix(1 0 0 1 -245.62 -60.56)" opacity="0.1" fill="rgb(0,0,0)" stroke="none" stroke-width="1"/><path id="eE6f2w9veC074" d="M302.89,817.46C302.89,817.46,318.53,799.95,321.63,803.05C323.07,804.49,346.85,825.39,354.06,825.39C361.27,825.39,370.64,836.92,336.06,836.2C301.48,835.48,289.22,832.6,289.22,832.6L291.36,811C291.36,811,299.29,818.9,302.89,817.46Z" transform="matrix(1 0 0 1 -245.62 -60.56)" fill="rgb(236,168,170)" stroke="none" stroke-width="1"/><path id="eE6f2w9veC075" d="M360.54,781.42L360.54,801.6L372.79,811.69L386.48,808.09L390.08,800.16C390.08,800.16,382.87,790.07,380.71,772.77Z" transform="matrix(1 0 0 1 -245.62 -60.56)" fill="rgb(247,196,167)" stroke="none" stroke-width="1"/><path id="eE6f2w9veC076" d="M370.63,803L379.28,803L388.28,795.43C388.28,795.43,403.8,819.82,417.61,820.49C420.130236,820.646044,422.477758,821.823416,424.11,823.75C427.72,827.93,429.38,834.06,403.77,831.11C366.31,826.83,351.18,811,351.18,811L360.18,794.78Z" transform="matrix(1 0 0 1 -245.62 -60.56)" opacity="0.1" fill="rgb(0,0,0)" stroke="none" stroke-width="1"/><path id="eE6f2w9veC077" d="M370.63,803.76L379.28,803.76L388.28,796.19C388.28,796.19,403.8,820.58,417.61,821.25C420.130236,821.406044,422.477758,822.583416,424.11,824.51C427.72,828.69,429.38,834.82,403.77,831.87C366.29,827.55,351.16,811.69,351.16,811.69L360.16,795.47Z" transform="matrix(1 0 0 1 -245.62 -60.56)" fill="rgb(243,181,183)" stroke="none" stroke-width="1"/><path id="eE6f2w9veC078" d="M356.94,554.41C356.94,554.41,361.26,577.47,367.03,579.63C367.03,579.63,354.78,585.4,356.94,591.16L346.85,544.32L359.1,545.76Z" transform="matrix(1 0 0 1 -245.62 -60.56)" opacity="0.1" fill="rgb(0,0,0)" stroke="none" stroke-width="1"/><path id="eE6f2w9veC079" d="M356.94,553.69C356.94,553.69,361.26,576.75,367.03,578.91C367.03,578.91,354.78,584.68,356.94,590.44L346.85,543.6L359.1,545Z" transform="matrix(1 0 0 1 -245.62 -60.56)" fill="rgb(177,136,233)" stroke="none" stroke-width="1"/><path id="eE6f2w9veC080" d="M356.94,553.69C356.94,553.69,361.26,576.75,367.03,578.91C367.03,578.91,354.78,584.68,356.94,590.44L346.85,543.6L359.1,545Z" transform="matrix(1 0 0 1 -246.405 -61.28)" opacity="0.1" fill="rgb(177,136,233)" stroke="none" stroke-width="1"/><path id="eE6f2w9veC081" d="M347.57,581.08L390.57,666.39C392.926534,671.051052,393.655239,676.366725,392.64,681.49C391.766192,685.867515,390.425182,690.138631,388.64,694.23L382.87,762.69L385,785.75L359.1,785.75C359.1,785.75,360.54,767.75,355.5,742.51C350.46,717.27,359.1,680.51,359.1,680.51C359.1,680.51,343.25,654.57,325.23,641.59C307.21,628.61,347.57,581.08,347.57,581.08Z" transform="matrix(1 0 0 1 -245.62 -60.56)" opacity="0.1" fill="rgb(0,0,0)" stroke="none" stroke-width="1"/><path id="eE6f2w9veC082" d="M347.57,580.35L390.57,665.66C392.926534,670.321052,393.655239,675.636725,392.64,680.76C391.766192,685.137515,390.425182,689.408631,388.64,693.5L382.89,762L385,785L359.1,785C359.1,785,360.54,767,355.5,741.76C350.46,716.52,359.1,679.76,359.1,679.76C359.1,679.76,343.25,653.82,325.23,640.84C307.21,627.86,347.57,580.35,347.57,580.35Z" transform="matrix(1 0 0 1 -245.62 -60.56)" fill="rgb(87,89,136)" stroke="none" stroke-width="1"/><path id="eE6f2w9veC083" d="M347.57,580.72L390.57,666.03C392.926534,670.691052,393.655239,676.006725,392.64,681.13C391.766192,685.507515,390.425182,689.778631,388.64,693.87L382.87,762.33L385,785.39L359.1,785.39C359.1,785.39,360.54,767.39,355.5,742.15C350.46,716.91,359.1,680.15,359.1,680.15C359.1,680.15,343.25,654.21,325.23,641.23C307.21,628.25,347.57,580.72,347.57,580.72Z" transform="matrix(1 0 0 1 -245.62 -60.56)" opacity="0.05" fill="rgb(0,0,0)" stroke="none" stroke-width="1"/><path id="eE6f2w9veC084" d="M301.45,542.88C301.45,542.88,292.53,558.69,285.94,567.2C279.851669,574.906151,276.904371,584.630448,277.69,594.42C278.33,601.42,280.79,608.97,287.04,614.95C287.04,614.95,291.36,625.76,289.2,631.53L289.2,682.7L280.55,716.57C280.55,716.57,274.78,748.28,284.87,766.3L292.08,801.61C292.08,801.61,315.14,804.49,315.86,797.29C315.86,797.29,310.09,782.88,310.86,777.83L311.44,726.1C311.559059,719.378419,313.644989,712.839028,317.44,707.29C320.44,702.88,323.44,696.03,323.84,686.29L362,542.88Z" transform="matrix(1 0 0 1 -245.62 -60.56)" opacity="0.1" fill="rgb(0,0,0)" stroke="none" stroke-width="1"/><path id="eE6f2w9veC085" d="M301.45,542.16C301.45,542.16,292.53,557.97,285.94,566.48C279.851669,574.186151,276.904371,583.910448,277.69,593.7C278.33,600.7,280.79,608.25,287.04,614.23C287.04,614.23,291.36,625.04,289.2,630.81L289.2,682L280.55,715.87C280.55,715.87,274.78,747.58,284.87,765.6L292.08,800.91C292.08,800.91,315.14,803.79,315.86,796.59C315.86,796.59,310.09,782.18,310.86,777.13L311.44,725.4C311.559059,718.678419,313.644989,712.139028,317.44,706.59C320.44,702.18,323.44,695.33,323.84,685.59L362,542.16Z" transform="matrix(1 0 0 1 -245.62 -60.56)" fill="rgb(87,89,136)" stroke="none" stroke-width="1"/><path id="eE6f2w9veC086" d="M353.34,594.77C353.34,594.77,358.34,627.2,340.34,637.29C340.34,637.29,333.13,632.29,343.22,615.67L343.94,593.33Z" transform="matrix(1 0 0 1 -245.62 -60.56)" fill="rgb(247,196,167)" stroke="none" stroke-width="1"/><path id="eE6f2w9veC087" d="M403.79,830.43C369.73,826.5,354.13,813.05,351.57,810.63L351.18,811.69C351.18,811.69,366.31,827.54,403.79,831.87C422.96,834.08,426.85,831.2,426.08,827.87C425.36,830.5,420.11,832.31,403.79,830.43Z" transform="matrix(1 0 0 1 -245.62 -60.56)" opacity="0.1" fill="rgb(0,0,0)" stroke="none" stroke-width="1"/><path id="eE6f2w9veC088" d="M336,834C304,833.33,291.09,830.81,289.37,830.44L289.16,832.56C289.16,832.56,301.41,835.44,336,836.16C357.53,836.61,362,832.31,360.62,829C359.43,831.78,353.05,834.39,336,834Z" transform="matrix(1 0 0 1 -245.62 -60.56)" opacity="0.1" fill="rgb(0,0,0)" stroke="none" stroke-width="1"/><path id="eE6f2w9veC089" d="M292.44,615.31C292.44,615.31,309.74,615.31,314.78,610.99C319.82,606.67,332.08,610.99,332.08,610.99" transform="matrix(1 0 0 1 -245.62 -60.56)" opacity="0.1" fill="rgb(0,0,0)" stroke="none" stroke-width="1"/><path id="eE6f2w9veC090" d="M288.12,766.65C278.03,748.65,283.8,716.92,283.8,716.92L292.45,683.05L292.45,631.88C294.61,626.11,290.29,615.3,290.29,615.3C284.04,609.3,281.58,601.81,280.94,594.77C280.154371,584.980448,283.101669,575.256151,289.19,567.55C295.78,559.04,304.7,543.23,304.7,543.23L362.16,543.23L362.35,542.51L301.81,542.51C301.81,542.51,292.89,558.32,286.3,566.83C280.191387,574.531503,277.225865,584.26056,278,594.06C278.64,601.06,281.1,608.61,287.35,614.59C287.35,614.59,291.67,625.4,289.51,631.17L289.51,682.34L280.86,716.21C280.86,716.21,275.09,747.92,285.18,765.94L292.39,801.25C292.39,801.25,293.48,801.39,295.18,801.52Z" transform="matrix(1 0 0 1 -245.62 -60.56)" opacity="0.1" fill="rgb(0,0,0)" stroke="none" stroke-width="1"/><path id="eE6f2w9veC091" d="M343.25,400.91C343.25,400.91,326.67,416,326,433.34C325.33,450.68,297.89,429.74,297.89,429.74C297.89,429.74,318.79,420.37,317.35,392.99Z" transform="matrix(1 0 0 1 -245.62 -60.56)" fill="rgb(247,196,167)" stroke="none" stroke-width="1"/><path id="eE6f2w9veC092" d="M313.7,426.13C313.7,426.13,291.36,417.48,287.03,454.24L292.03,502.53C292.03,502.53,300.68,539.28,294.91,548.65C294.91,548.65,354.01,543.65,371.3,552.97C371.3,552.97,354,516.97,358.3,491.71C362.6,466.45,343.17,457.12,343.17,457.12C343.17,457.12,333.8,449.19,331.64,439.82C329.48,430.45,313.7,426.13,313.7,426.13Z" transform="matrix(1 0 0 1 -245.62 -60.56)" opacity="0.1" fill="rgb(0,0,0)" stroke="none" stroke-width="1"/><path id="eE6f2w9veC093" d="M313.7,424.69C313.7,424.69,291.36,416,287,452.79L291.12,492.23C291.67,497.48,292.47,502.71,293.49,507.89C295.67,518.98,299.13,540.37,294.93,547.2C294.93,547.2,354.03,542.2,371.32,551.52C371.32,551.52,354.02,515.52,358.32,490.26C362.62,465,343.19,455.67,343.19,455.67C343.19,455.67,333.82,447.74,331.66,438.37C329.5,429,313.7,424.69,313.7,424.69Z" transform="matrix(1 0 0 1 -244.5 -60.56)" fill="rgb(177,136,233)" stroke="none" stroke-width="1"/><path id="eE6f2w9veC094" d="M309.38,472.25L335.32,568.1C335.32,568.1,345.41,591.16,341.09,597.65C341.09,597.65,352.62,603.42,357.67,597.65C362.72,591.88,346.86,525.58,346.86,525.58L337.49,472.25Z" transform="matrix(1 0 0 1 -245.62 -60.56)" opacity="0.1" fill="rgb(0,0,0)" stroke="none" stroke-width="1"/><path id="eE6f2w9veC095" d="M310.1,471.53L336,567.38C336,567.38,346.09,590.44,341.77,596.93C341.77,596.93,353.3,602.7,358.35,596.93C363.4,591.16,347.54,524.86,347.54,524.86L338.17,471.53Z" transform="matrix(1 0 0 1 -245.62 -60.56)" fill="rgb(177,136,233)" stroke="none" stroke-width="1"/><path id="eE6f2w9veC096" d="M337.84,487.75C337.84,487.75,345.05,508.65,348.65,510.81C352.25,512.97,350.09,528.81,350.09,528.81" transform="matrix(1 0 0 1 -245.62 -60.56)" opacity="0.1" fill="rgb(0,0,0)" stroke="none" stroke-width="1"/><path id="eE6f2w9veC097" d="M316.94,402.71C320.87,405.11,324.61,411.71,329.55,411.71C331.608383,411.709385,333.65941,411.464335,335.66,410.98C337.934972,407.885596,340.474523,404.994724,343.25,402.34L317.31,394.41C317.57,399.53,318,398.79,316.94,402.71Z" transform="matrix(1 0 0 1 -245.62 -60.56)" opacity="0.1" fill="rgb(0,0,0)" stroke="none" stroke-width="1"/><circle id="eE6f2w9veC098" r="25.94" transform="matrix(1 0 0 1 83.94 323.77)" fill="rgb(247,196,167)" stroke="none" stroke-width="1"/><g id="eE6f2w9veC099" opacity="0.1"><path id="eE6f2w9veC0100" d="M298.72,546.92C302.72,539.81,299.28,518.84,297.13,507.92C296.13,502.74,295.31,497.51,294.76,492.26L290.64,452.82C293.34,429.89,303.05,424.63,309.97,423.92C303.42,423.27,290.25,425.49,287.04,452.82L291.16,492.26C291.71,497.51,292.51,502.74,293.53,507.92C295.71,519.01,299.17,540.4,294.97,547.23C295,547.2,296.34,547.09,298.72,546.92Z" transform="matrix(1 0 0 1 -245.62 -60.56)" fill="rgb(0,0,0)" stroke="none" stroke-width="1"/><path id="eE6f2w9veC0101" d="M330.28,545.85C346.28,545.93,363.28,547.17,371.35,551.53C371.35,551.53,371.04,550.88,370.51,549.7C360.75,546.55,344.73,545.78,330.28,545.85Z" transform="matrix(1 0 0 1 -245.62 -60.56)" fill="rgb(0,0,0)" stroke="none" stroke-width="1"/></g><path id="eE6f2w9veC0102" d="M338.24,378.3C336,384,332,388.67,327.89,393.18C325.6,395.72,323.24,398.29,321.89,401.42C320.803493,404.245316,320.1299,407.212491,319.89,410.23C318.29,422.58,316.8,435.74,322.2,446.95C323.71,450.09,325.74,453.01,326.74,456.34C328.56,462.44,326.74,469.01,324.32,474.92C321.014275,483.141887,316.722899,490.932178,311.54,498.12C308.54,502.27,305.16,506.41,304.09,511.41C303.37,514.76,303.64,518.55,301.52,521.24C298.69,524.83,293.25,524.55,288.72,523.93C286.44,520.21,290.07,515.69,290.47,511.35C290.92,506.58,287.17,502.23,282.78,500.35C278.39,498.47,273.44,498.35,268.65,498.23C266.65,498.16,264.5,497.99,263.08,496.61C262.290738,495.730665,261.724791,494.67423,261.43,493.53C259.626925,487.976156,259.248671,482.058204,260.33,476.32C261.82,468.47,266,461.26,266.95,453.32C268.06,444.12,264.72,434.99,260.82,426.59C256.92,418.19,252.33,409.93,250.67,400.82C249.01,391.71,250.9,381.27,258.06,375.39C261.97,372.18,267.16,370.53,270.33,366.59C274.62,361.26,274.04,353.22,278.25,347.83C282.46,342.44,290.25,341.33,297.1,340.69L311.59,339.36C314.757222,338.954704,317.958587,338.88766,321.14,339.16C327.4,339.93,333.02,343.26,338.42,346.53C341.85,348.6,345.48,350.9,347.05,354.59C347.930159,356.718261,347.797762,359.130832,346.69,361.15C344.03,365.43,342.77,361.3,340.69,362.27C337.58,363.62,339.91,374,338.24,378.3Z" transform="matrix(1 0 0 1 -245.62 -60.56)" opacity="0.1" fill="rgb(0,0,0)" stroke="none" stroke-width="1"/><path id="eE6f2w9veC0103" d="M337.52,377.58C335.33,383.25,331.25,387.95,327.18,392.45C324.89,394.99,322.53,397.56,321.18,400.69C320.093493,403.515316,319.4199,406.482491,319.18,409.5C317.58,421.85,316.09,435.01,321.49,446.22C323,449.36,325.03,452.28,326.03,455.61C327.85,461.71,326.03,468.28,323.61,474.19C320.304275,482.411887,316.012899,490.202178,310.83,497.39C307.83,501.54,304.45,505.68,303.38,510.68C302.66,514.03,302.93,517.82,300.81,520.51C297.98,524.1,292.54,523.82,288.01,523.2C285.73,519.48,289.36,514.96,289.76,510.62C290.21,505.85,286.46,501.5,282.07,499.62C277.68,497.74,272.73,497.62,267.94,497.5C265.94,497.43,263.79,497.26,262.37,495.88C261.580738,495.000665,261.014791,493.94423,260.72,492.8C258.916925,487.246156,258.538671,481.328204,259.62,475.59C261.11,467.74,265.29,460.53,266.24,452.59C267.35,443.39,264.01,434.26,260.11,425.86C256.21,417.46,251.62,409.2,249.96,400.09C248.3,390.98,250.19,380.54,257.35,374.66C261.26,371.45,266.45,369.8,269.62,365.86C273.91,360.53,273.33,352.49,277.54,347.1C281.75,341.71,289.54,340.6,296.39,339.96L310.88,338.63C314.047222,338.224704,317.248587,338.15766,320.43,338.43C326.69,339.2,332.31,342.53,337.71,345.8C341.14,347.87,344.77,350.17,346.34,353.86C347.220159,355.988261,347.087762,358.400832,345.98,360.42C343.32,364.7,342.06,360.57,339.98,361.54C336.86,362.9,339.19,373.25,337.52,377.58Z" transform="matrix(1 0 0 1 -245.62 -60.56)" fill="rgb(150,93,123)" stroke="none" stroke-width="1"/></svg>
