<svg id="eosIpL36Sw51" xmlns="http://www.w3.org/2000/svg" xmlns:xlink="http://www.w3.org/1999/xlink" viewBox="0 0 1188.53175 718" shape-rendering="geometricPrecision" text-rendering="geometricPrecision"><style><![CDATA[#eosIpL36Sw59_to {animation: eosIpL36Sw59_to__to 7547.169811320754ms linear infinite normal forwards}@keyframes eosIpL36Sw59_to__to { 0% {transform: translate(1099.422874px,618.88407px)} 25% {transform: translate(1131.13131px,653.124885px)} 50% {transform: translate(1099.422874px,618.88407px)} 75% {transform: translate(1131.13131px,653.124885px)} 100% {transform: translate(1099.422874px,618.88407px)}} #eosIpL36Sw511_to {animation: eosIpL36Sw511_to__to 7547.169811320754ms linear infinite normal forwards}@keyframes eosIpL36Sw511_to__to { 0% {transform: translate(960.586376px,549.05117px)} 25% {transform: translate(909.004775px,507.361867px)} 50% {transform: translate(960.586376px,549.05117px)} 75% {transform: translate(909.004775px,507.361867px)} 100% {transform: translate(960.586376px,549.05117px)}}]]></style><defs><linearGradient id="eosIpL36Sw528-fill" x1="643.16981" y1="665.83172" x2="643.16981" y2="614.27062" spreadMethod="pad" gradientUnits="userSpaceOnUse" gradientTransform="matrix(1 0 0 1 0 0)"><stop id="eosIpL36Sw528-fill-0" offset="0%" stop-color="rgba(128,128,128,0.25)"/><stop id="eosIpL36Sw528-fill-1" offset="53.514%" stop-color="rgba(128,128,128,0.12)"/><stop id="eosIpL36Sw528-fill-2" offset="100%" stop-color="rgba(128,128,128,0.1)"/></linearGradient></defs><g id="eosIpL36Sw52" transform="matrix(1 0 0 1 4.697885 14.49145)"><path id="eosIpL36Sw53" d="M189.73412,316L189.73412,352C221.214351,352,246.73412,377.519769,246.73412,409C246.73412,440.480231,221.214351,466,189.73412,466L189.73412,502L375.73412,502L375.73412,316Z" transform="matrix(1 0 0 1 -8.100808 -91)" fill="rgba(0,191,166,0.23)" stroke="none" stroke-width="1"/><circle id="eosIpL36Sw54" r="45" transform="matrix(1 0 0 1 181.633312 318)" fill="rgba(0,191,166,0.23)" stroke="none" stroke-width="1"/><polygon id="eosIpL36Sw55" points="866,363.051 793,318.055 793,666 866,666 866,363.051" transform="matrix(1 0 0 1 -2.366688 0)" fill="rgba(0,191,166,0.23)" stroke="none" stroke-width="1"/><polygon id="eosIpL36Sw56" points="681,666 754,666 754,294.016 681,249.02 681,666" transform="matrix(1 0 0 1 -2.366688 0)" fill="rgba(0,191,166,0.23)" stroke="none" stroke-width="1"/><polygon id="eosIpL36Sw57" points="642,224.98 277,0 277,203 394,203 394,437 277,437 277,666 642,666 642,224.98" transform="matrix(1 0 0 1 -2.366688 0)" fill="rgba(0,191,166,0.23)" stroke="none" stroke-width="1"/><polygon id="eosIpL36Sw58" points="905,387.09 905,666 943,666 1046,474 905,387.09" fill="rgb(167,231,222)" stroke="none" stroke-width="1"/></g><g id="eosIpL36Sw59_to" transform="translate(1099.422874,618.88407)"><g id="eosIpL36Sw59" transform="rotate(10.816476) translate(-1155.494021,-630.666333)"><path id="eosIpL36Sw510" d="M1052.54805,623.89148C991.96825,669.17479,974.887,748.73159,974.887,748.73159C974.887,748.73159,1056.025,754.86966,1116.60483,709.58635C1177.18466,664.30304,1194.26583,584.74624,1194.26583,584.74624C1194.26583,584.74624,1113.12785,578.60817,1052.54805,623.89148Z" transform="matrix(0.999999 -0.001407 0.001407 0.999999 -5.73412 -89.605475)" fill="rgb(63,61,86)" stroke="none" stroke-width="1"/></g></g><g id="eosIpL36Sw511_to" transform="translate(960.586376,549.05117)"><g id="eosIpL36Sw511" transform="rotate(-2.830346) translate(-891.578595,-504.708117)"><path id="eosIpL36Sw512" d="M907.214545,697.449639C907.214545,697.449639,907.29569,694.428486,905.68639,693.440286C904.40299,692.651286,854.496424,647.54752,914.584616,692.458635C895.547446,679.914995,898.91059,693.74517,878.68342,636.81928C853.37662,565.54536,883.25927,489.86112,883.25927,489.86112C883.25927,489.86112,948.44536,526.50686,976.13572,592.33012C977.34226,595.16469,978.45902,598.05756,979.50985,601.00604C1001.5307,663.02109,895.084136,690.581216,889.580596,706.511116C888.752446,708.896746,907.214545,697.449639,907.214545,697.449639Z" transform="matrix(1 0 0 1 -5.73412 -91)" fill="rgb(61,158,103)" stroke="none" stroke-width="1"/><path id="eosIpL36Sw513" d="M975.22852,750.21387L974.30078,749.54102C973.6377,749.0625,907.88965,700.75879,890.99609,627.54297C874.10156,554.32715,912.03709,482.09961,912.42285,481.37891L912.96285,480.36719L913.89059,481.04004C914.55367,481.51855,980.30172,529.82227,997.19527,603.03809L997.19527,603.03809C1014.0898,676.25391,976.15427,748.48145,975.76851,749.20215ZM913.6543,483.36328C909.09473,492.45996,877.3223,559.3916,892.9453,627.09375C908.5664,694.7959,966.45312,741.03809,974.5371,747.21775C979.09667,738.12107,1010.8691,671.18943,995.2461,603.48728L995.2461,603.48728C979.625,535.78516,921.73828,489.543,913.6543,483.36328Z" transform="matrix(1 0 0 1 -5.73412 -91)" fill="rgb(63,61,86)" stroke="none" stroke-width="1"/></g></g><path id="eosIpL36Sw514" d="M976.2632,744.30362C974.78589,745.16402,973.49542,745.88776,972.43551,746.47945C970.09991,747.75475,968.80495,748.39714,968.80495,748.39714C968.80495,748.39714,968.19223,746.55476,967.26207,743.18335C962.13333,724.73829,947.44954,660.45395,972.02443,601.40935Q973.96288,596.76981,976.13572,592.33008C977.34226,595.16465,978.45902,598.05752,979.50985,601.006C1001.5307,663.02106,981.76674,728.37372,976.2632,744.30362Z" transform="matrix(1 0 0 1 -5.73412 -91)" opacity="0.1" fill="rgb(0,0,0)" stroke="none" stroke-width="1"/><path id="eosIpL36Sw515" d="M1077.83554,645.08132C1048.78353,714.91306,975.841,750.97469,975.841,750.97469C975.841,750.97469,950.00109,673.81669,979.0531,603.98498C1008.10511,534.15327,1081.04764,498.09162,1081.04764,498.09162C1081.04764,498.09162,1106.88755,575.24959,1077.83554,645.08132Z" transform="matrix(1 0 0 1 -5.73412 -91)" fill="rgb(61,158,103)" stroke="none" stroke-width="1"/><rect id="eosIpL36Sw516" width="268.701" height="1.9994" rx="0" ry="0" transform="matrix(0.386834 -0.922149 0.922149 0.386834 969.893045 657.570623)" fill="rgb(63,61,86)" stroke="none" stroke-width="1"/><path id="eosIpL36Sw517" d="M1183.23412,771.49145C1183.23412,780.85634,1129.36512,789.4218,1040.3026,795.99686C1024.10946,797.18786,1006.75102,798.31359,988.34875,799.37411Q964.48459,800.74459,938.34049,801.95184Q913.00187,803.10213,885.72788,804.08922C828.29183,806.17751,764.80617,807.67848,697.35833,808.42901Q672.81015,808.69817,647.5932,808.85322Q621.3427,809.00006,594.48412,809C269.32388,809,5.73412,792.21173,5.73412,771.49145C5.73412,750.77117,269.32388,733.9829,594.48412,733.9829C734.4668,733.9829,863.02912,737.09905,964.06912,742.28736Q969.64762,742.58103,975.11454,742.85836C975.135762,742.87142,975.160683,742.877157,975.18548,742.87469C1102.46091,749.75964,1183.23412,760.02194,1183.23412,771.49145Z" transform="matrix(1 0 0 1 -5.73412 -91)" fill="rgb(63,61,86)" stroke="none" stroke-width="1"/><path id="eosIpL36Sw518" d="M1183.23412,771.49145C1183.23412,780.85634,1129.36512,789.4218,1040.3026,795.99686C1024.10946,797.18786,1006.75102,798.31359,988.34875,799.37411Q964.48459,800.74459,938.34049,801.95184Q913.00187,803.10213,885.72788,804.08922C828.29183,806.17751,764.80617,807.67848,697.35833,808.42901Q672.81015,808.69817,647.5932,808.85322Q621.3427,809.00006,594.48412,809C269.32388,809,5.73412,792.21173,5.73412,771.49145C5.73412,750.77117,269.32388,733.9829,594.48412,733.9829C734.4668,733.9829,863.02912,737.09905,964.06912,742.28736Q969.64762,742.58103,975.11454,742.85836C975.135762,742.87142,975.160683,742.877157,975.18548,742.87469C1102.46091,749.75964,1183.23412,760.02194,1183.23412,771.49145Z" transform="matrix(1 0 0 1 -73.022594 -57.133018)" opacity="0.15" fill="rgb(0,0,0)" stroke="none" stroke-width="1"/><path id="eosIpL36Sw519" d="M1183.23412,771.49145C1183.23412,780.85634,1129.36512,789.4218,1040.3026,795.99686C1024.10946,797.18786,1006.75102,798.31359,988.34875,799.37411Q964.48459,800.74459,938.34049,801.95184Q913.00187,803.10213,885.72788,804.08922C828.29183,806.17751,764.80617,807.67848,697.35833,808.42901Q672.81015,808.69817,647.5932,808.85322Q621.3427,809.00006,594.48412,809C269.32388,809,5.73412,792.21173,5.73412,771.49145C5.73412,750.77117,269.32388,733.9829,594.48412,733.9829C734.4668,733.9829,863.02912,737.09905,964.06912,742.28736Q969.64762,742.58103,975.11454,742.85836C975.135762,742.87142,975.160683,742.877157,975.18548,742.87469C1102.46091,749.75964,1183.23412,760.02194,1183.23412,771.49145Z" transform="matrix(1 0 0 1 -5.73412 -91)" opacity="0.15" fill="rgb(0,0,0)" stroke="none" stroke-width="1"/><path id="eosIpL36Sw520" d="M1137.98412,764.89C1137.98412,772.72,1087.76412,779.88,1004.73412,785.38C989.64412,786.37,973.45412,787.31,956.30412,788.2Q934.05912,789.33992,909.68412,790.35Q886.05912,791.325,860.63412,792.14C807.08412,793.89,747.89412,795.14,685.01412,795.77Q662.13912,795.995,638.62412,796.12Q614.14412,796.25494,589.11412,796.25C285.97412,796.25,40.23412,782.21,40.23412,764.89C40.23412,747.57,285.97412,733.53,589.11412,733.53C656.14412,733.53,720.36412,734.22,779.74412,735.48L779.89412,735.48C836.05412,736.67,887.88417,738.37,933.66412,740.48Q938.86912,740.72,943.96412,740.95C943.983892,740.965658,944.00906,740.972848,944.03412,740.97C965.00412,741.99,984.62412,743.09,1002.70412,744.27C1002.90412,744.28,1003.10412,744.3,1003.30412,744.31C1087.19409,749.82,1137.98412,757.01,1137.98412,764.89Z" transform="matrix(1 0 0 1 35.445723 -113.461732)" fill="rgb(63,61,86)" stroke="none" stroke-width="1"/><path id="eosIpL36Sw521" d="M1002.7041,744.27C995.2741,792.58,948.4241,776.39,891.7341,776.39C831.8441,776.39,782.9441,794.46,779.8941,735.48C836.0541,736.67,887.88415,738.37,933.6641,740.48Q938.8691,740.72,943.9641,740.95C943.983872,740.965658,944.00904,740.972848,944.0341,740.97C965.00414,741.99,984.62414,743.09,1002.7041,744.27Z" transform="matrix(1 0 0 1 -5.73412 -91)" opacity="0.1" fill="rgb(0,0,0)" stroke="none" stroke-width="1"/><path id="eosIpL36Sw522" d="M323.01087,729.57325C323.01087,746.99008,312.65825,753.07097,299.88562,753.07097C299.58977,753.07097,299.29393,753.0667,299.00021,753.06031C298.4085,753.04754,297.82106,753.01989,297.24213,752.97945C285.71464,752.16426,276.76039,745.77045,276.76039,729.57325C276.76039,712.8141,298.17651,691.66403,299.78984,690.09539L299.79197,690.09326C299.8537,690.03154,299.88562,690.00174,299.88562,690.00174C299.88562,690.00174,323.01087,712.15855,323.01087,729.57325Z" transform="matrix(1 0 0 1 -5.73412 -91)" fill="rgb(61,158,103)" stroke="none" stroke-width="1"/><path id="eosIpL36Sw523" d="M299.04278,750.40618L307.5011,738.58918L299.02149,751.70448L299.00021,753.06028C298.4085,753.04751,297.82106,753.01986,297.24213,752.97942L298.15313,735.55619L298.14675,735.41998L298.16165,735.39656L298.24891,733.74917L289.748,720.602L298.27442,732.51475L298.29571,732.86381L298.98319,719.69955L291.70613,706.11388L299.07258,717.39023L299.78985,690.09542L299.79198,690.00177L299.79198,690.09329L299.67279,711.61583L306.91793,703.08301L299.643,713.46966L299.45145,725.25683L306.21768,713.94429L299.42378,726.99148L299.31736,733.54488L309.13574,717.79888L299.279,735.8308Z" transform="matrix(1 0 0 1 -5.73412 -91)" fill="rgb(63,61,86)" stroke="none" stroke-width="1"/><path id="eosIpL36Sw524" d="M779.73412,717.39338C779.73412,651.11921,829.87823,597.39338,891.73412,597.39338C953.59001,597.39338,1003.73412,651.11921,1003.73412,717.39338C1003.73412,783.66755,953.59002,764.39338,891.73412,764.39338C829.87822,764.39338,779.73412,783.66755,779.73412,717.39338Z" transform="matrix(1 0 0 1 -5.73412 -91)" fill="rgb(63,61,86)" stroke="none" stroke-width="1"/><rect id="eosIpL36Sw525" width="2" height="135.181" rx="0" ry="0" transform="matrix(1.911372 0 0 1 150.473043 547.331)" fill="rgb(63,61,86)" stroke="none" stroke-width="1"/><circle id="eosIpL36Sw526" r="19.1164" transform="matrix(1 0 0 1 152.384 547.331)" fill="rgb(63,61,86)" stroke="none" stroke-width="1"/><path id="eosIpL36Sw527" d="M158.11776,721.64576C158.11776,721.64576,155.38684,662.90963,99.40312,669.73691" transform="matrix(0.998676 -0.05143 0.051028 0.990866 -42.348084 -95.731981)" fill="rgb(63,61,86)" stroke="none" stroke-width="1"/><path id="eosIpL36Sw528" d="M714.7479,660.57405C715.2469,662.33852,715.80361,664.09133,716.3989,665.83172C713.7289,663.20732,711.10934,660.51166,708.43937,657.90328C709.51037,658.23706,710.57824,658.57034,711.58786,658.96594C712.688787,659.402843,713.74669,659.941198,714.7479,660.57405ZM701.81578,651.80922C686.08058,638.12744,667.84836,627.53506,651.72313,614.27062C660.52865,618.60269,669.0938,623.65055,677.59056,628.49114Q692.70801,637.10354,708.18471,645.04623C706.503845,647.679401,704.343426,649.97349,701.81578,651.80922ZM708.54641,617.35772Q708.92241,616.97372,709.29974,616.58514C709.30697,618.52895,709.32168,620.34637,709.34497,621.99644Q707.23024,621.29485,705.12729,620.55749C706.332997,619.563687,707.474961,618.494984,708.54641,617.35772ZM569.94068,654.398C576.424842,647.074174,582.057742,639.038801,586.73146,630.44583C592.97818,641.35932,603.12904,649.22866,611.76357,658.36883C597.85186,656.53279,583.91858,655.0173,569.94068,654.398Z" transform="matrix(1 0 0 1 -5.73412 -91)" fill="url(#eosIpL36Sw528-fill)" stroke="none" stroke-width="1"/><path id="eosIpL36Sw529" d="M123.01087,755.57325C123.01087,772.99008,112.65825,779.07097,99.88562,779.07097C99.58977,779.07097,99.29393,779.0667,99.00021,779.06031C98.4085,779.04754,97.82106,779.01989,97.24213,778.97945C85.71464,778.16426,76.76039,771.77045,76.76039,755.57325C76.76039,738.8141,98.17651,717.66403,99.78984,716.09539L99.79197,716.09326C99.8537,716.03154,99.88562,716.00174,99.88562,716.00174C99.88562,716.00174,123.01087,738.15855,123.01087,755.57325Z" transform="matrix(0.971924 -0.111089 0.112335 0.982824 -73.022594 -57.133018)" fill="rgb(61,158,103)" stroke="none" stroke-width="1"/><path id="eosIpL36Sw530" d="M99.04278,776.40618L107.5011,764.58918L99.02149,777.70448L99.00021,779.06028C98.4085,779.04751,97.82106,779.01986,97.24213,778.97942L98.15313,761.55619L98.14675,761.41998L98.16165,761.39656L98.24891,759.74917L89.748,746.602L98.27442,758.51475L98.29571,758.86381L98.98319,745.69955L91.70613,732.11388L99.07258,743.39023L99.78985,716.09542L99.79198,716.00177L99.79198,716.09329L99.67279,737.61583L106.91793,729.08301L99.643,739.46966L99.45145,751.25683L106.21768,739.94429L99.42378,752.99148L99.31736,759.54488L109.13574,743.79888L99.279,761.8308Z" transform="matrix(0.971924 -0.111089 0.112335 0.982824 -73.022594 -57.133018)" fill="rgb(63,61,86)" stroke="none" stroke-width="1"/><circle id="eosIpL36Sw531" r="10" transform="matrix(1 0 0 1 129 516)" fill="rgb(61,158,103)" stroke="none" stroke-width="1"/><path id="eosIpL36Sw532" d="M777.72234,467.03148C777.72234,467.03148,814,459,818,491C822,523,798.73412,529.04025,798.73412,529.04025L784,533L727,518L735,495Z" transform="matrix(1 0 0 1 -5.73412 -91)" fill="rgb(47,46,65)" stroke="none" stroke-width="1"/><circle id="eosIpL36Sw533" r="49.0233" transform="matrix(1 0 0 1 758.915 328.774)" fill="rgb(47,46,65)" stroke="none" stroke-width="1"/><polygon id="eosIpL36Sw534" points="586.65,430.572 596.611,432.575 630.477,482.652 615.536,484.655 586.65,430.572" fill="rgb(47,46,65)" stroke="none" stroke-width="1"/><path id="eosIpL36Sw535" d="M351.45609,724.74808C354.141435,733.586853,357.449332,742.224367,361.35496,750.59581C372.58045,748.246623,383.624126,745.099919,394.40196,741.17964C394.73423,741.05878,388.22086,732.53977,387.53696,731.84382C384.95647,729.21803,381.61605,726.14995,378.20447,724.66557C374.76458,723.16888,370.52739,724.31118,366.84507,724.49923Q359.158,724.89181,351.45609,724.74808Z" transform="matrix(1 0 0 1 -5.73412 -91)" fill="rgb(251,190,190)" stroke="none" stroke-width="1"/><path id="eosIpL36Sw536" d="M378.263,738.12555C372.6487,736.36882,369.23686,730.71946,366.95327,725.2713C364.66968,719.82314,362.82808,713.8824,358.4967,709.88407C356.83717,709.96343,355.50033,711.31207,354.67925,712.76434C353.85817,714.21661,353.36925,715.85389,352.42033,717.22513C350.61384,719.83546,347.43872,721.09686,345.16766,723.31013C342.78673,725.63047,341.48521,728.91349,339.02066,731.14378C335.92499,733.94518,331.54898,734.64078,327.48746,735.56738C321.20553,737.002175,315.138025,739.251717,309.43905,742.25887C307.339788,743.524316,305.09477,744.530435,302.75319,745.25518C300.176426,745.750208,297.537997,745.83831,294.93395,745.51628L276.97667,744.23662C275.37867,744.030796,273.757158,744.101739,272.18324,744.44634C268.49176,745.4828,266.19975,749.60276,266.47095,753.44692C266.74215,757.29108,269.13363,760.73592,272.15373,763.10866C275.279517,765.345437,278.727982,767.092702,282.38032,768.29026C298.022816,774.195133,314.127151,778.795355,330.52845,782.04383L330.53728,785.598C341.941959,791.206092,354.480332,794.125509,367.18928,794.132C368.128978,794.202656,369.071537,794.039296,369.93265,793.65653C371.19299,792.97245,371.77648,791.5004,372.24259,790.13866C376.551065,777.539948,379.072215,764.399478,379.73245,751.10081C380.051179,747.72941,379.789683,744.328321,378.95932,741.04527C377.98132,737.81227,381.34893,739.17087,378.23271,737.90545" transform="matrix(1 0 0 1 -5.73412 -91)" fill="rgb(47,46,65)" stroke="none" stroke-width="1"/><path id="eosIpL36Sw537" d="M722.66775,670.43048C669.4279,673.61816,616.80723,658.03455,563.49882,656.36885C556.87135,656.16176,550.17174,656.1771,543.70054,657.63052C536.85498,659.16803,530.47337,662.26558,524.10754,665.22735C495.51654,678.52969,465.93872,689.54796,436.39694,700.55126L402.46155,713.191C395.68006,715.71687,388.65308,718.2818,381.43461,717.84065C378.19893,717.6429,374.2268,717.15327,372.40635,719.85027C366.88563,728.02927,369.49444,740.04574,373.1421,749.22499C374.3261,752.20448,376.32872,755.41908,379.5018,755.75804C381.73564,755.99667,383.8128,754.70356,385.98349,754.12221C392.16061,752.4679,398.31893,756.62288,404.6759,757.29927C412.52973,758.13494,419.82257,753.66118,427.23534,750.92142C439.52971,746.37742,452.97266,746.52019,465.89523,744.36809C487.56382,740.75945,507.64723,730.69809,526.42064,719.23493C533.56957,714.86974,540.80285,710.19371,549.01464,708.59723C558.45709,706.76148,568.15569,709.19385,577.41348,711.81323C599.488619,718.059583,621.220824,725.459865,642.52048,733.98356C653.73521,738.47149,664.86971,743.28417,676.53848,746.38856C701.779448,753.033718,728.47998,751.476942,752.77765,741.94343C761.29936,738.5755,770.55892,732.62179,771.0471,723.42808C771.32544,718.18608,767.26037,713.56759,764.54355,709.08489C762.80131,706.21023,761.05796,703.33389,759.16074,700.56014C749.98026,687.13858,738.8394,669.46222,722.66775,670.43048Z" transform="matrix(1 0 0 1 -5.73412 -91)" fill="rgb(47,46,65)" stroke="none" stroke-width="1"/><path id="eosIpL36Sw538" d="M722.66775,670.43048C669.4279,673.61816,616.80723,658.03455,563.49882,656.36885C556.87135,656.16176,550.17174,656.1771,543.70054,657.63052C536.85498,659.16803,530.47337,662.26558,524.10754,665.22735C495.51654,678.52969,465.93872,689.54796,436.39694,700.55126L402.46155,713.191C395.68006,715.71687,388.65308,718.2818,381.43461,717.84065C378.19893,717.6429,374.2268,717.15327,372.40635,719.85027C366.88563,728.02927,369.49444,740.04574,373.1421,749.22499C374.3261,752.20448,376.32872,755.41908,379.5018,755.75804C381.73564,755.99667,383.8128,754.70356,385.98349,754.12221C392.16061,752.4679,398.31893,756.62288,404.6759,757.29927C412.52973,758.13494,419.82257,753.66118,427.23534,750.92142C439.52971,746.37742,452.97266,746.52019,465.89523,744.36809C487.56382,740.75945,507.64723,730.69809,526.42064,719.23493C533.56957,714.86974,540.80285,710.19371,549.01464,708.59723C558.45709,706.76148,568.15569,709.19385,577.41348,711.81323C599.488619,718.059583,621.220824,725.459865,642.52048,733.98356C653.73521,738.47149,664.86971,743.28417,676.53848,746.38856C701.779448,753.033718,728.47998,751.476942,752.77765,741.94343C761.29936,738.5755,770.55892,732.62179,771.0471,723.42808C771.32544,718.18608,767.26037,713.56759,764.54355,709.08489C762.80131,706.21023,761.05796,703.33389,759.16074,700.56014C749.98026,687.13858,738.8394,669.46222,722.66775,670.43048Z" transform="matrix(1 0 0 1 -5.73412 -91)" opacity="0.1" fill="rgb(0,0,0)" stroke="none" stroke-width="1"/><path id="eosIpL36Sw539" d="M453.67323,727.3401Q466.17414,731.60645,478.89354,735.18478C483.64039,727.39128,492.52026,721.96804,494.54415,713.05856C494.669602,712.670823,494.670103,712.253477,494.54558,711.86544C494.329086,711.484248,493.993868,711.184316,493.59104,711.01138C487.517093,707.646059,480.772402,705.669656,473.84275,705.22452C468.37039,704.87864,465.87307,710.5924,463.39203,714.60823C462.38764,716.23394,455.90312,728.10113,453.67323,727.3401Z" transform="matrix(1 0 0 1 -5.73412 -91)" fill="rgb(251,190,190)" stroke="none" stroke-width="1"/><path id="eosIpL36Sw540" d="M465.35451,721.65112C460.43285,720.61952,455.6164,717.97422,453.10372,713.59572C451.92652,711.54436,450.67431,708.77912,448.32396,708.93398C446.14226,709.07773,445.13985,711.68062,444.64867,713.82286C442.80928,721.84511,441.00267,729.93131,437.77548,737.49752C434.54829,745.06373,429.77393,752.16722,423.04048,756.85092C419.95248,758.99892,416.50925,760.60344,413.49069,762.84902C410.77834,764.8668,408.41369,767.39735,405.41792,768.95802C403.412896,769.876638,401.343783,770.648376,399.22692,771.26714C396.112045,772.351779,393.136013,773.800123,390.36053,775.58214C387.920019,777.000207,385.850875,778.977199,384.32317,781.35062C382.798269,783.782976,382.610967,786.822692,383.82571,789.42386C385.126685,791.555411,387.277543,793.02843,389.73522,793.471C392.161572,793.889446,394.636011,793.95147,397.08028,793.65511C406.78741,792.93971,416.48301,792.07544,426.17816,791.21121C430.279753,790.947035,434.356221,790.380159,438.37427,789.51521C440.49818,789.00286,442.579,788.3244,444.69471,787.77883C448.321234,786.844001,452.037943,786.30272,455.78046,786.16436C456.867502,786.07214,457.962292,786.172134,459.01464,786.45976C461.26072,787.19354,462.85459,789.42818,465.17278,789.88166C466.660108,790.023984,468.16027,789.8235,469.55803,789.29561C476.54329,787.3854,483.88324,787.43695,491.11181,787.04677C494.29681,786.87484,498.02481,786.26977,499.48604,783.41887C501.30825,779.86369,498.28664,775.88829,497.08262,772.07636C496.481933,769.640337,496.147044,767.146384,496.08382,764.63819C495.52845,758.440007,493.708858,752.421372,490.73732,746.95366C488.26632,742.41623,484.89261,737.39948,486.62904,732.52985C487.21824,730.87749,488.38995,729.33901,488.2735,727.58737C487.76168,719.895,469.81727,722.58653,465.35451,721.65112Z" transform="matrix(1 0 0 1 -5.73412 -91)" fill="rgb(47,46,65)" stroke="none" stroke-width="1"/><path id="eosIpL36Sw541" d="M642.82845,585.01706C633.393896,580.859902,625.83564,573.352497,621.61489,563.94622C620.72577,561.92476,619.99516,559.81392,619.13898,557.77322C616.347171,550.994147,612.004919,544.96402,606.46078,540.16688C605.07453,538.991,603.44817,537.86864,601.7545,538.17632C600.12932,538.47156,598.8505,540.07953,598.2929,541.88314C597.816293,543.73996,597.697076,545.670467,597.9416,547.57182C598.415385,552.053581,599.186078,556.498959,600.2486,560.87865L602.8286,572.63489C603.148025,574.44308,603.687361,576.205425,604.4346,577.88269C605.547766,579.86116,607.015942,581.617594,608.7656,583.06403Q612.30086,586.32047,615.95093,589.40258C619.33066,592.646186,623.73816,594.60596,628.41044,594.94264C638.98313,596.90332,649.7363,599.72747,658.65796,606.62715C658.55896,606.55061,658.62009,598.74184,658.46567,597.84675C658.05753,595.48099,657.73948,593.13803,656.19973,591.53852C652.74081,587.94537,647.04153,586.8897,642.82845,585.01706Z" transform="matrix(1 0 0 1 -5.73412 -91)" fill="rgb(251,190,190)" stroke="none" stroke-width="1"/><path id="eosIpL36Sw542" d="M642.82845,585.01706C633.393896,580.859902,625.83564,573.352497,621.61489,563.94622C620.72577,561.92476,619.99516,559.81392,619.13898,557.77322C616.347171,550.994147,612.004919,544.96402,606.46078,540.16688C605.07453,538.991,603.44817,537.86864,601.7545,538.17632C600.12932,538.47156,598.8505,540.07953,598.2929,541.88314C597.816293,543.73996,597.697076,545.670467,597.9416,547.57182C598.415385,552.053581,599.186078,556.498959,600.2486,560.87865L602.8286,572.63489C603.148025,574.44308,603.687361,576.205425,604.4346,577.88269C605.547766,579.86116,607.015942,581.617594,608.7656,583.06403Q612.30086,586.32047,615.95093,589.40258C619.33066,592.646186,623.73816,594.60596,628.41044,594.94264C638.98313,596.90332,649.7363,599.72747,658.65796,606.62715C658.55896,606.55061,658.62009,598.74184,658.46567,597.84675C658.05753,595.48099,657.73948,593.13803,656.19973,591.53852C652.74081,587.94537,647.04153,586.8897,642.82845,585.01706Z" transform="matrix(1 0 0 1 -5.73412 -91)" opacity="0.1" fill="rgb(0,0,0)" stroke="none" stroke-width="1"/><ellipse id="eosIpL36Sw543" rx="12.9487" ry="13.0201" transform="matrix(1 0 0 1 745.521 391.011)" fill="rgb(47,46,65)" stroke="none" stroke-width="1"/><path id="eosIpL36Sw544" d="M743.23959,474.14469C739.72459,473.75486,735.82043,473.46564,733.00405,475.61603C731.509693,476.937512,730.315497,478.56354,729.50171,480.38485C726.79446,485.46794,724.12495,490.64732,722.76237,496.2483C721.60631,501.00037,721.41453,505.96954,719.9831,510.6452C717.32775,519.31866,710.52496,526.63947,709.74748,535.68085C709.39956,539.72675,710.07686,544.46373,707.1252,547.23557C706.396231,547.848593,705.618018,548.400545,704.79845,548.88583C702.751537,550.256919,701.015192,552.042372,699.70171,554.12672C698.59663,555.8824,697.74571,557.89925,696.08235,559.13204C693.44913,561.08364,689.07741,560.88504,687.77928,563.90416C686.44538,567.00653,689.83037,570.45962,689.04621,573.74625C688.4075,576.42325,685.4234,577.64993,683.36821,579.46889C680.73529,581.79925,679.53149,585.31497,678.4337,588.66475C669.668129,590.323728,660.615442,588.066214,653.65524,582.48562C657.27024,591.38848,657.34795,601.21374,657.50503,610.82877C657.55603,613.94796,657.45875,617.44847,655.23193,619.62067C665.54074,619.84142,675.59503,622.63422,685.65519,624.90783C690.05198,625.90151,694.82519,626.76439,698.92513,624.88362C701.225636,623.651784,703.284503,622.014208,705.00241,620.04989C710.47503,614.50008,716.21641,608.44566,717.55535,600.74707C718.30558,596.43353,717.579,592.00648,717.77758,587.63207C718.02358,582.21198,719.68095,576.97417,721.09979,571.73936C724.003067,561.024471,725.949169,550.072946,726.91517,539.0138C727.51095,532.18934,733.4054,526.69673,736.50831,520.59774C742.36611,509.08382,748.3524,497.09206,748.79376,484.16664C748.94141,479.8442,747.5149,474.61884,743.23959,474.14469Z" transform="matrix(1 0 0 1 -5.73412 -91)" fill="rgb(47,46,65)" stroke="none" stroke-width="1"/><path id="eosIpL36Sw545" d="M743.23959,474.14469C739.72459,473.75486,735.82043,473.46564,733.00405,475.61603C731.509693,476.937512,730.315497,478.56354,729.50171,480.38485C726.79446,485.46794,724.12495,490.64732,722.76237,496.2483C721.60631,501.00037,721.41453,505.96954,719.9831,510.6452C717.32775,519.31866,710.52496,526.63947,709.74748,535.68085C709.39956,539.72675,710.07686,544.46373,707.1252,547.23557C706.396231,547.848593,705.618018,548.400545,704.79845,548.88583C702.751537,550.256919,701.015192,552.042372,699.70171,554.12672C698.59663,555.8824,697.74571,557.89925,696.08235,559.13204C693.44913,561.08364,689.07741,560.88504,687.77928,563.90416C686.44538,567.00653,689.83037,570.45962,689.04621,573.74625C688.4075,576.42325,685.4234,577.64993,683.36821,579.46889C680.73529,581.79925,679.53149,585.31497,678.4337,588.66475C669.668129,590.323728,660.615442,588.066214,653.65524,582.48562C657.27024,591.38848,657.34795,601.21374,657.50503,610.82877C657.55603,613.94796,657.45875,617.44847,655.23193,619.62067C665.54074,619.84142,675.59503,622.63422,685.65519,624.90783C690.05198,625.90151,694.82519,626.76439,698.92513,624.88362C701.225636,623.651784,703.284503,622.014208,705.00241,620.04989C710.47503,614.50008,716.21641,608.44566,717.55535,600.74707C718.30558,596.43353,717.579,592.00648,717.77758,587.63207C718.02358,582.21198,719.68095,576.97417,721.09979,571.73936C724.003067,561.024471,725.949169,550.072946,726.91517,539.0138C727.51095,532.18934,733.4054,526.69673,736.50831,520.59774C742.36611,509.08382,748.3524,497.09206,748.79376,484.16664C748.94141,479.8442,747.5149,474.61884,743.23959,474.14469Z" transform="matrix(1 0 0 1 -5.73412 -91)" opacity="0.1" fill="rgb(0,0,0)" stroke="none" stroke-width="1"/><path id="eosIpL36Sw546" d="M731.11207,681.643C720.02367,676.36757,711.91053,666.53032,702.945,658.11173C685.82947,642.04033,664.89894,630.66309,646.90332,615.59502C634.97466,605.60693,624.30642,593.9766,611.1985,585.61533C599.653654,578.264183,586.567018,573.678663,572.95878,572.21624C571.399659,571.949412,569.800902,572.029305,568.27615,572.45024C566.55678,573.2103,565.058893,574.395044,563.92326,575.89313C558.116143,582.446015,552.954605,589.543735,548.51034,597.0877C525.70054,635.80884,493.30134,668.36629,466.45817,704.37798C464.680936,706.133594,464.541698,708.956871,466.13756,710.87884L471.59793,721.57877C474.65334,727.56601,479.54848,734.54033,486.13562,733.3505C489.14569,732.80679,491.54433,730.59202,493.76082,728.47326L518.27365,705.04126L543.97377,680.47426C559.03193,666.08003,574.34769,651.35135,584.1639,632.9387C591.8359,646.2446,605.44697,654.95319,614.78601,667.13411C618.3382,671.76724,621.23971,676.86223,624.41081,681.76697C629.49415,689.62936,635.27452,697.00845,641.04591,704.37497L670.52608,742.00324C674.54644,747.1348,678.67836,752.36896,684.17608,755.8497C691.15817,760.2702,699.64973,761.43489,707.86808,762.17086C718.942523,763.162468,730.061865,763.564416,741.179,763.375C749.65476,763.23048,758.39623,762.67416,766.00176,758.90984C773.60729,755.14552,779.85521,747.41828,779.45982,738.90384C779.2542,734.47601,777.32934,730.32316,775.21063,726.43601C764.67979,707.11536,750.91824,691.066,731.11207,681.643Z" transform="matrix(1 0 0 1 -5.73412 -91)" fill="rgb(47,46,65)" stroke="none" stroke-width="1"/><ellipse id="eosIpL36Sw547" rx="9.96054" ry="10.0154" transform="matrix(1 0 0 1 753.489 400.025)" fill="rgb(47,46,65)" stroke="none" stroke-width="1"/><path id="eosIpL36Sw548" d="M757.02135,483.49936C759.44902,487.78699,759.45078,493.12354,758.11472,497.87092C756.77866,502.6183,754.22743,506.91258,751.70378,511.1438C749.22,515.30819,746.70778,519.51048,743.37585,523.02542C758.74995,523.76125,773.65474,517.73059,787.22258,510.42335C798.1378,504.54474,809.02996,497.28776,814.85545,486.30115C811.44854,487.32466,807.69391,486.31453,804.67845,484.42003C801.749786,482.378705,799.124467,479.933533,796.88045,477.15712L789.16173,468.47412C787.348893,466.583174,785.756336,464.492752,784.41458,462.24292C782.743606,459.164733,782.033797,455.656296,782.37681,452.17065C779.310371,455.380088,775.883072,458.224153,772.16321,460.64617C766.65021,464.23417,760.57304,466.83701,755.04848,470.40387C753.08891,471.66903,748.73307,473.70349,749.85433,476.26377C750.94777,478.76057,755.46793,480.75581,757.02135,483.49936Z" transform="matrix(1 0 0 1 -5.73412 -91)" fill="rgb(251,190,190)" stroke="none" stroke-width="1"/><path id="eosIpL36Sw549" d="M757.02135,483.49936C759.44902,487.78699,759.45078,493.12354,758.11472,497.87092C756.77866,502.6183,754.22743,506.91258,751.70378,511.1438C749.22,515.30819,746.70778,519.51048,743.37585,523.02542C758.74995,523.76125,773.65474,517.73059,787.22258,510.42335C798.1378,504.54474,809.02996,497.28776,814.85545,486.30115C811.44854,487.32466,807.69391,486.31453,804.67845,484.42003C801.749786,482.378705,799.124467,479.933533,796.88045,477.15712L789.16173,468.47412C787.348893,466.583174,785.756336,464.492752,784.41458,462.24292C782.743606,459.164733,782.033797,455.656296,782.37681,452.17065C779.310371,455.380088,775.883072,458.224153,772.16321,460.64617C766.65021,464.23417,760.57304,466.83701,755.04848,470.40387C753.08891,471.66903,748.73307,473.70349,749.85433,476.26377C750.94777,478.76057,755.46793,480.75581,757.02135,483.49936Z" transform="matrix(1 0 0 1 -5.73412 -91)" opacity="0.1" fill="rgb(0,0,0)" stroke="none" stroke-width="1"/><path id="eosIpL36Sw550" d="M757.2313,485.01549C754.34189,489.87441,753.7223,495.61136,757.2313,500.03865C757.66792,500.58952,759.29058,504.00908,759.99043,504.04074C760.668604,503.984627,761.298135,503.666164,761.74514,503.15308C765.47872,499.73977,768.21431,495.38664,771.49456,491.53108C774.77481,487.67552,778.91241,484.16163,783.89903,483.385C789.91776,482.44763,795.72916,485.63692,800.99526,488.71359C803.18398,489.99232,805.45366,491.34683,806.83185,493.48183C807.94097,495.48641,808.595298,497.710534,808.7484,499.99637C810.56753,513.70237,810.5274,527.58066,810.48417,541.40807C810.45291,551.40324,810.41517,561.46884,808.52468,571.28163C807.54756,576.35353,806.07961,581.33171,805.38559,586.45054C804.875754,590.968334,804.669078,595.515203,804.76695,600.06062L804.7523,619.09C804.625241,622.584666,804.872651,626.082893,805.4903,629.52489C806.3942,633.6948,808.36698,637.5442,809.68607,641.60067C811.045818,646.263383,811.976332,651.040672,812.46599,655.87286L815.07043,675.57802C815.89064,681.7837,816.49668,688.57257,812.74425,693.56802C811.04768,695.82658,808.81847,697.63452,807.09816,699.87485C800.65642,708.26385,802.7235,720.23349,800.03571,730.48168C797.915122,737.987031,793.557071,744.66765,787.54259,749.63285C782.93946,753.54378,776.99379,756.62114,771.06759,755.52085C763.06642,754.03526,758.26059,745.69269,756.07943,737.81085C753.89827,729.92901,753.10292,721.34947,748.37643,714.69016C744.51743,709.25309,738.53804,705.83306,733.13161,701.9516C727.72518,698.07014,722.44236,693.0666,721.26538,686.49252C720.75132,683.62119,721.07127,680.66395,720.76638,677.76261C719.890183,670.275212,715.004571,663.859779,708.0196,661.02446C703.92397,659.43158,698.8656,658.86267,696.55951,655.10502C702.51461,651.74929,706.46761,645.54738,708.55013,639.01046C710.63265,632.47354,711.05723,625.53746,711.46664,618.68574L712.83486,595.78781C713.44632,585.55472,713.72349,575.41281,718.23011,566.21714C720.24473,562.10637,722.75151,558.25814,724.84852,554.18921C727.622641,548.480184,729.991569,542.583015,731.93775,536.5414C735.20468,527.15898,738.47249,517.77386,741.3846,508.27405C742.77222,503.74736,744.1056,499.13417,746.57892,495.10269C749.05224,491.07121,752.60065,485.88593,757.2313,485.01549Z" transform="matrix(1 0 0 1 -5.73412 -91)" fill="rgb(177,136,233)" stroke="none" stroke-width="1"/><path id="eosIpL36Sw551" d="M706.38375,633.77686L712.4405,633.99539L713.73103,624.83847C713.900655,623.006633,714.332741,621.208693,715.01403,619.49982C716.012742,617.693112,717.178908,615.98418,718.49717,614.39553C724.4611,605.97071,724.02646,594.78423,725.50373,584.55033C727.47402,570.90086,733.17573,558.12214,738.81617,545.54967L750.57765,519.3333C752.923743,514.882768,754.046109,509.88912,753.83004,504.86272C753.93418,500.80987,755.13504,486.06372,755.23917,482.01085C755.27771,480.51112,751.93248,481.3444,751.25496,480.00776C749.7796,477.09717,747.76182,484.99057,745.00696,486.72237C742.2521,488.45417,740.73172,491.59119,739.56203,494.63898C737.02748,501.24307,735.47764,508.18826,733.11603,514.85684C730.75442,521.52542,727.45003,528.07701,722.13603,532.72008C719.72133,534.82992,716.93903,536.50326,714.65827,538.75872C707.34073,545.99496,706.62802,557.42216,706.37061,567.73886C706.2176,573.872,705.03242,633.77686,706.38375,633.77686Z" transform="matrix(1 0 0 1 -5.73412 -91)" fill="rgb(47,46,65)" stroke="none" stroke-width="1"/><path id="eosIpL36Sw552" d="M793.61237,474.08273C787.72737,476.39662,784.50037,482.77883,782.84643,488.91108C781.19249,495.04333,780.51888,501.57908,777.35786,507.08075C769.96869,519.94128,751.12861,523.68911,745.91544,537.58583C744.2096,542.13307,744.28331,547.12209,743.82391,551.96007C742.87835,561.91773,739.60433,571.53786,738.63651,581.49336C737.88675,589.20583,738.53405,596.97871,739.18146,604.70055L745.76602,683.23583C746.71713,694.57983,746.69272,706.76578,743.79366,717.77047C750.46036,719.07089,757.39185,717.3304,763.57673,714.51047C769.76161,711.69054,775.40673,707.81935,781.3605,704.53481C791.59734,698.88742,802.88645,694.88597,811.85104,687.3632C813.473547,686.099446,814.863683,684.562901,815.9592,682.82237C817.75528,679.71724,817.90267,675.96098,818.75728,672.47314C819.532623,669.69067,820.51929,666.971463,821.70868,664.33923C824.989832,656.42493,827.848996,648.342206,830.27413,640.1251C831.940058,634.67217,833.255786,629.118344,834.21327,623.49758C834.93182,619.02111,835.31994,614.49858,835.70746,609.98094C836.184936,602.907972,837.590338,595.928487,839.88753,589.22194C845.614751,573.228545,848.857831,556.452089,849.5039,539.47645C849.698118,537.024332,849.531412,534.556986,849.00911,532.15328C848.22882,529.17218,846.46933,526.56628,845.02574,523.84678C842.28962,518.69235,840.64643,513.01978,838.06393,507.78578C832.2282,495.9585,821.92286,486.99128,811.12733,479.47563C805.82561,475.78475,799.618,471.72142,793.61237,474.08273Z" transform="matrix(1 0 0 1 -5.73412 -91)" fill="rgb(47,46,65)" stroke="none" stroke-width="1"/><path id="eosIpL36Sw553" d="M655.94787,602.20235C651.3912,599.5488,646.83587,596.69126,643.4063,592.67351C641.76319,590.7486,640.40696,588.58824,638.73651,586.68727C634.67313,582.06314,628.91514,579.19575,622.96217,577.69691C617.0092,576.19807,610.81851,575.97048,604.68196,575.91891C600.57679,575.8844,596.37047,575.94303,592.52717,577.39412C588.68387,578.84521,585.21796,581.97402,584.47507,586.03382C583.58123,590.91856,586.77269,595.67851,590.60507,598.81208C594.169859,601.722146,598.36544,603.75879,602.85707,604.75952C606.521286,605.401318,610.218987,605.834556,613.93232,606.05714C635.7364,608.3403,655.1877,620.20763,674.2947,631.0138Q699.46583,645.24959,725.6157,657.63254C726.307238,652.411422,726.594818,647.144722,726.47588,641.87935C726.38688,637.94706,726.19325,631.95268,722.47879,629.64397C718.15097,626.95403,711.0261,626.33597,706.14397,624.73577C694.909692,621.05296,683.937391,616.614459,673.3022,611.45066Q664.4567,607.15572,655.94787,602.20235Z" transform="matrix(1 0 0 1 -5.73412 -91)" fill="rgb(251,190,190)" stroke="none" stroke-width="1"/><ellipse id="eosIpL36Sw554" rx="38.8461" ry="39.0602" transform="matrix(1 0 0 1 745.521 348.946)" fill="rgb(251,190,190)" stroke="none" stroke-width="1"/><path id="eosIpL36Sw555" d="M804.718,518.36775C801.24838,522.41349,799.5115,527.62417,797.18025,532.42464C792.38325,542.30245,784.86037,550.78051,781.09277,561.09964C777.11805,571.98604,777.25125,584.93509,769.46002,593.48564C768.10531,594.97238,766.47017,596.40725,766.07839,598.38481C765.84585,599.55858,766.08722,600.81498,765.68261,601.94054C764.56593,605.04691,759.48129,605.20354,758.53199,608.36573C758.25421,609.29102,758.41066,610.31596,758.06668,611.21848C757.28722,613.26365,754.58633,613.57602,752.78063,614.80093C749.01018,617.35864,749.77048,623.30578,747.07963,626.99285C744.95074,629.90991,740.9374,630.88739,737.3728,630.3927C733.8082,629.89801,730.54338,628.1917,727.2971,626.6307C726.18184,626.002618,724.947431,625.615002,723.67332,625.4928C722.168049,625.544262,720.711947,626.041488,719.48959,626.92145C712.31373,631.48381,708.94532,640.52086,708.99508,649.05753C709.04484,657.5942,711.97801,665.81922,714.98208,673.80376C715.391729,675.151365,716.064576,676.404346,716.96168,677.49019C719.34084,680.00598,723.48419,679.59952,726.64381,678.20002C729.80343,676.80052,732.67348,674.59855,736.07137,673.98308C742.08237,672.89429,747.95697,677.02473,754.05537,676.68474C758.52308,676.43566,762.47678,673.83785,766.18857,671.32519C772.11347,667.3144,778.14709,663.20258,782.50313,657.511C785.17054,654.02577,787.12445,650.05283,789.45006,646.32827C792.439974,641.757821,795.716713,637.381576,799.26055,633.22588L821.65992,605.80765C827.042381,599.948425,830.748286,592.748284,832.38864,584.963C834.51814,577.65566,836.66214,570.26462,837.03076,562.65905C837.33417,556.39877,836.42543,550.14758,835.40409,543.96459C834.39873,537.87832,833.25428,531.72424,830.58061,526.17113C825.7143,516.064,813.86633,507.70035,804.718,518.36775Z" transform="matrix(1 0 0 1 -5.73412 -91)" fill="rgb(47,46,65)" stroke="none" stroke-width="1"/><circle id="eosIpL36Sw556" r="49.0233" transform="matrix(1 0 0 1 812.024 264.226)" fill="rgb(47,46,65)" stroke="none" stroke-width="1"/><path id="eosIpL36Sw557" d="M860.04334,395.82082C847.168363,405.126346,830.582638,407.616757,815.542519,402.50279C800.502399,397.388824,788.872414,385.30446,784.33834,370.07948C786.643707,388.41289,799.061229,403.89284,816.457935,410.12046C833.854641,416.34808,853.275131,412.265405,866.691655,399.56007C880.108178,386.854735,885.241498,367.685157,879.96968,349.97537C882.206512,367.750606,874.565827,385.329881,860.04334,395.82082Z" transform="matrix(1 0 0 1 -5.73412 -91)" fill="rgb(47,46,65)" stroke="none" stroke-width="1"/><circle id="eosIpL36Sw558" r="35.9505" transform="matrix(1 0 0 1 771.988 336.944)" fill="rgb(47,46,65)" stroke="none" stroke-width="1"/><ellipse id="eosIpL36Sw559" rx="31.8652" ry="24.9202" transform="matrix(1 0 0 1 741.757 323.463)" fill="rgb(47,46,65)" stroke="none" stroke-width="1"/><ellipse id="eosIpL36Sw560" rx="5" ry="7.5" transform="matrix(0.775853 -0.630913 0.630913 0.775853 749.265457 362.499969)" fill="rgb(251,190,190)" stroke="none" stroke-width="1"/><path id="eosIpL36Sw561" d="M720.01087,771.57325C720.01087,788.99008,709.65825,795.07097,696.88562,795.07097C696.58977,795.07097,696.29393,795.0667,696.00021,795.06031C695.4085,795.04754,694.82106,795.01989,694.24213,794.97945C682.71464,794.16426,673.76039,787.77045,673.76039,771.57325C673.76039,754.8141,695.17651,733.66403,696.78984,732.09539L696.79197,732.09326C696.8537,732.03154,696.88562,732.00174,696.88562,732.00174C696.88562,732.00174,720.01087,754.15855,720.01087,771.57325Z" transform="matrix(1 0 0 1 -5.73412 -91)" fill="rgb(61,158,103)" stroke="none" stroke-width="1"/><path id="eosIpL36Sw562" d="M696.04278,792.40618L704.5011,780.58918L696.02149,793.70448L696.00021,795.06028C695.4085,795.04751,694.82106,795.01986,694.24213,794.97942L695.15313,777.55619L695.14675,777.41998L695.16165,777.39656L695.24891,775.74917L686.748,762.602L695.27442,774.51475L695.29571,774.86381L695.98319,761.69955L688.70613,748.11388L696.07258,759.39023L696.78985,732.09542L696.79198,732.00177L696.79198,732.09329L696.67279,753.61583L703.91793,745.08301L696.643,755.46966L696.45145,767.25683L703.21768,755.94429L696.42378,768.99148L696.31736,775.54488L706.13574,759.79888L696.279,777.8308Z" transform="matrix(1 0 0 1 -5.73412 -91)" fill="rgb(63,61,86)" stroke="none" stroke-width="1"/></svg>
