<svg cache-id="93d9583237ae4f2b952b154291238abb" id="eU0wyXsqC7I1" xmlns="http://www.w3.org/2000/svg" xmlns:xlink="http://www.w3.org/1999/xlink" viewBox="0 0 722.78214 670.02319" shape-rendering="geometricPrecision" text-rendering="geometricPrecision"><style><![CDATA[#eU0wyXsqC7I15_tr {animation: eU0wyXsqC7I15_tr__tr 4210.526315789474ms linear infinite normal forwards}@keyframes eU0wyXsqC7I15_tr__tr { 0% {transform: translate(627.855488px,388.5236px) rotate(0deg)} 25% {transform: translate(627.855488px,388.5236px) rotate(-71.676253deg)} 50% {transform: translate(627.855488px,388.5236px) rotate(0deg)} 75% {transform: translate(627.855488px,388.5236px) rotate(-71.676253deg)} 100% {transform: translate(627.855488px,388.5236px) rotate(0deg)}} #eU0wyXsqC7I24 {animation: eU0wyXsqC7I24_c_o 4210.526315789474ms linear infinite normal forwards}@keyframes eU0wyXsqC7I24_c_o { 0% {opacity: 1} 17.5% {opacity: 1} 25% {opacity: 0} 32.5% {opacity: 1} 50% {opacity: 1} 60% {opacity: 1} 70% {opacity: 1} 75% {opacity: 0} 82.5% {opacity: 1} 100% {opacity: 1}}]]></style><ellipse id="eU0wyXsqC7I2" rx="358" ry="24" transform="matrix(1 0 0 1 358 646.023)" fill="rgb(63,61,86)" stroke="none" stroke-width="1"/><rect id="eU0wyXsqC7I3" width="12" height="7" rx="0" ry="0" transform="matrix(1 0 0 1 352 384.023)" fill="rgb(63,61,86)" stroke="none" stroke-width="1"/><rect id="eU0wyXsqC7I4" width="12" height="7" rx="0" ry="0" transform="matrix(1 0 0 1 376 384.023)" fill="rgb(63,61,86)" stroke="none" stroke-width="1"/><rect id="eU0wyXsqC7I5" width="12" height="7" rx="0" ry="0" transform="matrix(1 0 0 1 400 384.023)" fill="rgb(63,61,86)" stroke="none" stroke-width="1"/><rect id="eU0wyXsqC7I6" width="12" height="7" rx="0" ry="0" transform="matrix(1 0 0 1 424 384.023)" fill="rgb(63,61,86)" stroke="none" stroke-width="1"/><rect id="eU0wyXsqC7I7" width="12" height="7" rx="0" ry="0" transform="matrix(1 0 0 1 448 384.023)" fill="rgb(63,61,86)" stroke="none" stroke-width="1"/><rect id="eU0wyXsqC7I8" width="12" height="7" rx="0" ry="0" transform="matrix(1 0 0 1 472 384.023)" fill="rgb(63,61,86)" stroke="none" stroke-width="1"/><rect id="eU0wyXsqC7I9" width="12" height="7" rx="0" ry="0" transform="matrix(1 0 0 1 496 384.023)" fill="rgb(63,61,86)" stroke="none" stroke-width="1"/><rect id="eU0wyXsqC7I10" width="12" height="7" rx="0" ry="0" transform="matrix(1 0 0 1 520 384.023)" fill="rgb(63,61,86)" stroke="none" stroke-width="1"/><rect id="eU0wyXsqC7I11" width="12" height="7" rx="0" ry="0" transform="matrix(1 0 0 1 544 384.023)" fill="rgb(63,61,86)" stroke="none" stroke-width="1"/><rect id="eU0wyXsqC7I12" width="12" height="7" rx="0" ry="0" transform="matrix(1 0 0 1 568 384.023)" fill="rgb(63,61,86)" stroke="none" stroke-width="1"/><rect id="eU0wyXsqC7I13" width="12" height="7" rx="0" ry="0" transform="matrix(1 0 0 1 592 384.023)" fill="rgb(63,61,86)" stroke="none" stroke-width="1"/><path id="eU0wyXsqC7I14" d="M870.10893,503.5116C870.10893,583.040604,805.637934,647.5116,726.10893,647.5116C646.579926,647.5116,582.10893,583.040604,582.10893,503.5116Z" transform="matrix(1 0 0 1 -238.609 -114.988)" fill="rgb(63,61,86)" stroke="none" stroke-width="1"/><g id="eU0wyXsqC7I15_tr" transform="translate(627.855488,388.5236) rotate(0)"><g id="eU0wyXsqC7I15" transform="translate(-627.855488,-388.523577)"><path id="eU0wyXsqC7I16" d="M863.14891,504.43158L771.54891,231.39158C807.755558,219.217887,847.316791,221.939262,881.515456,238.956061C915.714121,255.972861,941.743782,285.88864,953.86891,322.11158C954.83891,325.00158,955.71891,327.91158,956.49891,330.82158C976.068022,404.257899,935.201599,480.260253,863.14891,504.43158Z" transform="matrix(1 0 0 1 -238.609 -114.988)" fill="rgb(63,61,86)" stroke="none" stroke-width="1"/><path id="eU0wyXsqC7I17" d="M775.21,226.294C773.783987,226.294665,772.442658,226.971086,771.594357,228.117341C770.746055,229.263595,770.49116,230.744047,770.90727,232.108L774.70121,244.54208C775.428396,246.917029,777.942092,248.253882,780.317785,247.529131C782.693478,246.804379,784.032907,244.292055,783.31059,241.91562L779.51664,229.48154C778.93624,227.589,777.189537,226.296186,775.21,226.294Z" transform="matrix(1 0 0 1 -238.609 -114.988)" fill="rgb(61,158,103)" stroke="none" stroke-width="1"/></g></g><circle id="eU0wyXsqC7I18" r="18" transform="matrix(1 0 0 1 628 393.023)" fill="rgb(63,61,86)" stroke="none" stroke-width="1"/><path id="eU0wyXsqC7I19" d="M683.60938,541.01172C680.847956,541.01172,678.60938,543.250296,678.60938,546.01172C678.60938,548.773144,680.847956,551.01172,683.60938,551.01172L769.60938,551.01172C772.370804,551.01172,774.60938,548.773144,774.60938,546.01172C774.60938,543.250296,772.370804,541.01172,769.60938,541.01172Z" transform="matrix(1 0 0 1 -238.609 -114.988)" fill="rgb(61,158,103)" stroke="none" stroke-width="1"/><polygon id="eU0wyXsqC7I20" points="607,649.023 589.094,649.685 524.584,510.95 540.906,503.361 607,649.023" fill="rgb(63,61,86)" stroke="none" stroke-width="1"/><polygon id="eU0wyXsqC7I21" points="368,649.023 385.906,649.685 450.416,510.95 434.094,503.361 368,649.023" fill="rgb(63,61,86)" stroke="none" stroke-width="1"/><rect id="eU0wyXsqC7I22" width="148" height="10" rx="0" ry="0" transform="matrix(1 0 0 1 414 569.023)" fill="rgb(63,61,86)" stroke="none" stroke-width="1"/><path id="eU0wyXsqC7I23" d="M576.10889,506.01172C573.623609,506.01172,571.608891,508.026439,571.608891,510.51172C571.608891,512.997001,573.623609,515.01172,576.10889,515.01172L589.10889,515.01172C591.594171,515.01172,593.60889,512.997001,593.60889,510.51172C593.60889,508.026439,591.594171,506.01172,589.10889,506.01172Z" transform="matrix(1 0 0 1 -238.609 -114.988)" fill="rgb(61,158,103)" stroke="none" stroke-width="1"/><g id="eU0wyXsqC7I24"><path id="eU0wyXsqC7I25" d="M683.60893,473.0116L629.60893,473.0116C629.26893,473.0116,628.93893,473.0216,628.60893,473.0516C621.289927,473.574043,615.616778,479.660026,615.608894,486.997648C615.60101,494.335269,621.261067,500.43343,628.57893,500.9716C628.91893,501.0016,629.25898,501.0116,629.60893,501.0116L683.60893,501.0116C691.340916,501.0116,697.60893,494.743586,697.60893,487.0116C697.60893,479.279614,691.340916,473.0116,683.60893,473.0116Z" transform="matrix(1 0 0 1 -238.609 -114.988)" fill="rgb(255,101,132)" stroke="none" stroke-width="1"/><path id="eU0wyXsqC7I26" d="M624.16893,499.9016C633.36893,498.7216,640.60893,487.1116,640.60893,473.0116L638.60893,473.0116C638.60893,486.8016,631.42893,498.0116,622.60893,498.0116L622.60893,499.1316Z" transform="matrix(1 0 0 1 -238.609 -114.988)" opacity="0.2" fill="rgb(0,0,0)" stroke="none" stroke-width="1"/><path id="eU0wyXsqC7I27" d="M643.60893,500.0116L643.60893,498.0116C652.4312,498.0116,659.60893,486.79675,659.60893,473.0116L661.60893,473.0116C661.60893,487.89929,653.53422,500.0116,643.60893,500.0116Z" transform="matrix(1 0 0 1 -238.609 -114.988)" opacity="0.2" fill="rgb(0,0,0)" stroke="none" stroke-width="1"/><path id="eU0wyXsqC7I28" d="M664.60893,500.0116L664.60893,498.0116C673.4312,498.0116,680.60893,486.79675,680.60893,473.0116L682.60893,473.0116C682.60893,487.89929,674.53422,500.0116,664.60893,500.0116Z" transform="matrix(1 0 0 1 -238.609 -114.988)" opacity="0.2" fill="rgb(0,0,0)" stroke="none" stroke-width="1"/><path id="eU0wyXsqC7I29" d="M781.60893,473.0116L727.60893,473.0116C727.26893,473.0116,726.93893,473.0216,726.60893,473.0516C719.289927,473.574043,713.616778,479.660026,713.608894,486.997648C713.60101,494.335269,719.261067,500.43343,726.57893,500.9716C726.91893,501.0016,727.25898,501.0116,727.60893,501.0116L781.60893,501.0116C789.340916,501.0116,795.60893,494.743586,795.60893,487.0116C795.60893,479.279614,789.340916,473.0116,781.60893,473.0116Z" transform="matrix(1 0 0 1 -238.609 -114.988)" fill="rgb(255,101,132)" stroke="none" stroke-width="1"/><path id="eU0wyXsqC7I30" d="M722.16893,499.9016C731.36893,498.7216,738.60893,487.1116,738.60893,473.0116L736.60893,473.0116C736.60893,486.8016,729.42893,498.0116,720.60893,498.0116L720.60893,499.1316Z" transform="matrix(1 0 0 1 -238.609 -114.988)" opacity="0.2" fill="rgb(0,0,0)" stroke="none" stroke-width="1"/><path id="eU0wyXsqC7I31" d="M741.60893,500.0116L741.60893,498.0116C750.4312,498.0116,757.60893,486.79675,757.60893,473.0116L759.60893,473.0116C759.60893,487.89929,751.53422,500.0116,741.60893,500.0116Z" transform="matrix(1 0 0 1 -238.609 -114.988)" opacity="0.2" fill="rgb(0,0,0)" stroke="none" stroke-width="1"/><path id="eU0wyXsqC7I32" d="M762.60893,500.0116L762.60893,498.0116C771.4312,498.0116,778.60893,486.79675,778.60893,473.0116L780.60893,473.0116C780.60893,487.89929,772.53422,500.0116,762.60893,500.0116Z" transform="matrix(1 0 0 1 -238.609 -114.988)" opacity="0.2" fill="rgb(0,0,0)" stroke="none" stroke-width="1"/><path id="eU0wyXsqC7I33" d="M679.657,338.56817C672.58,334.74483,663.83059,338.91461,660.304,345.68226C656.01437,353.91418,659.56991,363.81061,664.572,370.84666C669.76991,378.1581,676.82463,384.19308,680.29443,392.64228C687.14875,409.062013,681.139876,428.030853,666.08166,437.50922C662.82694,439.56809,665.83395,444.76239,669.10997,442.69004C683.739088,433.551172,691.378801,416.464876,688.43526,399.46883C687.705028,395.159681,686.312384,390.98948,684.30676,387.10625C682.13223,383.1431,679.512721,379.440932,676.49903,376.07154C671.29364,369.91101,664.74088,363.11954,664.41426,354.54834C664.354513,353.436477,664.432058,352.321489,664.64514,351.2286C664.80109,350.465119,665.033087,349.719169,665.33766,349.00191C666.065282,347.461909,667.145005,346.114693,668.48957,345.06914C669.736208,344.074847,671.211083,343.40707,672.78075,343.12623C674.096925,342.93098,675.441262,343.148553,676.62866,343.74899C680.02615,345.58447,683.05906,340.40613,679.65698,338.56817Z" transform="matrix(1 0 0 1 -238.609 -114.988)" fill="rgb(230,230,230)" stroke="none" stroke-width="1"/><path id="eU0wyXsqC7I34" d="M769.94036,374.86206C763.800502,372.888863,757.072989,374.452436,752.43264,378.93111C750.044431,381.38699,748.985761,384.843082,749.58873,388.21522C750.16058,391.85112,752.45626,395.08047,754.94673,397.68295C759.81973,402.77513,766.64003,406.06765,770.72573,411.91384C772.537778,414.404809,773.674768,417.322097,774.02625,420.38231C774.236396,423.131868,773.732203,425.88906,772.5626,428.38631C769.51428,434.58218,763.46335,438.79631,757.08169,441.50918C755.59026,442.14318,755.26149,444.34185,756.00543,445.61375C756.868875,447.008076,758.673478,447.481257,760.11,446.69C771.85358,441.6977,782.71925,430.51566,779.48011,416.77778C777.77621,409.55116,772.5539,404.45093,766.93005,400.01712C764.137068,397.969452,761.499148,395.718281,759.03782,393.28198C757.09323,391.21648,755.07295,388.39638,755.43008,385.59724C755.573198,384.623874,756.049539,383.730296,756.77787,383.06889C757.661134,382.261444,758.663734,381.595164,759.75026,381.09358C762.440992,379.803949,765.535596,379.643409,768.34533,380.64769C769.940971,381.072111,771.5825,380.140079,772.03569,378.55237C772.441365,376.959199,771.516354,375.330037,769.94037,374.86202Z" transform="matrix(1 0 0 1 -238.609 -114.988)" fill="rgb(230,230,230)" stroke="none" stroke-width="1"/><path id="eU0wyXsqC7I35" d="M724.26416,289.5127C722.476281,287.985421,720.219359,287.116354,717.86889,287.05009C715.639612,287.0919,713.472576,287.792566,711.64081,289.06381C707.50356,292.069241,704.576714,296.454408,703.38838,301.42807C700.35648,313.04146,704.31138,325.55879,709.80609,335.78672C712.5839,340.95737,715.8193,345.86515,718.61567,351.0253C721.311638,355.960735,723.381501,361.213159,724.77733,366.66095C727.624012,377.83143,727.878117,389.505019,725.52021,400.78879C723.11887,412.02016,718.06776,423.14116,709.47451,430.89027C708.302935,432.061843,708.302932,433.96134,709.474505,435.132915C710.646078,436.30449,712.545575,436.304493,713.71715,435.13292C721.34435,428.25492,726.44487,418.82031,729.52415,409.11869C732.921276,398.161363,733.914842,386.600175,732.43706,375.2239C731.769013,369.558752,730.479111,363.984402,728.59068,358.60165C726.544417,353.179293,723.989054,347.962989,720.95884,343.02265C715.31937,333.48779,709.31619,323.84413,708.49984,312.49102C708.09839,306.90811,708.79693,301.08856,712.25047,296.59893C712.06147,296.84461,712.40205,296.42022,712.40352,296.41845Q712.71744,296.04235,713.05493,295.68638C713.483402,295.22645,713.944023,294.797556,714.43331,294.40294C714.32916,294.48549,714.06358,294.66282,714.54703,294.32768C714.78747,294.16099,715.03271,294.00118,715.28497,293.8529C715.49012,293.73231,715.70097,293.62536,715.91092,293.51398Q716.09792,293.41852,716.29018,293.33414Q715.85236,293.52287,716.33945,293.33776C716.57424,293.2642,717.73645,293.01309,717.09145,293.09458C717.306537,293.068919,717.522851,293.054858,717.73945,293.05246C717.83128,293.05081,718.64045,293.09225,718.24517,293.04899C717.78292,292.9984,718.61074,293.13114,718.61667,293.13262C718.875677,293.195849,719.130129,293.276454,719.3783,293.37389C718.75418,293.12441,720.40201,294.051,720.02161,293.7553C721.214206,294.874968,723.071654,294.874968,724.26425,293.7553C725.29939,292.72016,725.55077,290.51271,724.26425,289.51266Z" transform="matrix(1 0 0 1 -238.609 -114.988)" fill="rgb(230,230,230)" stroke="none" stroke-width="1"/></g><polygon id="eU0wyXsqC7I36" points="255.288,625.401 232.67,631.401 191.127,439.38 237.748,435.225 255.288,625.401" fill="rgb(255,185,185)" stroke="none" stroke-width="1"/><polygon id="eU0wyXsqC7I37" points="151.804,628.352 128.666,631.848 108.331,436.439 155.126,437.398 151.804,628.352" fill="rgb(255,185,185)" stroke="none" stroke-width="1"/><path id="eU0wyXsqC7I38" d="M378.49977,465.28111L380.63629,505.16278C380.795297,508.130918,379.656673,511.021668,377.516207,513.084077C375.375742,515.146486,372.444707,516.176988,369.48452,515.90788L369.48452,515.90788C364.549749,515.459269,360.644314,511.541456,360.21132,506.60529L356.34345,462.51157L325.87845,359.11534L326.80163,292.64634L362.80568,294.4927Z" transform="matrix(1 0 0 1 -238.609 -114.988)" fill="rgb(255,185,185)" stroke="none" stroke-width="1"/><path id="eU0wyXsqC7I39" d="M397.88656,563.13826Q370.83468,553.74592,335.11028,559.44554C338.48791,519.43565,340.44404,482.28203,338.803,452.35654L461.586,452.35654Z" transform="matrix(1 0 0 1 -238.609 -114.988)" fill="rgb(47,46,65)" stroke="none" stroke-width="1"/><path id="eU0wyXsqC7I40" d="M483.74236,562.21508C465.15422,572.04808,438.26602,576.75545,407.11836,578.83233L368.34477,455.12613L463.43237,453.27977Z" transform="matrix(1 0 0 1 -238.609 -114.988)" fill="rgb(47,46,65)" stroke="none" stroke-width="1"/><path id="eU0wyXsqC7I41" d="M531.60653,760.46331L464.71658,762.94008C456.14811,763.25735,455.69621,755.89918,457.31377,747.47879L465.233,724.86631C483.06252,742.33377,484.74157,743.30995,492.38468,718.46219L515.71106,736.88614L532.97731,739.84629C537.969835,740.702223,541.616851,745.034581,541.60892,750.09994L541.60892,750.09994C541.60018,755.680511,537.183286,760.256808,531.60653,760.46331Z" transform="matrix(1 0 0 1 -238.609 -114.988)" fill="rgb(47,46,65)" stroke="none" stroke-width="1"/><path id="eU0wyXsqC7I42" d="M430.29718,760.46331L363.40723,762.94008C354.83876,763.25735,354.38686,755.89918,356.00442,747.47879L363.92365,724.86631C381.75317,742.33377,383.43222,743.30995,391.07533,718.46219L414.40171,736.88614L431.66796,739.84629C436.660485,740.702223,440.307501,745.034581,440.29957,750.09994L440.29957,750.09994C440.29083,755.680511,435.873936,760.256808,430.29718,760.46331Z" transform="matrix(1 0 0 1 -238.609 -114.988)" fill="rgb(47,46,65)" stroke="none" stroke-width="1"/><circle id="eU0wyXsqC7I43" r="36.004" transform="matrix(1 0 0 1 207.283 43.7967)" fill="rgb(255,185,185)" stroke="none" stroke-width="1"/><polygon id="eU0wyXsqC7I44" points="188.819,107.496 146.353,94.572 174.972,52.105 207.283,65.953 188.819,107.496" fill="rgb(255,185,185)" stroke="none" stroke-width="1"/><path id="eU0wyXsqC7I45" d="M467.12511,463.43475C423.47023,473.24975,375.00955,469.35575,333.26392,457.89567C343.2608,402.1503,338.43438,342.27279,328.64801,293.56952C320.98801,255.44852,341.19484,223.45993,374.80701,207.71372C382.031864,205.122821,389.547955,203.430362,397.18601,202.67446C420.76401,200.58541,441.51029,218.26462,443.96993,241.80689Z" transform="matrix(1 0 0 1 -238.609 -114.988)" fill="rgb(91,193,135)" stroke="none" stroke-width="1"/><polygon id="eU0wyXsqC7I46" points="114.965,197.045 84.5,193.352 93.732,145.347 114.965,145.347 114.965,197.045" fill="rgb(91,193,135)" stroke="none" stroke-width="1"/><path id="eU0wyXsqC7I47" d="M445.38854,164.48593L439.87278,162.03461C437.343383,160.913865,434.449374,160.960674,431.957545,162.162634C429.465716,163.364594,427.627585,165.600383,426.93018,168.27761L426.93018,168.27761L419.24342,182.16614L400.09842,179.13575L400.76717,149.73505C402.529173,138.504974,408.863809,128.506258,418.265079,122.116001C427.666349,115.725743,439.294481,113.514756,450.385,116.00868L450.90759,116.1269C460.25409,118.24124,472.38767,125.10343,478.72171,132.30697L490.52321,145.72852C491.663799,147.026399,491.988218,148.850778,491.364993,150.462306C490.741768,152.073835,489.274267,153.205226,487.55721,153.39797L471.41669,155.17897Z" transform="matrix(1 0 0 1 -238.609 -114.988)" fill="rgb(47,46,65)" stroke="none" stroke-width="1"/><path id="eU0wyXsqC7I48" d="M564.81,410.02543L544.136,428.1593C543.513106,428.704626,542.566184,428.642199,542.020272,428.019819C541.47436,427.397438,541.535894,426.450458,542.15776,425.90396L562.83176,407.77009L558.87528,403.25941L538.20128,421.39328C537.578386,421.938606,536.631464,421.876179,536.085552,421.253799C535.53964,420.631418,535.601174,419.684438,536.22304,419.13794L556.89704,401.00406L552.94056,396.49338L532.26656,414.62725C531.863762,414.98123,531.302639,415.093264,530.794793,414.921102C530.286946,414.74894,529.909631,414.318773,529.805134,413.792818C529.700638,413.266863,529.884856,412.725131,530.28832,412.37191L550.96232,394.23804L546.01671,388.59969L516.80089,414.22594C511.426427,418.942091,510.084067,426.775284,513.58159,433.01181L425.37523,510.38081L433.28823,519.40217L521.43723,442.08352C526.985442,446.463215,534.868741,446.26058,540.18462,441.60163L569.75562,415.66382Z" transform="matrix(1 0 0 1 -238.609 -114.988)" fill="rgb(230,230,230)" stroke="none" stroke-width="1"/><path id="eU0wyXsqC7I49" d="M464.35556,465.28111L466.49208,505.16278C466.65109,508.130917,465.512468,511.021667,463.372004,513.084077C461.23154,515.146486,458.300506,516.176988,455.34032,515.90788L455.34032,515.90788C450.405549,515.459269,446.500114,511.541456,446.06712,506.60529L442.19925,462.51157L411.73425,359.11534L412.65743,292.64634L448.66143,294.4927Z" transform="matrix(1 0 0 1 -238.609 -114.988)" fill="rgb(255,185,185)" stroke="none" stroke-width="1"/><path id="eU0wyXsqC7I50" d="M451.431,304.64769C440.476,294.13918,426.016,293.75332,409.88787,298.18542L409.88787,248.5717C409.88787,236.203635,419.914165,226.177336,432.28223,226.17733L432.28223,226.17733C437.804632,226.177329,443.093626,228.404634,446.952353,232.355223C450.81108,236.305812,452.913355,241.645736,452.78345,247.16661Z" transform="matrix(1 0 0 1 -238.609 -114.988)" fill="rgb(91,193,135)" stroke="none" stroke-width="1"/></svg>
